<?xml version="1.0" encoding="utf-8" standalone="no"?>
<!DOCTYPE svg PUBLIC "-//W3C//DTD SVG 1.1//EN"
  "http://www.w3.org/Graphics/SVG/1.1/DTD/svg11.dtd">
<svg xmlns:xlink="http://www.w3.org/1999/xlink" width="504pt" height="432pt" viewBox="0 0 504 432" xmlns="http://www.w3.org/2000/svg" version="1.1">
 <metadata>
  <rdf:RDF xmlns:dc="http://purl.org/dc/elements/1.1/" xmlns:cc="http://creativecommons.org/ns#" xmlns:rdf="http://www.w3.org/1999/02/22-rdf-syntax-ns#">
   <cc:Work>
    <dc:type rdf:resource="http://purl.org/dc/dcmitype/StillImage"/>
    <dc:date>2025-07-02T09:22:44.402253</dc:date>
    <dc:format>image/svg+xml</dc:format>
    <dc:creator>
     <cc:Agent>
      <dc:title>Matplotlib v3.10.1, https://matplotlib.org/</dc:title>
     </cc:Agent>
    </dc:creator>
   </cc:Work>
  </rdf:RDF>
 </metadata>
 <defs>
  <style type="text/css">*{stroke-linejoin: round; stroke-linecap: butt}</style>
 </defs>
 <g id="figure_1">
  <g id="patch_1">
   <path d="M 0 432 
L 504 432 
L 504 0 
L 0 0 
z
" style="fill: #ffffff"/>
  </g>
  <g id="axes_1">
   <g id="patch_2">
    <path d="M 79.074 361.476 
L 484.56 361.476 
L 484.56 19.44 
L 79.074 19.44 
z
" style="fill: #ffffff"/>
   </g>
   <g id="matplotlib.axis_1">
    <g id="xtick_1">
     <g id="line2d_1">
      <path d="M 93.950493 361.476 
L 93.950493 19.44 
" clip-path="url(#pcc3876fbdc)" style="fill: none; stroke: #cccccc; stroke-linecap: round"/>
     </g>
     <g id="text_1">
      <!-- 0.0 -->
      <g style="fill: #262626" transform="translate(82.482993 382.786391) scale(0.165 -0.165)">
       <defs>
        <path id="ArialMT-30" d="M 266 2259 
Q 266 3072 433 3567 
Q 600 4063 929 4331 
Q 1259 4600 1759 4600 
Q 2128 4600 2406 4451 
Q 2684 4303 2865 4023 
Q 3047 3744 3150 3342 
Q 3253 2941 3253 2259 
Q 3253 1453 3087 958 
Q 2922 463 2592 192 
Q 2263 -78 1759 -78 
Q 1097 -78 719 397 
Q 266 969 266 2259 
z
M 844 2259 
Q 844 1131 1108 757 
Q 1372 384 1759 384 
Q 2147 384 2411 759 
Q 2675 1134 2675 2259 
Q 2675 3391 2411 3762 
Q 2147 4134 1753 4134 
Q 1366 4134 1134 3806 
Q 844 3388 844 2259 
z
" transform="scale(0.015625)"/>
        <path id="ArialMT-2e" d="M 581 0 
L 581 641 
L 1222 641 
L 1222 0 
L 581 0 
z
" transform="scale(0.015625)"/>
       </defs>
       <use xlink:href="#ArialMT-30"/>
       <use xlink:href="#ArialMT-2e" transform="translate(55.615234 0)"/>
       <use xlink:href="#ArialMT-30" transform="translate(83.398438 0)"/>
      </g>
     </g>
    </g>
    <g id="xtick_2">
     <g id="line2d_2">
      <path d="M 168.386158 361.476 
L 168.386158 19.44 
" clip-path="url(#pcc3876fbdc)" style="fill: none; stroke: #cccccc; stroke-linecap: round"/>
     </g>
     <g id="text_2">
      <!-- 0.2 -->
      <g style="fill: #262626" transform="translate(156.918658 382.786391) scale(0.165 -0.165)">
       <defs>
        <path id="ArialMT-32" d="M 3222 541 
L 3222 0 
L 194 0 
Q 188 203 259 391 
Q 375 700 629 1000 
Q 884 1300 1366 1694 
Q 2113 2306 2375 2664 
Q 2638 3022 2638 3341 
Q 2638 3675 2398 3904 
Q 2159 4134 1775 4134 
Q 1369 4134 1125 3890 
Q 881 3647 878 3216 
L 300 3275 
Q 359 3922 746 4261 
Q 1134 4600 1788 4600 
Q 2447 4600 2831 4234 
Q 3216 3869 3216 3328 
Q 3216 3053 3103 2787 
Q 2991 2522 2730 2228 
Q 2469 1934 1863 1422 
Q 1356 997 1212 845 
Q 1069 694 975 541 
L 3222 541 
z
" transform="scale(0.015625)"/>
       </defs>
       <use xlink:href="#ArialMT-30"/>
       <use xlink:href="#ArialMT-2e" transform="translate(55.615234 0)"/>
       <use xlink:href="#ArialMT-32" transform="translate(83.398438 0)"/>
      </g>
     </g>
    </g>
    <g id="xtick_3">
     <g id="line2d_3">
      <path d="M 242.821823 361.476 
L 242.821823 19.44 
" clip-path="url(#pcc3876fbdc)" style="fill: none; stroke: #cccccc; stroke-linecap: round"/>
     </g>
     <g id="text_3">
      <!-- 0.4 -->
      <g style="fill: #262626" transform="translate(231.354323 382.786391) scale(0.165 -0.165)">
       <defs>
        <path id="ArialMT-34" d="M 2069 0 
L 2069 1097 
L 81 1097 
L 81 1613 
L 2172 4581 
L 2631 4581 
L 2631 1613 
L 3250 1613 
L 3250 1097 
L 2631 1097 
L 2631 0 
L 2069 0 
z
M 2069 1613 
L 2069 3678 
L 634 1613 
L 2069 1613 
z
" transform="scale(0.015625)"/>
       </defs>
       <use xlink:href="#ArialMT-30"/>
       <use xlink:href="#ArialMT-2e" transform="translate(55.615234 0)"/>
       <use xlink:href="#ArialMT-34" transform="translate(83.398438 0)"/>
      </g>
     </g>
    </g>
    <g id="xtick_4">
     <g id="line2d_4">
      <path d="M 317.257488 361.476 
L 317.257488 19.44 
" clip-path="url(#pcc3876fbdc)" style="fill: none; stroke: #cccccc; stroke-linecap: round"/>
     </g>
     <g id="text_4">
      <!-- 0.6 -->
      <g style="fill: #262626" transform="translate(305.789988 382.786391) scale(0.165 -0.165)">
       <defs>
        <path id="ArialMT-36" d="M 3184 3459 
L 2625 3416 
Q 2550 3747 2413 3897 
Q 2184 4138 1850 4138 
Q 1581 4138 1378 3988 
Q 1113 3794 959 3422 
Q 806 3050 800 2363 
Q 1003 2672 1297 2822 
Q 1591 2972 1913 2972 
Q 2475 2972 2870 2558 
Q 3266 2144 3266 1488 
Q 3266 1056 3080 686 
Q 2894 316 2569 119 
Q 2244 -78 1831 -78 
Q 1128 -78 684 439 
Q 241 956 241 2144 
Q 241 3472 731 4075 
Q 1159 4600 1884 4600 
Q 2425 4600 2770 4297 
Q 3116 3994 3184 3459 
z
M 888 1484 
Q 888 1194 1011 928 
Q 1134 663 1356 523 
Q 1578 384 1822 384 
Q 2178 384 2434 671 
Q 2691 959 2691 1453 
Q 2691 1928 2437 2201 
Q 2184 2475 1800 2475 
Q 1419 2475 1153 2201 
Q 888 1928 888 1484 
z
" transform="scale(0.015625)"/>
       </defs>
       <use xlink:href="#ArialMT-30"/>
       <use xlink:href="#ArialMT-2e" transform="translate(55.615234 0)"/>
       <use xlink:href="#ArialMT-36" transform="translate(83.398438 0)"/>
      </g>
     </g>
    </g>
    <g id="xtick_5">
     <g id="line2d_5">
      <path d="M 391.693153 361.476 
L 391.693153 19.44 
" clip-path="url(#pcc3876fbdc)" style="fill: none; stroke: #cccccc; stroke-linecap: round"/>
     </g>
     <g id="text_5">
      <!-- 0.8 -->
      <g style="fill: #262626" transform="translate(380.225653 382.786391) scale(0.165 -0.165)">
       <defs>
        <path id="ArialMT-38" d="M 1131 2484 
Q 781 2613 612 2850 
Q 444 3088 444 3419 
Q 444 3919 803 4259 
Q 1163 4600 1759 4600 
Q 2359 4600 2725 4251 
Q 3091 3903 3091 3403 
Q 3091 3084 2923 2848 
Q 2756 2613 2416 2484 
Q 2838 2347 3058 2040 
Q 3278 1734 3278 1309 
Q 3278 722 2862 322 
Q 2447 -78 1769 -78 
Q 1091 -78 675 323 
Q 259 725 259 1325 
Q 259 1772 486 2073 
Q 713 2375 1131 2484 
z
M 1019 3438 
Q 1019 3113 1228 2906 
Q 1438 2700 1772 2700 
Q 2097 2700 2305 2904 
Q 2513 3109 2513 3406 
Q 2513 3716 2298 3927 
Q 2084 4138 1766 4138 
Q 1444 4138 1231 3931 
Q 1019 3725 1019 3438 
z
M 838 1322 
Q 838 1081 952 856 
Q 1066 631 1291 507 
Q 1516 384 1775 384 
Q 2178 384 2440 643 
Q 2703 903 2703 1303 
Q 2703 1709 2433 1975 
Q 2163 2241 1756 2241 
Q 1359 2241 1098 1978 
Q 838 1716 838 1322 
z
" transform="scale(0.015625)"/>
       </defs>
       <use xlink:href="#ArialMT-30"/>
       <use xlink:href="#ArialMT-2e" transform="translate(55.615234 0)"/>
       <use xlink:href="#ArialMT-38" transform="translate(83.398438 0)"/>
      </g>
     </g>
    </g>
    <g id="xtick_6">
     <g id="line2d_6">
      <path d="M 466.128818 361.476 
L 466.128818 19.44 
" clip-path="url(#pcc3876fbdc)" style="fill: none; stroke: #cccccc; stroke-linecap: round"/>
     </g>
     <g id="text_6">
      <!-- 1.0 -->
      <g style="fill: #262626" transform="translate(454.661318 382.786391) scale(0.165 -0.165)">
       <defs>
        <path id="ArialMT-31" d="M 2384 0 
L 1822 0 
L 1822 3584 
Q 1619 3391 1289 3197 
Q 959 3003 697 2906 
L 697 3450 
Q 1169 3672 1522 3987 
Q 1875 4303 2022 4600 
L 2384 4600 
L 2384 0 
z
" transform="scale(0.015625)"/>
       </defs>
       <use xlink:href="#ArialMT-31"/>
       <use xlink:href="#ArialMT-2e" transform="translate(55.615234 0)"/>
       <use xlink:href="#ArialMT-30" transform="translate(83.398438 0)"/>
      </g>
     </g>
    </g>
    <g id="text_7">
     <!-- DOM concentration [$\mathrm{mgC \ g^{-1} soil}$] -->
     <g style="fill: #262626" transform="translate(142.497 406.265766) scale(0.18 -0.18)">
      <defs>
       <path id="ArialMT-44" d="M 494 0 
L 494 4581 
L 2072 4581 
Q 2606 4581 2888 4516 
Q 3281 4425 3559 4188 
Q 3922 3881 4101 3404 
Q 4281 2928 4281 2316 
Q 4281 1794 4159 1391 
Q 4038 988 3847 723 
Q 3656 459 3429 307 
Q 3203 156 2883 78 
Q 2563 0 2147 0 
L 494 0 
z
M 1100 541 
L 2078 541 
Q 2531 541 2789 625 
Q 3047 709 3200 863 
Q 3416 1078 3536 1442 
Q 3656 1806 3656 2325 
Q 3656 3044 3420 3430 
Q 3184 3816 2847 3947 
Q 2603 4041 2063 4041 
L 1100 4041 
L 1100 541 
z
" transform="scale(0.015625)"/>
       <path id="ArialMT-4f" d="M 309 2231 
Q 309 3372 921 4017 
Q 1534 4663 2503 4663 
Q 3138 4663 3647 4359 
Q 4156 4056 4423 3514 
Q 4691 2972 4691 2284 
Q 4691 1588 4409 1038 
Q 4128 488 3612 205 
Q 3097 -78 2500 -78 
Q 1853 -78 1343 234 
Q 834 547 571 1087 
Q 309 1628 309 2231 
z
M 934 2222 
Q 934 1394 1379 917 
Q 1825 441 2497 441 
Q 3181 441 3623 922 
Q 4066 1403 4066 2288 
Q 4066 2847 3877 3264 
Q 3688 3681 3323 3911 
Q 2959 4141 2506 4141 
Q 1863 4141 1398 3698 
Q 934 3256 934 2222 
z
" transform="scale(0.015625)"/>
       <path id="ArialMT-4d" d="M 475 0 
L 475 4581 
L 1388 4581 
L 2472 1338 
Q 2622 884 2691 659 
Q 2769 909 2934 1394 
L 4031 4581 
L 4847 4581 
L 4847 0 
L 4263 0 
L 4263 3834 
L 2931 0 
L 2384 0 
L 1059 3900 
L 1059 0 
L 475 0 
z
" transform="scale(0.015625)"/>
       <path id="ArialMT-20" transform="scale(0.015625)"/>
       <path id="ArialMT-63" d="M 2588 1216 
L 3141 1144 
Q 3050 572 2676 248 
Q 2303 -75 1759 -75 
Q 1078 -75 664 370 
Q 250 816 250 1647 
Q 250 2184 428 2587 
Q 606 2991 970 3192 
Q 1334 3394 1763 3394 
Q 2303 3394 2647 3120 
Q 2991 2847 3088 2344 
L 2541 2259 
Q 2463 2594 2264 2762 
Q 2066 2931 1784 2931 
Q 1359 2931 1093 2626 
Q 828 2322 828 1663 
Q 828 994 1084 691 
Q 1341 388 1753 388 
Q 2084 388 2306 591 
Q 2528 794 2588 1216 
z
" transform="scale(0.015625)"/>
       <path id="ArialMT-6f" d="M 213 1659 
Q 213 2581 725 3025 
Q 1153 3394 1769 3394 
Q 2453 3394 2887 2945 
Q 3322 2497 3322 1706 
Q 3322 1066 3130 698 
Q 2938 331 2570 128 
Q 2203 -75 1769 -75 
Q 1072 -75 642 372 
Q 213 819 213 1659 
z
M 791 1659 
Q 791 1022 1069 705 
Q 1347 388 1769 388 
Q 2188 388 2466 706 
Q 2744 1025 2744 1678 
Q 2744 2294 2464 2611 
Q 2184 2928 1769 2928 
Q 1347 2928 1069 2612 
Q 791 2297 791 1659 
z
" transform="scale(0.015625)"/>
       <path id="ArialMT-6e" d="M 422 0 
L 422 3319 
L 928 3319 
L 928 2847 
Q 1294 3394 1984 3394 
Q 2284 3394 2536 3286 
Q 2788 3178 2913 3003 
Q 3038 2828 3088 2588 
Q 3119 2431 3119 2041 
L 3119 0 
L 2556 0 
L 2556 2019 
Q 2556 2363 2490 2533 
Q 2425 2703 2258 2804 
Q 2091 2906 1866 2906 
Q 1506 2906 1245 2678 
Q 984 2450 984 1813 
L 984 0 
L 422 0 
z
" transform="scale(0.015625)"/>
       <path id="ArialMT-65" d="M 2694 1069 
L 3275 997 
Q 3138 488 2766 206 
Q 2394 -75 1816 -75 
Q 1088 -75 661 373 
Q 234 822 234 1631 
Q 234 2469 665 2931 
Q 1097 3394 1784 3394 
Q 2450 3394 2872 2941 
Q 3294 2488 3294 1666 
Q 3294 1616 3291 1516 
L 816 1516 
Q 847 969 1125 678 
Q 1403 388 1819 388 
Q 2128 388 2347 550 
Q 2566 713 2694 1069 
z
M 847 1978 
L 2700 1978 
Q 2663 2397 2488 2606 
Q 2219 2931 1791 2931 
Q 1403 2931 1139 2672 
Q 875 2413 847 1978 
z
" transform="scale(0.015625)"/>
       <path id="ArialMT-74" d="M 1650 503 
L 1731 6 
Q 1494 -44 1306 -44 
Q 1000 -44 831 53 
Q 663 150 594 308 
Q 525 466 525 972 
L 525 2881 
L 113 2881 
L 113 3319 
L 525 3319 
L 525 4141 
L 1084 4478 
L 1084 3319 
L 1650 3319 
L 1650 2881 
L 1084 2881 
L 1084 941 
Q 1084 700 1114 631 
Q 1144 563 1211 522 
Q 1278 481 1403 481 
Q 1497 481 1650 503 
z
" transform="scale(0.015625)"/>
       <path id="ArialMT-72" d="M 416 0 
L 416 3319 
L 922 3319 
L 922 2816 
Q 1116 3169 1280 3281 
Q 1444 3394 1641 3394 
Q 1925 3394 2219 3213 
L 2025 2691 
Q 1819 2813 1613 2813 
Q 1428 2813 1281 2702 
Q 1134 2591 1072 2394 
Q 978 2094 978 1738 
L 978 0 
L 416 0 
z
" transform="scale(0.015625)"/>
       <path id="ArialMT-61" d="M 2588 409 
Q 2275 144 1986 34 
Q 1697 -75 1366 -75 
Q 819 -75 525 192 
Q 231 459 231 875 
Q 231 1119 342 1320 
Q 453 1522 633 1644 
Q 813 1766 1038 1828 
Q 1203 1872 1538 1913 
Q 2219 1994 2541 2106 
Q 2544 2222 2544 2253 
Q 2544 2597 2384 2738 
Q 2169 2928 1744 2928 
Q 1347 2928 1158 2789 
Q 969 2650 878 2297 
L 328 2372 
Q 403 2725 575 2942 
Q 747 3159 1072 3276 
Q 1397 3394 1825 3394 
Q 2250 3394 2515 3294 
Q 2781 3194 2906 3042 
Q 3031 2891 3081 2659 
Q 3109 2516 3109 2141 
L 3109 1391 
Q 3109 606 3145 398 
Q 3181 191 3288 0 
L 2700 0 
Q 2613 175 2588 409 
z
M 2541 1666 
Q 2234 1541 1622 1453 
Q 1275 1403 1131 1340 
Q 988 1278 909 1158 
Q 831 1038 831 891 
Q 831 666 1001 516 
Q 1172 366 1500 366 
Q 1825 366 2078 508 
Q 2331 650 2450 897 
Q 2541 1088 2541 1459 
L 2541 1666 
z
" transform="scale(0.015625)"/>
       <path id="ArialMT-69" d="M 425 3934 
L 425 4581 
L 988 4581 
L 988 3934 
L 425 3934 
z
M 425 0 
L 425 3319 
L 988 3319 
L 988 0 
L 425 0 
z
" transform="scale(0.015625)"/>
       <path id="ArialMT-5b" d="M 434 -1272 
L 434 4581 
L 1675 4581 
L 1675 4116 
L 997 4116 
L 997 -806 
L 1675 -806 
L 1675 -1272 
L 434 -1272 
z
" transform="scale(0.015625)"/>
       <path id="DejaVuSans-6d" d="M 3328 2828 
Q 3544 3216 3844 3400 
Q 4144 3584 4550 3584 
Q 5097 3584 5394 3201 
Q 5691 2819 5691 2113 
L 5691 0 
L 5113 0 
L 5113 2094 
Q 5113 2597 4934 2840 
Q 4756 3084 4391 3084 
Q 3944 3084 3684 2787 
Q 3425 2491 3425 1978 
L 3425 0 
L 2847 0 
L 2847 2094 
Q 2847 2600 2669 2842 
Q 2491 3084 2119 3084 
Q 1678 3084 1418 2786 
Q 1159 2488 1159 1978 
L 1159 0 
L 581 0 
L 581 3500 
L 1159 3500 
L 1159 2956 
Q 1356 3278 1631 3431 
Q 1906 3584 2284 3584 
Q 2666 3584 2933 3390 
Q 3200 3197 3328 2828 
z
" transform="scale(0.015625)"/>
       <path id="DejaVuSans-67" d="M 2906 1791 
Q 2906 2416 2648 2759 
Q 2391 3103 1925 3103 
Q 1463 3103 1205 2759 
Q 947 2416 947 1791 
Q 947 1169 1205 825 
Q 1463 481 1925 481 
Q 2391 481 2648 825 
Q 2906 1169 2906 1791 
z
M 3481 434 
Q 3481 -459 3084 -895 
Q 2688 -1331 1869 -1331 
Q 1566 -1331 1297 -1286 
Q 1028 -1241 775 -1147 
L 775 -588 
Q 1028 -725 1275 -790 
Q 1522 -856 1778 -856 
Q 2344 -856 2625 -561 
Q 2906 -266 2906 331 
L 2906 616 
Q 2728 306 2450 153 
Q 2172 0 1784 0 
Q 1141 0 747 490 
Q 353 981 353 1791 
Q 353 2603 747 3093 
Q 1141 3584 1784 3584 
Q 2172 3584 2450 3431 
Q 2728 3278 2906 2969 
L 2906 3500 
L 3481 3500 
L 3481 434 
z
" transform="scale(0.015625)"/>
       <path id="DejaVuSans-43" d="M 4122 4306 
L 4122 3641 
Q 3803 3938 3442 4084 
Q 3081 4231 2675 4231 
Q 1875 4231 1450 3742 
Q 1025 3253 1025 2328 
Q 1025 1406 1450 917 
Q 1875 428 2675 428 
Q 3081 428 3442 575 
Q 3803 722 4122 1019 
L 4122 359 
Q 3791 134 3420 21 
Q 3050 -91 2638 -91 
Q 1578 -91 968 557 
Q 359 1206 359 2328 
Q 359 3453 968 4101 
Q 1578 4750 2638 4750 
Q 3056 4750 3426 4639 
Q 3797 4528 4122 4306 
z
" transform="scale(0.015625)"/>
       <path id="DejaVuSans-2212" d="M 678 2272 
L 4684 2272 
L 4684 1741 
L 678 1741 
L 678 2272 
z
" transform="scale(0.015625)"/>
       <path id="DejaVuSans-31" d="M 794 531 
L 1825 531 
L 1825 4091 
L 703 3866 
L 703 4441 
L 1819 4666 
L 2450 4666 
L 2450 531 
L 3481 531 
L 3481 0 
L 794 0 
L 794 531 
z
" transform="scale(0.015625)"/>
       <path id="DejaVuSans-73" d="M 2834 3397 
L 2834 2853 
Q 2591 2978 2328 3040 
Q 2066 3103 1784 3103 
Q 1356 3103 1142 2972 
Q 928 2841 928 2578 
Q 928 2378 1081 2264 
Q 1234 2150 1697 2047 
L 1894 2003 
Q 2506 1872 2764 1633 
Q 3022 1394 3022 966 
Q 3022 478 2636 193 
Q 2250 -91 1575 -91 
Q 1294 -91 989 -36 
Q 684 19 347 128 
L 347 722 
Q 666 556 975 473 
Q 1284 391 1588 391 
Q 1994 391 2212 530 
Q 2431 669 2431 922 
Q 2431 1156 2273 1281 
Q 2116 1406 1581 1522 
L 1381 1569 
Q 847 1681 609 1914 
Q 372 2147 372 2553 
Q 372 3047 722 3315 
Q 1072 3584 1716 3584 
Q 2034 3584 2315 3537 
Q 2597 3491 2834 3397 
z
" transform="scale(0.015625)"/>
       <path id="DejaVuSans-6f" d="M 1959 3097 
Q 1497 3097 1228 2736 
Q 959 2375 959 1747 
Q 959 1119 1226 758 
Q 1494 397 1959 397 
Q 2419 397 2687 759 
Q 2956 1122 2956 1747 
Q 2956 2369 2687 2733 
Q 2419 3097 1959 3097 
z
M 1959 3584 
Q 2709 3584 3137 3096 
Q 3566 2609 3566 1747 
Q 3566 888 3137 398 
Q 2709 -91 1959 -91 
Q 1206 -91 779 398 
Q 353 888 353 1747 
Q 353 2609 779 3096 
Q 1206 3584 1959 3584 
z
" transform="scale(0.015625)"/>
       <path id="DejaVuSans-69" d="M 603 3500 
L 1178 3500 
L 1178 0 
L 603 0 
L 603 3500 
z
M 603 4863 
L 1178 4863 
L 1178 4134 
L 603 4134 
L 603 4863 
z
" transform="scale(0.015625)"/>
       <path id="DejaVuSans-6c" d="M 603 4863 
L 1178 4863 
L 1178 0 
L 603 0 
L 603 4863 
z
" transform="scale(0.015625)"/>
       <path id="ArialMT-5d" d="M 1363 -1272 
L 122 -1272 
L 122 -806 
L 800 -806 
L 800 4116 
L 122 4116 
L 122 4581 
L 1363 4581 
L 1363 -1272 
z
" transform="scale(0.015625)"/>
      </defs>
      <use xlink:href="#ArialMT-44" transform="translate(0 0.684375)"/>
      <use xlink:href="#ArialMT-4f" transform="translate(72.216797 0.684375)"/>
      <use xlink:href="#ArialMT-4d" transform="translate(150 0.684375)"/>
      <use xlink:href="#ArialMT-20" transform="translate(233.300781 0.684375)"/>
      <use xlink:href="#ArialMT-63" transform="translate(261.083984 0.684375)"/>
      <use xlink:href="#ArialMT-6f" transform="translate(311.083984 0.684375)"/>
      <use xlink:href="#ArialMT-6e" transform="translate(366.699219 0.684375)"/>
      <use xlink:href="#ArialMT-63" transform="translate(422.314453 0.684375)"/>
      <use xlink:href="#ArialMT-65" transform="translate(472.314453 0.684375)"/>
      <use xlink:href="#ArialMT-6e" transform="translate(527.929688 0.684375)"/>
      <use xlink:href="#ArialMT-74" transform="translate(583.544922 0.684375)"/>
      <use xlink:href="#ArialMT-72" transform="translate(611.328125 0.684375)"/>
      <use xlink:href="#ArialMT-61" transform="translate(644.628906 0.684375)"/>
      <use xlink:href="#ArialMT-74" transform="translate(700.244141 0.684375)"/>
      <use xlink:href="#ArialMT-69" transform="translate(728.027344 0.684375)"/>
      <use xlink:href="#ArialMT-6f" transform="translate(750.244141 0.684375)"/>
      <use xlink:href="#ArialMT-6e" transform="translate(805.859375 0.684375)"/>
      <use xlink:href="#ArialMT-20" transform="translate(861.474609 0.684375)"/>
      <use xlink:href="#ArialMT-5b" transform="translate(889.257812 0.684375)"/>
      <use xlink:href="#DejaVuSans-6d" transform="translate(917.041016 0.684375)"/>
      <use xlink:href="#DejaVuSans-67" transform="translate(1014.453125 0.684375)"/>
      <use xlink:href="#DejaVuSans-43" transform="translate(1077.929688 0.684375)"/>
      <use xlink:href="#DejaVuSans-67" transform="translate(1180.224285 0.684375)"/>
      <use xlink:href="#DejaVuSans-2212" transform="translate(1244.657878 38.965625) scale(0.7)"/>
      <use xlink:href="#DejaVuSans-31" transform="translate(1303.310222 38.965625) scale(0.7)"/>
      <use xlink:href="#DejaVuSans-73" transform="translate(1350.58073 0.684375)"/>
      <use xlink:href="#DejaVuSans-6f" transform="translate(1402.680339 0.684375)"/>
      <use xlink:href="#DejaVuSans-69" transform="translate(1463.86198 0.684375)"/>
      <use xlink:href="#DejaVuSans-6c" transform="translate(1491.645183 0.684375)"/>
      <use xlink:href="#ArialMT-5d" transform="translate(1519.428386 0.684375)"/>
     </g>
    </g>
   </g>
   <g id="matplotlib.axis_2">
    <g id="ytick_1">
     <g id="line2d_7">
      <path d="M 79.074 345.92891 
L 484.56 345.92891 
" clip-path="url(#pcc3876fbdc)" style="fill: none; stroke: #cccccc; stroke-linecap: round"/>
     </g>
     <g id="text_8">
      <!-- 0.0 -->
      <g style="fill: #262626" transform="translate(46.639 351.834105) scale(0.165 -0.165)">
       <use xlink:href="#ArialMT-30"/>
       <use xlink:href="#ArialMT-2e" transform="translate(55.615234 0)"/>
       <use xlink:href="#ArialMT-30" transform="translate(83.398438 0)"/>
      </g>
     </g>
    </g>
    <g id="ytick_2">
     <g id="line2d_8">
      <path d="M 79.074 307.288443 
L 484.56 307.288443 
" clip-path="url(#pcc3876fbdc)" style="fill: none; stroke: #cccccc; stroke-linecap: round"/>
     </g>
     <g id="text_9">
      <!-- 0.1 -->
      <g style="fill: #262626" transform="translate(46.639 313.193638) scale(0.165 -0.165)">
       <use xlink:href="#ArialMT-30"/>
       <use xlink:href="#ArialMT-2e" transform="translate(55.615234 0)"/>
       <use xlink:href="#ArialMT-31" transform="translate(83.398438 0)"/>
      </g>
     </g>
    </g>
    <g id="ytick_3">
     <g id="line2d_9">
      <path d="M 79.074 268.647976 
L 484.56 268.647976 
" clip-path="url(#pcc3876fbdc)" style="fill: none; stroke: #cccccc; stroke-linecap: round"/>
     </g>
     <g id="text_10">
      <!-- 0.2 -->
      <g style="fill: #262626" transform="translate(46.639 274.553171) scale(0.165 -0.165)">
       <use xlink:href="#ArialMT-30"/>
       <use xlink:href="#ArialMT-2e" transform="translate(55.615234 0)"/>
       <use xlink:href="#ArialMT-32" transform="translate(83.398438 0)"/>
      </g>
     </g>
    </g>
    <g id="ytick_4">
     <g id="line2d_10">
      <path d="M 79.074 230.007509 
L 484.56 230.007509 
" clip-path="url(#pcc3876fbdc)" style="fill: none; stroke: #cccccc; stroke-linecap: round"/>
     </g>
     <g id="text_11">
      <!-- 0.3 -->
      <g style="fill: #262626" transform="translate(46.639 235.912704) scale(0.165 -0.165)">
       <defs>
        <path id="ArialMT-33" d="M 269 1209 
L 831 1284 
Q 928 806 1161 595 
Q 1394 384 1728 384 
Q 2125 384 2398 659 
Q 2672 934 2672 1341 
Q 2672 1728 2419 1979 
Q 2166 2231 1775 2231 
Q 1616 2231 1378 2169 
L 1441 2663 
Q 1497 2656 1531 2656 
Q 1891 2656 2178 2843 
Q 2466 3031 2466 3422 
Q 2466 3731 2256 3934 
Q 2047 4138 1716 4138 
Q 1388 4138 1169 3931 
Q 950 3725 888 3313 
L 325 3413 
Q 428 3978 793 4289 
Q 1159 4600 1703 4600 
Q 2078 4600 2393 4439 
Q 2709 4278 2876 4000 
Q 3044 3722 3044 3409 
Q 3044 3113 2884 2869 
Q 2725 2625 2413 2481 
Q 2819 2388 3044 2092 
Q 3269 1797 3269 1353 
Q 3269 753 2831 336 
Q 2394 -81 1725 -81 
Q 1122 -81 723 278 
Q 325 638 269 1209 
z
" transform="scale(0.015625)"/>
       </defs>
       <use xlink:href="#ArialMT-30"/>
       <use xlink:href="#ArialMT-2e" transform="translate(55.615234 0)"/>
       <use xlink:href="#ArialMT-33" transform="translate(83.398438 0)"/>
      </g>
     </g>
    </g>
    <g id="ytick_5">
     <g id="line2d_11">
      <path d="M 79.074 191.367042 
L 484.56 191.367042 
" clip-path="url(#pcc3876fbdc)" style="fill: none; stroke: #cccccc; stroke-linecap: round"/>
     </g>
     <g id="text_12">
      <!-- 0.4 -->
      <g style="fill: #262626" transform="translate(46.639 197.272237) scale(0.165 -0.165)">
       <use xlink:href="#ArialMT-30"/>
       <use xlink:href="#ArialMT-2e" transform="translate(55.615234 0)"/>
       <use xlink:href="#ArialMT-34" transform="translate(83.398438 0)"/>
      </g>
     </g>
    </g>
    <g id="ytick_6">
     <g id="line2d_12">
      <path d="M 79.074 152.726575 
L 484.56 152.726575 
" clip-path="url(#pcc3876fbdc)" style="fill: none; stroke: #cccccc; stroke-linecap: round"/>
     </g>
     <g id="text_13">
      <!-- 0.5 -->
      <g style="fill: #262626" transform="translate(46.639 158.63177) scale(0.165 -0.165)">
       <defs>
        <path id="ArialMT-35" d="M 266 1200 
L 856 1250 
Q 922 819 1161 601 
Q 1400 384 1738 384 
Q 2144 384 2425 690 
Q 2706 997 2706 1503 
Q 2706 1984 2436 2262 
Q 2166 2541 1728 2541 
Q 1456 2541 1237 2417 
Q 1019 2294 894 2097 
L 366 2166 
L 809 4519 
L 3088 4519 
L 3088 3981 
L 1259 3981 
L 1013 2750 
Q 1425 3038 1878 3038 
Q 2478 3038 2890 2622 
Q 3303 2206 3303 1553 
Q 3303 931 2941 478 
Q 2500 -78 1738 -78 
Q 1113 -78 717 272 
Q 322 622 266 1200 
z
" transform="scale(0.015625)"/>
       </defs>
       <use xlink:href="#ArialMT-30"/>
       <use xlink:href="#ArialMT-2e" transform="translate(55.615234 0)"/>
       <use xlink:href="#ArialMT-35" transform="translate(83.398438 0)"/>
      </g>
     </g>
    </g>
    <g id="ytick_7">
     <g id="line2d_13">
      <path d="M 79.074 114.086108 
L 484.56 114.086108 
" clip-path="url(#pcc3876fbdc)" style="fill: none; stroke: #cccccc; stroke-linecap: round"/>
     </g>
     <g id="text_14">
      <!-- 0.6 -->
      <g style="fill: #262626" transform="translate(46.639 119.991303) scale(0.165 -0.165)">
       <use xlink:href="#ArialMT-30"/>
       <use xlink:href="#ArialMT-2e" transform="translate(55.615234 0)"/>
       <use xlink:href="#ArialMT-36" transform="translate(83.398438 0)"/>
      </g>
     </g>
    </g>
    <g id="ytick_8">
     <g id="line2d_14">
      <path d="M 79.074 75.445641 
L 484.56 75.445641 
" clip-path="url(#pcc3876fbdc)" style="fill: none; stroke: #cccccc; stroke-linecap: round"/>
     </g>
     <g id="text_15">
      <!-- 0.7 -->
      <g style="fill: #262626" transform="translate(46.639 81.350836) scale(0.165 -0.165)">
       <defs>
        <path id="ArialMT-37" d="M 303 3981 
L 303 4522 
L 3269 4522 
L 3269 4084 
Q 2831 3619 2401 2847 
Q 1972 2075 1738 1259 
Q 1569 684 1522 0 
L 944 0 
Q 953 541 1156 1306 
Q 1359 2072 1739 2783 
Q 2119 3494 2547 3981 
L 303 3981 
z
" transform="scale(0.015625)"/>
       </defs>
       <use xlink:href="#ArialMT-30"/>
       <use xlink:href="#ArialMT-2e" transform="translate(55.615234 0)"/>
       <use xlink:href="#ArialMT-37" transform="translate(83.398438 0)"/>
      </g>
     </g>
    </g>
    <g id="ytick_9">
     <g id="line2d_15">
      <path d="M 79.074 36.805174 
L 484.56 36.805174 
" clip-path="url(#pcc3876fbdc)" style="fill: none; stroke: #cccccc; stroke-linecap: round"/>
     </g>
     <g id="text_16">
      <!-- 0.8 -->
      <g style="fill: #262626" transform="translate(46.639 42.710369) scale(0.165 -0.165)">
       <use xlink:href="#ArialMT-30"/>
       <use xlink:href="#ArialMT-2e" transform="translate(55.615234 0)"/>
       <use xlink:href="#ArialMT-38" transform="translate(83.398438 0)"/>
      </g>
     </g>
    </g>
    <g id="text_17">
     <!-- Respiration [$\mathrm{m}$g C-CO$_2$ g$^{-1}$ soil day$^{-1}$] -->
     <g style="fill: #262626" transform="translate(38.679 346.878) rotate(-90) scale(0.18 -0.18)">
      <defs>
       <path id="ArialMT-52" d="M 503 0 
L 503 4581 
L 2534 4581 
Q 3147 4581 3465 4457 
Q 3784 4334 3975 4021 
Q 4166 3709 4166 3331 
Q 4166 2844 3850 2509 
Q 3534 2175 2875 2084 
Q 3116 1969 3241 1856 
Q 3506 1613 3744 1247 
L 4541 0 
L 3778 0 
L 3172 953 
Q 2906 1366 2734 1584 
Q 2563 1803 2427 1890 
Q 2291 1978 2150 2013 
Q 2047 2034 1813 2034 
L 1109 2034 
L 1109 0 
L 503 0 
z
M 1109 2559 
L 2413 2559 
Q 2828 2559 3062 2645 
Q 3297 2731 3419 2920 
Q 3541 3109 3541 3331 
Q 3541 3656 3305 3865 
Q 3069 4075 2559 4075 
L 1109 4075 
L 1109 2559 
z
" transform="scale(0.015625)"/>
       <path id="ArialMT-73" d="M 197 991 
L 753 1078 
Q 800 744 1014 566 
Q 1228 388 1613 388 
Q 2000 388 2187 545 
Q 2375 703 2375 916 
Q 2375 1106 2209 1216 
Q 2094 1291 1634 1406 
Q 1016 1563 777 1677 
Q 538 1791 414 1992 
Q 291 2194 291 2438 
Q 291 2659 392 2848 
Q 494 3038 669 3163 
Q 800 3259 1026 3326 
Q 1253 3394 1513 3394 
Q 1903 3394 2198 3281 
Q 2494 3169 2634 2976 
Q 2775 2784 2828 2463 
L 2278 2388 
Q 2241 2644 2061 2787 
Q 1881 2931 1553 2931 
Q 1166 2931 1000 2803 
Q 834 2675 834 2503 
Q 834 2394 903 2306 
Q 972 2216 1119 2156 
Q 1203 2125 1616 2013 
Q 2213 1853 2448 1751 
Q 2684 1650 2818 1456 
Q 2953 1263 2953 975 
Q 2953 694 2789 445 
Q 2625 197 2315 61 
Q 2006 -75 1616 -75 
Q 969 -75 630 194 
Q 291 463 197 991 
z
" transform="scale(0.015625)"/>
       <path id="ArialMT-70" d="M 422 -1272 
L 422 3319 
L 934 3319 
L 934 2888 
Q 1116 3141 1344 3267 
Q 1572 3394 1897 3394 
Q 2322 3394 2647 3175 
Q 2972 2956 3137 2557 
Q 3303 2159 3303 1684 
Q 3303 1175 3120 767 
Q 2938 359 2589 142 
Q 2241 -75 1856 -75 
Q 1575 -75 1351 44 
Q 1128 163 984 344 
L 984 -1272 
L 422 -1272 
z
M 931 1641 
Q 931 1000 1190 694 
Q 1450 388 1819 388 
Q 2194 388 2461 705 
Q 2728 1022 2728 1688 
Q 2728 2322 2467 2637 
Q 2206 2953 1844 2953 
Q 1484 2953 1207 2617 
Q 931 2281 931 1641 
z
" transform="scale(0.015625)"/>
       <path id="ArialMT-67" d="M 319 -275 
L 866 -356 
Q 900 -609 1056 -725 
Q 1266 -881 1628 -881 
Q 2019 -881 2231 -725 
Q 2444 -569 2519 -288 
Q 2563 -116 2559 434 
Q 2191 0 1641 0 
Q 956 0 581 494 
Q 206 988 206 1678 
Q 206 2153 378 2554 
Q 550 2956 876 3175 
Q 1203 3394 1644 3394 
Q 2231 3394 2613 2919 
L 2613 3319 
L 3131 3319 
L 3131 450 
Q 3131 -325 2973 -648 
Q 2816 -972 2473 -1159 
Q 2131 -1347 1631 -1347 
Q 1038 -1347 672 -1080 
Q 306 -813 319 -275 
z
M 784 1719 
Q 784 1066 1043 766 
Q 1303 466 1694 466 
Q 2081 466 2343 764 
Q 2606 1063 2606 1700 
Q 2606 2309 2336 2618 
Q 2066 2928 1684 2928 
Q 1309 2928 1046 2623 
Q 784 2319 784 1719 
z
" transform="scale(0.015625)"/>
       <path id="ArialMT-43" d="M 3763 1606 
L 4369 1453 
Q 4178 706 3683 314 
Q 3188 -78 2472 -78 
Q 1731 -78 1267 223 
Q 803 525 561 1097 
Q 319 1669 319 2325 
Q 319 3041 592 3573 
Q 866 4106 1370 4382 
Q 1875 4659 2481 4659 
Q 3169 4659 3637 4309 
Q 4106 3959 4291 3325 
L 3694 3184 
Q 3534 3684 3231 3912 
Q 2928 4141 2469 4141 
Q 1941 4141 1586 3887 
Q 1231 3634 1087 3207 
Q 944 2781 944 2328 
Q 944 1744 1114 1308 
Q 1284 872 1643 656 
Q 2003 441 2422 441 
Q 2931 441 3284 734 
Q 3638 1028 3763 1606 
z
" transform="scale(0.015625)"/>
       <path id="ArialMT-2d" d="M 203 1375 
L 203 1941 
L 1931 1941 
L 1931 1375 
L 203 1375 
z
" transform="scale(0.015625)"/>
       <path id="DejaVuSans-32" d="M 1228 531 
L 3431 531 
L 3431 0 
L 469 0 
L 469 531 
Q 828 903 1448 1529 
Q 2069 2156 2228 2338 
Q 2531 2678 2651 2914 
Q 2772 3150 2772 3378 
Q 2772 3750 2511 3984 
Q 2250 4219 1831 4219 
Q 1534 4219 1204 4116 
Q 875 4013 500 3803 
L 500 4441 
Q 881 4594 1212 4672 
Q 1544 4750 1819 4750 
Q 2544 4750 2975 4387 
Q 3406 4025 3406 3419 
Q 3406 3131 3298 2873 
Q 3191 2616 2906 2266 
Q 2828 2175 2409 1742 
Q 1991 1309 1228 531 
z
" transform="scale(0.015625)"/>
       <path id="ArialMT-6c" d="M 409 0 
L 409 4581 
L 972 4581 
L 972 0 
L 409 0 
z
" transform="scale(0.015625)"/>
       <path id="ArialMT-64" d="M 2575 0 
L 2575 419 
Q 2259 -75 1647 -75 
Q 1250 -75 917 144 
Q 584 363 401 755 
Q 219 1147 219 1656 
Q 219 2153 384 2558 
Q 550 2963 881 3178 
Q 1213 3394 1622 3394 
Q 1922 3394 2156 3267 
Q 2391 3141 2538 2938 
L 2538 4581 
L 3097 4581 
L 3097 0 
L 2575 0 
z
M 797 1656 
Q 797 1019 1065 703 
Q 1334 388 1700 388 
Q 2069 388 2326 689 
Q 2584 991 2584 1609 
Q 2584 2291 2321 2609 
Q 2059 2928 1675 2928 
Q 1300 2928 1048 2622 
Q 797 2316 797 1656 
z
" transform="scale(0.015625)"/>
       <path id="ArialMT-79" d="M 397 -1278 
L 334 -750 
Q 519 -800 656 -800 
Q 844 -800 956 -737 
Q 1069 -675 1141 -563 
Q 1194 -478 1313 -144 
Q 1328 -97 1363 -6 
L 103 3319 
L 709 3319 
L 1400 1397 
Q 1534 1031 1641 628 
Q 1738 1016 1872 1384 
L 2581 3319 
L 3144 3319 
L 1881 -56 
Q 1678 -603 1566 -809 
Q 1416 -1088 1222 -1217 
Q 1028 -1347 759 -1347 
Q 597 -1347 397 -1278 
z
" transform="scale(0.015625)"/>
      </defs>
      <use xlink:href="#ArialMT-52" transform="translate(0 0.684375)"/>
      <use xlink:href="#ArialMT-65" transform="translate(72.216797 0.684375)"/>
      <use xlink:href="#ArialMT-73" transform="translate(127.832031 0.684375)"/>
      <use xlink:href="#ArialMT-70" transform="translate(177.832031 0.684375)"/>
      <use xlink:href="#ArialMT-69" transform="translate(233.447266 0.684375)"/>
      <use xlink:href="#ArialMT-72" transform="translate(255.664062 0.684375)"/>
      <use xlink:href="#ArialMT-61" transform="translate(288.964844 0.684375)"/>
      <use xlink:href="#ArialMT-74" transform="translate(344.580078 0.684375)"/>
      <use xlink:href="#ArialMT-69" transform="translate(372.363281 0.684375)"/>
      <use xlink:href="#ArialMT-6f" transform="translate(394.580078 0.684375)"/>
      <use xlink:href="#ArialMT-6e" transform="translate(450.195312 0.684375)"/>
      <use xlink:href="#ArialMT-20" transform="translate(505.810547 0.684375)"/>
      <use xlink:href="#ArialMT-5b" transform="translate(533.59375 0.684375)"/>
      <use xlink:href="#DejaVuSans-6d" transform="translate(561.376953 0.684375)"/>
      <use xlink:href="#ArialMT-67" transform="translate(658.789062 0.684375)"/>
      <use xlink:href="#ArialMT-20" transform="translate(714.404297 0.684375)"/>
      <use xlink:href="#ArialMT-43" transform="translate(742.1875 0.684375)"/>
      <use xlink:href="#ArialMT-2d" transform="translate(814.404297 0.684375)"/>
      <use xlink:href="#ArialMT-43" transform="translate(847.705078 0.684375)"/>
      <use xlink:href="#ArialMT-4f" transform="translate(919.921875 0.684375)"/>
      <use xlink:href="#DejaVuSans-32" transform="translate(998.662109 -15.721875) scale(0.7)"/>
      <use xlink:href="#ArialMT-20" transform="translate(1045.932617 0.684375)"/>
      <use xlink:href="#ArialMT-67" transform="translate(1073.71582 0.684375)"/>
      <use xlink:href="#DejaVuSans-2212" transform="translate(1130.288086 38.965625) scale(0.7)"/>
      <use xlink:href="#DejaVuSans-31" transform="translate(1188.94043 38.965625) scale(0.7)"/>
      <use xlink:href="#ArialMT-20" transform="translate(1236.210938 0.684375)"/>
      <use xlink:href="#ArialMT-73" transform="translate(1263.994141 0.684375)"/>
      <use xlink:href="#ArialMT-6f" transform="translate(1313.994141 0.684375)"/>
      <use xlink:href="#ArialMT-69" transform="translate(1369.609375 0.684375)"/>
      <use xlink:href="#ArialMT-6c" transform="translate(1391.826172 0.684375)"/>
      <use xlink:href="#ArialMT-20" transform="translate(1414.042969 0.684375)"/>
      <use xlink:href="#ArialMT-64" transform="translate(1441.826172 0.684375)"/>
      <use xlink:href="#ArialMT-61" transform="translate(1497.441406 0.684375)"/>
      <use xlink:href="#ArialMT-79" transform="translate(1553.056641 0.684375)"/>
      <use xlink:href="#DejaVuSans-2212" transform="translate(1604.013672 38.965625) scale(0.7)"/>
      <use xlink:href="#DejaVuSans-31" transform="translate(1662.666016 38.965625) scale(0.7)"/>
      <use xlink:href="#ArialMT-5d" transform="translate(1709.936523 0.684375)"/>
     </g>
    </g>
   </g>
   <g id="PathCollection_1">
    <defs>
     <path id="m7dbc088f59" d="M 0 3.535534 
C 0.937635 3.535534 1.836992 3.163008 2.5 2.5 
C 3.163008 1.836992 3.535534 0.937635 3.535534 0 
C 3.535534 -0.937635 3.163008 -1.836992 2.5 -2.5 
C 1.836992 -3.163008 0.937635 -3.535534 0 -3.535534 
C -0.937635 -3.535534 -1.836992 -3.163008 -2.5 -2.5 
C -3.163008 -1.836992 -3.535534 -0.937635 -3.535534 0 
C -3.535534 0.937635 -3.163008 1.836992 -2.5 2.5 
C -1.836992 3.163008 -0.937635 3.535534 0 3.535534 
z
" style="stroke: #000000; stroke-opacity: 0.6; stroke-width: 0.565685"/>
    </defs>
    <g clip-path="url(#pcc3876fbdc)">
     <use xlink:href="#m7dbc088f59" x="104.87928" y="341.523896" style="fill: #808080; fill-opacity: 0.6; stroke: #000000; stroke-opacity: 0.6; stroke-width: 0.565685"/>
     <use xlink:href="#m7dbc088f59" x="141.374494" y="325.681305" style="fill: #808080; fill-opacity: 0.6; stroke: #000000; stroke-opacity: 0.6; stroke-width: 0.565685"/>
     <use xlink:href="#m7dbc088f59" x="116.979339" y="314.603083" style="fill: #808080; fill-opacity: 0.6; stroke: #000000; stroke-opacity: 0.6; stroke-width: 0.565685"/>
     <use xlink:href="#m7dbc088f59" x="104.758877" y="336.330618" style="fill: #808080; fill-opacity: 0.6; stroke: #000000; stroke-opacity: 0.6; stroke-width: 0.565685"/>
     <use xlink:href="#m7dbc088f59" x="130.257016" y="336.423355" style="fill: #808080; fill-opacity: 0.6; stroke: #000000; stroke-opacity: 0.6; stroke-width: 0.565685"/>
     <use xlink:href="#m7dbc088f59" x="119.310084" y="337.466647" style="fill: #808080; fill-opacity: 0.6; stroke: #000000; stroke-opacity: 0.6; stroke-width: 0.565685"/>
     <use xlink:href="#m7dbc088f59" x="197.039941" y="269.188942" style="fill: #808080; fill-opacity: 0.6; stroke: #000000; stroke-opacity: 0.6; stroke-width: 0.565685"/>
     <use xlink:href="#m7dbc088f59" x="97.505182" y="308.872702" style="fill: #808080; fill-opacity: 0.6; stroke: #000000; stroke-opacity: 0.6; stroke-width: 0.565685"/>
     <use xlink:href="#m7dbc088f59" x="113.059062" y="339.398671" style="fill: #808080; fill-opacity: 0.6; stroke: #000000; stroke-opacity: 0.6; stroke-width: 0.565685"/>
     <use xlink:href="#m7dbc088f59" x="117.697168" y="336.624285" style="fill: #808080; fill-opacity: 0.6; stroke: #000000; stroke-opacity: 0.6; stroke-width: 0.565685"/>
     <use xlink:href="#m7dbc088f59" x="148.526261" y="294.459808" style="fill: #808080; fill-opacity: 0.6; stroke: #000000; stroke-opacity: 0.6; stroke-width: 0.565685"/>
     <use xlink:href="#m7dbc088f59" x="122.887991" y="317.875931" style="fill: #808080; fill-opacity: 0.6; stroke: #000000; stroke-opacity: 0.6; stroke-width: 0.565685"/>
     <use xlink:href="#m7dbc088f59" x="120.480633" y="300.758204" style="fill: #808080; fill-opacity: 0.6; stroke: #000000; stroke-opacity: 0.6; stroke-width: 0.565685"/>
     <use xlink:href="#m7dbc088f59" x="116.339302" y="327.072362" style="fill: #808080; fill-opacity: 0.6; stroke: #000000; stroke-opacity: 0.6; stroke-width: 0.565685"/>
     <use xlink:href="#m7dbc088f59" x="99.51768" y="342.219425" style="fill: #808080; fill-opacity: 0.6; stroke: #000000; stroke-opacity: 0.6; stroke-width: 0.565685"/>
     <use xlink:href="#m7dbc088f59" x="112.618386" y="314.668772" style="fill: #808080; fill-opacity: 0.6; stroke: #000000; stroke-opacity: 0.6; stroke-width: 0.565685"/>
     <use xlink:href="#m7dbc088f59" x="186.483547" y="206.359543" style="fill: #808080; fill-opacity: 0.6; stroke: #000000; stroke-opacity: 0.6; stroke-width: 0.565685"/>
     <use xlink:href="#m7dbc088f59" x="144.982831" y="311.152489" style="fill: #808080; fill-opacity: 0.6; stroke: #000000; stroke-opacity: 0.6; stroke-width: 0.565685"/>
     <use xlink:href="#m7dbc088f59" x="130.298681" y="333.834444" style="fill: #808080; fill-opacity: 0.6; stroke: #000000; stroke-opacity: 0.6; stroke-width: 0.565685"/>
     <use xlink:href="#m7dbc088f59" x="107.843744" y="340.905649" style="fill: #808080; fill-opacity: 0.6; stroke: #000000; stroke-opacity: 0.6; stroke-width: 0.565685"/>
     <use xlink:href="#m7dbc088f59" x="166.505588" y="278.501295" style="fill: #808080; fill-opacity: 0.6; stroke: #000000; stroke-opacity: 0.6; stroke-width: 0.565685"/>
     <use xlink:href="#m7dbc088f59" x="124.722533" y="300.673195" style="fill: #808080; fill-opacity: 0.6; stroke: #000000; stroke-opacity: 0.6; stroke-width: 0.565685"/>
     <use xlink:href="#m7dbc088f59" x="115.8887" y="326.639589" style="fill: #808080; fill-opacity: 0.6; stroke: #000000; stroke-opacity: 0.6; stroke-width: 0.565685"/>
     <use xlink:href="#m7dbc088f59" x="145.879228" y="268.640248" style="fill: #808080; fill-opacity: 0.6; stroke: #000000; stroke-opacity: 0.6; stroke-width: 0.565685"/>
     <use xlink:href="#m7dbc088f59" x="100.209681" y="335.18686" style="fill: #808080; fill-opacity: 0.6; stroke: #000000; stroke-opacity: 0.6; stroke-width: 0.565685"/>
     <use xlink:href="#m7dbc088f59" x="108.609193" y="332.71387" style="fill: #808080; fill-opacity: 0.6; stroke: #000000; stroke-opacity: 0.6; stroke-width: 0.565685"/>
     <use xlink:href="#m7dbc088f59" x="106.699281" y="337.296629" style="fill: #808080; fill-opacity: 0.6; stroke: #000000; stroke-opacity: 0.6; stroke-width: 0.565685"/>
     <use xlink:href="#m7dbc088f59" x="101.665396" y="341.292054" style="fill: #808080; fill-opacity: 0.6; stroke: #000000; stroke-opacity: 0.6; stroke-width: 0.565685"/>
     <use xlink:href="#m7dbc088f59" x="191.041323" y="217.990324" style="fill: #808080; fill-opacity: 0.6; stroke: #000000; stroke-opacity: 0.6; stroke-width: 0.565685"/>
     <use xlink:href="#m7dbc088f59" x="106.061066" y="340.055559" style="fill: #808080; fill-opacity: 0.6; stroke: #000000; stroke-opacity: 0.6; stroke-width: 0.565685"/>
     <use xlink:href="#m7dbc088f59" x="117.490476" y="328.606388" style="fill: #808080; fill-opacity: 0.6; stroke: #000000; stroke-opacity: 0.6; stroke-width: 0.565685"/>
     <use xlink:href="#m7dbc088f59" x="102.8488" y="343.019283" style="fill: #808080; fill-opacity: 0.6; stroke: #000000; stroke-opacity: 0.6; stroke-width: 0.565685"/>
     <use xlink:href="#m7dbc088f59" x="119.996364" y="335.689186" style="fill: #808080; fill-opacity: 0.6; stroke: #000000; stroke-opacity: 0.6; stroke-width: 0.565685"/>
     <use xlink:href="#m7dbc088f59" x="151.133524" y="326.496619" style="fill: #808080; fill-opacity: 0.6; stroke: #000000; stroke-opacity: 0.6; stroke-width: 0.565685"/>
     <use xlink:href="#m7dbc088f59" x="133.556413" y="319.769314" style="fill: #808080; fill-opacity: 0.6; stroke: #000000; stroke-opacity: 0.6; stroke-width: 0.565685"/>
     <use xlink:href="#m7dbc088f59" x="187.906486" y="64.974074" style="fill: #808080; fill-opacity: 0.6; stroke: #000000; stroke-opacity: 0.6; stroke-width: 0.565685"/>
     <use xlink:href="#m7dbc088f59" x="169.838237" y="174.481158" style="fill: #808080; fill-opacity: 0.6; stroke: #000000; stroke-opacity: 0.6; stroke-width: 0.565685"/>
     <use xlink:href="#m7dbc088f59" x="150.675098" y="314.47557" style="fill: #808080; fill-opacity: 0.6; stroke: #000000; stroke-opacity: 0.6; stroke-width: 0.565685"/>
     <use xlink:href="#m7dbc088f59" x="125.029875" y="258.446892" style="fill: #808080; fill-opacity: 0.6; stroke: #000000; stroke-opacity: 0.6; stroke-width: 0.565685"/>
     <use xlink:href="#m7dbc088f59" x="110.37106" y="336.655198" style="fill: #808080; fill-opacity: 0.6; stroke: #000000; stroke-opacity: 0.6; stroke-width: 0.565685"/>
     <use xlink:href="#m7dbc088f59" x="105.085325" y="327.458766" style="fill: #808080; fill-opacity: 0.6; stroke: #000000; stroke-opacity: 0.6; stroke-width: 0.565685"/>
     <use xlink:href="#m7dbc088f59" x="116.08149" y="338.973626" style="fill: #808080; fill-opacity: 0.6; stroke: #000000; stroke-opacity: 0.6; stroke-width: 0.565685"/>
     <use xlink:href="#m7dbc088f59" x="137.817911" y="319.228347" style="fill: #808080; fill-opacity: 0.6; stroke: #000000; stroke-opacity: 0.6; stroke-width: 0.565685"/>
     <use xlink:href="#m7dbc088f59" x="109.077959" y="338.084895" style="fill: #808080; fill-opacity: 0.6; stroke: #000000; stroke-opacity: 0.6; stroke-width: 0.565685"/>
     <use xlink:href="#m7dbc088f59" x="168.419666" y="274.173562" style="fill: #808080; fill-opacity: 0.6; stroke: #000000; stroke-opacity: 0.6; stroke-width: 0.565685"/>
     <use xlink:href="#m7dbc088f59" x="167.151766" y="149.326214" style="fill: #808080; fill-opacity: 0.6; stroke: #000000; stroke-opacity: 0.6; stroke-width: 0.565685"/>
     <use xlink:href="#m7dbc088f59" x="165.942187" y="262.34958" style="fill: #808080; fill-opacity: 0.6; stroke: #000000; stroke-opacity: 0.6; stroke-width: 0.565685"/>
     <use xlink:href="#m7dbc088f59" x="447.333813" y="61.34187" style="fill: #808080; fill-opacity: 0.6; stroke: #000000; stroke-opacity: 0.6; stroke-width: 0.565685"/>
     <use xlink:href="#m7dbc088f59" x="122.608224" y="332.482027" style="fill: #808080; fill-opacity: 0.6; stroke: #000000; stroke-opacity: 0.6; stroke-width: 0.565685"/>
     <use xlink:href="#m7dbc088f59" x="124.431345" y="301.840137" style="fill: #808080; fill-opacity: 0.6; stroke: #000000; stroke-opacity: 0.6; stroke-width: 0.565685"/>
     <use xlink:href="#m7dbc088f59" x="142.016748" y="311.73596" style="fill: #808080; fill-opacity: 0.6; stroke: #000000; stroke-opacity: 0.6; stroke-width: 0.565685"/>
     <use xlink:href="#m7dbc088f59" x="137.04254" y="188.70085" style="fill: #808080; fill-opacity: 0.6; stroke: #000000; stroke-opacity: 0.6; stroke-width: 0.565685"/>
     <use xlink:href="#m7dbc088f59" x="138.270728" y="88.196995" style="fill: #808080; fill-opacity: 0.6; stroke: #000000; stroke-opacity: 0.6; stroke-width: 0.565685"/>
     <use xlink:href="#m7dbc088f59" x="144.684601" y="220.617875" style="fill: #808080; fill-opacity: 0.6; stroke: #000000; stroke-opacity: 0.6; stroke-width: 0.565685"/>
     <use xlink:href="#m7dbc088f59" x="123.917051" y="270.154954" style="fill: #808080; fill-opacity: 0.6; stroke: #000000; stroke-opacity: 0.6; stroke-width: 0.565685"/>
     <use xlink:href="#m7dbc088f59" x="164.186746" y="186.536983" style="fill: #808080; fill-opacity: 0.6; stroke: #000000; stroke-opacity: 0.6; stroke-width: 0.565685"/>
    </g>
   </g>
   <g id="PathCollection_2">
    <defs>
     <path id="mda16f3b3e8" d="M 0 3.535534 
C 0.937635 3.535534 1.836992 3.163008 2.5 2.5 
C 3.163008 1.836992 3.535534 0.937635 3.535534 0 
C 3.535534 -0.937635 3.163008 -1.836992 2.5 -2.5 
C 1.836992 -3.163008 0.937635 -3.535534 0 -3.535534 
C -0.937635 -3.535534 -1.836992 -3.163008 -2.5 -2.5 
C -3.163008 -1.836992 -3.535534 -0.937635 -3.535534 0 
C -3.535534 0.937635 -3.163008 1.836992 -2.5 2.5 
C -1.836992 3.163008 -0.937635 3.535534 0 3.535534 
z
" style="stroke: #000000; stroke-opacity: 0.6; stroke-width: 0.565685"/>
    </defs>
    <g clip-path="url(#pcc3876fbdc)">
     <use xlink:href="#mda16f3b3e8" x="104.87928" y="327.608493" style="fill: #029e73; fill-opacity: 0.6; stroke: #000000; stroke-opacity: 0.6; stroke-width: 0.565685"/>
     <use xlink:href="#mda16f3b3e8" x="141.374494" y="273.767306" style="fill: #029e73; fill-opacity: 0.6; stroke: #000000; stroke-opacity: 0.6; stroke-width: 0.565685"/>
     <use xlink:href="#mda16f3b3e8" x="116.979339" y="308.583611" style="fill: #029e73; fill-opacity: 0.6; stroke: #000000; stroke-opacity: 0.6; stroke-width: 0.565685"/>
     <use xlink:href="#mda16f3b3e8" x="104.758877" y="327.80425" style="fill: #029e73; fill-opacity: 0.6; stroke: #000000; stroke-opacity: 0.6; stroke-width: 0.565685"/>
     <use xlink:href="#mda16f3b3e8" x="130.257016" y="289.085764" style="fill: #029e73; fill-opacity: 0.6; stroke: #000000; stroke-opacity: 0.6; stroke-width: 0.565685"/>
     <use xlink:href="#mda16f3b3e8" x="119.310084" y="305.060633" style="fill: #029e73; fill-opacity: 0.6; stroke: #000000; stroke-opacity: 0.6; stroke-width: 0.565685"/>
     <use xlink:href="#mda16f3b3e8" x="197.039941" y="208.422874" style="fill: #029e73; fill-opacity: 0.6; stroke: #000000; stroke-opacity: 0.6; stroke-width: 0.565685"/>
     <use xlink:href="#mda16f3b3e8" x="97.505182" y="339.845031" style="fill: #029e73; fill-opacity: 0.6; stroke: #000000; stroke-opacity: 0.6; stroke-width: 0.565685"/>
     <use xlink:href="#mda16f3b3e8" x="113.059062" y="314.610107" style="fill: #029e73; fill-opacity: 0.6; stroke: #000000; stroke-opacity: 0.6; stroke-width: 0.565685"/>
     <use xlink:href="#mda16f3b3e8" x="117.697168" y="307.493887" style="fill: #029e73; fill-opacity: 0.6; stroke: #000000; stroke-opacity: 0.6; stroke-width: 0.565685"/>
     <use xlink:href="#mda16f3b3e8" x="148.526261" y="264.360289" style="fill: #029e73; fill-opacity: 0.6; stroke: #000000; stroke-opacity: 0.6; stroke-width: 0.565685"/>
     <use xlink:href="#mda16f3b3e8" x="122.887991" y="299.737315" style="fill: #029e73; fill-opacity: 0.6; stroke: #000000; stroke-opacity: 0.6; stroke-width: 0.565685"/>
     <use xlink:href="#mda16f3b3e8" x="120.480633" y="303.307859" style="fill: #029e73; fill-opacity: 0.6; stroke: #000000; stroke-opacity: 0.6; stroke-width: 0.565685"/>
     <use xlink:href="#mda16f3b3e8" x="116.339302" y="309.558803" style="fill: #029e73; fill-opacity: 0.6; stroke: #000000; stroke-opacity: 0.6; stroke-width: 0.565685"/>
     <use xlink:href="#mda16f3b3e8" x="99.51768" y="336.45486" style="fill: #029e73; fill-opacity: 0.6; stroke: #000000; stroke-opacity: 0.6; stroke-width: 0.565685"/>
     <use xlink:href="#mda16f3b3e8" x="112.618386" y="315.295598" style="fill: #029e73; fill-opacity: 0.6; stroke: #000000; stroke-opacity: 0.6; stroke-width: 0.565685"/>
     <use xlink:href="#mda16f3b3e8" x="186.483547" y="219.545884" style="fill: #029e73; fill-opacity: 0.6; stroke: #000000; stroke-opacity: 0.6; stroke-width: 0.565685"/>
     <use xlink:href="#mda16f3b3e8" x="144.982831" y="268.978963" style="fill: #029e73; fill-opacity: 0.6; stroke: #000000; stroke-opacity: 0.6; stroke-width: 0.565685"/>
     <use xlink:href="#mda16f3b3e8" x="130.298681" y="289.026701" style="fill: #029e73; fill-opacity: 0.6; stroke: #000000; stroke-opacity: 0.6; stroke-width: 0.565685"/>
     <use xlink:href="#mda16f3b3e8" x="107.843744" y="322.829813" style="fill: #029e73; fill-opacity: 0.6; stroke: #000000; stroke-opacity: 0.6; stroke-width: 0.565685"/>
     <use xlink:href="#mda16f3b3e8" x="166.505588" y="242.124539" style="fill: #029e73; fill-opacity: 0.6; stroke: #000000; stroke-opacity: 0.6; stroke-width: 0.565685"/>
     <use xlink:href="#mda16f3b3e8" x="124.722533" y="297.046831" style="fill: #029e73; fill-opacity: 0.6; stroke: #000000; stroke-opacity: 0.6; stroke-width: 0.565685"/>
     <use xlink:href="#mda16f3b3e8" x="115.8887" y="310.247386" style="fill: #029e73; fill-opacity: 0.6; stroke: #000000; stroke-opacity: 0.6; stroke-width: 0.565685"/>
     <use xlink:href="#mda16f3b3e8" x="145.879228" y="267.802823" style="fill: #029e73; fill-opacity: 0.6; stroke: #000000; stroke-opacity: 0.6; stroke-width: 0.565685"/>
     <use xlink:href="#mda16f3b3e8" x="100.209681" y="335.298043" style="fill: #029e73; fill-opacity: 0.6; stroke: #000000; stroke-opacity: 0.6; stroke-width: 0.565685"/>
     <use xlink:href="#mda16f3b3e8" x="108.609193" y="321.608608" style="fill: #029e73; fill-opacity: 0.6; stroke: #000000; stroke-opacity: 0.6; stroke-width: 0.565685"/>
     <use xlink:href="#mda16f3b3e8" x="106.699281" y="324.665366" style="fill: #029e73; fill-opacity: 0.6; stroke: #000000; stroke-opacity: 0.6; stroke-width: 0.565685"/>
     <use xlink:href="#mda16f3b3e8" x="101.665396" y="332.879221" style="fill: #029e73; fill-opacity: 0.6; stroke: #000000; stroke-opacity: 0.6; stroke-width: 0.565685"/>
     <use xlink:href="#mda16f3b3e8" x="191.041323" y="214.678746" style="fill: #029e73; fill-opacity: 0.6; stroke: #000000; stroke-opacity: 0.6; stroke-width: 0.565685"/>
     <use xlink:href="#mda16f3b3e8" x="106.061066" y="325.694037" style="fill: #029e73; fill-opacity: 0.6; stroke: #000000; stroke-opacity: 0.6; stroke-width: 0.565685"/>
     <use xlink:href="#mda16f3b3e8" x="117.490476" y="307.807231" style="fill: #029e73; fill-opacity: 0.6; stroke: #000000; stroke-opacity: 0.6; stroke-width: 0.565685"/>
     <use xlink:href="#mda16f3b3e8" x="102.8488" y="330.927411" style="fill: #029e73; fill-opacity: 0.6; stroke: #000000; stroke-opacity: 0.6; stroke-width: 0.565685"/>
     <use xlink:href="#mda16f3b3e8" x="119.996364" y="304.031671" style="fill: #029e73; fill-opacity: 0.6; stroke: #000000; stroke-opacity: 0.6; stroke-width: 0.565685"/>
     <use xlink:href="#mda16f3b3e8" x="151.133524" y="261.013447" style="fill: #029e73; fill-opacity: 0.6; stroke: #000000; stroke-opacity: 0.6; stroke-width: 0.565685"/>
     <use xlink:href="#mda16f3b3e8" x="133.556413" y="284.447921" style="fill: #029e73; fill-opacity: 0.6; stroke: #000000; stroke-opacity: 0.6; stroke-width: 0.565685"/>
     <use xlink:href="#mda16f3b3e8" x="187.906486" y="218.015585" style="fill: #029e73; fill-opacity: 0.6; stroke: #000000; stroke-opacity: 0.6; stroke-width: 0.565685"/>
     <use xlink:href="#mda16f3b3e8" x="169.838237" y="238.210146" style="fill: #029e73; fill-opacity: 0.6; stroke: #000000; stroke-opacity: 0.6; stroke-width: 0.565685"/>
     <use xlink:href="#mda16f3b3e8" x="150.675098" y="261.598786" style="fill: #029e73; fill-opacity: 0.6; stroke: #000000; stroke-opacity: 0.6; stroke-width: 0.565685"/>
     <use xlink:href="#mda16f3b3e8" x="125.029875" y="296.598639" style="fill: #029e73; fill-opacity: 0.6; stroke: #000000; stroke-opacity: 0.6; stroke-width: 0.565685"/>
     <use xlink:href="#mda16f3b3e8" x="110.37106" y="318.817204" style="fill: #029e73; fill-opacity: 0.6; stroke: #000000; stroke-opacity: 0.6; stroke-width: 0.565685"/>
     <use xlink:href="#mda16f3b3e8" x="105.085325" y="327.273799" style="fill: #029e73; fill-opacity: 0.6; stroke: #000000; stroke-opacity: 0.6; stroke-width: 0.565685"/>
     <use xlink:href="#mda16f3b3e8" x="116.08149" y="309.952571" style="fill: #029e73; fill-opacity: 0.6; stroke: #000000; stroke-opacity: 0.6; stroke-width: 0.565685"/>
     <use xlink:href="#mda16f3b3e8" x="137.817911" y="278.573266" style="fill: #029e73; fill-opacity: 0.6; stroke: #000000; stroke-opacity: 0.6; stroke-width: 0.565685"/>
     <use xlink:href="#mda16f3b3e8" x="109.077959" y="320.863276" style="fill: #029e73; fill-opacity: 0.6; stroke: #000000; stroke-opacity: 0.6; stroke-width: 0.565685"/>
     <use xlink:href="#mda16f3b3e8" x="168.419666" y="239.868793" style="fill: #029e73; fill-opacity: 0.6; stroke: #000000; stroke-opacity: 0.6; stroke-width: 0.565685"/>
     <use xlink:href="#mda16f3b3e8" x="167.151766" y="241.360724" style="fill: #029e73; fill-opacity: 0.6; stroke: #000000; stroke-opacity: 0.6; stroke-width: 0.565685"/>
     <use xlink:href="#mda16f3b3e8" x="165.942187" y="242.792426" style="fill: #029e73; fill-opacity: 0.6; stroke: #000000; stroke-opacity: 0.6; stroke-width: 0.565685"/>
     <use xlink:href="#mda16f3b3e8" x="447.333813" y="42.778045" style="fill: #029e73; fill-opacity: 0.6; stroke: #000000; stroke-opacity: 0.6; stroke-width: 0.565685"/>
     <use xlink:href="#mda16f3b3e8" x="122.608224" y="300.149916" style="fill: #029e73; fill-opacity: 0.6; stroke: #000000; stroke-opacity: 0.6; stroke-width: 0.565685"/>
     <use xlink:href="#mda16f3b3e8" x="124.431345" y="297.472137" style="fill: #029e73; fill-opacity: 0.6; stroke: #000000; stroke-opacity: 0.6; stroke-width: 0.565685"/>
     <use xlink:href="#mda16f3b3e8" x="142.016748" y="272.908638" style="fill: #029e73; fill-opacity: 0.6; stroke: #000000; stroke-opacity: 0.6; stroke-width: 0.565685"/>
     <use xlink:href="#mda16f3b3e8" x="137.04254" y="279.632621" style="fill: #029e73; fill-opacity: 0.6; stroke: #000000; stroke-opacity: 0.6; stroke-width: 0.565685"/>
     <use xlink:href="#mda16f3b3e8" x="138.270728" y="277.95654" style="fill: #029e73; fill-opacity: 0.6; stroke: #000000; stroke-opacity: 0.6; stroke-width: 0.565685"/>
     <use xlink:href="#mda16f3b3e8" x="144.684601" y="269.371435" style="fill: #029e73; fill-opacity: 0.6; stroke: #000000; stroke-opacity: 0.6; stroke-width: 0.565685"/>
     <use xlink:href="#mda16f3b3e8" x="123.917051" y="298.22491" style="fill: #029e73; fill-opacity: 0.6; stroke: #000000; stroke-opacity: 0.6; stroke-width: 0.565685"/>
     <use xlink:href="#mda16f3b3e8" x="164.186746" y="244.88496" style="fill: #029e73; fill-opacity: 0.6; stroke: #000000; stroke-opacity: 0.6; stroke-width: 0.565685"/>
    </g>
   </g>
   <g id="FillBetweenPolyCollection_1"/>
   <g id="PathCollection_3">
    <defs>
     <path id="mb8db1019e9" d="M 0 3.535534 
C 0.937635 3.535534 1.836992 3.163008 2.5 2.5 
C 3.163008 1.836992 3.535534 0.937635 3.535534 0 
C 3.535534 -0.937635 3.163008 -1.836992 2.5 -2.5 
C 1.836992 -3.163008 0.937635 -3.535534 0 -3.535534 
C -0.937635 -3.535534 -1.836992 -3.163008 -2.5 -2.5 
C -3.163008 -1.836992 -3.535534 -0.937635 -3.535534 0 
C -3.535534 0.937635 -3.163008 1.836992 -2.5 2.5 
C -1.836992 3.163008 -0.937635 3.535534 0 3.535534 
z
" style="stroke: #000000; stroke-opacity: 0.6; stroke-width: 0.565685"/>
    </defs>
    <g clip-path="url(#pcc3876fbdc)">
     <use xlink:href="#mb8db1019e9" x="104.87928" y="345.538099" style="fill: #de8f05; fill-opacity: 0.6; stroke: #000000; stroke-opacity: 0.6; stroke-width: 0.565685"/>
     <use xlink:href="#mb8db1019e9" x="141.374494" y="274.211367" style="fill: #de8f05; fill-opacity: 0.6; stroke: #000000; stroke-opacity: 0.6; stroke-width: 0.565685"/>
     <use xlink:href="#mb8db1019e9" x="116.979339" y="337.045307" style="fill: #de8f05; fill-opacity: 0.6; stroke: #000000; stroke-opacity: 0.6; stroke-width: 0.565685"/>
     <use xlink:href="#mb8db1019e9" x="104.758877" y="345.85143" style="fill: #de8f05; fill-opacity: 0.6; stroke: #000000; stroke-opacity: 0.6; stroke-width: 0.565685"/>
     <use xlink:href="#mb8db1019e9" x="130.257016" y="302.542501" style="fill: #de8f05; fill-opacity: 0.6; stroke: #000000; stroke-opacity: 0.6; stroke-width: 0.565685"/>
     <use xlink:href="#mb8db1019e9" x="119.310084" y="328.369212" style="fill: #de8f05; fill-opacity: 0.6; stroke: #000000; stroke-opacity: 0.6; stroke-width: 0.565685"/>
     <use xlink:href="#mb8db1019e9" x="197.039941" y="176.397555" style="fill: #de8f05; fill-opacity: 0.6; stroke: #000000; stroke-opacity: 0.6; stroke-width: 0.565685"/>
     <use xlink:href="#mb8db1019e9" x="97.505182" y="345.928909" style="fill: #de8f05; fill-opacity: 0.6; stroke: #000000; stroke-opacity: 0.6; stroke-width: 0.565685"/>
     <use xlink:href="#mb8db1019e9" x="113.059062" y="337.624419" style="fill: #de8f05; fill-opacity: 0.6; stroke: #000000; stroke-opacity: 0.6; stroke-width: 0.565685"/>
     <use xlink:href="#mb8db1019e9" x="117.697168" y="334.347884" style="fill: #de8f05; fill-opacity: 0.6; stroke: #000000; stroke-opacity: 0.6; stroke-width: 0.565685"/>
     <use xlink:href="#mb8db1019e9" x="148.526261" y="260.201028" style="fill: #de8f05; fill-opacity: 0.6; stroke: #000000; stroke-opacity: 0.6; stroke-width: 0.565685"/>
     <use xlink:href="#mb8db1019e9" x="122.887991" y="320.695094" style="fill: #de8f05; fill-opacity: 0.6; stroke: #000000; stroke-opacity: 0.6; stroke-width: 0.565685"/>
     <use xlink:href="#mb8db1019e9" x="120.480633" y="330.099432" style="fill: #de8f05; fill-opacity: 0.6; stroke: #000000; stroke-opacity: 0.6; stroke-width: 0.565685"/>
     <use xlink:href="#mb8db1019e9" x="116.339302" y="335.152132" style="fill: #de8f05; fill-opacity: 0.6; stroke: #000000; stroke-opacity: 0.6; stroke-width: 0.565685"/>
     <use xlink:href="#mb8db1019e9" x="99.51768" y="345.928869" style="fill: #de8f05; fill-opacity: 0.6; stroke: #000000; stroke-opacity: 0.6; stroke-width: 0.565685"/>
     <use xlink:href="#mb8db1019e9" x="112.618386" y="344.235578" style="fill: #de8f05; fill-opacity: 0.6; stroke: #000000; stroke-opacity: 0.6; stroke-width: 0.565685"/>
     <use xlink:href="#mb8db1019e9" x="186.483547" y="193.355043" style="fill: #de8f05; fill-opacity: 0.6; stroke: #000000; stroke-opacity: 0.6; stroke-width: 0.565685"/>
     <use xlink:href="#mb8db1019e9" x="144.982831" y="267.406883" style="fill: #de8f05; fill-opacity: 0.6; stroke: #000000; stroke-opacity: 0.6; stroke-width: 0.565685"/>
     <use xlink:href="#mb8db1019e9" x="130.298681" y="302.062309" style="fill: #de8f05; fill-opacity: 0.6; stroke: #000000; stroke-opacity: 0.6; stroke-width: 0.565685"/>
     <use xlink:href="#mb8db1019e9" x="107.843744" y="345.402185" style="fill: #de8f05; fill-opacity: 0.6; stroke: #000000; stroke-opacity: 0.6; stroke-width: 0.565685"/>
     <use xlink:href="#mb8db1019e9" x="166.505588" y="222.780851" style="fill: #de8f05; fill-opacity: 0.6; stroke: #000000; stroke-opacity: 0.6; stroke-width: 0.565685"/>
     <use xlink:href="#mb8db1019e9" x="124.722533" y="320.749325" style="fill: #de8f05; fill-opacity: 0.6; stroke: #000000; stroke-opacity: 0.6; stroke-width: 0.565685"/>
     <use xlink:href="#mb8db1019e9" x="115.8887" y="332.416262" style="fill: #de8f05; fill-opacity: 0.6; stroke: #000000; stroke-opacity: 0.6; stroke-width: 0.565685"/>
     <use xlink:href="#mb8db1019e9" x="145.879228" y="260.902611" style="fill: #de8f05; fill-opacity: 0.6; stroke: #000000; stroke-opacity: 0.6; stroke-width: 0.565685"/>
     <use xlink:href="#mb8db1019e9" x="100.209681" y="345.926501" style="fill: #de8f05; fill-opacity: 0.6; stroke: #000000; stroke-opacity: 0.6; stroke-width: 0.565685"/>
     <use xlink:href="#mb8db1019e9" x="108.609193" y="343.869061" style="fill: #de8f05; fill-opacity: 0.6; stroke: #000000; stroke-opacity: 0.6; stroke-width: 0.565685"/>
     <use xlink:href="#mb8db1019e9" x="106.699281" y="345.478406" style="fill: #de8f05; fill-opacity: 0.6; stroke: #000000; stroke-opacity: 0.6; stroke-width: 0.565685"/>
     <use xlink:href="#mb8db1019e9" x="101.665396" y="345.917846" style="fill: #de8f05; fill-opacity: 0.6; stroke: #000000; stroke-opacity: 0.6; stroke-width: 0.565685"/>
     <use xlink:href="#mb8db1019e9" x="191.041323" y="192.186244" style="fill: #de8f05; fill-opacity: 0.6; stroke: #000000; stroke-opacity: 0.6; stroke-width: 0.565685"/>
     <use xlink:href="#mb8db1019e9" x="106.061066" y="344.91859" style="fill: #de8f05; fill-opacity: 0.6; stroke: #000000; stroke-opacity: 0.6; stroke-width: 0.565685"/>
     <use xlink:href="#mb8db1019e9" x="117.490476" y="336.61286" style="fill: #de8f05; fill-opacity: 0.6; stroke: #000000; stroke-opacity: 0.6; stroke-width: 0.565685"/>
     <use xlink:href="#mb8db1019e9" x="102.8488" y="345.807939" style="fill: #de8f05; fill-opacity: 0.6; stroke: #000000; stroke-opacity: 0.6; stroke-width: 0.565685"/>
     <use xlink:href="#mb8db1019e9" x="119.996364" y="333.17296" style="fill: #de8f05; fill-opacity: 0.6; stroke: #000000; stroke-opacity: 0.6; stroke-width: 0.565685"/>
     <use xlink:href="#mb8db1019e9" x="151.133524" y="255.515328" style="fill: #de8f05; fill-opacity: 0.6; stroke: #000000; stroke-opacity: 0.6; stroke-width: 0.565685"/>
     <use xlink:href="#mb8db1019e9" x="133.556413" y="293.507035" style="fill: #de8f05; fill-opacity: 0.6; stroke: #000000; stroke-opacity: 0.6; stroke-width: 0.565685"/>
     <use xlink:href="#mb8db1019e9" x="187.906486" y="189.328936" style="fill: #de8f05; fill-opacity: 0.6; stroke: #000000; stroke-opacity: 0.6; stroke-width: 0.565685"/>
     <use xlink:href="#mb8db1019e9" x="169.838237" y="225.61622" style="fill: #de8f05; fill-opacity: 0.6; stroke: #000000; stroke-opacity: 0.6; stroke-width: 0.565685"/>
     <use xlink:href="#mb8db1019e9" x="150.675098" y="253.107166" style="fill: #de8f05; fill-opacity: 0.6; stroke: #000000; stroke-opacity: 0.6; stroke-width: 0.565685"/>
     <use xlink:href="#mb8db1019e9" x="125.029875" y="309.483271" style="fill: #de8f05; fill-opacity: 0.6; stroke: #000000; stroke-opacity: 0.6; stroke-width: 0.565685"/>
     <use xlink:href="#mb8db1019e9" x="110.37106" y="342.202411" style="fill: #de8f05; fill-opacity: 0.6; stroke: #000000; stroke-opacity: 0.6; stroke-width: 0.565685"/>
     <use xlink:href="#mb8db1019e9" x="105.085325" y="345.586794" style="fill: #de8f05; fill-opacity: 0.6; stroke: #000000; stroke-opacity: 0.6; stroke-width: 0.565685"/>
     <use xlink:href="#mb8db1019e9" x="116.08149" y="339.626637" style="fill: #de8f05; fill-opacity: 0.6; stroke: #000000; stroke-opacity: 0.6; stroke-width: 0.565685"/>
     <use xlink:href="#mb8db1019e9" x="137.817911" y="285.838041" style="fill: #de8f05; fill-opacity: 0.6; stroke: #000000; stroke-opacity: 0.6; stroke-width: 0.565685"/>
     <use xlink:href="#mb8db1019e9" x="109.077959" y="342.70485" style="fill: #de8f05; fill-opacity: 0.6; stroke: #000000; stroke-opacity: 0.6; stroke-width: 0.565685"/>
     <use xlink:href="#mb8db1019e9" x="168.419666" y="222.111458" style="fill: #de8f05; fill-opacity: 0.6; stroke: #000000; stroke-opacity: 0.6; stroke-width: 0.565685"/>
     <use xlink:href="#mb8db1019e9" x="167.151766" y="225.931936" style="fill: #de8f05; fill-opacity: 0.6; stroke: #000000; stroke-opacity: 0.6; stroke-width: 0.565685"/>
     <use xlink:href="#mb8db1019e9" x="165.942187" y="227.052578" style="fill: #de8f05; fill-opacity: 0.6; stroke: #000000; stroke-opacity: 0.6; stroke-width: 0.565685"/>
     <use xlink:href="#mb8db1019e9" x="447.333813" y="75.305272" style="fill: #de8f05; fill-opacity: 0.6; stroke: #000000; stroke-opacity: 0.6; stroke-width: 0.565685"/>
     <use xlink:href="#mb8db1019e9" x="122.608224" y="321.500121" style="fill: #de8f05; fill-opacity: 0.6; stroke: #000000; stroke-opacity: 0.6; stroke-width: 0.565685"/>
     <use xlink:href="#mb8db1019e9" x="124.431345" y="313.77625" style="fill: #de8f05; fill-opacity: 0.6; stroke: #000000; stroke-opacity: 0.6; stroke-width: 0.565685"/>
     <use xlink:href="#mb8db1019e9" x="142.016748" y="280.524129" style="fill: #de8f05; fill-opacity: 0.6; stroke: #000000; stroke-opacity: 0.6; stroke-width: 0.565685"/>
     <use xlink:href="#mb8db1019e9" x="137.04254" y="282.922913" style="fill: #de8f05; fill-opacity: 0.6; stroke: #000000; stroke-opacity: 0.6; stroke-width: 0.565685"/>
     <use xlink:href="#mb8db1019e9" x="138.270728" y="282.82102" style="fill: #de8f05; fill-opacity: 0.6; stroke: #000000; stroke-opacity: 0.6; stroke-width: 0.565685"/>
     <use xlink:href="#mb8db1019e9" x="144.684601" y="265.989142" style="fill: #de8f05; fill-opacity: 0.6; stroke: #000000; stroke-opacity: 0.6; stroke-width: 0.565685"/>
     <use xlink:href="#mb8db1019e9" x="123.917051" y="319.18129" style="fill: #de8f05; fill-opacity: 0.6; stroke: #000000; stroke-opacity: 0.6; stroke-width: 0.565685"/>
     <use xlink:href="#mb8db1019e9" x="164.186746" y="232.29675" style="fill: #de8f05; fill-opacity: 0.6; stroke: #000000; stroke-opacity: 0.6; stroke-width: 0.565685"/>
    </g>
   </g>
   <g id="FillBetweenPolyCollection_2"/>
   <g id="PathCollection_4">
    <defs>
     <path id="m1d6cd908eb" d="M 0 3.535534 
C 0.937635 3.535534 1.836992 3.163008 2.5 2.5 
C 3.163008 1.836992 3.535534 0.937635 3.535534 0 
C 3.535534 -0.937635 3.163008 -1.836992 2.5 -2.5 
C 1.836992 -3.163008 0.937635 -3.535534 0 -3.535534 
C -0.937635 -3.535534 -1.836992 -3.163008 -2.5 -2.5 
C -3.163008 -1.836992 -3.535534 -0.937635 -3.535534 0 
C -3.535534 0.937635 -3.163008 1.836992 -2.5 2.5 
C -1.836992 3.163008 -0.937635 3.535534 0 3.535534 
z
" style="stroke: #000000; stroke-opacity: 0.6; stroke-width: 0.565685"/>
    </defs>
    <g clip-path="url(#pcc3876fbdc)">
     <use xlink:href="#m1d6cd908eb" x="104.87928" y="344.048757" style="fill: #0173b2; fill-opacity: 0.6; stroke: #000000; stroke-opacity: 0.6; stroke-width: 0.565685"/>
     <use xlink:href="#m1d6cd908eb" x="141.374494" y="277.494008" style="fill: #0173b2; fill-opacity: 0.6; stroke: #000000; stroke-opacity: 0.6; stroke-width: 0.565685"/>
     <use xlink:href="#m1d6cd908eb" x="116.979339" y="328.990255" style="fill: #0173b2; fill-opacity: 0.6; stroke: #000000; stroke-opacity: 0.6; stroke-width: 0.565685"/>
     <use xlink:href="#m1d6cd908eb" x="104.758877" y="345.65203" style="fill: #0173b2; fill-opacity: 0.6; stroke: #000000; stroke-opacity: 0.6; stroke-width: 0.565685"/>
     <use xlink:href="#m1d6cd908eb" x="130.257016" y="294.358096" style="fill: #0173b2; fill-opacity: 0.6; stroke: #000000; stroke-opacity: 0.6; stroke-width: 0.565685"/>
     <use xlink:href="#m1d6cd908eb" x="119.310084" y="316.344975" style="fill: #0173b2; fill-opacity: 0.6; stroke: #000000; stroke-opacity: 0.6; stroke-width: 0.565685"/>
     <use xlink:href="#m1d6cd908eb" x="197.039941" y="194.523127" style="fill: #0173b2; fill-opacity: 0.6; stroke: #000000; stroke-opacity: 0.6; stroke-width: 0.565685"/>
     <use xlink:href="#m1d6cd908eb" x="97.505182" y="345.928143" style="fill: #0173b2; fill-opacity: 0.6; stroke: #000000; stroke-opacity: 0.6; stroke-width: 0.565685"/>
     <use xlink:href="#m1d6cd908eb" x="113.059062" y="333.814259" style="fill: #0173b2; fill-opacity: 0.6; stroke: #000000; stroke-opacity: 0.6; stroke-width: 0.565685"/>
     <use xlink:href="#m1d6cd908eb" x="117.697168" y="314.982032" style="fill: #0173b2; fill-opacity: 0.6; stroke: #000000; stroke-opacity: 0.6; stroke-width: 0.565685"/>
     <use xlink:href="#m1d6cd908eb" x="148.526261" y="275.832853" style="fill: #0173b2; fill-opacity: 0.6; stroke: #000000; stroke-opacity: 0.6; stroke-width: 0.565685"/>
     <use xlink:href="#m1d6cd908eb" x="122.887991" y="305.241583" style="fill: #0173b2; fill-opacity: 0.6; stroke: #000000; stroke-opacity: 0.6; stroke-width: 0.565685"/>
     <use xlink:href="#m1d6cd908eb" x="120.480633" y="320.787887" style="fill: #0173b2; fill-opacity: 0.6; stroke: #000000; stroke-opacity: 0.6; stroke-width: 0.565685"/>
     <use xlink:href="#m1d6cd908eb" x="116.339302" y="333.268811" style="fill: #0173b2; fill-opacity: 0.6; stroke: #000000; stroke-opacity: 0.6; stroke-width: 0.565685"/>
     <use xlink:href="#m1d6cd908eb" x="99.51768" y="345.924409" style="fill: #0173b2; fill-opacity: 0.6; stroke: #000000; stroke-opacity: 0.6; stroke-width: 0.565685"/>
     <use xlink:href="#m1d6cd908eb" x="112.618386" y="335.977223" style="fill: #0173b2; fill-opacity: 0.6; stroke: #000000; stroke-opacity: 0.6; stroke-width: 0.565685"/>
     <use xlink:href="#m1d6cd908eb" x="186.483547" y="203.013682" style="fill: #0173b2; fill-opacity: 0.6; stroke: #000000; stroke-opacity: 0.6; stroke-width: 0.565685"/>
     <use xlink:href="#m1d6cd908eb" x="144.982831" y="275.076567" style="fill: #0173b2; fill-opacity: 0.6; stroke: #000000; stroke-opacity: 0.6; stroke-width: 0.565685"/>
     <use xlink:href="#m1d6cd908eb" x="130.298681" y="296.164581" style="fill: #0173b2; fill-opacity: 0.6; stroke: #000000; stroke-opacity: 0.6; stroke-width: 0.565685"/>
     <use xlink:href="#m1d6cd908eb" x="107.843744" y="342.685233" style="fill: #0173b2; fill-opacity: 0.6; stroke: #000000; stroke-opacity: 0.6; stroke-width: 0.565685"/>
     <use xlink:href="#m1d6cd908eb" x="166.505588" y="226.911607" style="fill: #0173b2; fill-opacity: 0.6; stroke: #000000; stroke-opacity: 0.6; stroke-width: 0.565685"/>
     <use xlink:href="#m1d6cd908eb" x="124.722533" y="309.875141" style="fill: #0173b2; fill-opacity: 0.6; stroke: #000000; stroke-opacity: 0.6; stroke-width: 0.565685"/>
     <use xlink:href="#m1d6cd908eb" x="115.8887" y="323.824383" style="fill: #0173b2; fill-opacity: 0.6; stroke: #000000; stroke-opacity: 0.6; stroke-width: 0.565685"/>
     <use xlink:href="#m1d6cd908eb" x="145.879228" y="257.232567" style="fill: #0173b2; fill-opacity: 0.6; stroke: #000000; stroke-opacity: 0.6; stroke-width: 0.565685"/>
     <use xlink:href="#m1d6cd908eb" x="100.209681" y="345.881285" style="fill: #0173b2; fill-opacity: 0.6; stroke: #000000; stroke-opacity: 0.6; stroke-width: 0.565685"/>
     <use xlink:href="#m1d6cd908eb" x="108.609193" y="341.24907" style="fill: #0173b2; fill-opacity: 0.6; stroke: #000000; stroke-opacity: 0.6; stroke-width: 0.565685"/>
     <use xlink:href="#m1d6cd908eb" x="106.699281" y="343.233955" style="fill: #0173b2; fill-opacity: 0.6; stroke: #000000; stroke-opacity: 0.6; stroke-width: 0.565685"/>
     <use xlink:href="#m1d6cd908eb" x="101.665396" y="345.860316" style="fill: #0173b2; fill-opacity: 0.6; stroke: #000000; stroke-opacity: 0.6; stroke-width: 0.565685"/>
     <use xlink:href="#m1d6cd908eb" x="191.041323" y="208.438429" style="fill: #0173b2; fill-opacity: 0.6; stroke: #000000; stroke-opacity: 0.6; stroke-width: 0.565685"/>
     <use xlink:href="#m1d6cd908eb" x="106.061066" y="343.403023" style="fill: #0173b2; fill-opacity: 0.6; stroke: #000000; stroke-opacity: 0.6; stroke-width: 0.565685"/>
     <use xlink:href="#m1d6cd908eb" x="117.490476" y="321.323769" style="fill: #0173b2; fill-opacity: 0.6; stroke: #000000; stroke-opacity: 0.6; stroke-width: 0.565685"/>
     <use xlink:href="#m1d6cd908eb" x="102.8488" y="344.921101" style="fill: #0173b2; fill-opacity: 0.6; stroke: #000000; stroke-opacity: 0.6; stroke-width: 0.565685"/>
     <use xlink:href="#m1d6cd908eb" x="119.996364" y="320.50973" style="fill: #0173b2; fill-opacity: 0.6; stroke: #000000; stroke-opacity: 0.6; stroke-width: 0.565685"/>
     <use xlink:href="#m1d6cd908eb" x="151.133524" y="238.022473" style="fill: #0173b2; fill-opacity: 0.6; stroke: #000000; stroke-opacity: 0.6; stroke-width: 0.565685"/>
     <use xlink:href="#m1d6cd908eb" x="133.556413" y="287.275391" style="fill: #0173b2; fill-opacity: 0.6; stroke: #000000; stroke-opacity: 0.6; stroke-width: 0.565685"/>
     <use xlink:href="#m1d6cd908eb" x="187.906486" y="203.528148" style="fill: #0173b2; fill-opacity: 0.6; stroke: #000000; stroke-opacity: 0.6; stroke-width: 0.565685"/>
     <use xlink:href="#m1d6cd908eb" x="169.838237" y="239.851682" style="fill: #0173b2; fill-opacity: 0.6; stroke: #000000; stroke-opacity: 0.6; stroke-width: 0.565685"/>
     <use xlink:href="#m1d6cd908eb" x="150.675098" y="254.545226" style="fill: #0173b2; fill-opacity: 0.6; stroke: #000000; stroke-opacity: 0.6; stroke-width: 0.565685"/>
     <use xlink:href="#m1d6cd908eb" x="125.029875" y="307.029357" style="fill: #0173b2; fill-opacity: 0.6; stroke: #000000; stroke-opacity: 0.6; stroke-width: 0.565685"/>
     <use xlink:href="#m1d6cd908eb" x="110.37106" y="338.891059" style="fill: #0173b2; fill-opacity: 0.6; stroke: #000000; stroke-opacity: 0.6; stroke-width: 0.565685"/>
     <use xlink:href="#m1d6cd908eb" x="105.085325" y="344.527241" style="fill: #0173b2; fill-opacity: 0.6; stroke: #000000; stroke-opacity: 0.6; stroke-width: 0.565685"/>
     <use xlink:href="#m1d6cd908eb" x="116.08149" y="334.980227" style="fill: #0173b2; fill-opacity: 0.6; stroke: #000000; stroke-opacity: 0.6; stroke-width: 0.565685"/>
     <use xlink:href="#m1d6cd908eb" x="137.817911" y="290.774433" style="fill: #0173b2; fill-opacity: 0.6; stroke: #000000; stroke-opacity: 0.6; stroke-width: 0.565685"/>
     <use xlink:href="#m1d6cd908eb" x="109.077959" y="338.761046" style="fill: #0173b2; fill-opacity: 0.6; stroke: #000000; stroke-opacity: 0.6; stroke-width: 0.565685"/>
     <use xlink:href="#m1d6cd908eb" x="168.419666" y="224.728862" style="fill: #0173b2; fill-opacity: 0.6; stroke: #000000; stroke-opacity: 0.6; stroke-width: 0.565685"/>
     <use xlink:href="#m1d6cd908eb" x="167.151766" y="237.770503" style="fill: #0173b2; fill-opacity: 0.6; stroke: #000000; stroke-opacity: 0.6; stroke-width: 0.565685"/>
     <use xlink:href="#m1d6cd908eb" x="165.942187" y="232.73177" style="fill: #0173b2; fill-opacity: 0.6; stroke: #000000; stroke-opacity: 0.6; stroke-width: 0.565685"/>
     <use xlink:href="#m1d6cd908eb" x="447.333813" y="47.629176" style="fill: #0173b2; fill-opacity: 0.6; stroke: #000000; stroke-opacity: 0.6; stroke-width: 0.565685"/>
     <use xlink:href="#m1d6cd908eb" x="122.608224" y="313.772109" style="fill: #0173b2; fill-opacity: 0.6; stroke: #000000; stroke-opacity: 0.6; stroke-width: 0.565685"/>
     <use xlink:href="#m1d6cd908eb" x="124.431345" y="315.261021" style="fill: #0173b2; fill-opacity: 0.6; stroke: #000000; stroke-opacity: 0.6; stroke-width: 0.565685"/>
     <use xlink:href="#m1d6cd908eb" x="142.016748" y="264.373779" style="fill: #0173b2; fill-opacity: 0.6; stroke: #000000; stroke-opacity: 0.6; stroke-width: 0.565685"/>
     <use xlink:href="#m1d6cd908eb" x="137.04254" y="277.203657" style="fill: #0173b2; fill-opacity: 0.6; stroke: #000000; stroke-opacity: 0.6; stroke-width: 0.565685"/>
     <use xlink:href="#m1d6cd908eb" x="138.270728" y="273.54978" style="fill: #0173b2; fill-opacity: 0.6; stroke: #000000; stroke-opacity: 0.6; stroke-width: 0.565685"/>
     <use xlink:href="#m1d6cd908eb" x="144.684601" y="262.86254" style="fill: #0173b2; fill-opacity: 0.6; stroke: #000000; stroke-opacity: 0.6; stroke-width: 0.565685"/>
     <use xlink:href="#m1d6cd908eb" x="123.917051" y="305.996826" style="fill: #0173b2; fill-opacity: 0.6; stroke: #000000; stroke-opacity: 0.6; stroke-width: 0.565685"/>
     <use xlink:href="#m1d6cd908eb" x="164.186746" y="245.781392" style="fill: #0173b2; fill-opacity: 0.6; stroke: #000000; stroke-opacity: 0.6; stroke-width: 0.565685"/>
    </g>
   </g>
   <g id="line2d_16">
    <path d="M 97.672276 339.562074 
L 105.090864 327.264808 
L 112.509452 315.465305 
L 119.92804 304.133942 
L 127.346628 293.243402 
L 134.765216 282.768451 
L 142.183804 272.685747 
L 149.602393 262.973661 
L 157.020981 253.612128 
L 164.439569 244.582506 
L 171.858157 235.867448 
L 179.276745 227.450801 
L 186.695333 219.317494 
L 194.113921 211.453456 
L 201.532509 203.845535 
L 208.951097 196.481417 
L 218.842548 187.022013 
L 228.733999 177.950229 
L 238.62545 169.242718 
L 248.516901 160.877971 
L 258.408351 152.836141 
L 268.299802 145.098882 
L 278.191253 137.649212 
L 288.082704 130.471391 
L 297.974155 123.550805 
L 307.865605 116.873869 
L 317.757056 110.427938 
L 327.648507 104.201228 
L 340.01282 96.709439 
L 352.377134 89.523149 
L 364.741447 82.624047 
L 377.105761 75.995254 
L 389.470074 69.621188 
L 401.834388 63.487445 
L 414.198701 57.580683 
L 426.563015 51.888534 
L 441.400191 45.325124 
L 456.237367 39.035923 
L 466.128818 34.987091 
L 466.128818 34.987091 
" clip-path="url(#pcc3876fbdc)" style="fill: none; stroke: #029e73; stroke-width: 2; stroke-linecap: round"/>
   </g>
   <g id="line2d_17">
    <path d="M 97.505182 345.928909 
L 99.51768 345.928869 
L 100.209681 345.926501 
L 101.665396 345.917846 
L 102.8488 345.807939 
L 104.758877 345.85143 
L 104.87928 345.538099 
L 105.085325 345.586794 
L 106.061066 344.91859 
L 106.699281 345.478406 
L 107.843744 345.402185 
L 108.609193 343.869061 
L 109.077959 342.70485 
L 110.37106 342.202411 
L 112.618386 344.235578 
L 113.059062 337.624419 
L 115.8887 332.416262 
L 116.08149 339.626637 
L 116.339302 335.152132 
L 116.979339 337.045307 
L 117.490476 336.61286 
L 117.697168 334.347884 
L 119.310084 328.369212 
L 119.996364 333.17296 
L 120.480633 330.099432 
L 122.608224 321.500121 
L 122.887991 320.695094 
L 123.917051 319.18129 
L 124.431345 313.77625 
L 124.722533 320.749325 
L 125.029875 309.483271 
L 130.257016 302.542501 
L 130.298681 302.062309 
L 133.556413 293.507035 
L 137.04254 282.922913 
L 137.817911 285.838041 
L 138.270728 282.82102 
L 141.374494 274.211367 
L 142.016748 280.524129 
L 144.684601 265.989142 
L 144.982831 267.406883 
L 145.879228 260.902611 
L 148.526261 260.201028 
L 150.675098 253.107166 
L 151.133524 255.515328 
L 164.186746 232.29675 
L 165.942187 227.052578 
L 166.505588 222.780851 
L 167.151766 225.931936 
L 168.419666 222.111458 
L 169.838237 225.61622 
L 186.483547 193.355043 
L 187.906486 189.328936 
L 191.041323 192.186244 
L 197.039941 176.397555 
L 447.333813 75.305272 
" clip-path="url(#pcc3876fbdc)" style="fill: none; stroke: #de8f05; stroke-width: 2; stroke-linecap: round"/>
   </g>
   <g id="line2d_18">
    <path d="M 97.505182 345.928143 
L 99.51768 345.924409 
L 100.209681 345.881285 
L 101.665396 345.860316 
L 102.8488 344.921101 
L 104.758877 345.65203 
L 104.87928 344.048757 
L 105.085325 344.527241 
L 106.061066 343.403023 
L 106.699281 343.233955 
L 107.843744 342.685233 
L 108.609193 341.24907 
L 109.077959 338.761046 
L 110.37106 338.891059 
L 112.618386 335.977223 
L 113.059062 333.814259 
L 115.8887 323.824383 
L 116.08149 334.980227 
L 116.339302 333.268811 
L 116.979339 328.990255 
L 117.490476 321.323769 
L 117.697168 314.982032 
L 119.310084 316.344975 
L 119.996364 320.50973 
L 120.480633 320.787887 
L 122.608224 313.772109 
L 122.887991 305.241583 
L 123.917051 305.996826 
L 124.431345 315.261021 
L 124.722533 309.875141 
L 125.029875 307.029357 
L 130.257016 294.358096 
L 130.298681 296.164581 
L 133.556413 287.275391 
L 137.04254 277.203657 
L 137.817911 290.774433 
L 138.270728 273.54978 
L 141.374494 277.494008 
L 142.016748 264.373779 
L 144.684601 262.86254 
L 144.982831 275.076567 
L 145.879228 257.232567 
L 148.526261 275.832853 
L 150.675098 254.545226 
L 151.133524 238.022473 
L 164.186746 245.781392 
L 165.942187 232.73177 
L 166.505588 226.911607 
L 167.151766 237.770503 
L 168.419666 224.728862 
L 169.838237 239.851682 
L 186.483547 203.013682 
L 187.906486 203.528148 
L 191.041323 208.438429 
L 197.039941 194.523127 
L 447.333813 47.629176 
" clip-path="url(#pcc3876fbdc)" style="fill: none; stroke: #0173b2; stroke-width: 2; stroke-linecap: round"/>
   </g>
   <g id="patch_3">
    <path d="M 79.074 361.476 
L 79.074 19.44 
" style="fill: none; stroke: #cccccc; stroke-width: 1.25; stroke-linejoin: miter; stroke-linecap: square"/>
   </g>
   <g id="patch_4">
    <path d="M 484.56 361.476 
L 484.56 19.44 
" style="fill: none; stroke: #cccccc; stroke-width: 1.25; stroke-linejoin: miter; stroke-linecap: square"/>
   </g>
   <g id="patch_5">
    <path d="M 79.074 361.476 
L 484.56 361.476 
" style="fill: none; stroke: #cccccc; stroke-width: 1.25; stroke-linejoin: miter; stroke-linecap: square"/>
   </g>
   <g id="patch_6">
    <path d="M 79.074 19.44 
L 484.56 19.44 
" style="fill: none; stroke: #cccccc; stroke-width: 1.25; stroke-linejoin: miter; stroke-linecap: square"/>
   </g>
   <g id="legend_1">
    <g id="patch_7">
     <path d="M 274.14 352.476 
L 471.96 352.476 
Q 475.56 352.476 475.56 348.876 
L 475.56 234.263813 
Q 475.56 230.663813 471.96 230.663813 
L 274.14 230.663813 
Q 270.54 230.663813 270.54 234.263813 
L 270.54 348.876 
Q 270.54 352.476 274.14 352.476 
z
" style="fill: #ffffff; opacity: 0.8; stroke: #cccccc; stroke-linejoin: miter"/>
    </g>
    <g id="PathCollection_5">
     <g>
      <use xlink:href="#m7dbc088f59" x="295.74" y="246.2535" style="fill: #808080; fill-opacity: 0.6; stroke: #000000; stroke-opacity: 0.6; stroke-width: 0.565685"/>
     </g>
    </g>
    <g id="text_18">
     <!-- Obs. respiration -->
     <g style="fill: #262626" transform="translate(328.14 250.9785) scale(0.18 -0.18)">
      <defs>
       <path id="ArialMT-62" d="M 941 0 
L 419 0 
L 419 4581 
L 981 4581 
L 981 2947 
Q 1338 3394 1891 3394 
Q 2197 3394 2470 3270 
Q 2744 3147 2920 2923 
Q 3097 2700 3197 2384 
Q 3297 2069 3297 1709 
Q 3297 856 2875 390 
Q 2453 -75 1863 -75 
Q 1275 -75 941 416 
L 941 0 
z
M 934 1684 
Q 934 1088 1097 822 
Q 1363 388 1816 388 
Q 2184 388 2453 708 
Q 2722 1028 2722 1663 
Q 2722 2313 2464 2622 
Q 2206 2931 1841 2931 
Q 1472 2931 1203 2611 
Q 934 2291 934 1684 
z
" transform="scale(0.015625)"/>
      </defs>
      <use xlink:href="#ArialMT-4f"/>
      <use xlink:href="#ArialMT-62" transform="translate(77.783203 0)"/>
      <use xlink:href="#ArialMT-73" transform="translate(133.398438 0)"/>
      <use xlink:href="#ArialMT-2e" transform="translate(183.398438 0)"/>
      <use xlink:href="#ArialMT-20" transform="translate(211.181641 0)"/>
      <use xlink:href="#ArialMT-72" transform="translate(238.964844 0)"/>
      <use xlink:href="#ArialMT-65" transform="translate(272.265625 0)"/>
      <use xlink:href="#ArialMT-73" transform="translate(327.880859 0)"/>
      <use xlink:href="#ArialMT-70" transform="translate(377.880859 0)"/>
      <use xlink:href="#ArialMT-69" transform="translate(433.496094 0)"/>
      <use xlink:href="#ArialMT-72" transform="translate(455.712891 0)"/>
      <use xlink:href="#ArialMT-61" transform="translate(489.013672 0)"/>
      <use xlink:href="#ArialMT-74" transform="translate(544.628906 0)"/>
      <use xlink:href="#ArialMT-69" transform="translate(572.412109 0)"/>
      <use xlink:href="#ArialMT-6f" transform="translate(594.628906 0)"/>
      <use xlink:href="#ArialMT-6e" transform="translate(650.244141 0)"/>
     </g>
    </g>
    <g id="PathCollection_6">
     <g>
      <use xlink:href="#mda16f3b3e8" x="295.74" y="275.211" style="fill: #029e73; fill-opacity: 0.6; stroke: #000000; stroke-opacity: 0.6; stroke-width: 0.565685"/>
     </g>
    </g>
    <g id="text_19">
     <!-- $R_{Monod}$ ($R^2$=0.55) -->
     <g style="fill: #262626" transform="translate(328.14 279.936) scale(0.18 -0.18)">
      <defs>
       <path id="DejaVuSans-Oblique-52" d="M 1613 4147 
L 1294 2491 
L 2106 2491 
Q 2584 2491 2879 2755 
Q 3175 3019 3175 3444 
Q 3175 3784 2976 3965 
Q 2778 4147 2406 4147 
L 1613 4147 
z
M 2772 2241 
Q 2972 2194 3105 2009 
Q 3238 1825 3413 1275 
L 3809 0 
L 3144 0 
L 2778 1197 
Q 2638 1659 2453 1815 
Q 2269 1972 1888 1972 
L 1191 1972 
L 806 0 
L 172 0 
L 1081 4666 
L 2503 4666 
Q 3150 4666 3495 4373 
Q 3841 4081 3841 3531 
Q 3841 3044 3547 2687 
Q 3253 2331 2772 2241 
z
" transform="scale(0.015625)"/>
       <path id="DejaVuSans-Oblique-4d" d="M 1081 4666 
L 2028 4666 
L 2572 1522 
L 4378 4666 
L 5350 4666 
L 4441 0 
L 3828 0 
L 4622 4091 
L 2791 897 
L 2175 897 
L 1581 4103 
L 788 0 
L 172 0 
L 1081 4666 
z
" transform="scale(0.015625)"/>
       <path id="DejaVuSans-Oblique-6f" d="M 1625 -91 
Q 1009 -91 651 289 
Q 294 669 294 1325 
Q 294 1706 417 2101 
Q 541 2497 738 2766 
Q 1047 3184 1428 3384 
Q 1809 3584 2291 3584 
Q 2888 3584 3255 3212 
Q 3622 2841 3622 2241 
Q 3622 1825 3500 1412 
Q 3378 1000 3181 728 
Q 2875 309 2494 109 
Q 2113 -91 1625 -91 
z
M 891 1344 
Q 891 869 1089 633 
Q 1288 397 1691 397 
Q 2269 397 2648 901 
Q 3028 1406 3028 2181 
Q 3028 2634 2825 2865 
Q 2622 3097 2228 3097 
Q 1903 3097 1650 2945 
Q 1397 2794 1197 2484 
Q 1050 2253 970 1956 
Q 891 1659 891 1344 
z
" transform="scale(0.015625)"/>
       <path id="DejaVuSans-Oblique-6e" d="M 3566 2113 
L 3156 0 
L 2578 0 
L 2988 2091 
Q 3016 2238 3031 2350 
Q 3047 2463 3047 2528 
Q 3047 2791 2881 2937 
Q 2716 3084 2419 3084 
Q 1956 3084 1622 2776 
Q 1288 2469 1184 1941 
L 800 0 
L 225 0 
L 903 3500 
L 1478 3500 
L 1363 2950 
Q 1603 3253 1940 3418 
Q 2278 3584 2650 3584 
Q 3113 3584 3367 3334 
Q 3622 3084 3622 2631 
Q 3622 2519 3608 2391 
Q 3594 2263 3566 2113 
z
" transform="scale(0.015625)"/>
       <path id="DejaVuSans-Oblique-64" d="M 2675 525 
Q 2444 222 2128 65 
Q 1813 -91 1428 -91 
Q 903 -91 598 267 
Q 294 625 294 1247 
Q 294 1766 478 2236 
Q 663 2706 1013 3078 
Q 1244 3325 1534 3454 
Q 1825 3584 2144 3584 
Q 2481 3584 2739 3421 
Q 2997 3259 3138 2956 
L 3513 4863 
L 4091 4863 
L 3144 0 
L 2566 0 
L 2675 525 
z
M 891 1350 
Q 891 897 1095 644 
Q 1300 391 1663 391 
Q 1931 391 2161 520 
Q 2391 650 2566 903 
Q 2750 1166 2856 1509 
Q 2963 1853 2963 2188 
Q 2963 2622 2758 2865 
Q 2553 3109 2194 3109 
Q 1922 3109 1687 2981 
Q 1453 2853 1288 2613 
Q 1106 2353 998 2009 
Q 891 1666 891 1350 
z
" transform="scale(0.015625)"/>
       <path id="ArialMT-28" d="M 1497 -1347 
Q 1031 -759 709 28 
Q 388 816 388 1659 
Q 388 2403 628 3084 
Q 909 3875 1497 4659 
L 1900 4659 
Q 1522 4009 1400 3731 
Q 1209 3300 1100 2831 
Q 966 2247 966 1656 
Q 966 153 1900 -1347 
L 1497 -1347 
z
" transform="scale(0.015625)"/>
       <path id="ArialMT-3d" d="M 3381 2694 
L 356 2694 
L 356 3219 
L 3381 3219 
L 3381 2694 
z
M 3381 1303 
L 356 1303 
L 356 1828 
L 3381 1828 
L 3381 1303 
z
" transform="scale(0.015625)"/>
       <path id="ArialMT-29" d="M 791 -1347 
L 388 -1347 
Q 1322 153 1322 1656 
Q 1322 2244 1188 2822 
Q 1081 3291 891 3722 
Q 769 4003 388 4659 
L 791 4659 
Q 1378 3875 1659 3084 
Q 1900 2403 1900 1659 
Q 1900 816 1576 28 
Q 1253 -759 791 -1347 
z
" transform="scale(0.015625)"/>
      </defs>
      <use xlink:href="#DejaVuSans-Oblique-52" transform="translate(0 0.765625)"/>
      <use xlink:href="#DejaVuSans-Oblique-4d" transform="translate(69.482422 -15.640625) scale(0.7)"/>
      <use xlink:href="#DejaVuSans-Oblique-6f" transform="translate(129.87793 -15.640625) scale(0.7)"/>
      <use xlink:href="#DejaVuSans-Oblique-6e" transform="translate(172.705078 -15.640625) scale(0.7)"/>
      <use xlink:href="#DejaVuSans-Oblique-6f" transform="translate(217.070312 -15.640625) scale(0.7)"/>
      <use xlink:href="#DejaVuSans-Oblique-64" transform="translate(259.897461 -15.640625) scale(0.7)"/>
      <use xlink:href="#ArialMT-20" transform="translate(307.06543 0.765625)"/>
      <use xlink:href="#ArialMT-28" transform="translate(334.848633 0.765625)"/>
      <use xlink:href="#DejaVuSans-Oblique-52" transform="translate(368.149414 0.765625)"/>
      <use xlink:href="#DejaVuSans-32" transform="translate(444.648607 39.046875) scale(0.7)"/>
      <use xlink:href="#ArialMT-3d" transform="translate(491.919115 0.765625)"/>
      <use xlink:href="#ArialMT-30" transform="translate(550.317552 0.765625)"/>
      <use xlink:href="#ArialMT-2e" transform="translate(605.932786 0.765625)"/>
      <use xlink:href="#ArialMT-35" transform="translate(633.71599 0.765625)"/>
      <use xlink:href="#ArialMT-35" transform="translate(689.331224 0.765625)"/>
      <use xlink:href="#ArialMT-29" transform="translate(744.946458 0.765625)"/>
     </g>
    </g>
    <g id="PathCollection_7">
     <g>
      <use xlink:href="#mb8db1019e9" x="295.74" y="304.551" style="fill: #de8f05; fill-opacity: 0.6; stroke: #000000; stroke-opacity: 0.6; stroke-width: 0.565685"/>
     </g>
    </g>
    <g id="text_20">
     <!-- $R_{MTS}^{mean}$ ($R^2$=0.56) -->
     <g style="fill: #262626" transform="translate(328.14 309.276) scale(0.18 -0.18)">
      <defs>
       <path id="DejaVuSans-Oblique-6d" d="M 5747 2113 
L 5338 0 
L 4763 0 
L 5166 2094 
Q 5191 2228 5203 2325 
Q 5216 2422 5216 2491 
Q 5216 2772 5059 2928 
Q 4903 3084 4622 3084 
Q 4203 3084 3875 2770 
Q 3547 2456 3450 1953 
L 3066 0 
L 2491 0 
L 2900 2094 
Q 2925 2209 2937 2307 
Q 2950 2406 2950 2484 
Q 2950 2769 2794 2926 
Q 2638 3084 2363 3084 
Q 1938 3084 1609 2770 
Q 1281 2456 1184 1953 
L 800 0 
L 225 0 
L 909 3500 
L 1484 3500 
L 1375 2956 
Q 1609 3263 1923 3423 
Q 2238 3584 2597 3584 
Q 2978 3584 3223 3384 
Q 3469 3184 3519 2828 
Q 3781 3197 4126 3390 
Q 4472 3584 4856 3584 
Q 5306 3584 5551 3325 
Q 5797 3066 5797 2591 
Q 5797 2488 5784 2364 
Q 5772 2241 5747 2113 
z
" transform="scale(0.015625)"/>
       <path id="DejaVuSans-Oblique-65" d="M 3078 2063 
Q 3088 2113 3092 2166 
Q 3097 2219 3097 2272 
Q 3097 2653 2873 2875 
Q 2650 3097 2266 3097 
Q 1838 3097 1509 2826 
Q 1181 2556 1013 2059 
L 3078 2063 
z
M 3578 1613 
L 903 1613 
Q 884 1494 878 1425 
Q 872 1356 872 1306 
Q 872 872 1139 634 
Q 1406 397 1894 397 
Q 2269 397 2603 481 
Q 2938 566 3225 728 
L 3116 159 
Q 2806 34 2476 -28 
Q 2147 -91 1806 -91 
Q 1078 -91 686 257 
Q 294 606 294 1247 
Q 294 1794 489 2264 
Q 684 2734 1063 3103 
Q 1306 3334 1642 3459 
Q 1978 3584 2356 3584 
Q 2950 3584 3301 3228 
Q 3653 2872 3653 2272 
Q 3653 2128 3634 1964 
Q 3616 1800 3578 1613 
z
" transform="scale(0.015625)"/>
       <path id="DejaVuSans-Oblique-61" d="M 3438 1997 
L 3047 0 
L 2472 0 
L 2578 531 
Q 2325 219 2001 64 
Q 1678 -91 1281 -91 
Q 834 -91 548 182 
Q 263 456 263 884 
Q 263 1497 752 1853 
Q 1241 2209 2100 2209 
L 2900 2209 
L 2931 2363 
Q 2938 2388 2941 2417 
Q 2944 2447 2944 2509 
Q 2944 2788 2717 2942 
Q 2491 3097 2081 3097 
Q 1800 3097 1504 3025 
Q 1209 2953 897 2809 
L 997 3341 
Q 1322 3463 1633 3523 
Q 1944 3584 2234 3584 
Q 2853 3584 3176 3315 
Q 3500 3047 3500 2534 
Q 3500 2431 3484 2292 
Q 3469 2153 3438 1997 
z
M 2816 1759 
L 2241 1759 
Q 1534 1759 1195 1570 
Q 856 1381 856 984 
Q 856 709 1029 553 
Q 1203 397 1509 397 
Q 1978 397 2328 733 
Q 2678 1069 2791 1631 
L 2816 1759 
z
" transform="scale(0.015625)"/>
       <path id="DejaVuSans-Oblique-54" d="M 378 4666 
L 4325 4666 
L 4225 4134 
L 2559 4134 
L 1759 0 
L 1125 0 
L 1925 4134 
L 275 4134 
L 378 4666 
z
" transform="scale(0.015625)"/>
       <path id="DejaVuSans-Oblique-53" d="M 3859 4513 
L 3738 3897 
Q 3422 4066 3111 4152 
Q 2800 4238 2509 4238 
Q 1944 4238 1609 3991 
Q 1275 3744 1275 3334 
Q 1275 3109 1398 2989 
Q 1522 2869 2034 2731 
L 2413 2638 
Q 3053 2472 3303 2217 
Q 3553 1963 3553 1503 
Q 3553 797 2998 353 
Q 2444 -91 1538 -91 
Q 1166 -91 791 -17 
Q 416 56 38 206 
L 166 856 
Q 513 641 861 531 
Q 1209 422 1556 422 
Q 2147 422 2503 684 
Q 2859 947 2859 1369 
Q 2859 1650 2717 1795 
Q 2575 1941 2106 2059 
L 1728 2156 
Q 1081 2325 845 2545 
Q 609 2766 609 3163 
Q 609 3859 1145 4304 
Q 1681 4750 2541 4750 
Q 2875 4750 3203 4690 
Q 3531 4631 3859 4513 
z
" transform="scale(0.015625)"/>
      </defs>
      <use xlink:href="#DejaVuSans-Oblique-52" transform="translate(0 0.765625)"/>
      <use xlink:href="#DejaVuSans-Oblique-6d" transform="translate(76.499193 39.046875) scale(0.7)"/>
      <use xlink:href="#DejaVuSans-Oblique-65" transform="translate(144.687669 39.046875) scale(0.7)"/>
      <use xlink:href="#DejaVuSans-Oblique-61" transform="translate(187.754076 39.046875) scale(0.7)"/>
      <use xlink:href="#DejaVuSans-Oblique-6e" transform="translate(230.649583 39.046875) scale(0.7)"/>
      <use xlink:href="#DejaVuSans-Oblique-4d" transform="translate(69.482422 -26.578125) scale(0.7)"/>
      <use xlink:href="#DejaVuSans-Oblique-54" transform="translate(129.87793 -26.578125) scale(0.7)"/>
      <use xlink:href="#DejaVuSans-Oblique-53" transform="translate(172.636719 -26.578125) scale(0.7)"/>
      <use xlink:href="#ArialMT-20" transform="translate(277.749193 0.765625)"/>
      <use xlink:href="#ArialMT-28" transform="translate(305.532396 0.765625)"/>
      <use xlink:href="#DejaVuSans-Oblique-52" transform="translate(338.833177 0.765625)"/>
      <use xlink:href="#DejaVuSans-32" transform="translate(415.33237 39.046875) scale(0.7)"/>
      <use xlink:href="#ArialMT-3d" transform="translate(462.602878 0.765625)"/>
      <use xlink:href="#ArialMT-30" transform="translate(521.001315 0.765625)"/>
      <use xlink:href="#ArialMT-2e" transform="translate(576.616549 0.765625)"/>
      <use xlink:href="#ArialMT-35" transform="translate(604.399753 0.765625)"/>
      <use xlink:href="#ArialMT-36" transform="translate(660.014987 0.765625)"/>
      <use xlink:href="#ArialMT-29" transform="translate(715.630221 0.765625)"/>
     </g>
    </g>
    <g id="PathCollection_8">
     <g>
      <use xlink:href="#m1d6cd908eb" x="295.74" y="335.331" style="fill: #0173b2; fill-opacity: 0.6; stroke: #000000; stroke-opacity: 0.6; stroke-width: 0.565685"/>
     </g>
    </g>
    <g id="text_21">
     <!-- $R_{MTS}^{multi}$ ($R^2$=0.56) -->
     <g style="fill: #262626" transform="translate(328.14 340.056) scale(0.18 -0.18)">
      <defs>
       <path id="DejaVuSans-Oblique-75" d="M 428 1388 
L 838 3500 
L 1416 3500 
L 1006 1409 
Q 975 1256 961 1147 
Q 947 1038 947 966 
Q 947 700 1109 554 
Q 1272 409 1569 409 
Q 2031 409 2368 721 
Q 2706 1034 2809 1563 
L 3194 3500 
L 3769 3500 
L 3091 0 
L 2516 0 
L 2631 550 
Q 2388 244 2052 76 
Q 1716 -91 1338 -91 
Q 878 -91 622 161 
Q 366 413 366 863 
Q 366 956 381 1097 
Q 397 1238 428 1388 
z
" transform="scale(0.015625)"/>
       <path id="DejaVuSans-Oblique-6c" d="M 1172 4863 
L 1747 4863 
L 800 0 
L 225 0 
L 1172 4863 
z
" transform="scale(0.015625)"/>
       <path id="DejaVuSans-Oblique-74" d="M 2706 3500 
L 2619 3053 
L 1472 3053 
L 1100 1153 
Q 1081 1047 1072 975 
Q 1063 903 1063 863 
Q 1063 663 1183 572 
Q 1303 481 1569 481 
L 2150 481 
L 2053 0 
L 1503 0 
Q 991 0 739 200 
Q 488 400 488 806 
Q 488 878 497 964 
Q 506 1050 525 1153 
L 897 3053 
L 409 3053 
L 500 3500 
L 978 3500 
L 1172 4494 
L 1747 4494 
L 1556 3500 
L 2706 3500 
z
" transform="scale(0.015625)"/>
       <path id="DejaVuSans-Oblique-69" d="M 1172 4863 
L 1747 4863 
L 1606 4134 
L 1031 4134 
L 1172 4863 
z
M 909 3500 
L 1484 3500 
L 800 0 
L 225 0 
L 909 3500 
z
" transform="scale(0.015625)"/>
      </defs>
      <use xlink:href="#DejaVuSans-Oblique-52" transform="translate(0 0.529687)"/>
      <use xlink:href="#DejaVuSans-Oblique-6d" transform="translate(76.499193 38.810938) scale(0.7)"/>
      <use xlink:href="#DejaVuSans-Oblique-75" transform="translate(144.687669 38.810938) scale(0.7)"/>
      <use xlink:href="#DejaVuSans-Oblique-6c" transform="translate(189.052904 38.810938) scale(0.7)"/>
      <use xlink:href="#DejaVuSans-Oblique-74" transform="translate(208.501146 38.810938) scale(0.7)"/>
      <use xlink:href="#DejaVuSans-Oblique-69" transform="translate(235.947435 38.810938) scale(0.7)"/>
      <use xlink:href="#DejaVuSans-Oblique-4d" transform="translate(69.482422 -26.814063) scale(0.7)"/>
      <use xlink:href="#DejaVuSans-Oblique-54" transform="translate(129.87793 -26.814063) scale(0.7)"/>
      <use xlink:href="#DejaVuSans-Oblique-53" transform="translate(172.636719 -26.814063) scale(0.7)"/>
      <use xlink:href="#ArialMT-20" transform="translate(258.130052 0.529687)"/>
      <use xlink:href="#ArialMT-28" transform="translate(285.913255 0.529687)"/>
      <use xlink:href="#DejaVuSans-Oblique-52" transform="translate(319.214036 0.529687)"/>
      <use xlink:href="#DejaVuSans-32" transform="translate(395.713229 38.810937) scale(0.7)"/>
      <use xlink:href="#ArialMT-3d" transform="translate(442.983737 0.529687)"/>
      <use xlink:href="#ArialMT-30" transform="translate(501.382174 0.529687)"/>
      <use xlink:href="#ArialMT-2e" transform="translate(556.997409 0.529687)"/>
      <use xlink:href="#ArialMT-35" transform="translate(584.780612 0.529687)"/>
      <use xlink:href="#ArialMT-36" transform="translate(640.395846 0.529687)"/>
      <use xlink:href="#ArialMT-29" transform="translate(696.011081 0.529687)"/>
     </g>
    </g>
   </g>
  </g>
 </g>
 <defs>
  <clipPath id="pcc3876fbdc">
   <rect x="79.074" y="19.44" width="405.486" height="342.036"/>
  </clipPath>
 </defs>
</svg>
