<?xml version="1.0" encoding="utf-8" standalone="no"?>
<!DOCTYPE svg PUBLIC "-//W3C//DTD SVG 1.1//EN"
  "http://www.w3.org/Graphics/SVG/1.1/DTD/svg11.dtd">
<svg xmlns:xlink="http://www.w3.org/1999/xlink" width="628.818371pt" height="267.527812pt" viewBox="0 0 628.818371 267.527812" xmlns="http://www.w3.org/2000/svg" version="1.1">
 <metadata>
  <rdf:RDF xmlns:dc="http://purl.org/dc/elements/1.1/" xmlns:cc="http://creativecommons.org/ns#" xmlns:rdf="http://www.w3.org/1999/02/22-rdf-syntax-ns#">
   <cc:Work>
    <dc:type rdf:resource="http://purl.org/dc/dcmitype/StillImage"/>
    <dc:date>2025-04-14T23:23:16.104826</dc:date>
    <dc:format>image/svg+xml</dc:format>
    <dc:creator>
     <cc:Agent>
      <dc:title>Matplotlib v3.10.1, https://matplotlib.org/</dc:title>
     </cc:Agent>
    </dc:creator>
   </cc:Work>
  </rdf:RDF>
 </metadata>
 <defs>
  <style type="text/css">*{stroke-linejoin: round; stroke-linecap: butt}</style>
 </defs>
 <g id="figure_1">
  <g id="patch_1">
   <path d="M 0 267.527812 
L 628.818371 267.527812 
L 628.818371 0 
L 0 0 
z
" style="fill: #ffffff"/>
  </g>
  <g id="axes_1">
   <g id="patch_2">
    <path d="M 75.5505 221.076 
L 300.432362 221.076 
L 300.432362 7.2 
L 75.5505 7.2 
z
" style="fill: #ffffff"/>
   </g>
   <g id="matplotlib.axis_1">
    <g id="xtick_1">
     <g id="line2d_1">
      <path d="M 91.206197 221.076 
L 91.206197 7.2 
" clip-path="url(#pece9965782)" style="fill: none; stroke: #cccccc; stroke-linecap: round"/>
     </g>
     <g id="text_1">
      <!-- 3.0 -->
      <g style="fill: #262626" transform="translate(82.032197 240.024312) scale(0.132 -0.132)">
       <defs>
        <path id="ArialMT-33" d="M 269 1209 
L 831 1284 
Q 928 806 1161 595 
Q 1394 384 1728 384 
Q 2125 384 2398 659 
Q 2672 934 2672 1341 
Q 2672 1728 2419 1979 
Q 2166 2231 1775 2231 
Q 1616 2231 1378 2169 
L 1441 2663 
Q 1497 2656 1531 2656 
Q 1891 2656 2178 2843 
Q 2466 3031 2466 3422 
Q 2466 3731 2256 3934 
Q 2047 4138 1716 4138 
Q 1388 4138 1169 3931 
Q 950 3725 888 3313 
L 325 3413 
Q 428 3978 793 4289 
Q 1159 4600 1703 4600 
Q 2078 4600 2393 4439 
Q 2709 4278 2876 4000 
Q 3044 3722 3044 3409 
Q 3044 3113 2884 2869 
Q 2725 2625 2413 2481 
Q 2819 2388 3044 2092 
Q 3269 1797 3269 1353 
Q 3269 753 2831 336 
Q 2394 -81 1725 -81 
Q 1122 -81 723 278 
Q 325 638 269 1209 
z
" transform="scale(0.015625)"/>
        <path id="ArialMT-2e" d="M 581 0 
L 581 641 
L 1222 641 
L 1222 0 
L 581 0 
z
" transform="scale(0.015625)"/>
        <path id="ArialMT-30" d="M 266 2259 
Q 266 3072 433 3567 
Q 600 4063 929 4331 
Q 1259 4600 1759 4600 
Q 2128 4600 2406 4451 
Q 2684 4303 2865 4023 
Q 3047 3744 3150 3342 
Q 3253 2941 3253 2259 
Q 3253 1453 3087 958 
Q 2922 463 2592 192 
Q 2263 -78 1759 -78 
Q 1097 -78 719 397 
Q 266 969 266 2259 
z
M 844 2259 
Q 844 1131 1108 757 
Q 1372 384 1759 384 
Q 2147 384 2411 759 
Q 2675 1134 2675 2259 
Q 2675 3391 2411 3762 
Q 2147 4134 1753 4134 
Q 1366 4134 1134 3806 
Q 844 3388 844 2259 
z
" transform="scale(0.015625)"/>
       </defs>
       <use xlink:href="#ArialMT-33"/>
       <use xlink:href="#ArialMT-2e" transform="translate(55.615234 0)"/>
       <use xlink:href="#ArialMT-30" transform="translate(83.398438 0)"/>
      </g>
     </g>
    </g>
    <g id="xtick_2">
     <g id="line2d_2">
      <path d="M 160.774255 221.076 
L 160.774255 7.2 
" clip-path="url(#pece9965782)" style="fill: none; stroke: #cccccc; stroke-linecap: round"/>
     </g>
     <g id="text_2">
      <!-- 3.5 -->
      <g style="fill: #262626" transform="translate(151.600255 240.024312) scale(0.132 -0.132)">
       <defs>
        <path id="ArialMT-35" d="M 266 1200 
L 856 1250 
Q 922 819 1161 601 
Q 1400 384 1738 384 
Q 2144 384 2425 690 
Q 2706 997 2706 1503 
Q 2706 1984 2436 2262 
Q 2166 2541 1728 2541 
Q 1456 2541 1237 2417 
Q 1019 2294 894 2097 
L 366 2166 
L 809 4519 
L 3088 4519 
L 3088 3981 
L 1259 3981 
L 1013 2750 
Q 1425 3038 1878 3038 
Q 2478 3038 2890 2622 
Q 3303 2206 3303 1553 
Q 3303 931 2941 478 
Q 2500 -78 1738 -78 
Q 1113 -78 717 272 
Q 322 622 266 1200 
z
" transform="scale(0.015625)"/>
       </defs>
       <use xlink:href="#ArialMT-33"/>
       <use xlink:href="#ArialMT-2e" transform="translate(55.615234 0)"/>
       <use xlink:href="#ArialMT-35" transform="translate(83.398438 0)"/>
      </g>
     </g>
    </g>
    <g id="xtick_3">
     <g id="line2d_3">
      <path d="M 230.342313 221.076 
L 230.342313 7.2 
" clip-path="url(#pece9965782)" style="fill: none; stroke: #cccccc; stroke-linecap: round"/>
     </g>
     <g id="text_3">
      <!-- 4.0 -->
      <g style="fill: #262626" transform="translate(221.168313 240.024312) scale(0.132 -0.132)">
       <defs>
        <path id="ArialMT-34" d="M 2069 0 
L 2069 1097 
L 81 1097 
L 81 1613 
L 2172 4581 
L 2631 4581 
L 2631 1613 
L 3250 1613 
L 3250 1097 
L 2631 1097 
L 2631 0 
L 2069 0 
z
M 2069 1613 
L 2069 3678 
L 634 1613 
L 2069 1613 
z
" transform="scale(0.015625)"/>
       </defs>
       <use xlink:href="#ArialMT-34"/>
       <use xlink:href="#ArialMT-2e" transform="translate(55.615234 0)"/>
       <use xlink:href="#ArialMT-30" transform="translate(83.398438 0)"/>
      </g>
     </g>
    </g>
    <g id="xtick_4">
     <g id="line2d_4">
      <path d="M 299.910371 221.076 
L 299.910371 7.2 
" clip-path="url(#pece9965782)" style="fill: none; stroke: #cccccc; stroke-linecap: round"/>
     </g>
     <g id="text_4">
      <!-- 4.5 -->
      <g style="fill: #262626" transform="translate(290.736371 240.024312) scale(0.132 -0.132)">
       <use xlink:href="#ArialMT-34"/>
       <use xlink:href="#ArialMT-2e" transform="translate(55.615234 0)"/>
       <use xlink:href="#ArialMT-35" transform="translate(83.398438 0)"/>
      </g>
     </g>
    </g>
    <g id="text_5">
     <!-- log$_{10}$ (Alpha Diversity) -->
     <g style="fill: #262626" transform="translate(116.855431 257.159812) scale(0.144 -0.144)">
      <defs>
       <path id="ArialMT-6c" d="M 409 0 
L 409 4581 
L 972 4581 
L 972 0 
L 409 0 
z
" transform="scale(0.015625)"/>
       <path id="ArialMT-6f" d="M 213 1659 
Q 213 2581 725 3025 
Q 1153 3394 1769 3394 
Q 2453 3394 2887 2945 
Q 3322 2497 3322 1706 
Q 3322 1066 3130 698 
Q 2938 331 2570 128 
Q 2203 -75 1769 -75 
Q 1072 -75 642 372 
Q 213 819 213 1659 
z
M 791 1659 
Q 791 1022 1069 705 
Q 1347 388 1769 388 
Q 2188 388 2466 706 
Q 2744 1025 2744 1678 
Q 2744 2294 2464 2611 
Q 2184 2928 1769 2928 
Q 1347 2928 1069 2612 
Q 791 2297 791 1659 
z
" transform="scale(0.015625)"/>
       <path id="ArialMT-67" d="M 319 -275 
L 866 -356 
Q 900 -609 1056 -725 
Q 1266 -881 1628 -881 
Q 2019 -881 2231 -725 
Q 2444 -569 2519 -288 
Q 2563 -116 2559 434 
Q 2191 0 1641 0 
Q 956 0 581 494 
Q 206 988 206 1678 
Q 206 2153 378 2554 
Q 550 2956 876 3175 
Q 1203 3394 1644 3394 
Q 2231 3394 2613 2919 
L 2613 3319 
L 3131 3319 
L 3131 450 
Q 3131 -325 2973 -648 
Q 2816 -972 2473 -1159 
Q 2131 -1347 1631 -1347 
Q 1038 -1347 672 -1080 
Q 306 -813 319 -275 
z
M 784 1719 
Q 784 1066 1043 766 
Q 1303 466 1694 466 
Q 2081 466 2343 764 
Q 2606 1063 2606 1700 
Q 2606 2309 2336 2618 
Q 2066 2928 1684 2928 
Q 1309 2928 1046 2623 
Q 784 2319 784 1719 
z
" transform="scale(0.015625)"/>
       <path id="DejaVuSans-31" d="M 794 531 
L 1825 531 
L 1825 4091 
L 703 3866 
L 703 4441 
L 1819 4666 
L 2450 4666 
L 2450 531 
L 3481 531 
L 3481 0 
L 794 0 
L 794 531 
z
" transform="scale(0.015625)"/>
       <path id="DejaVuSans-30" d="M 2034 4250 
Q 1547 4250 1301 3770 
Q 1056 3291 1056 2328 
Q 1056 1369 1301 889 
Q 1547 409 2034 409 
Q 2525 409 2770 889 
Q 3016 1369 3016 2328 
Q 3016 3291 2770 3770 
Q 2525 4250 2034 4250 
z
M 2034 4750 
Q 2819 4750 3233 4129 
Q 3647 3509 3647 2328 
Q 3647 1150 3233 529 
Q 2819 -91 2034 -91 
Q 1250 -91 836 529 
Q 422 1150 422 2328 
Q 422 3509 836 4129 
Q 1250 4750 2034 4750 
z
" transform="scale(0.015625)"/>
       <path id="ArialMT-20" transform="scale(0.015625)"/>
       <path id="ArialMT-28" d="M 1497 -1347 
Q 1031 -759 709 28 
Q 388 816 388 1659 
Q 388 2403 628 3084 
Q 909 3875 1497 4659 
L 1900 4659 
Q 1522 4009 1400 3731 
Q 1209 3300 1100 2831 
Q 966 2247 966 1656 
Q 966 153 1900 -1347 
L 1497 -1347 
z
" transform="scale(0.015625)"/>
       <path id="ArialMT-41" d="M -9 0 
L 1750 4581 
L 2403 4581 
L 4278 0 
L 3588 0 
L 3053 1388 
L 1138 1388 
L 634 0 
L -9 0 
z
M 1313 1881 
L 2866 1881 
L 2388 3150 
Q 2169 3728 2063 4100 
Q 1975 3659 1816 3225 
L 1313 1881 
z
" transform="scale(0.015625)"/>
       <path id="ArialMT-70" d="M 422 -1272 
L 422 3319 
L 934 3319 
L 934 2888 
Q 1116 3141 1344 3267 
Q 1572 3394 1897 3394 
Q 2322 3394 2647 3175 
Q 2972 2956 3137 2557 
Q 3303 2159 3303 1684 
Q 3303 1175 3120 767 
Q 2938 359 2589 142 
Q 2241 -75 1856 -75 
Q 1575 -75 1351 44 
Q 1128 163 984 344 
L 984 -1272 
L 422 -1272 
z
M 931 1641 
Q 931 1000 1190 694 
Q 1450 388 1819 388 
Q 2194 388 2461 705 
Q 2728 1022 2728 1688 
Q 2728 2322 2467 2637 
Q 2206 2953 1844 2953 
Q 1484 2953 1207 2617 
Q 931 2281 931 1641 
z
" transform="scale(0.015625)"/>
       <path id="ArialMT-68" d="M 422 0 
L 422 4581 
L 984 4581 
L 984 2938 
Q 1378 3394 1978 3394 
Q 2347 3394 2619 3248 
Q 2891 3103 3008 2847 
Q 3125 2591 3125 2103 
L 3125 0 
L 2563 0 
L 2563 2103 
Q 2563 2525 2380 2717 
Q 2197 2909 1863 2909 
Q 1613 2909 1392 2779 
Q 1172 2650 1078 2428 
Q 984 2206 984 1816 
L 984 0 
L 422 0 
z
" transform="scale(0.015625)"/>
       <path id="ArialMT-61" d="M 2588 409 
Q 2275 144 1986 34 
Q 1697 -75 1366 -75 
Q 819 -75 525 192 
Q 231 459 231 875 
Q 231 1119 342 1320 
Q 453 1522 633 1644 
Q 813 1766 1038 1828 
Q 1203 1872 1538 1913 
Q 2219 1994 2541 2106 
Q 2544 2222 2544 2253 
Q 2544 2597 2384 2738 
Q 2169 2928 1744 2928 
Q 1347 2928 1158 2789 
Q 969 2650 878 2297 
L 328 2372 
Q 403 2725 575 2942 
Q 747 3159 1072 3276 
Q 1397 3394 1825 3394 
Q 2250 3394 2515 3294 
Q 2781 3194 2906 3042 
Q 3031 2891 3081 2659 
Q 3109 2516 3109 2141 
L 3109 1391 
Q 3109 606 3145 398 
Q 3181 191 3288 0 
L 2700 0 
Q 2613 175 2588 409 
z
M 2541 1666 
Q 2234 1541 1622 1453 
Q 1275 1403 1131 1340 
Q 988 1278 909 1158 
Q 831 1038 831 891 
Q 831 666 1001 516 
Q 1172 366 1500 366 
Q 1825 366 2078 508 
Q 2331 650 2450 897 
Q 2541 1088 2541 1459 
L 2541 1666 
z
" transform="scale(0.015625)"/>
       <path id="ArialMT-44" d="M 494 0 
L 494 4581 
L 2072 4581 
Q 2606 4581 2888 4516 
Q 3281 4425 3559 4188 
Q 3922 3881 4101 3404 
Q 4281 2928 4281 2316 
Q 4281 1794 4159 1391 
Q 4038 988 3847 723 
Q 3656 459 3429 307 
Q 3203 156 2883 78 
Q 2563 0 2147 0 
L 494 0 
z
M 1100 541 
L 2078 541 
Q 2531 541 2789 625 
Q 3047 709 3200 863 
Q 3416 1078 3536 1442 
Q 3656 1806 3656 2325 
Q 3656 3044 3420 3430 
Q 3184 3816 2847 3947 
Q 2603 4041 2063 4041 
L 1100 4041 
L 1100 541 
z
" transform="scale(0.015625)"/>
       <path id="ArialMT-69" d="M 425 3934 
L 425 4581 
L 988 4581 
L 988 3934 
L 425 3934 
z
M 425 0 
L 425 3319 
L 988 3319 
L 988 0 
L 425 0 
z
" transform="scale(0.015625)"/>
       <path id="ArialMT-76" d="M 1344 0 
L 81 3319 
L 675 3319 
L 1388 1331 
Q 1503 1009 1600 663 
Q 1675 925 1809 1294 
L 2547 3319 
L 3125 3319 
L 1869 0 
L 1344 0 
z
" transform="scale(0.015625)"/>
       <path id="ArialMT-65" d="M 2694 1069 
L 3275 997 
Q 3138 488 2766 206 
Q 2394 -75 1816 -75 
Q 1088 -75 661 373 
Q 234 822 234 1631 
Q 234 2469 665 2931 
Q 1097 3394 1784 3394 
Q 2450 3394 2872 2941 
Q 3294 2488 3294 1666 
Q 3294 1616 3291 1516 
L 816 1516 
Q 847 969 1125 678 
Q 1403 388 1819 388 
Q 2128 388 2347 550 
Q 2566 713 2694 1069 
z
M 847 1978 
L 2700 1978 
Q 2663 2397 2488 2606 
Q 2219 2931 1791 2931 
Q 1403 2931 1139 2672 
Q 875 2413 847 1978 
z
" transform="scale(0.015625)"/>
       <path id="ArialMT-72" d="M 416 0 
L 416 3319 
L 922 3319 
L 922 2816 
Q 1116 3169 1280 3281 
Q 1444 3394 1641 3394 
Q 1925 3394 2219 3213 
L 2025 2691 
Q 1819 2813 1613 2813 
Q 1428 2813 1281 2702 
Q 1134 2591 1072 2394 
Q 978 2094 978 1738 
L 978 0 
L 416 0 
z
" transform="scale(0.015625)"/>
       <path id="ArialMT-73" d="M 197 991 
L 753 1078 
Q 800 744 1014 566 
Q 1228 388 1613 388 
Q 2000 388 2187 545 
Q 2375 703 2375 916 
Q 2375 1106 2209 1216 
Q 2094 1291 1634 1406 
Q 1016 1563 777 1677 
Q 538 1791 414 1992 
Q 291 2194 291 2438 
Q 291 2659 392 2848 
Q 494 3038 669 3163 
Q 800 3259 1026 3326 
Q 1253 3394 1513 3394 
Q 1903 3394 2198 3281 
Q 2494 3169 2634 2976 
Q 2775 2784 2828 2463 
L 2278 2388 
Q 2241 2644 2061 2787 
Q 1881 2931 1553 2931 
Q 1166 2931 1000 2803 
Q 834 2675 834 2503 
Q 834 2394 903 2306 
Q 972 2216 1119 2156 
Q 1203 2125 1616 2013 
Q 2213 1853 2448 1751 
Q 2684 1650 2818 1456 
Q 2953 1263 2953 975 
Q 2953 694 2789 445 
Q 2625 197 2315 61 
Q 2006 -75 1616 -75 
Q 969 -75 630 194 
Q 291 463 197 991 
z
" transform="scale(0.015625)"/>
       <path id="ArialMT-74" d="M 1650 503 
L 1731 6 
Q 1494 -44 1306 -44 
Q 1000 -44 831 53 
Q 663 150 594 308 
Q 525 466 525 972 
L 525 2881 
L 113 2881 
L 113 3319 
L 525 3319 
L 525 4141 
L 1084 4478 
L 1084 3319 
L 1650 3319 
L 1650 2881 
L 1084 2881 
L 1084 941 
Q 1084 700 1114 631 
Q 1144 563 1211 522 
Q 1278 481 1403 481 
Q 1497 481 1650 503 
z
" transform="scale(0.015625)"/>
       <path id="ArialMT-79" d="M 397 -1278 
L 334 -750 
Q 519 -800 656 -800 
Q 844 -800 956 -737 
Q 1069 -675 1141 -563 
Q 1194 -478 1313 -144 
Q 1328 -97 1363 -6 
L 103 3319 
L 709 3319 
L 1400 1397 
Q 1534 1031 1641 628 
Q 1738 1016 1872 1384 
L 2581 3319 
L 3144 3319 
L 1881 -56 
Q 1678 -603 1566 -809 
Q 1416 -1088 1222 -1217 
Q 1028 -1347 759 -1347 
Q 597 -1347 397 -1278 
z
" transform="scale(0.015625)"/>
       <path id="ArialMT-29" d="M 791 -1347 
L 388 -1347 
Q 1322 153 1322 1656 
Q 1322 2244 1188 2822 
Q 1081 3291 891 3722 
Q 769 4003 388 4659 
L 791 4659 
Q 1378 3875 1659 3084 
Q 1900 2403 1900 1659 
Q 1900 816 1576 28 
Q 1253 -759 791 -1347 
z
" transform="scale(0.015625)"/>
      </defs>
      <use xlink:href="#ArialMT-6c" transform="translate(0 0.203125)"/>
      <use xlink:href="#ArialMT-6f" transform="translate(22.216797 0.203125)"/>
      <use xlink:href="#ArialMT-67" transform="translate(77.832031 0.203125)"/>
      <use xlink:href="#DejaVuSans-31" transform="translate(134.404297 -16.203125) scale(0.7)"/>
      <use xlink:href="#DejaVuSans-30" transform="translate(178.94043 -16.203125) scale(0.7)"/>
      <use xlink:href="#ArialMT-20" transform="translate(226.210938 0.203125)"/>
      <use xlink:href="#ArialMT-28" transform="translate(253.994141 0.203125)"/>
      <use xlink:href="#ArialMT-41" transform="translate(287.294922 0.203125)"/>
      <use xlink:href="#ArialMT-6c" transform="translate(353.994141 0.203125)"/>
      <use xlink:href="#ArialMT-70" transform="translate(376.210938 0.203125)"/>
      <use xlink:href="#ArialMT-68" transform="translate(431.826172 0.203125)"/>
      <use xlink:href="#ArialMT-61" transform="translate(487.441406 0.203125)"/>
      <use xlink:href="#ArialMT-20" transform="translate(543.056641 0.203125)"/>
      <use xlink:href="#ArialMT-44" transform="translate(570.839844 0.203125)"/>
      <use xlink:href="#ArialMT-69" transform="translate(643.056641 0.203125)"/>
      <use xlink:href="#ArialMT-76" transform="translate(665.273438 0.203125)"/>
      <use xlink:href="#ArialMT-65" transform="translate(715.273438 0.203125)"/>
      <use xlink:href="#ArialMT-72" transform="translate(770.888672 0.203125)"/>
      <use xlink:href="#ArialMT-73" transform="translate(804.189453 0.203125)"/>
      <use xlink:href="#ArialMT-69" transform="translate(854.189453 0.203125)"/>
      <use xlink:href="#ArialMT-74" transform="translate(876.40625 0.203125)"/>
      <use xlink:href="#ArialMT-79" transform="translate(904.189453 0.203125)"/>
      <use xlink:href="#ArialMT-29" transform="translate(954.189453 0.203125)"/>
     </g>
    </g>
   </g>
   <g id="matplotlib.axis_2">
    <g id="ytick_1">
     <g id="line2d_5">
      <path d="M 75.5505 195.349859 
L 300.432362 195.349859 
" clip-path="url(#pece9965782)" style="fill: none; stroke: #cccccc; stroke-linecap: round"/>
     </g>
     <g id="text_6">
      <!-- −0.400 -->
      <g style="fill: #262626" transform="translate(25.312 200.074015) scale(0.132 -0.132)">
       <defs>
        <path id="ArialMT-2212" d="M 3381 1997 
L 356 1997 
L 356 2522 
L 3381 2522 
L 3381 1997 
z
" transform="scale(0.015625)"/>
       </defs>
       <use xlink:href="#ArialMT-2212"/>
       <use xlink:href="#ArialMT-30" transform="translate(58.398438 0)"/>
       <use xlink:href="#ArialMT-2e" transform="translate(114.013672 0)"/>
       <use xlink:href="#ArialMT-34" transform="translate(141.796875 0)"/>
       <use xlink:href="#ArialMT-30" transform="translate(197.412109 0)"/>
       <use xlink:href="#ArialMT-30" transform="translate(253.027344 0)"/>
      </g>
     </g>
    </g>
    <g id="ytick_2">
     <g id="line2d_6">
      <path d="M 75.5505 167.623153 
L 300.432362 167.623153 
" clip-path="url(#pece9965782)" style="fill: none; stroke: #cccccc; stroke-linecap: round"/>
     </g>
     <g id="text_7">
      <!-- −0.375 -->
      <g style="fill: #262626" transform="translate(25.312 172.347309) scale(0.132 -0.132)">
       <defs>
        <path id="ArialMT-37" d="M 303 3981 
L 303 4522 
L 3269 4522 
L 3269 4084 
Q 2831 3619 2401 2847 
Q 1972 2075 1738 1259 
Q 1569 684 1522 0 
L 944 0 
Q 953 541 1156 1306 
Q 1359 2072 1739 2783 
Q 2119 3494 2547 3981 
L 303 3981 
z
" transform="scale(0.015625)"/>
       </defs>
       <use xlink:href="#ArialMT-2212"/>
       <use xlink:href="#ArialMT-30" transform="translate(58.398438 0)"/>
       <use xlink:href="#ArialMT-2e" transform="translate(114.013672 0)"/>
       <use xlink:href="#ArialMT-33" transform="translate(141.796875 0)"/>
       <use xlink:href="#ArialMT-37" transform="translate(197.412109 0)"/>
       <use xlink:href="#ArialMT-35" transform="translate(253.027344 0)"/>
      </g>
     </g>
    </g>
    <g id="ytick_3">
     <g id="line2d_7">
      <path d="M 75.5505 139.896447 
L 300.432362 139.896447 
" clip-path="url(#pece9965782)" style="fill: none; stroke: #cccccc; stroke-linecap: round"/>
     </g>
     <g id="text_8">
      <!-- −0.350 -->
      <g style="fill: #262626" transform="translate(25.312 144.620603) scale(0.132 -0.132)">
       <use xlink:href="#ArialMT-2212"/>
       <use xlink:href="#ArialMT-30" transform="translate(58.398438 0)"/>
       <use xlink:href="#ArialMT-2e" transform="translate(114.013672 0)"/>
       <use xlink:href="#ArialMT-33" transform="translate(141.796875 0)"/>
       <use xlink:href="#ArialMT-35" transform="translate(197.412109 0)"/>
       <use xlink:href="#ArialMT-30" transform="translate(253.027344 0)"/>
      </g>
     </g>
    </g>
    <g id="ytick_4">
     <g id="line2d_8">
      <path d="M 75.5505 112.16974 
L 300.432362 112.16974 
" clip-path="url(#pece9965782)" style="fill: none; stroke: #cccccc; stroke-linecap: round"/>
     </g>
     <g id="text_9">
      <!-- −0.325 -->
      <g style="fill: #262626" transform="translate(25.312 116.893897) scale(0.132 -0.132)">
       <defs>
        <path id="ArialMT-32" d="M 3222 541 
L 3222 0 
L 194 0 
Q 188 203 259 391 
Q 375 700 629 1000 
Q 884 1300 1366 1694 
Q 2113 2306 2375 2664 
Q 2638 3022 2638 3341 
Q 2638 3675 2398 3904 
Q 2159 4134 1775 4134 
Q 1369 4134 1125 3890 
Q 881 3647 878 3216 
L 300 3275 
Q 359 3922 746 4261 
Q 1134 4600 1788 4600 
Q 2447 4600 2831 4234 
Q 3216 3869 3216 3328 
Q 3216 3053 3103 2787 
Q 2991 2522 2730 2228 
Q 2469 1934 1863 1422 
Q 1356 997 1212 845 
Q 1069 694 975 541 
L 3222 541 
z
" transform="scale(0.015625)"/>
       </defs>
       <use xlink:href="#ArialMT-2212"/>
       <use xlink:href="#ArialMT-30" transform="translate(58.398438 0)"/>
       <use xlink:href="#ArialMT-2e" transform="translate(114.013672 0)"/>
       <use xlink:href="#ArialMT-33" transform="translate(141.796875 0)"/>
       <use xlink:href="#ArialMT-32" transform="translate(197.412109 0)"/>
       <use xlink:href="#ArialMT-35" transform="translate(253.027344 0)"/>
      </g>
     </g>
    </g>
    <g id="ytick_5">
     <g id="line2d_9">
      <path d="M 75.5505 84.443034 
L 300.432362 84.443034 
" clip-path="url(#pece9965782)" style="fill: none; stroke: #cccccc; stroke-linecap: round"/>
     </g>
     <g id="text_10">
      <!-- −0.300 -->
      <g style="fill: #262626" transform="translate(25.312 89.16719) scale(0.132 -0.132)">
       <use xlink:href="#ArialMT-2212"/>
       <use xlink:href="#ArialMT-30" transform="translate(58.398438 0)"/>
       <use xlink:href="#ArialMT-2e" transform="translate(114.013672 0)"/>
       <use xlink:href="#ArialMT-33" transform="translate(141.796875 0)"/>
       <use xlink:href="#ArialMT-30" transform="translate(197.412109 0)"/>
       <use xlink:href="#ArialMT-30" transform="translate(253.027344 0)"/>
      </g>
     </g>
    </g>
    <g id="ytick_6">
     <g id="line2d_10">
      <path d="M 75.5505 56.716328 
L 300.432362 56.716328 
" clip-path="url(#pece9965782)" style="fill: none; stroke: #cccccc; stroke-linecap: round"/>
     </g>
     <g id="text_11">
      <!-- −0.275 -->
      <g style="fill: #262626" transform="translate(25.312 61.440484) scale(0.132 -0.132)">
       <use xlink:href="#ArialMT-2212"/>
       <use xlink:href="#ArialMT-30" transform="translate(58.398438 0)"/>
       <use xlink:href="#ArialMT-2e" transform="translate(114.013672 0)"/>
       <use xlink:href="#ArialMT-32" transform="translate(141.796875 0)"/>
       <use xlink:href="#ArialMT-37" transform="translate(197.412109 0)"/>
       <use xlink:href="#ArialMT-35" transform="translate(253.027344 0)"/>
      </g>
     </g>
    </g>
    <g id="ytick_7">
     <g id="line2d_11">
      <path d="M 75.5505 28.989622 
L 300.432362 28.989622 
" clip-path="url(#pece9965782)" style="fill: none; stroke: #cccccc; stroke-linecap: round"/>
     </g>
     <g id="text_12">
      <!-- −0.250 -->
      <g style="fill: #262626" transform="translate(25.312 33.713778) scale(0.132 -0.132)">
       <use xlink:href="#ArialMT-2212"/>
       <use xlink:href="#ArialMT-30" transform="translate(58.398438 0)"/>
       <use xlink:href="#ArialMT-2e" transform="translate(114.013672 0)"/>
       <use xlink:href="#ArialMT-32" transform="translate(141.796875 0)"/>
       <use xlink:href="#ArialMT-35" transform="translate(197.412109 0)"/>
       <use xlink:href="#ArialMT-30" transform="translate(253.027344 0)"/>
      </g>
     </g>
    </g>
    <g id="text_13">
     <!-- log$_{10}$ $(\mu_{max}$) -->
     <g style="fill: #262626" transform="translate(18.144 153.45) rotate(-90) scale(0.144 -0.144)">
      <defs>
       <path id="DejaVuSans-28" d="M 1984 4856 
Q 1566 4138 1362 3434 
Q 1159 2731 1159 2009 
Q 1159 1288 1364 580 
Q 1569 -128 1984 -844 
L 1484 -844 
Q 1016 -109 783 600 
Q 550 1309 550 2009 
Q 550 2706 781 3412 
Q 1013 4119 1484 4856 
L 1984 4856 
z
" transform="scale(0.015625)"/>
       <path id="DejaVuSans-Oblique-3bc" d="M -84 -1331 
L 856 3500 
L 1434 3500 
L 1009 1322 
Q 997 1256 987 1175 
Q 978 1094 978 1013 
Q 978 722 1161 565 
Q 1344 409 1684 409 
Q 2147 409 2431 671 
Q 2716 934 2816 1459 
L 3213 3500 
L 3788 3500 
L 3266 809 
Q 3253 750 3248 706 
Q 3244 663 3244 628 
Q 3244 531 3283 486 
Q 3322 441 3406 441 
Q 3438 441 3492 456 
Q 3547 472 3647 513 
L 3559 50 
Q 3422 -19 3297 -55 
Q 3172 -91 3053 -91 
Q 2847 -91 2730 40 
Q 2613 172 2613 403 
Q 2438 153 2195 31 
Q 1953 -91 1625 -91 
Q 1334 -91 1117 43 
Q 900 178 831 397 
L 494 -1331 
L -84 -1331 
z
" transform="scale(0.015625)"/>
       <path id="DejaVuSans-Oblique-6d" d="M 5747 2113 
L 5338 0 
L 4763 0 
L 5166 2094 
Q 5191 2228 5203 2325 
Q 5216 2422 5216 2491 
Q 5216 2772 5059 2928 
Q 4903 3084 4622 3084 
Q 4203 3084 3875 2770 
Q 3547 2456 3450 1953 
L 3066 0 
L 2491 0 
L 2900 2094 
Q 2925 2209 2937 2307 
Q 2950 2406 2950 2484 
Q 2950 2769 2794 2926 
Q 2638 3084 2363 3084 
Q 1938 3084 1609 2770 
Q 1281 2456 1184 1953 
L 800 0 
L 225 0 
L 909 3500 
L 1484 3500 
L 1375 2956 
Q 1609 3263 1923 3423 
Q 2238 3584 2597 3584 
Q 2978 3584 3223 3384 
Q 3469 3184 3519 2828 
Q 3781 3197 4126 3390 
Q 4472 3584 4856 3584 
Q 5306 3584 5551 3325 
Q 5797 3066 5797 2591 
Q 5797 2488 5784 2364 
Q 5772 2241 5747 2113 
z
" transform="scale(0.015625)"/>
       <path id="DejaVuSans-Oblique-61" d="M 3438 1997 
L 3047 0 
L 2472 0 
L 2578 531 
Q 2325 219 2001 64 
Q 1678 -91 1281 -91 
Q 834 -91 548 182 
Q 263 456 263 884 
Q 263 1497 752 1853 
Q 1241 2209 2100 2209 
L 2900 2209 
L 2931 2363 
Q 2938 2388 2941 2417 
Q 2944 2447 2944 2509 
Q 2944 2788 2717 2942 
Q 2491 3097 2081 3097 
Q 1800 3097 1504 3025 
Q 1209 2953 897 2809 
L 997 3341 
Q 1322 3463 1633 3523 
Q 1944 3584 2234 3584 
Q 2853 3584 3176 3315 
Q 3500 3047 3500 2534 
Q 3500 2431 3484 2292 
Q 3469 2153 3438 1997 
z
M 2816 1759 
L 2241 1759 
Q 1534 1759 1195 1570 
Q 856 1381 856 984 
Q 856 709 1029 553 
Q 1203 397 1509 397 
Q 1978 397 2328 733 
Q 2678 1069 2791 1631 
L 2816 1759 
z
" transform="scale(0.015625)"/>
       <path id="DejaVuSans-Oblique-78" d="M 3841 3500 
L 2234 1784 
L 3219 0 
L 2559 0 
L 1819 1388 
L 531 0 
L -166 0 
L 1556 1844 
L 641 3500 
L 1300 3500 
L 1972 2234 
L 3144 3500 
L 3841 3500 
z
" transform="scale(0.015625)"/>
      </defs>
      <use xlink:href="#ArialMT-6c" transform="translate(0 0.125)"/>
      <use xlink:href="#ArialMT-6f" transform="translate(22.216797 0.125)"/>
      <use xlink:href="#ArialMT-67" transform="translate(77.832031 0.125)"/>
      <use xlink:href="#DejaVuSans-31" transform="translate(134.404297 -16.28125) scale(0.7)"/>
      <use xlink:href="#DejaVuSans-30" transform="translate(178.94043 -16.28125) scale(0.7)"/>
      <use xlink:href="#ArialMT-20" transform="translate(226.210938 0.125)"/>
      <use xlink:href="#DejaVuSans-28" transform="translate(253.994141 0.125)"/>
      <use xlink:href="#DejaVuSans-Oblique-3bc" transform="translate(293.007812 0.125)"/>
      <use xlink:href="#DejaVuSans-Oblique-6d" transform="translate(356.630859 -16.28125) scale(0.7)"/>
      <use xlink:href="#DejaVuSans-Oblique-61" transform="translate(424.819336 -16.28125) scale(0.7)"/>
      <use xlink:href="#DejaVuSans-Oblique-78" transform="translate(467.714844 -16.28125) scale(0.7)"/>
      <use xlink:href="#ArialMT-29" transform="translate(511.875 0.125)"/>
     </g>
    </g>
   </g>
   <g id="PathCollection_1">
    <defs>
     <path id="m5ec99cc28c" d="M 0 3.162278 
C 0.838646 3.162278 1.643056 2.82908 2.236068 2.236068 
C 2.82908 1.643056 3.162278 0.838646 3.162278 0 
C 3.162278 -0.838646 2.82908 -1.643056 2.236068 -2.236068 
C 1.643056 -2.82908 0.838646 -3.162278 0 -3.162278 
C -0.838646 -3.162278 -1.643056 -2.82908 -2.236068 -2.236068 
C -2.82908 -1.643056 -3.162278 -0.838646 -3.162278 0 
C -3.162278 0.838646 -2.82908 1.643056 -2.236068 2.236068 
C -1.643056 2.82908 -0.838646 3.162278 0 3.162278 
z
" style="stroke: #4c72b0; stroke-opacity: 0.8"/>
    </defs>
    <g clip-path="url(#pece9965782)">
     <use xlink:href="#m5ec99cc28c" x="230.463044" y="108.988449" style="fill: #4c72b0; fill-opacity: 0.8; stroke: #4c72b0; stroke-opacity: 0.8"/>
     <use xlink:href="#m5ec99cc28c" x="263.932826" y="157.505348" style="fill: #4c72b0; fill-opacity: 0.8; stroke: #4c72b0; stroke-opacity: 0.8"/>
     <use xlink:href="#m5ec99cc28c" x="161.471917" y="45.609538" style="fill: #4c72b0; fill-opacity: 0.8; stroke: #4c72b0; stroke-opacity: 0.8"/>
     <use xlink:href="#m5ec99cc28c" x="85.772403" y="64.472338" style="fill: #4c72b0; fill-opacity: 0.8; stroke: #4c72b0; stroke-opacity: 0.8"/>
     <use xlink:href="#m5ec99cc28c" x="262.887566" y="120.086652" style="fill: #4c72b0; fill-opacity: 0.8; stroke: #4c72b0; stroke-opacity: 0.8"/>
     <use xlink:href="#m5ec99cc28c" x="258.405716" y="117.79019" style="fill: #4c72b0; fill-opacity: 0.8; stroke: #4c72b0; stroke-opacity: 0.8"/>
     <use xlink:href="#m5ec99cc28c" x="260.227482" y="101.741684" style="fill: #4c72b0; fill-opacity: 0.8; stroke: #4c72b0; stroke-opacity: 0.8"/>
     <use xlink:href="#m5ec99cc28c" x="170.589326" y="145.499377" style="fill: #4c72b0; fill-opacity: 0.8; stroke: #4c72b0; stroke-opacity: 0.8"/>
     <use xlink:href="#m5ec99cc28c" x="225.330158" y="161.731648" style="fill: #4c72b0; fill-opacity: 0.8; stroke: #4c72b0; stroke-opacity: 0.8"/>
     <use xlink:href="#m5ec99cc28c" x="233.783412" y="75.514914" style="fill: #4c72b0; fill-opacity: 0.8; stroke: #4c72b0; stroke-opacity: 0.8"/>
     <use xlink:href="#m5ec99cc28c" x="201.777269" y="151.483047" style="fill: #4c72b0; fill-opacity: 0.8; stroke: #4c72b0; stroke-opacity: 0.8"/>
     <use xlink:href="#m5ec99cc28c" x="269.00922" y="117.416073" style="fill: #4c72b0; fill-opacity: 0.8; stroke: #4c72b0; stroke-opacity: 0.8"/>
     <use xlink:href="#m5ec99cc28c" x="214.028903" y="65.739363" style="fill: #4c72b0; fill-opacity: 0.8; stroke: #4c72b0; stroke-opacity: 0.8"/>
     <use xlink:href="#m5ec99cc28c" x="200.384721" y="108.662569" style="fill: #4c72b0; fill-opacity: 0.8; stroke: #4c72b0; stroke-opacity: 0.8"/>
     <use xlink:href="#m5ec99cc28c" x="161.622841" y="51.508249" style="fill: #4c72b0; fill-opacity: 0.8; stroke: #4c72b0; stroke-opacity: 0.8"/>
     <use xlink:href="#m5ec99cc28c" x="170.01811" y="16.921636" style="fill: #4c72b0; fill-opacity: 0.8; stroke: #4c72b0; stroke-opacity: 0.8"/>
     <use xlink:href="#m5ec99cc28c" x="197.123715" y="103.663787" style="fill: #4c72b0; fill-opacity: 0.8; stroke: #4c72b0; stroke-opacity: 0.8"/>
     <use xlink:href="#m5ec99cc28c" x="184.667834" y="141.390151" style="fill: #4c72b0; fill-opacity: 0.8; stroke: #4c72b0; stroke-opacity: 0.8"/>
     <use xlink:href="#m5ec99cc28c" x="170.083666" y="150.13645" style="fill: #4c72b0; fill-opacity: 0.8; stroke: #4c72b0; stroke-opacity: 0.8"/>
     <use xlink:href="#m5ec99cc28c" x="111.667231" y="34.766313" style="fill: #4c72b0; fill-opacity: 0.8; stroke: #4c72b0; stroke-opacity: 0.8"/>
     <use xlink:href="#m5ec99cc28c" x="269.260432" y="80.486791" style="fill: #4c72b0; fill-opacity: 0.8; stroke: #4c72b0; stroke-opacity: 0.8"/>
     <use xlink:href="#m5ec99cc28c" x="176.804591" y="75.653052" style="fill: #4c72b0; fill-opacity: 0.8; stroke: #4c72b0; stroke-opacity: 0.8"/>
     <use xlink:href="#m5ec99cc28c" x="196.777192" y="177.333994" style="fill: #4c72b0; fill-opacity: 0.8; stroke: #4c72b0; stroke-opacity: 0.8"/>
     <use xlink:href="#m5ec99cc28c" x="212.033295" y="157.948017" style="fill: #4c72b0; fill-opacity: 0.8; stroke: #4c72b0; stroke-opacity: 0.8"/>
     <use xlink:href="#m5ec99cc28c" x="134.72962" y="114.831513" style="fill: #4c72b0; fill-opacity: 0.8; stroke: #4c72b0; stroke-opacity: 0.8"/>
     <use xlink:href="#m5ec99cc28c" x="206.637046" y="110.988762" style="fill: #4c72b0; fill-opacity: 0.8; stroke: #4c72b0; stroke-opacity: 0.8"/>
     <use xlink:href="#m5ec99cc28c" x="195.886062" y="94.615782" style="fill: #4c72b0; fill-opacity: 0.8; stroke: #4c72b0; stroke-opacity: 0.8"/>
     <use xlink:href="#m5ec99cc28c" x="135.198268" y="80.204684" style="fill: #4c72b0; fill-opacity: 0.8; stroke: #4c72b0; stroke-opacity: 0.8"/>
     <use xlink:href="#m5ec99cc28c" x="209.782996" y="153.325276" style="fill: #4c72b0; fill-opacity: 0.8; stroke: #4c72b0; stroke-opacity: 0.8"/>
     <use xlink:href="#m5ec99cc28c" x="208.599647" y="157.283934" style="fill: #4c72b0; fill-opacity: 0.8; stroke: #4c72b0; stroke-opacity: 0.8"/>
     <use xlink:href="#m5ec99cc28c" x="160.115688" y="48.156698" style="fill: #4c72b0; fill-opacity: 0.8; stroke: #4c72b0; stroke-opacity: 0.8"/>
     <use xlink:href="#m5ec99cc28c" x="99.229635" y="144.324994" style="fill: #4c72b0; fill-opacity: 0.8; stroke: #4c72b0; stroke-opacity: 0.8"/>
     <use xlink:href="#m5ec99cc28c" x="162.260094" y="53.304032" style="fill: #4c72b0; fill-opacity: 0.8; stroke: #4c72b0; stroke-opacity: 0.8"/>
     <use xlink:href="#m5ec99cc28c" x="200.74081" y="64.09452" style="fill: #4c72b0; fill-opacity: 0.8; stroke: #4c72b0; stroke-opacity: 0.8"/>
     <use xlink:href="#m5ec99cc28c" x="266.201386" y="144.679407" style="fill: #4c72b0; fill-opacity: 0.8; stroke: #4c72b0; stroke-opacity: 0.8"/>
     <use xlink:href="#m5ec99cc28c" x="206.681757" y="92.470081" style="fill: #4c72b0; fill-opacity: 0.8; stroke: #4c72b0; stroke-opacity: 0.8"/>
     <use xlink:href="#m5ec99cc28c" x="250.566" y="211.354364" style="fill: #4c72b0; fill-opacity: 0.8; stroke: #4c72b0; stroke-opacity: 0.8"/>
     <use xlink:href="#m5ec99cc28c" x="290.210459" y="151.702692" style="fill: #4c72b0; fill-opacity: 0.8; stroke: #4c72b0; stroke-opacity: 0.8"/>
     <use xlink:href="#m5ec99cc28c" x="223.969079" y="195.537084" style="fill: #4c72b0; fill-opacity: 0.8; stroke: #4c72b0; stroke-opacity: 0.8"/>
     <use xlink:href="#m5ec99cc28c" x="219.45331" y="114.691378" style="fill: #4c72b0; fill-opacity: 0.8; stroke: #4c72b0; stroke-opacity: 0.8"/>
     <use xlink:href="#m5ec99cc28c" x="200.444215" y="106.69768" style="fill: #4c72b0; fill-opacity: 0.8; stroke: #4c72b0; stroke-opacity: 0.8"/>
     <use xlink:href="#m5ec99cc28c" x="129.895406" y="33.835921" style="fill: #4c72b0; fill-opacity: 0.8; stroke: #4c72b0; stroke-opacity: 0.8"/>
     <use xlink:href="#m5ec99cc28c" x="161.735787" y="112.907556" style="fill: #4c72b0; fill-opacity: 0.8; stroke: #4c72b0; stroke-opacity: 0.8"/>
     <use xlink:href="#m5ec99cc28c" x="247.556373" y="152.736457" style="fill: #4c72b0; fill-opacity: 0.8; stroke: #4c72b0; stroke-opacity: 0.8"/>
     <use xlink:href="#m5ec99cc28c" x="218.387541" y="65.138259" style="fill: #4c72b0; fill-opacity: 0.8; stroke: #4c72b0; stroke-opacity: 0.8"/>
     <use xlink:href="#m5ec99cc28c" x="234.717985" y="116.279371" style="fill: #4c72b0; fill-opacity: 0.8; stroke: #4c72b0; stroke-opacity: 0.8"/>
     <use xlink:href="#m5ec99cc28c" x="188.735491" y="112.65331" style="fill: #4c72b0; fill-opacity: 0.8; stroke: #4c72b0; stroke-opacity: 0.8"/>
     <use xlink:href="#m5ec99cc28c" x="267.155187" y="133.527784" style="fill: #4c72b0; fill-opacity: 0.8; stroke: #4c72b0; stroke-opacity: 0.8"/>
     <use xlink:href="#m5ec99cc28c" x="200.721082" y="124.763981" style="fill: #4c72b0; fill-opacity: 0.8; stroke: #4c72b0; stroke-opacity: 0.8"/>
     <use xlink:href="#m5ec99cc28c" x="165.367002" y="148.562364" style="fill: #4c72b0; fill-opacity: 0.8; stroke: #4c72b0; stroke-opacity: 0.8"/>
     <use xlink:href="#m5ec99cc28c" x="154.215286" y="71.321168" style="fill: #4c72b0; fill-opacity: 0.8; stroke: #4c72b0; stroke-opacity: 0.8"/>
     <use xlink:href="#m5ec99cc28c" x="276.792925" y="157.265512" style="fill: #4c72b0; fill-opacity: 0.8; stroke: #4c72b0; stroke-opacity: 0.8"/>
     <use xlink:href="#m5ec99cc28c" x="273.600515" y="126.290417" style="fill: #4c72b0; fill-opacity: 0.8; stroke: #4c72b0; stroke-opacity: 0.8"/>
     <use xlink:href="#m5ec99cc28c" x="284.229845" y="152.365187" style="fill: #4c72b0; fill-opacity: 0.8; stroke: #4c72b0; stroke-opacity: 0.8"/>
     <use xlink:href="#m5ec99cc28c" x="246.976425" y="110.378621" style="fill: #4c72b0; fill-opacity: 0.8; stroke: #4c72b0; stroke-opacity: 0.8"/>
     <use xlink:href="#m5ec99cc28c" x="238.845346" y="173.930346" style="fill: #4c72b0; fill-opacity: 0.8; stroke: #4c72b0; stroke-opacity: 0.8"/>
    </g>
   </g>
   <g id="FillBetweenPolyCollection_1">
    <defs>
     <path id="m0cf8e05176" d="M 85.772403 -234.213377 
L 85.772403 -176.876073 
L 87.837434 -176.472412 
L 89.902465 -176.068751 
L 91.967495 -175.620369 
L 94.032526 -175.207612 
L 96.097557 -174.706866 
L 98.162588 -174.298965 
L 100.227619 -173.927996 
L 102.29265 -173.432338 
L 104.357681 -172.879377 
L 106.422712 -172.399033 
L 108.487742 -171.93337 
L 110.552773 -171.422347 
L 112.617804 -170.907351 
L 114.682835 -170.402185 
L 116.747866 -169.891318 
L 118.812897 -169.381713 
L 120.877928 -168.873793 
L 122.942959 -168.420091 
L 125.007989 -167.994935 
L 127.07302 -167.56978 
L 129.138051 -167.144624 
L 131.203082 -166.719469 
L 133.268113 -166.22032 
L 135.333144 -165.74017 
L 137.398175 -165.15796 
L 139.463205 -164.671761 
L 141.528236 -164.232727 
L 143.593267 -163.44908 
L 145.658298 -162.754908 
L 147.723329 -162.2422 
L 149.78836 -161.731501 
L 151.853391 -161.221913 
L 153.918422 -160.712326 
L 155.983452 -160.202739 
L 158.048483 -159.662396 
L 160.113514 -159.017085 
L 162.178545 -158.433066 
L 164.243576 -157.928922 
L 166.308607 -157.42359 
L 168.373638 -156.847448 
L 170.438669 -156.015568 
L 172.503699 -155.350302 
L 174.56873 -154.859566 
L 176.633761 -154.279966 
L 178.698792 -153.610335 
L 180.763823 -153.164011 
L 182.828854 -152.47906 
L 184.893885 -151.727034 
L 186.958916 -151.030699 
L 189.023946 -150.267797 
L 191.088977 -149.561738 
L 193.154008 -148.936142 
L 195.219039 -148.180814 
L 197.28407 -147.358903 
L 199.349101 -146.688021 
L 201.414132 -146.059228 
L 203.479162 -145.252723 
L 205.544193 -144.505197 
L 207.609224 -143.727819 
L 209.674255 -142.906653 
L 211.739286 -142.16552 
L 213.804317 -141.028179 
L 215.869348 -140.184146 
L 217.934379 -139.286953 
L 219.999409 -138.315511 
L 222.06444 -137.499827 
L 224.129471 -136.585394 
L 226.194502 -135.654117 
L 228.259533 -134.659045 
L 230.324564 -133.631689 
L 232.389595 -132.644572 
L 234.454626 -131.657746 
L 236.519656 -130.541116 
L 238.584687 -129.684095 
L 240.649718 -128.342937 
L 242.714749 -127.191102 
L 244.77978 -126.164032 
L 246.844811 -125.193525 
L 248.909842 -124.131919 
L 250.974873 -123.078001 
L 253.039903 -122.026409 
L 255.104934 -120.989187 
L 257.169965 -119.92106 
L 259.234996 -118.866542 
L 261.300027 -117.707714 
L 263.365058 -116.523191 
L 265.430089 -115.240346 
L 267.49512 -113.979105 
L 269.56015 -112.735768 
L 271.625181 -111.536348 
L 273.690212 -110.364682 
L 275.755243 -109.043525 
L 277.820274 -107.796556 
L 279.885305 -106.529088 
L 281.950336 -105.224601 
L 284.015366 -103.916606 
L 286.080397 -102.618051 
L 288.145428 -101.537257 
L 290.210459 -100.309786 
L 290.210459 -136.223725 
L 290.210459 -136.223725 
L 288.145428 -136.748081 
L 286.080397 -137.280701 
L 284.015366 -137.787327 
L 281.950336 -138.424451 
L 279.885305 -138.949699 
L 277.820274 -139.418203 
L 275.755243 -139.815501 
L 273.690212 -140.392871 
L 271.625181 -141.22572 
L 269.56015 -141.787021 
L 267.49512 -142.352138 
L 265.430089 -142.917254 
L 263.365058 -143.473662 
L 261.300027 -144.029051 
L 259.234996 -144.591058 
L 257.169965 -145.356949 
L 255.104934 -146.069914 
L 253.039903 -146.555739 
L 250.974873 -147.109064 
L 248.909842 -147.876259 
L 246.844811 -148.287434 
L 244.77978 -148.69713 
L 242.714749 -149.23914 
L 240.649718 -150.038487 
L 238.584687 -150.651455 
L 236.519656 -151.301075 
L 234.454626 -152.189947 
L 232.389595 -153.219497 
L 230.324564 -153.947975 
L 228.259533 -154.39084 
L 226.194502 -155.238612 
L 224.129471 -156.092516 
L 222.06444 -156.82154 
L 219.999409 -157.747573 
L 217.934379 -158.546119 
L 215.869348 -159.441862 
L 213.804317 -160.267996 
L 211.739286 -160.93462 
L 209.674255 -161.881312 
L 207.609224 -162.909504 
L 205.544193 -163.838566 
L 203.479162 -164.771168 
L 201.414132 -165.867236 
L 199.349101 -167.036068 
L 197.28407 -167.915864 
L 195.219039 -168.993477 
L 193.154008 -170.058168 
L 191.088977 -171.224526 
L 189.023946 -172.437292 
L 186.958916 -173.407428 
L 184.893885 -174.357637 
L 182.828854 -175.476896 
L 180.763823 -176.686845 
L 178.698792 -177.895855 
L 176.633761 -179.010599 
L 174.56873 -180.200137 
L 172.503699 -181.52643 
L 170.438669 -182.737098 
L 168.373638 -183.960745 
L 166.308607 -185.234513 
L 164.243576 -186.367532 
L 162.178545 -187.692235 
L 160.113514 -189.039836 
L 158.048483 -190.366852 
L 155.983452 -191.626179 
L 153.918422 -192.730443 
L 151.853391 -194.010824 
L 149.78836 -195.291206 
L 147.723329 -196.569655 
L 145.658298 -197.825111 
L 143.593267 -198.992094 
L 141.528236 -200.271487 
L 139.463205 -201.342758 
L 137.398175 -202.686015 
L 135.333144 -204.029069 
L 133.268113 -205.316847 
L 131.203082 -206.526685 
L 129.138051 -207.737807 
L 127.07302 -208.952262 
L 125.007989 -210.163563 
L 122.942959 -211.411245 
L 120.877928 -212.668539 
L 118.812897 -213.830051 
L 116.747866 -215.012215 
L 114.682835 -216.226113 
L 112.617804 -217.440011 
L 110.552773 -218.702699 
L 108.487742 -220.117112 
L 106.422712 -221.413723 
L 104.357681 -222.485218 
L 102.29265 -223.556231 
L 100.227619 -224.860466 
L 98.162588 -226.196596 
L 96.097557 -227.532726 
L 94.032526 -228.868856 
L 91.967495 -230.204986 
L 89.902465 -231.541116 
L 87.837434 -232.877247 
L 85.772403 -234.213377 
z
" style="stroke: #ffffff; stroke-opacity: 0.15"/>
    </defs>
    <g clip-path="url(#pece9965782)">
     <use xlink:href="#m0cf8e05176" x="0" y="267.527812" style="fill: #4c72b0; fill-opacity: 0.15; stroke: #ffffff; stroke-opacity: 0.15"/>
    </g>
   </g>
   <g id="line2d_12">
    <path d="M 85.772403 63.40196 
L 87.837434 64.262864 
L 89.902465 65.123767 
L 91.967495 65.984671 
L 94.032526 66.845574 
L 96.097557 67.706478 
L 98.162588 68.567381 
L 100.227619 69.428285 
L 102.29265 70.289188 
L 104.357681 71.150092 
L 106.422712 72.010995 
L 108.487742 72.871898 
L 110.552773 73.732802 
L 112.617804 74.593705 
L 114.682835 75.454609 
L 116.747866 76.315512 
L 118.812897 77.176416 
L 120.877928 78.037319 
L 122.942959 78.898223 
L 125.007989 79.759126 
L 127.07302 80.62003 
L 129.138051 81.480933 
L 131.203082 82.341837 
L 133.268113 83.20274 
L 135.333144 84.063644 
L 137.398175 84.924547 
L 139.463205 85.78545 
L 141.528236 86.646354 
L 143.593267 87.507257 
L 145.658298 88.368161 
L 147.723329 89.229064 
L 149.78836 90.089968 
L 151.853391 90.950871 
L 153.918422 91.811775 
L 155.983452 92.672678 
L 158.048483 93.533582 
L 160.113514 94.394485 
L 162.178545 95.255389 
L 164.243576 96.116292 
L 166.308607 96.977196 
L 168.373638 97.838099 
L 170.438669 98.699003 
L 172.503699 99.559906 
L 174.56873 100.420809 
L 176.633761 101.281713 
L 178.698792 102.142616 
L 180.763823 103.00352 
L 182.828854 103.864423 
L 184.893885 104.725327 
L 186.958916 105.58623 
L 189.023946 106.447134 
L 191.088977 107.308037 
L 193.154008 108.168941 
L 195.219039 109.029844 
L 197.28407 109.890748 
L 199.349101 110.751651 
L 201.414132 111.612555 
L 203.479162 112.473458 
L 205.544193 113.334362 
L 207.609224 114.195265 
L 209.674255 115.056168 
L 211.739286 115.917072 
L 213.804317 116.777975 
L 215.869348 117.638879 
L 217.934379 118.499782 
L 219.999409 119.360686 
L 222.06444 120.221589 
L 224.129471 121.082493 
L 226.194502 121.943396 
L 228.259533 122.8043 
L 230.324564 123.665203 
L 232.389595 124.526107 
L 234.454626 125.38701 
L 236.519656 126.247914 
L 238.584687 127.108817 
L 240.649718 127.96972 
L 242.714749 128.830624 
L 244.77978 129.691527 
L 246.844811 130.552431 
L 248.909842 131.413334 
L 250.974873 132.274238 
L 253.039903 133.135141 
L 255.104934 133.996045 
L 257.169965 134.856948 
L 259.234996 135.717852 
L 261.300027 136.578755 
L 263.365058 137.439659 
L 265.430089 138.300562 
L 267.49512 139.161466 
L 269.56015 140.022369 
L 271.625181 140.883273 
L 273.690212 141.744176 
L 275.755243 142.605079 
L 277.820274 143.465983 
L 279.885305 144.326886 
L 281.950336 145.18779 
L 284.015366 146.048693 
L 286.080397 146.909597 
L 288.145428 147.7705 
L 290.210459 148.631404 
" clip-path="url(#pece9965782)" style="fill: none; stroke: #4c72b0; stroke-width: 2.25; stroke-linecap: round"/>
   </g>
   <g id="patch_3">
    <path d="M 75.5505 221.076 
L 75.5505 7.2 
" style="fill: none; stroke: #cccccc; stroke-width: 1.25; stroke-linejoin: miter; stroke-linecap: square"/>
   </g>
   <g id="patch_4">
    <path d="M 300.432362 221.076 
L 300.432362 7.2 
" style="fill: none; stroke: #cccccc; stroke-width: 1.25; stroke-linejoin: miter; stroke-linecap: square"/>
   </g>
   <g id="patch_5">
    <path d="M 75.5505 221.076 
L 300.432362 221.076 
" style="fill: none; stroke: #cccccc; stroke-width: 1.25; stroke-linejoin: miter; stroke-linecap: square"/>
   </g>
   <g id="patch_6">
    <path d="M 75.5505 7.2 
L 300.432362 7.2 
" style="fill: none; stroke: #cccccc; stroke-width: 1.25; stroke-linejoin: miter; stroke-linecap: square"/>
   </g>
   <g id="legend_1">
    <g id="patch_7">
     <path d="M 84.7905 36.471 
L 264.225937 36.471 
Q 266.865937 36.471 266.865937 33.831 
L 266.865937 16.44 
Q 266.865937 13.8 264.225937 13.8 
L 84.7905 13.8 
Q 82.1505 13.8 82.1505 16.44 
L 82.1505 33.831 
Q 82.1505 36.471 84.7905 36.471 
z
" style="fill: #ffffff; opacity: 0.8; stroke: #cccccc; stroke-linejoin: miter"/>
    </g>
    <g id="PathCollection_2">
     <g>
      <use xlink:href="#m5ec99cc28c" x="100.6305" y="25.1025" style="fill: #4c72b0; fill-opacity: 0.8; stroke: #4c72b0; stroke-opacity: 0.8"/>
     </g>
    </g>
    <g id="text_14">
     <!-- r: -0.47, p-val: 2.86e-04 -->
     <g style="fill: #262626" transform="translate(124.3905 28.5675) scale(0.132 -0.132)">
      <defs>
       <path id="ArialMT-3a" d="M 578 2678 
L 578 3319 
L 1219 3319 
L 1219 2678 
L 578 2678 
z
M 578 0 
L 578 641 
L 1219 641 
L 1219 0 
L 578 0 
z
" transform="scale(0.015625)"/>
       <path id="ArialMT-2d" d="M 203 1375 
L 203 1941 
L 1931 1941 
L 1931 1375 
L 203 1375 
z
" transform="scale(0.015625)"/>
       <path id="ArialMT-2c" d="M 569 0 
L 569 641 
L 1209 641 
L 1209 0 
Q 1209 -353 1084 -570 
Q 959 -788 688 -906 
L 531 -666 
Q 709 -588 793 -436 
Q 878 -284 888 0 
L 569 0 
z
" transform="scale(0.015625)"/>
       <path id="ArialMT-38" d="M 1131 2484 
Q 781 2613 612 2850 
Q 444 3088 444 3419 
Q 444 3919 803 4259 
Q 1163 4600 1759 4600 
Q 2359 4600 2725 4251 
Q 3091 3903 3091 3403 
Q 3091 3084 2923 2848 
Q 2756 2613 2416 2484 
Q 2838 2347 3058 2040 
Q 3278 1734 3278 1309 
Q 3278 722 2862 322 
Q 2447 -78 1769 -78 
Q 1091 -78 675 323 
Q 259 725 259 1325 
Q 259 1772 486 2073 
Q 713 2375 1131 2484 
z
M 1019 3438 
Q 1019 3113 1228 2906 
Q 1438 2700 1772 2700 
Q 2097 2700 2305 2904 
Q 2513 3109 2513 3406 
Q 2513 3716 2298 3927 
Q 2084 4138 1766 4138 
Q 1444 4138 1231 3931 
Q 1019 3725 1019 3438 
z
M 838 1322 
Q 838 1081 952 856 
Q 1066 631 1291 507 
Q 1516 384 1775 384 
Q 2178 384 2440 643 
Q 2703 903 2703 1303 
Q 2703 1709 2433 1975 
Q 2163 2241 1756 2241 
Q 1359 2241 1098 1978 
Q 838 1716 838 1322 
z
" transform="scale(0.015625)"/>
       <path id="ArialMT-36" d="M 3184 3459 
L 2625 3416 
Q 2550 3747 2413 3897 
Q 2184 4138 1850 4138 
Q 1581 4138 1378 3988 
Q 1113 3794 959 3422 
Q 806 3050 800 2363 
Q 1003 2672 1297 2822 
Q 1591 2972 1913 2972 
Q 2475 2972 2870 2558 
Q 3266 2144 3266 1488 
Q 3266 1056 3080 686 
Q 2894 316 2569 119 
Q 2244 -78 1831 -78 
Q 1128 -78 684 439 
Q 241 956 241 2144 
Q 241 3472 731 4075 
Q 1159 4600 1884 4600 
Q 2425 4600 2770 4297 
Q 3116 3994 3184 3459 
z
M 888 1484 
Q 888 1194 1011 928 
Q 1134 663 1356 523 
Q 1578 384 1822 384 
Q 2178 384 2434 671 
Q 2691 959 2691 1453 
Q 2691 1928 2437 2201 
Q 2184 2475 1800 2475 
Q 1419 2475 1153 2201 
Q 888 1928 888 1484 
z
" transform="scale(0.015625)"/>
      </defs>
      <use xlink:href="#ArialMT-72"/>
      <use xlink:href="#ArialMT-3a" transform="translate(33.300781 0)"/>
      <use xlink:href="#ArialMT-20" transform="translate(61.083984 0)"/>
      <use xlink:href="#ArialMT-2d" transform="translate(88.867188 0)"/>
      <use xlink:href="#ArialMT-30" transform="translate(122.167969 0)"/>
      <use xlink:href="#ArialMT-2e" transform="translate(177.783203 0)"/>
      <use xlink:href="#ArialMT-34" transform="translate(205.566406 0)"/>
      <use xlink:href="#ArialMT-37" transform="translate(261.181641 0)"/>
      <use xlink:href="#ArialMT-2c" transform="translate(316.796875 0)"/>
      <use xlink:href="#ArialMT-20" transform="translate(344.580078 0)"/>
      <use xlink:href="#ArialMT-70" transform="translate(372.363281 0)"/>
      <use xlink:href="#ArialMT-2d" transform="translate(427.978516 0)"/>
      <use xlink:href="#ArialMT-76" transform="translate(461.279297 0)"/>
      <use xlink:href="#ArialMT-61" transform="translate(511.279297 0)"/>
      <use xlink:href="#ArialMT-6c" transform="translate(566.894531 0)"/>
      <use xlink:href="#ArialMT-3a" transform="translate(589.111328 0)"/>
      <use xlink:href="#ArialMT-20" transform="translate(616.894531 0)"/>
      <use xlink:href="#ArialMT-32" transform="translate(644.677734 0)"/>
      <use xlink:href="#ArialMT-2e" transform="translate(700.292969 0)"/>
      <use xlink:href="#ArialMT-38" transform="translate(728.076172 0)"/>
      <use xlink:href="#ArialMT-36" transform="translate(783.691406 0)"/>
      <use xlink:href="#ArialMT-65" transform="translate(839.306641 0)"/>
      <use xlink:href="#ArialMT-2d" transform="translate(894.921875 0)"/>
      <use xlink:href="#ArialMT-30" transform="translate(928.222656 0)"/>
      <use xlink:href="#ArialMT-34" transform="translate(983.837891 0)"/>
     </g>
    </g>
   </g>
  </g>
  <g id="axes_2">
   <g id="patch_8">
    <path d="M 388.0845 221.076 
L 612.966362 221.076 
L 612.966362 7.2 
L 388.0845 7.2 
z
" style="fill: #ffffff"/>
   </g>
   <g id="matplotlib.axis_3">
    <g id="xtick_5">
     <g id="line2d_13">
      <path d="M 403.740197 221.076 
L 403.740197 7.2 
" clip-path="url(#p41e4213072)" style="fill: none; stroke: #cccccc; stroke-linecap: round"/>
     </g>
     <g id="text_15">
      <!-- 3.0 -->
      <g style="fill: #262626" transform="translate(394.566197 240.024312) scale(0.132 -0.132)">
       <use xlink:href="#ArialMT-33"/>
       <use xlink:href="#ArialMT-2e" transform="translate(55.615234 0)"/>
       <use xlink:href="#ArialMT-30" transform="translate(83.398438 0)"/>
      </g>
     </g>
    </g>
    <g id="xtick_6">
     <g id="line2d_14">
      <path d="M 473.308255 221.076 
L 473.308255 7.2 
" clip-path="url(#p41e4213072)" style="fill: none; stroke: #cccccc; stroke-linecap: round"/>
     </g>
     <g id="text_16">
      <!-- 3.5 -->
      <g style="fill: #262626" transform="translate(464.134255 240.024312) scale(0.132 -0.132)">
       <use xlink:href="#ArialMT-33"/>
       <use xlink:href="#ArialMT-2e" transform="translate(55.615234 0)"/>
       <use xlink:href="#ArialMT-35" transform="translate(83.398438 0)"/>
      </g>
     </g>
    </g>
    <g id="xtick_7">
     <g id="line2d_15">
      <path d="M 542.876313 221.076 
L 542.876313 7.2 
" clip-path="url(#p41e4213072)" style="fill: none; stroke: #cccccc; stroke-linecap: round"/>
     </g>
     <g id="text_17">
      <!-- 4.0 -->
      <g style="fill: #262626" transform="translate(533.702313 240.024312) scale(0.132 -0.132)">
       <use xlink:href="#ArialMT-34"/>
       <use xlink:href="#ArialMT-2e" transform="translate(55.615234 0)"/>
       <use xlink:href="#ArialMT-30" transform="translate(83.398438 0)"/>
      </g>
     </g>
    </g>
    <g id="xtick_8">
     <g id="line2d_16">
      <path d="M 612.444371 221.076 
L 612.444371 7.2 
" clip-path="url(#p41e4213072)" style="fill: none; stroke: #cccccc; stroke-linecap: round"/>
     </g>
     <g id="text_18">
      <!-- 4.5 -->
      <g style="fill: #262626" transform="translate(603.270371 240.024312) scale(0.132 -0.132)">
       <use xlink:href="#ArialMT-34"/>
       <use xlink:href="#ArialMT-2e" transform="translate(55.615234 0)"/>
       <use xlink:href="#ArialMT-35" transform="translate(83.398438 0)"/>
      </g>
     </g>
    </g>
    <g id="text_19">
     <!-- log$_{10}$ (Alpha Diversity) -->
     <g style="fill: #262626" transform="translate(429.389431 257.159812) scale(0.144 -0.144)">
      <use xlink:href="#ArialMT-6c" transform="translate(0 0.203125)"/>
      <use xlink:href="#ArialMT-6f" transform="translate(22.216797 0.203125)"/>
      <use xlink:href="#ArialMT-67" transform="translate(77.832031 0.203125)"/>
      <use xlink:href="#DejaVuSans-31" transform="translate(134.404297 -16.203125) scale(0.7)"/>
      <use xlink:href="#DejaVuSans-30" transform="translate(178.94043 -16.203125) scale(0.7)"/>
      <use xlink:href="#ArialMT-20" transform="translate(226.210938 0.203125)"/>
      <use xlink:href="#ArialMT-28" transform="translate(253.994141 0.203125)"/>
      <use xlink:href="#ArialMT-41" transform="translate(287.294922 0.203125)"/>
      <use xlink:href="#ArialMT-6c" transform="translate(353.994141 0.203125)"/>
      <use xlink:href="#ArialMT-70" transform="translate(376.210938 0.203125)"/>
      <use xlink:href="#ArialMT-68" transform="translate(431.826172 0.203125)"/>
      <use xlink:href="#ArialMT-61" transform="translate(487.441406 0.203125)"/>
      <use xlink:href="#ArialMT-20" transform="translate(543.056641 0.203125)"/>
      <use xlink:href="#ArialMT-44" transform="translate(570.839844 0.203125)"/>
      <use xlink:href="#ArialMT-69" transform="translate(643.056641 0.203125)"/>
      <use xlink:href="#ArialMT-76" transform="translate(665.273438 0.203125)"/>
      <use xlink:href="#ArialMT-65" transform="translate(715.273438 0.203125)"/>
      <use xlink:href="#ArialMT-72" transform="translate(770.888672 0.203125)"/>
      <use xlink:href="#ArialMT-73" transform="translate(804.189453 0.203125)"/>
      <use xlink:href="#ArialMT-69" transform="translate(854.189453 0.203125)"/>
      <use xlink:href="#ArialMT-74" transform="translate(876.40625 0.203125)"/>
      <use xlink:href="#ArialMT-79" transform="translate(904.189453 0.203125)"/>
      <use xlink:href="#ArialMT-29" transform="translate(954.189453 0.203125)"/>
     </g>
    </g>
   </g>
   <g id="matplotlib.axis_4">
    <g id="ytick_8">
     <g id="line2d_17">
      <path d="M 388.0845 197.424109 
L 612.966362 197.424109 
" clip-path="url(#p41e4213072)" style="fill: none; stroke: #cccccc; stroke-linecap: round"/>
     </g>
     <g id="text_20">
      <!-- −1.05 -->
      <g style="fill: #262626" transform="translate(345.186438 202.148265) scale(0.132 -0.132)">
       <defs>
        <path id="ArialMT-31" d="M 2384 0 
L 1822 0 
L 1822 3584 
Q 1619 3391 1289 3197 
Q 959 3003 697 2906 
L 697 3450 
Q 1169 3672 1522 3987 
Q 1875 4303 2022 4600 
L 2384 4600 
L 2384 0 
z
" transform="scale(0.015625)"/>
       </defs>
       <use xlink:href="#ArialMT-2212"/>
       <use xlink:href="#ArialMT-31" transform="translate(58.398438 0)"/>
       <use xlink:href="#ArialMT-2e" transform="translate(114.013672 0)"/>
       <use xlink:href="#ArialMT-30" transform="translate(141.796875 0)"/>
       <use xlink:href="#ArialMT-35" transform="translate(197.412109 0)"/>
      </g>
     </g>
    </g>
    <g id="ytick_9">
     <g id="line2d_18">
      <path d="M 388.0845 156.591218 
L 612.966362 156.591218 
" clip-path="url(#p41e4213072)" style="fill: none; stroke: #cccccc; stroke-linecap: round"/>
     </g>
     <g id="text_21">
      <!-- −1.00 -->
      <g style="fill: #262626" transform="translate(345.186438 161.315374) scale(0.132 -0.132)">
       <use xlink:href="#ArialMT-2212"/>
       <use xlink:href="#ArialMT-31" transform="translate(58.398438 0)"/>
       <use xlink:href="#ArialMT-2e" transform="translate(114.013672 0)"/>
       <use xlink:href="#ArialMT-30" transform="translate(141.796875 0)"/>
       <use xlink:href="#ArialMT-30" transform="translate(197.412109 0)"/>
      </g>
     </g>
    </g>
    <g id="ytick_10">
     <g id="line2d_19">
      <path d="M 388.0845 115.758327 
L 612.966362 115.758327 
" clip-path="url(#p41e4213072)" style="fill: none; stroke: #cccccc; stroke-linecap: round"/>
     </g>
     <g id="text_22">
      <!-- −0.95 -->
      <g style="fill: #262626" transform="translate(345.186438 120.482483) scale(0.132 -0.132)">
       <defs>
        <path id="ArialMT-39" d="M 350 1059 
L 891 1109 
Q 959 728 1153 556 
Q 1347 384 1650 384 
Q 1909 384 2104 503 
Q 2300 622 2425 820 
Q 2550 1019 2634 1356 
Q 2719 1694 2719 2044 
Q 2719 2081 2716 2156 
Q 2547 1888 2255 1720 
Q 1963 1553 1622 1553 
Q 1053 1553 659 1965 
Q 266 2378 266 3053 
Q 266 3750 677 4175 
Q 1088 4600 1706 4600 
Q 2153 4600 2523 4359 
Q 2894 4119 3086 3673 
Q 3278 3228 3278 2384 
Q 3278 1506 3087 986 
Q 2897 466 2520 194 
Q 2144 -78 1638 -78 
Q 1100 -78 759 220 
Q 419 519 350 1059 
z
M 2653 3081 
Q 2653 3566 2395 3850 
Q 2138 4134 1775 4134 
Q 1400 4134 1122 3828 
Q 844 3522 844 3034 
Q 844 2597 1108 2323 
Q 1372 2050 1759 2050 
Q 2150 2050 2401 2323 
Q 2653 2597 2653 3081 
z
" transform="scale(0.015625)"/>
       </defs>
       <use xlink:href="#ArialMT-2212"/>
       <use xlink:href="#ArialMT-30" transform="translate(58.398438 0)"/>
       <use xlink:href="#ArialMT-2e" transform="translate(114.013672 0)"/>
       <use xlink:href="#ArialMT-39" transform="translate(141.796875 0)"/>
       <use xlink:href="#ArialMT-35" transform="translate(197.412109 0)"/>
      </g>
     </g>
    </g>
    <g id="ytick_11">
     <g id="line2d_20">
      <path d="M 388.0845 74.925436 
L 612.966362 74.925436 
" clip-path="url(#p41e4213072)" style="fill: none; stroke: #cccccc; stroke-linecap: round"/>
     </g>
     <g id="text_23">
      <!-- −0.90 -->
      <g style="fill: #262626" transform="translate(345.186438 79.649592) scale(0.132 -0.132)">
       <use xlink:href="#ArialMT-2212"/>
       <use xlink:href="#ArialMT-30" transform="translate(58.398438 0)"/>
       <use xlink:href="#ArialMT-2e" transform="translate(114.013672 0)"/>
       <use xlink:href="#ArialMT-39" transform="translate(141.796875 0)"/>
       <use xlink:href="#ArialMT-30" transform="translate(197.412109 0)"/>
      </g>
     </g>
    </g>
    <g id="ytick_12">
     <g id="line2d_21">
      <path d="M 388.0845 34.092545 
L 612.966362 34.092545 
" clip-path="url(#p41e4213072)" style="fill: none; stroke: #cccccc; stroke-linecap: round"/>
     </g>
     <g id="text_24">
      <!-- −0.85 -->
      <g style="fill: #262626" transform="translate(345.186438 38.816701) scale(0.132 -0.132)">
       <use xlink:href="#ArialMT-2212"/>
       <use xlink:href="#ArialMT-30" transform="translate(58.398438 0)"/>
       <use xlink:href="#ArialMT-2e" transform="translate(114.013672 0)"/>
       <use xlink:href="#ArialMT-38" transform="translate(141.796875 0)"/>
       <use xlink:href="#ArialMT-35" transform="translate(197.412109 0)"/>
      </g>
     </g>
    </g>
    <g id="text_25">
     <!-- log$_{10}$ ($y_{OC}$) -->
     <g style="fill: #262626" transform="translate(338.018438 149.202) rotate(-90) scale(0.144 -0.144)">
      <defs>
       <path id="DejaVuSans-Oblique-79" d="M 1588 -325 
Q 1188 -997 936 -1164 
Q 684 -1331 294 -1331 
L -159 -1331 
L -63 -850 
L 269 -850 
Q 509 -850 678 -719 
Q 847 -588 1056 -206 
L 1234 128 
L 459 3500 
L 1069 3500 
L 1650 819 
L 3256 3500 
L 3859 3500 
L 1588 -325 
z
" transform="scale(0.015625)"/>
       <path id="DejaVuSans-Oblique-4f" d="M 2919 4238 
Q 2400 4238 2003 3986 
Q 1606 3734 1313 3219 
Q 1125 2891 1026 2522 
Q 928 2153 928 1778 
Q 928 1128 1239 775 
Q 1550 422 2119 422 
Q 2631 422 3032 676 
Q 3434 931 3719 1434 
Q 3909 1772 4009 2142 
Q 4109 2513 4109 2881 
Q 4109 3528 3796 3883 
Q 3484 4238 2919 4238 
z
M 2100 -91 
Q 1241 -91 748 418 
Q 256 928 256 1813 
Q 256 2319 448 2847 
Q 641 3375 978 3788 
Q 1375 4272 1862 4511 
Q 2350 4750 2938 4750 
Q 3794 4750 4287 4245 
Q 4781 3741 4781 2869 
Q 4781 2331 4593 1812 
Q 4406 1294 4056 872 
Q 3656 384 3173 146 
Q 2691 -91 2100 -91 
z
" transform="scale(0.015625)"/>
       <path id="DejaVuSans-Oblique-43" d="M 4447 4306 
L 4319 3641 
Q 4019 3944 3683 4091 
Q 3347 4238 2956 4238 
Q 2422 4238 2017 3981 
Q 1613 3725 1319 3200 
Q 1131 2863 1032 2486 
Q 934 2109 934 1728 
Q 934 1091 1264 756 
Q 1594 422 2222 422 
Q 2656 422 3056 561 
Q 3456 700 3834 978 
L 3688 231 
Q 3316 72 2936 -9 
Q 2556 -91 2175 -91 
Q 1278 -91 773 396 
Q 269 884 269 1753 
Q 269 2309 461 2846 
Q 653 3384 1013 3828 
Q 1394 4300 1883 4525 
Q 2372 4750 3022 4750 
Q 3422 4750 3780 4639 
Q 4138 4528 4447 4306 
z
" transform="scale(0.015625)"/>
      </defs>
      <use xlink:href="#ArialMT-6c" transform="translate(0 0.203125)"/>
      <use xlink:href="#ArialMT-6f" transform="translate(22.216797 0.203125)"/>
      <use xlink:href="#ArialMT-67" transform="translate(77.832031 0.203125)"/>
      <use xlink:href="#DejaVuSans-31" transform="translate(134.404297 -16.203125) scale(0.7)"/>
      <use xlink:href="#DejaVuSans-30" transform="translate(178.94043 -16.203125) scale(0.7)"/>
      <use xlink:href="#ArialMT-20" transform="translate(226.210938 0.203125)"/>
      <use xlink:href="#ArialMT-28" transform="translate(253.994141 0.203125)"/>
      <use xlink:href="#DejaVuSans-Oblique-79" transform="translate(287.294922 0.203125)"/>
      <use xlink:href="#DejaVuSans-Oblique-4f" transform="translate(346.474609 -16.203125) scale(0.7)"/>
      <use xlink:href="#DejaVuSans-Oblique-43" transform="translate(401.572266 -16.203125) scale(0.7)"/>
      <use xlink:href="#ArialMT-29" transform="translate(453.183594 0.203125)"/>
     </g>
    </g>
   </g>
   <g id="PathCollection_3">
    <g clip-path="url(#p41e4213072)">
     <use xlink:href="#m5ec99cc28c" x="542.997044" y="147.530599" style="fill: #4c72b0; fill-opacity: 0.8; stroke: #4c72b0; stroke-opacity: 0.8"/>
     <use xlink:href="#m5ec99cc28c" x="576.466826" y="172.214007" style="fill: #4c72b0; fill-opacity: 0.8; stroke: #4c72b0; stroke-opacity: 0.8"/>
     <use xlink:href="#m5ec99cc28c" x="474.005917" y="87.048268" style="fill: #4c72b0; fill-opacity: 0.8; stroke: #4c72b0; stroke-opacity: 0.8"/>
     <use xlink:href="#m5ec99cc28c" x="398.306403" y="63.534614" style="fill: #4c72b0; fill-opacity: 0.8; stroke: #4c72b0; stroke-opacity: 0.8"/>
     <use xlink:href="#m5ec99cc28c" x="575.421566" y="143.035416" style="fill: #4c72b0; fill-opacity: 0.8; stroke: #4c72b0; stroke-opacity: 0.8"/>
     <use xlink:href="#m5ec99cc28c" x="570.939716" y="138.966719" style="fill: #4c72b0; fill-opacity: 0.8; stroke: #4c72b0; stroke-opacity: 0.8"/>
     <use xlink:href="#m5ec99cc28c" x="572.761482" y="117.721916" style="fill: #4c72b0; fill-opacity: 0.8; stroke: #4c72b0; stroke-opacity: 0.8"/>
     <use xlink:href="#m5ec99cc28c" x="483.123326" y="158.581837" style="fill: #4c72b0; fill-opacity: 0.8; stroke: #4c72b0; stroke-opacity: 0.8"/>
     <use xlink:href="#m5ec99cc28c" x="537.864158" y="172.701981" style="fill: #4c72b0; fill-opacity: 0.8; stroke: #4c72b0; stroke-opacity: 0.8"/>
     <use xlink:href="#m5ec99cc28c" x="546.317412" y="103.289196" style="fill: #4c72b0; fill-opacity: 0.8; stroke: #4c72b0; stroke-opacity: 0.8"/>
     <use xlink:href="#m5ec99cc28c" x="514.311269" y="165.522529" style="fill: #4c72b0; fill-opacity: 0.8; stroke: #4c72b0; stroke-opacity: 0.8"/>
     <use xlink:href="#m5ec99cc28c" x="581.54322" y="136.807128" style="fill: #4c72b0; fill-opacity: 0.8; stroke: #4c72b0; stroke-opacity: 0.8"/>
     <use xlink:href="#m5ec99cc28c" x="526.562903" y="94.62671" style="fill: #4c72b0; fill-opacity: 0.8; stroke: #4c72b0; stroke-opacity: 0.8"/>
     <use xlink:href="#m5ec99cc28c" x="512.918721" y="127.677428" style="fill: #4c72b0; fill-opacity: 0.8; stroke: #4c72b0; stroke-opacity: 0.8"/>
     <use xlink:href="#m5ec99cc28c" x="474.156841" y="76.465154" style="fill: #4c72b0; fill-opacity: 0.8; stroke: #4c72b0; stroke-opacity: 0.8"/>
     <use xlink:href="#m5ec99cc28c" x="482.55211" y="16.921636" style="fill: #4c72b0; fill-opacity: 0.8; stroke: #4c72b0; stroke-opacity: 0.8"/>
     <use xlink:href="#m5ec99cc28c" x="509.657715" y="117.697587" style="fill: #4c72b0; fill-opacity: 0.8; stroke: #4c72b0; stroke-opacity: 0.8"/>
     <use xlink:href="#m5ec99cc28c" x="497.201834" y="153.013395" style="fill: #4c72b0; fill-opacity: 0.8; stroke: #4c72b0; stroke-opacity: 0.8"/>
     <use xlink:href="#m5ec99cc28c" x="482.617666" y="147.317415" style="fill: #4c72b0; fill-opacity: 0.8; stroke: #4c72b0; stroke-opacity: 0.8"/>
     <use xlink:href="#m5ec99cc28c" x="424.201231" y="63.89673" style="fill: #4c72b0; fill-opacity: 0.8; stroke: #4c72b0; stroke-opacity: 0.8"/>
     <use xlink:href="#m5ec99cc28c" x="581.794432" y="93.844275" style="fill: #4c72b0; fill-opacity: 0.8; stroke: #4c72b0; stroke-opacity: 0.8"/>
     <use xlink:href="#m5ec99cc28c" x="489.338591" y="96.940087" style="fill: #4c72b0; fill-opacity: 0.8; stroke: #4c72b0; stroke-opacity: 0.8"/>
     <use xlink:href="#m5ec99cc28c" x="509.311192" y="165.038403" style="fill: #4c72b0; fill-opacity: 0.8; stroke: #4c72b0; stroke-opacity: 0.8"/>
     <use xlink:href="#m5ec99cc28c" x="524.567295" y="145.400273" style="fill: #4c72b0; fill-opacity: 0.8; stroke: #4c72b0; stroke-opacity: 0.8"/>
     <use xlink:href="#m5ec99cc28c" x="447.26362" y="145.00846" style="fill: #4c72b0; fill-opacity: 0.8; stroke: #4c72b0; stroke-opacity: 0.8"/>
     <use xlink:href="#m5ec99cc28c" x="519.171046" y="142.279857" style="fill: #4c72b0; fill-opacity: 0.8; stroke: #4c72b0; stroke-opacity: 0.8"/>
     <use xlink:href="#m5ec99cc28c" x="508.420062" y="88.771638" style="fill: #4c72b0; fill-opacity: 0.8; stroke: #4c72b0; stroke-opacity: 0.8"/>
     <use xlink:href="#m5ec99cc28c" x="447.732268" y="117.889695" style="fill: #4c72b0; fill-opacity: 0.8; stroke: #4c72b0; stroke-opacity: 0.8"/>
     <use xlink:href="#m5ec99cc28c" x="522.316996" y="155.375801" style="fill: #4c72b0; fill-opacity: 0.8; stroke: #4c72b0; stroke-opacity: 0.8"/>
     <use xlink:href="#m5ec99cc28c" x="521.133647" y="170.154772" style="fill: #4c72b0; fill-opacity: 0.8; stroke: #4c72b0; stroke-opacity: 0.8"/>
     <use xlink:href="#m5ec99cc28c" x="472.649688" y="77.074399" style="fill: #4c72b0; fill-opacity: 0.8; stroke: #4c72b0; stroke-opacity: 0.8"/>
     <use xlink:href="#m5ec99cc28c" x="411.763635" y="164.475525" style="fill: #4c72b0; fill-opacity: 0.8; stroke: #4c72b0; stroke-opacity: 0.8"/>
     <use xlink:href="#m5ec99cc28c" x="474.794094" y="68.58915" style="fill: #4c72b0; fill-opacity: 0.8; stroke: #4c72b0; stroke-opacity: 0.8"/>
     <use xlink:href="#m5ec99cc28c" x="513.27481" y="89.045524" style="fill: #4c72b0; fill-opacity: 0.8; stroke: #4c72b0; stroke-opacity: 0.8"/>
     <use xlink:href="#m5ec99cc28c" x="578.735386" y="157.387372" style="fill: #4c72b0; fill-opacity: 0.8; stroke: #4c72b0; stroke-opacity: 0.8"/>
     <use xlink:href="#m5ec99cc28c" x="519.215757" y="110.983974" style="fill: #4c72b0; fill-opacity: 0.8; stroke: #4c72b0; stroke-opacity: 0.8"/>
     <use xlink:href="#m5ec99cc28c" x="563.1" y="211.354364" style="fill: #4c72b0; fill-opacity: 0.8; stroke: #4c72b0; stroke-opacity: 0.8"/>
     <use xlink:href="#m5ec99cc28c" x="602.744459" y="158.078827" style="fill: #4c72b0; fill-opacity: 0.8; stroke: #4c72b0; stroke-opacity: 0.8"/>
     <use xlink:href="#m5ec99cc28c" x="536.503079" y="201.480339" style="fill: #4c72b0; fill-opacity: 0.8; stroke: #4c72b0; stroke-opacity: 0.8"/>
     <use xlink:href="#m5ec99cc28c" x="531.98731" y="146.819075" style="fill: #4c72b0; fill-opacity: 0.8; stroke: #4c72b0; stroke-opacity: 0.8"/>
     <use xlink:href="#m5ec99cc28c" x="512.978215" y="130.540199" style="fill: #4c72b0; fill-opacity: 0.8; stroke: #4c72b0; stroke-opacity: 0.8"/>
     <use xlink:href="#m5ec99cc28c" x="442.429406" y="59.229223" style="fill: #4c72b0; fill-opacity: 0.8; stroke: #4c72b0; stroke-opacity: 0.8"/>
     <use xlink:href="#m5ec99cc28c" x="474.269787" y="133.1846" style="fill: #4c72b0; fill-opacity: 0.8; stroke: #4c72b0; stroke-opacity: 0.8"/>
     <use xlink:href="#m5ec99cc28c" x="560.090373" y="170.981511" style="fill: #4c72b0; fill-opacity: 0.8; stroke: #4c72b0; stroke-opacity: 0.8"/>
     <use xlink:href="#m5ec99cc28c" x="530.921541" y="77.791979" style="fill: #4c72b0; fill-opacity: 0.8; stroke: #4c72b0; stroke-opacity: 0.8"/>
     <use xlink:href="#m5ec99cc28c" x="547.251985" y="141.139383" style="fill: #4c72b0; fill-opacity: 0.8; stroke: #4c72b0; stroke-opacity: 0.8"/>
     <use xlink:href="#m5ec99cc28c" x="501.269491" y="137.073489" style="fill: #4c72b0; fill-opacity: 0.8; stroke: #4c72b0; stroke-opacity: 0.8"/>
     <use xlink:href="#m5ec99cc28c" x="579.689187" y="148.915617" style="fill: #4c72b0; fill-opacity: 0.8; stroke: #4c72b0; stroke-opacity: 0.8"/>
     <use xlink:href="#m5ec99cc28c" x="513.255082" y="135.744429" style="fill: #4c72b0; fill-opacity: 0.8; stroke: #4c72b0; stroke-opacity: 0.8"/>
     <use xlink:href="#m5ec99cc28c" x="477.901002" y="172.287089" style="fill: #4c72b0; fill-opacity: 0.8; stroke: #4c72b0; stroke-opacity: 0.8"/>
     <use xlink:href="#m5ec99cc28c" x="466.749286" y="84.405411" style="fill: #4c72b0; fill-opacity: 0.8; stroke: #4c72b0; stroke-opacity: 0.8"/>
     <use xlink:href="#m5ec99cc28c" x="589.326925" y="170.624265" style="fill: #4c72b0; fill-opacity: 0.8; stroke: #4c72b0; stroke-opacity: 0.8"/>
     <use xlink:href="#m5ec99cc28c" x="586.134515" y="138.222311" style="fill: #4c72b0; fill-opacity: 0.8; stroke: #4c72b0; stroke-opacity: 0.8"/>
     <use xlink:href="#m5ec99cc28c" x="596.763845" y="158.44606" style="fill: #4c72b0; fill-opacity: 0.8; stroke: #4c72b0; stroke-opacity: 0.8"/>
     <use xlink:href="#m5ec99cc28c" x="559.510425" y="128.966381" style="fill: #4c72b0; fill-opacity: 0.8; stroke: #4c72b0; stroke-opacity: 0.8"/>
     <use xlink:href="#m5ec99cc28c" x="551.379346" y="181.757588" style="fill: #4c72b0; fill-opacity: 0.8; stroke: #4c72b0; stroke-opacity: 0.8"/>
    </g>
   </g>
   <g id="FillBetweenPolyCollection_2">
    <defs>
     <path id="m2af8a71ace" d="M 398.306403 -211.121777 
L 398.306403 -154.99817 
L 400.371434 -154.594353 
L 402.436465 -154.155046 
L 404.501495 -153.716994 
L 406.566526 -153.283016 
L 408.631557 -152.849039 
L 410.696588 -152.415061 
L 412.761619 -151.981084 
L 414.82665 -151.547107 
L 416.891681 -151.232824 
L 418.956712 -150.932337 
L 421.021742 -150.631851 
L 423.086773 -150.326896 
L 425.151804 -149.912264 
L 427.216835 -149.43878 
L 429.281866 -148.965296 
L 431.346897 -148.491812 
L 433.411928 -148.018328 
L 435.476959 -147.544844 
L 437.541989 -147.071361 
L 439.60702 -146.597877 
L 441.672051 -146.12592 
L 443.737082 -145.655309 
L 445.802113 -145.273742 
L 447.867144 -144.949138 
L 449.932175 -144.627413 
L 451.997205 -144.260447 
L 454.062236 -143.71224 
L 456.127267 -143.161574 
L 458.192298 -142.610908 
L 460.257329 -142.120492 
L 462.32236 -141.83682 
L 464.387391 -141.546374 
L 466.452422 -141.083401 
L 468.517452 -140.734792 
L 470.582483 -140.386184 
L 472.647514 -139.924078 
L 474.712545 -139.374912 
L 476.777576 -138.962509 
L 478.842607 -138.436712 
L 480.907638 -138.06129 
L 482.972669 -137.385324 
L 485.037699 -137.005411 
L 487.10273 -136.556355 
L 489.167761 -136.057212 
L 491.232792 -135.544914 
L 493.297823 -135.08438 
L 495.362854 -134.624246 
L 497.427885 -134.047643 
L 499.492916 -133.658304 
L 501.557946 -133.245403 
L 503.622977 -132.786149 
L 505.688008 -132.291917 
L 507.753039 -131.654413 
L 509.81807 -130.908338 
L 511.883101 -130.385293 
L 513.948132 -129.796615 
L 516.013162 -129.291689 
L 518.078193 -128.572563 
L 520.143224 -127.978074 
L 522.208255 -127.352996 
L 524.273286 -126.789985 
L 526.338317 -126.038879 
L 528.403348 -125.170636 
L 530.468379 -124.211945 
L 532.533409 -123.198728 
L 534.59844 -122.47446 
L 536.663471 -121.715913 
L 538.728502 -120.734895 
L 540.793533 -119.768164 
L 542.858564 -118.862933 
L 544.923595 -118.107033 
L 546.988626 -117.184562 
L 549.053656 -116.350409 
L 551.118687 -115.305689 
L 553.183718 -114.344698 
L 555.248749 -113.202459 
L 557.31378 -112.132788 
L 559.378811 -111.071649 
L 561.443842 -110.098936 
L 563.508873 -109.035 
L 565.573903 -107.988564 
L 567.638934 -107.004464 
L 569.703965 -106.020737 
L 571.768996 -105.03701 
L 573.834027 -104.053937 
L 575.899058 -103.026686 
L 577.964089 -101.955955 
L 580.02912 -101.048655 
L 582.09415 -99.928308 
L 584.159181 -98.762548 
L 586.224212 -97.596789 
L 588.289243 -96.436411 
L 590.354274 -95.392682 
L 592.419305 -94.476486 
L 594.484336 -93.307641 
L 596.549366 -92.105869 
L 598.614397 -90.968625 
L 600.679428 -89.910345 
L 602.744459 -88.808101 
L 602.744459 -121.903099 
L 602.744459 -121.903099 
L 600.679428 -122.345482 
L 598.614397 -122.883982 
L 596.549366 -123.420204 
L 594.484336 -123.796287 
L 592.419305 -124.165434 
L 590.354274 -124.530583 
L 588.289243 -124.894301 
L 586.224212 -125.25802 
L 584.159181 -125.651498 
L 582.09415 -126.005794 
L 580.02912 -126.503711 
L 577.964089 -126.849967 
L 575.899058 -127.195409 
L 573.834027 -127.540679 
L 571.768996 -128.240083 
L 569.703965 -128.564583 
L 567.638934 -129.176559 
L 565.573903 -129.687394 
L 563.508873 -130.332848 
L 561.443842 -130.941414 
L 559.378811 -131.373861 
L 557.31378 -132.103296 
L 555.248749 -132.777344 
L 553.183718 -133.508881 
L 551.118687 -134.255479 
L 549.053656 -135.032834 
L 546.988626 -135.878533 
L 544.923595 -136.536185 
L 542.858564 -137.341144 
L 540.793533 -138.020682 
L 538.728502 -138.749051 
L 536.663471 -139.527243 
L 534.59844 -140.249356 
L 532.533409 -141.117463 
L 530.468379 -142.008144 
L 528.403348 -142.827111 
L 526.338317 -143.655034 
L 524.273286 -144.640435 
L 522.208255 -145.721637 
L 520.143224 -146.755755 
L 518.078193 -147.57768 
L 516.013162 -148.490393 
L 513.948132 -149.520204 
L 511.883101 -150.524078 
L 509.81807 -151.547727 
L 507.753039 -152.553801 
L 505.688008 -153.652982 
L 503.622977 -154.67356 
L 501.557946 -155.801464 
L 499.492916 -156.952957 
L 497.427885 -158.055331 
L 495.362854 -159.063082 
L 493.297823 -160.025919 
L 491.232792 -160.899136 
L 489.167761 -161.998621 
L 487.10273 -163.098107 
L 485.037699 -164.197592 
L 482.972669 -165.308764 
L 480.907638 -166.397862 
L 478.842607 -167.452049 
L 476.777576 -168.48903 
L 474.712545 -169.535225 
L 472.647514 -170.597967 
L 470.582483 -171.741084 
L 468.517452 -172.904966 
L 466.452422 -174.097695 
L 464.387391 -175.22052 
L 462.32236 -176.367225 
L 460.257329 -177.466366 
L 458.192298 -178.505907 
L 456.127267 -179.607027 
L 454.062236 -180.708147 
L 451.997205 -181.809268 
L 449.932175 -182.922739 
L 447.867144 -184.049676 
L 445.802113 -185.229009 
L 443.737082 -186.352487 
L 441.672051 -187.430487 
L 439.60702 -188.557291 
L 437.541989 -189.682605 
L 435.476959 -190.752775 
L 433.411928 -191.817499 
L 431.346897 -192.88319 
L 429.281866 -193.962981 
L 427.216835 -195.126495 
L 425.151804 -196.338076 
L 423.086773 -197.549049 
L 421.021742 -198.699472 
L 418.956712 -199.825918 
L 416.891681 -200.952317 
L 414.82665 -202.064689 
L 412.761619 -203.206337 
L 410.696588 -204.334543 
L 408.631557 -205.46148 
L 406.566526 -206.588417 
L 404.501495 -207.715354 
L 402.436465 -208.8742 
L 400.371434 -209.997988 
L 398.306403 -211.121777 
z
" style="stroke: #ffffff; stroke-opacity: 0.15"/>
    </defs>
    <g clip-path="url(#p41e4213072)">
     <use xlink:href="#m2af8a71ace" x="0" y="267.527812" style="fill: #4c72b0; fill-opacity: 0.15; stroke: #ffffff; stroke-opacity: 0.15"/>
    </g>
   </g>
   <g id="line2d_22">
    <path d="M 398.306403 84.657658 
L 400.371434 85.435061 
L 402.436465 86.212464 
L 404.501495 86.989868 
L 406.566526 87.767271 
L 408.631557 88.544674 
L 410.696588 89.322078 
L 412.761619 90.099481 
L 414.82665 90.876884 
L 416.891681 91.654287 
L 418.956712 92.431691 
L 421.021742 93.209094 
L 423.086773 93.986497 
L 425.151804 94.763901 
L 427.216835 95.541304 
L 429.281866 96.318707 
L 431.346897 97.096111 
L 433.411928 97.873514 
L 435.476959 98.650917 
L 437.541989 99.428321 
L 439.60702 100.205724 
L 441.672051 100.983127 
L 443.737082 101.76053 
L 445.802113 102.537934 
L 447.867144 103.315337 
L 449.932175 104.09274 
L 451.997205 104.870144 
L 454.062236 105.647547 
L 456.127267 106.42495 
L 458.192298 107.202354 
L 460.257329 107.979757 
L 462.32236 108.75716 
L 464.387391 109.534564 
L 466.452422 110.311967 
L 468.517452 111.08937 
L 470.582483 111.866773 
L 472.647514 112.644177 
L 474.712545 113.42158 
L 476.777576 114.198983 
L 478.842607 114.976387 
L 480.907638 115.75379 
L 482.972669 116.531193 
L 485.037699 117.308597 
L 487.10273 118.086 
L 489.167761 118.863403 
L 491.232792 119.640807 
L 493.297823 120.41821 
L 495.362854 121.195613 
L 497.427885 121.973016 
L 499.492916 122.75042 
L 501.557946 123.527823 
L 503.622977 124.305226 
L 505.688008 125.08263 
L 507.753039 125.860033 
L 509.81807 126.637436 
L 511.883101 127.41484 
L 513.948132 128.192243 
L 516.013162 128.969646 
L 518.078193 129.74705 
L 520.143224 130.524453 
L 522.208255 131.301856 
L 524.273286 132.079259 
L 526.338317 132.856663 
L 528.403348 133.634066 
L 530.468379 134.411469 
L 532.533409 135.188873 
L 534.59844 135.966276 
L 536.663471 136.743679 
L 538.728502 137.521083 
L 540.793533 138.298486 
L 542.858564 139.075889 
L 544.923595 139.853293 
L 546.988626 140.630696 
L 549.053656 141.408099 
L 551.118687 142.185502 
L 553.183718 142.962906 
L 555.248749 143.740309 
L 557.31378 144.517712 
L 559.378811 145.295116 
L 561.443842 146.072519 
L 563.508873 146.849922 
L 565.573903 147.627326 
L 567.638934 148.404729 
L 569.703965 149.182132 
L 571.768996 149.959536 
L 573.834027 150.736939 
L 575.899058 151.514342 
L 577.964089 152.291745 
L 580.02912 153.069149 
L 582.09415 153.846552 
L 584.159181 154.623955 
L 586.224212 155.401359 
L 588.289243 156.178762 
L 590.354274 156.956165 
L 592.419305 157.733569 
L 594.484336 158.510972 
L 596.549366 159.288375 
L 598.614397 160.065778 
L 600.679428 160.843182 
L 602.744459 161.620585 
" clip-path="url(#p41e4213072)" style="fill: none; stroke: #4c72b0; stroke-width: 2.25; stroke-linecap: round"/>
   </g>
   <g id="patch_9">
    <path d="M 388.0845 221.076 
L 388.0845 7.2 
" style="fill: none; stroke: #cccccc; stroke-width: 1.25; stroke-linejoin: miter; stroke-linecap: square"/>
   </g>
   <g id="patch_10">
    <path d="M 612.966362 221.076 
L 612.966362 7.2 
" style="fill: none; stroke: #cccccc; stroke-width: 1.25; stroke-linejoin: miter; stroke-linecap: square"/>
   </g>
   <g id="patch_11">
    <path d="M 388.0845 221.076 
L 612.966362 221.076 
" style="fill: none; stroke: #cccccc; stroke-width: 1.25; stroke-linejoin: miter; stroke-linecap: square"/>
   </g>
   <g id="patch_12">
    <path d="M 388.0845 7.2 
L 612.966362 7.2 
" style="fill: none; stroke: #cccccc; stroke-width: 1.25; stroke-linejoin: miter; stroke-linecap: square"/>
   </g>
   <g id="legend_2">
    <g id="patch_13">
     <path d="M 397.3245 36.471 
L 576.759937 36.471 
Q 579.399937 36.471 579.399937 33.831 
L 579.399937 16.44 
Q 579.399937 13.8 576.759937 13.8 
L 397.3245 13.8 
Q 394.6845 13.8 394.6845 16.44 
L 394.6845 33.831 
Q 394.6845 36.471 397.3245 36.471 
z
" style="fill: #ffffff; opacity: 0.8; stroke: #cccccc; stroke-linejoin: miter"/>
    </g>
    <g id="PathCollection_4">
     <g>
      <use xlink:href="#m5ec99cc28c" x="413.1645" y="25.1025" style="fill: #4c72b0; fill-opacity: 0.8; stroke: #4c72b0; stroke-opacity: 0.8"/>
     </g>
    </g>
    <g id="text_26">
     <!-- r: -0.46, p-val: 3.22e-04 -->
     <g style="fill: #262626" transform="translate(436.9245 28.5675) scale(0.132 -0.132)">
      <use xlink:href="#ArialMT-72"/>
      <use xlink:href="#ArialMT-3a" transform="translate(33.300781 0)"/>
      <use xlink:href="#ArialMT-20" transform="translate(61.083984 0)"/>
      <use xlink:href="#ArialMT-2d" transform="translate(88.867188 0)"/>
      <use xlink:href="#ArialMT-30" transform="translate(122.167969 0)"/>
      <use xlink:href="#ArialMT-2e" transform="translate(177.783203 0)"/>
      <use xlink:href="#ArialMT-34" transform="translate(205.566406 0)"/>
      <use xlink:href="#ArialMT-36" transform="translate(261.181641 0)"/>
      <use xlink:href="#ArialMT-2c" transform="translate(316.796875 0)"/>
      <use xlink:href="#ArialMT-20" transform="translate(344.580078 0)"/>
      <use xlink:href="#ArialMT-70" transform="translate(372.363281 0)"/>
      <use xlink:href="#ArialMT-2d" transform="translate(427.978516 0)"/>
      <use xlink:href="#ArialMT-76" transform="translate(461.279297 0)"/>
      <use xlink:href="#ArialMT-61" transform="translate(511.279297 0)"/>
      <use xlink:href="#ArialMT-6c" transform="translate(566.894531 0)"/>
      <use xlink:href="#ArialMT-3a" transform="translate(589.111328 0)"/>
      <use xlink:href="#ArialMT-20" transform="translate(616.894531 0)"/>
      <use xlink:href="#ArialMT-33" transform="translate(644.677734 0)"/>
      <use xlink:href="#ArialMT-2e" transform="translate(700.292969 0)"/>
      <use xlink:href="#ArialMT-32" transform="translate(728.076172 0)"/>
      <use xlink:href="#ArialMT-32" transform="translate(783.691406 0)"/>
      <use xlink:href="#ArialMT-65" transform="translate(839.306641 0)"/>
      <use xlink:href="#ArialMT-2d" transform="translate(894.921875 0)"/>
      <use xlink:href="#ArialMT-30" transform="translate(928.222656 0)"/>
      <use xlink:href="#ArialMT-34" transform="translate(983.837891 0)"/>
     </g>
    </g>
   </g>
  </g>
 </g>
 <defs>
  <clipPath id="pece9965782">
   <rect x="75.5505" y="7.2" width="224.881862" height="213.876"/>
  </clipPath>
  <clipPath id="p41e4213072">
   <rect x="388.0845" y="7.2" width="224.881862" height="213.876"/>
  </clipPath>
 </defs>
</svg>
