<?xml version="1.0" encoding="utf-8" standalone="no"?>
<!DOCTYPE svg PUBLIC "-//W3C//DTD SVG 1.1//EN"
  "http://www.w3.org/Graphics/SVG/1.1/DTD/svg11.dtd">
<svg xmlns:xlink="http://www.w3.org/1999/xlink" width="708.472656pt" height="276.414844pt" viewBox="0 0 708.472656 276.414844" xmlns="http://www.w3.org/2000/svg" version="1.1">
 <metadata>
  <rdf:RDF xmlns:dc="http://purl.org/dc/elements/1.1/" xmlns:cc="http://creativecommons.org/ns#" xmlns:rdf="http://www.w3.org/1999/02/22-rdf-syntax-ns#">
   <cc:Work>
    <dc:type rdf:resource="http://purl.org/dc/dcmitype/StillImage"/>
    <dc:date>2025-04-14T23:23:13.591933</dc:date>
    <dc:format>image/svg+xml</dc:format>
    <dc:creator>
     <cc:Agent>
      <dc:title>Matplotlib v3.10.1, https://matplotlib.org/</dc:title>
     </cc:Agent>
    </dc:creator>
   </cc:Work>
  </rdf:RDF>
 </metadata>
 <defs>
  <style type="text/css">*{stroke-linejoin: round; stroke-linecap: butt}</style>
 </defs>
 <g id="figure_1">
  <g id="patch_1">
   <path d="M 0 276.414844 
L 708.472656 276.414844 
L 708.472656 0 
L 0 0 
z
" style="fill: #ffffff"/>
  </g>
  <g id="axes_1">
   <g id="patch_2">
    <path d="M 64.252656 232.851562 
L 352.342656 232.851562 
L 352.342656 23.391562 
L 64.252656 23.391562 
z
" style="fill: #ffffff"/>
   </g>
   <g id="matplotlib.axis_1">
    <g id="xtick_1">
     <g id="line2d_1">
      <path d="M 65.354721 232.851562 
L 65.354721 23.391562 
" clip-path="url(#p7299190234)" style="fill: none; stroke: #cccccc; stroke-linecap: round"/>
     </g>
     <g id="text_1">
      <!-- 0.0 -->
      <g style="fill: #262626" transform="translate(57.709721 250.225156) scale(0.11 -0.11)">
       <defs>
        <path id="ArialMT-30" d="M 266 2259 
Q 266 3072 433 3567 
Q 600 4063 929 4331 
Q 1259 4600 1759 4600 
Q 2128 4600 2406 4451 
Q 2684 4303 2865 4023 
Q 3047 3744 3150 3342 
Q 3253 2941 3253 2259 
Q 3253 1453 3087 958 
Q 2922 463 2592 192 
Q 2263 -78 1759 -78 
Q 1097 -78 719 397 
Q 266 969 266 2259 
z
M 844 2259 
Q 844 1131 1108 757 
Q 1372 384 1759 384 
Q 2147 384 2411 759 
Q 2675 1134 2675 2259 
Q 2675 3391 2411 3762 
Q 2147 4134 1753 4134 
Q 1366 4134 1134 3806 
Q 844 3388 844 2259 
z
" transform="scale(0.015625)"/>
        <path id="ArialMT-2e" d="M 581 0 
L 581 641 
L 1222 641 
L 1222 0 
L 581 0 
z
" transform="scale(0.015625)"/>
       </defs>
       <use xlink:href="#ArialMT-30"/>
       <use xlink:href="#ArialMT-2e" transform="translate(55.615234 0)"/>
       <use xlink:href="#ArialMT-30" transform="translate(83.398438 0)"/>
      </g>
     </g>
    </g>
    <g id="xtick_2">
     <g id="line2d_2">
      <path d="M 132.346837 232.851562 
L 132.346837 23.391562 
" clip-path="url(#p7299190234)" style="fill: none; stroke: #cccccc; stroke-linecap: round"/>
     </g>
     <g id="text_2">
      <!-- 0.1 -->
      <g style="fill: #262626" transform="translate(124.701837 250.225156) scale(0.11 -0.11)">
       <defs>
        <path id="ArialMT-31" d="M 2384 0 
L 1822 0 
L 1822 3584 
Q 1619 3391 1289 3197 
Q 959 3003 697 2906 
L 697 3450 
Q 1169 3672 1522 3987 
Q 1875 4303 2022 4600 
L 2384 4600 
L 2384 0 
z
" transform="scale(0.015625)"/>
       </defs>
       <use xlink:href="#ArialMT-30"/>
       <use xlink:href="#ArialMT-2e" transform="translate(55.615234 0)"/>
       <use xlink:href="#ArialMT-31" transform="translate(83.398438 0)"/>
      </g>
     </g>
    </g>
    <g id="xtick_3">
     <g id="line2d_3">
      <path d="M 199.338952 232.851562 
L 199.338952 23.391562 
" clip-path="url(#p7299190234)" style="fill: none; stroke: #cccccc; stroke-linecap: round"/>
     </g>
     <g id="text_3">
      <!-- 0.2 -->
      <g style="fill: #262626" transform="translate(191.693952 250.225156) scale(0.11 -0.11)">
       <defs>
        <path id="ArialMT-32" d="M 3222 541 
L 3222 0 
L 194 0 
Q 188 203 259 391 
Q 375 700 629 1000 
Q 884 1300 1366 1694 
Q 2113 2306 2375 2664 
Q 2638 3022 2638 3341 
Q 2638 3675 2398 3904 
Q 2159 4134 1775 4134 
Q 1369 4134 1125 3890 
Q 881 3647 878 3216 
L 300 3275 
Q 359 3922 746 4261 
Q 1134 4600 1788 4600 
Q 2447 4600 2831 4234 
Q 3216 3869 3216 3328 
Q 3216 3053 3103 2787 
Q 2991 2522 2730 2228 
Q 2469 1934 1863 1422 
Q 1356 997 1212 845 
Q 1069 694 975 541 
L 3222 541 
z
" transform="scale(0.015625)"/>
       </defs>
       <use xlink:href="#ArialMT-30"/>
       <use xlink:href="#ArialMT-2e" transform="translate(55.615234 0)"/>
       <use xlink:href="#ArialMT-32" transform="translate(83.398438 0)"/>
      </g>
     </g>
    </g>
    <g id="xtick_4">
     <g id="line2d_4">
      <path d="M 266.331068 232.851562 
L 266.331068 23.391562 
" clip-path="url(#p7299190234)" style="fill: none; stroke: #cccccc; stroke-linecap: round"/>
     </g>
     <g id="text_4">
      <!-- 0.3 -->
      <g style="fill: #262626" transform="translate(258.686068 250.225156) scale(0.11 -0.11)">
       <defs>
        <path id="ArialMT-33" d="M 269 1209 
L 831 1284 
Q 928 806 1161 595 
Q 1394 384 1728 384 
Q 2125 384 2398 659 
Q 2672 934 2672 1341 
Q 2672 1728 2419 1979 
Q 2166 2231 1775 2231 
Q 1616 2231 1378 2169 
L 1441 2663 
Q 1497 2656 1531 2656 
Q 1891 2656 2178 2843 
Q 2466 3031 2466 3422 
Q 2466 3731 2256 3934 
Q 2047 4138 1716 4138 
Q 1388 4138 1169 3931 
Q 950 3725 888 3313 
L 325 3413 
Q 428 3978 793 4289 
Q 1159 4600 1703 4600 
Q 2078 4600 2393 4439 
Q 2709 4278 2876 4000 
Q 3044 3722 3044 3409 
Q 3044 3113 2884 2869 
Q 2725 2625 2413 2481 
Q 2819 2388 3044 2092 
Q 3269 1797 3269 1353 
Q 3269 753 2831 336 
Q 2394 -81 1725 -81 
Q 1122 -81 723 278 
Q 325 638 269 1209 
z
" transform="scale(0.015625)"/>
       </defs>
       <use xlink:href="#ArialMT-30"/>
       <use xlink:href="#ArialMT-2e" transform="translate(55.615234 0)"/>
       <use xlink:href="#ArialMT-33" transform="translate(83.398438 0)"/>
      </g>
     </g>
    </g>
    <g id="xtick_5">
     <g id="line2d_5">
      <path d="M 333.323183 232.851562 
L 333.323183 23.391562 
" clip-path="url(#p7299190234)" style="fill: none; stroke: #cccccc; stroke-linecap: round"/>
     </g>
     <g id="text_5">
      <!-- 0.4 -->
      <g style="fill: #262626" transform="translate(325.678183 250.225156) scale(0.11 -0.11)">
       <defs>
        <path id="ArialMT-34" d="M 2069 0 
L 2069 1097 
L 81 1097 
L 81 1613 
L 2172 4581 
L 2631 4581 
L 2631 1613 
L 3250 1613 
L 3250 1097 
L 2631 1097 
L 2631 0 
L 2069 0 
z
M 2069 1613 
L 2069 3678 
L 634 1613 
L 2069 1613 
z
" transform="scale(0.015625)"/>
       </defs>
       <use xlink:href="#ArialMT-30"/>
       <use xlink:href="#ArialMT-2e" transform="translate(55.615234 0)"/>
       <use xlink:href="#ArialMT-34" transform="translate(83.398438 0)"/>
      </g>
     </g>
    </g>
    <g id="text_6">
     <!-- Labile to recalcitrant ratio -->
     <g style="fill: #262626" transform="translate(130.096719 266.432344) scale(0.14 -0.14)">
      <defs>
       <path id="ArialMT-4c" d="M 469 0 
L 469 4581 
L 1075 4581 
L 1075 541 
L 3331 541 
L 3331 0 
L 469 0 
z
" transform="scale(0.015625)"/>
       <path id="ArialMT-61" d="M 2588 409 
Q 2275 144 1986 34 
Q 1697 -75 1366 -75 
Q 819 -75 525 192 
Q 231 459 231 875 
Q 231 1119 342 1320 
Q 453 1522 633 1644 
Q 813 1766 1038 1828 
Q 1203 1872 1538 1913 
Q 2219 1994 2541 2106 
Q 2544 2222 2544 2253 
Q 2544 2597 2384 2738 
Q 2169 2928 1744 2928 
Q 1347 2928 1158 2789 
Q 969 2650 878 2297 
L 328 2372 
Q 403 2725 575 2942 
Q 747 3159 1072 3276 
Q 1397 3394 1825 3394 
Q 2250 3394 2515 3294 
Q 2781 3194 2906 3042 
Q 3031 2891 3081 2659 
Q 3109 2516 3109 2141 
L 3109 1391 
Q 3109 606 3145 398 
Q 3181 191 3288 0 
L 2700 0 
Q 2613 175 2588 409 
z
M 2541 1666 
Q 2234 1541 1622 1453 
Q 1275 1403 1131 1340 
Q 988 1278 909 1158 
Q 831 1038 831 891 
Q 831 666 1001 516 
Q 1172 366 1500 366 
Q 1825 366 2078 508 
Q 2331 650 2450 897 
Q 2541 1088 2541 1459 
L 2541 1666 
z
" transform="scale(0.015625)"/>
       <path id="ArialMT-62" d="M 941 0 
L 419 0 
L 419 4581 
L 981 4581 
L 981 2947 
Q 1338 3394 1891 3394 
Q 2197 3394 2470 3270 
Q 2744 3147 2920 2923 
Q 3097 2700 3197 2384 
Q 3297 2069 3297 1709 
Q 3297 856 2875 390 
Q 2453 -75 1863 -75 
Q 1275 -75 941 416 
L 941 0 
z
M 934 1684 
Q 934 1088 1097 822 
Q 1363 388 1816 388 
Q 2184 388 2453 708 
Q 2722 1028 2722 1663 
Q 2722 2313 2464 2622 
Q 2206 2931 1841 2931 
Q 1472 2931 1203 2611 
Q 934 2291 934 1684 
z
" transform="scale(0.015625)"/>
       <path id="ArialMT-69" d="M 425 3934 
L 425 4581 
L 988 4581 
L 988 3934 
L 425 3934 
z
M 425 0 
L 425 3319 
L 988 3319 
L 988 0 
L 425 0 
z
" transform="scale(0.015625)"/>
       <path id="ArialMT-6c" d="M 409 0 
L 409 4581 
L 972 4581 
L 972 0 
L 409 0 
z
" transform="scale(0.015625)"/>
       <path id="ArialMT-65" d="M 2694 1069 
L 3275 997 
Q 3138 488 2766 206 
Q 2394 -75 1816 -75 
Q 1088 -75 661 373 
Q 234 822 234 1631 
Q 234 2469 665 2931 
Q 1097 3394 1784 3394 
Q 2450 3394 2872 2941 
Q 3294 2488 3294 1666 
Q 3294 1616 3291 1516 
L 816 1516 
Q 847 969 1125 678 
Q 1403 388 1819 388 
Q 2128 388 2347 550 
Q 2566 713 2694 1069 
z
M 847 1978 
L 2700 1978 
Q 2663 2397 2488 2606 
Q 2219 2931 1791 2931 
Q 1403 2931 1139 2672 
Q 875 2413 847 1978 
z
" transform="scale(0.015625)"/>
       <path id="ArialMT-20" transform="scale(0.015625)"/>
       <path id="ArialMT-74" d="M 1650 503 
L 1731 6 
Q 1494 -44 1306 -44 
Q 1000 -44 831 53 
Q 663 150 594 308 
Q 525 466 525 972 
L 525 2881 
L 113 2881 
L 113 3319 
L 525 3319 
L 525 4141 
L 1084 4478 
L 1084 3319 
L 1650 3319 
L 1650 2881 
L 1084 2881 
L 1084 941 
Q 1084 700 1114 631 
Q 1144 563 1211 522 
Q 1278 481 1403 481 
Q 1497 481 1650 503 
z
" transform="scale(0.015625)"/>
       <path id="ArialMT-6f" d="M 213 1659 
Q 213 2581 725 3025 
Q 1153 3394 1769 3394 
Q 2453 3394 2887 2945 
Q 3322 2497 3322 1706 
Q 3322 1066 3130 698 
Q 2938 331 2570 128 
Q 2203 -75 1769 -75 
Q 1072 -75 642 372 
Q 213 819 213 1659 
z
M 791 1659 
Q 791 1022 1069 705 
Q 1347 388 1769 388 
Q 2188 388 2466 706 
Q 2744 1025 2744 1678 
Q 2744 2294 2464 2611 
Q 2184 2928 1769 2928 
Q 1347 2928 1069 2612 
Q 791 2297 791 1659 
z
" transform="scale(0.015625)"/>
       <path id="ArialMT-72" d="M 416 0 
L 416 3319 
L 922 3319 
L 922 2816 
Q 1116 3169 1280 3281 
Q 1444 3394 1641 3394 
Q 1925 3394 2219 3213 
L 2025 2691 
Q 1819 2813 1613 2813 
Q 1428 2813 1281 2702 
Q 1134 2591 1072 2394 
Q 978 2094 978 1738 
L 978 0 
L 416 0 
z
" transform="scale(0.015625)"/>
       <path id="ArialMT-63" d="M 2588 1216 
L 3141 1144 
Q 3050 572 2676 248 
Q 2303 -75 1759 -75 
Q 1078 -75 664 370 
Q 250 816 250 1647 
Q 250 2184 428 2587 
Q 606 2991 970 3192 
Q 1334 3394 1763 3394 
Q 2303 3394 2647 3120 
Q 2991 2847 3088 2344 
L 2541 2259 
Q 2463 2594 2264 2762 
Q 2066 2931 1784 2931 
Q 1359 2931 1093 2626 
Q 828 2322 828 1663 
Q 828 994 1084 691 
Q 1341 388 1753 388 
Q 2084 388 2306 591 
Q 2528 794 2588 1216 
z
" transform="scale(0.015625)"/>
       <path id="ArialMT-6e" d="M 422 0 
L 422 3319 
L 928 3319 
L 928 2847 
Q 1294 3394 1984 3394 
Q 2284 3394 2536 3286 
Q 2788 3178 2913 3003 
Q 3038 2828 3088 2588 
Q 3119 2431 3119 2041 
L 3119 0 
L 2556 0 
L 2556 2019 
Q 2556 2363 2490 2533 
Q 2425 2703 2258 2804 
Q 2091 2906 1866 2906 
Q 1506 2906 1245 2678 
Q 984 2450 984 1813 
L 984 0 
L 422 0 
z
" transform="scale(0.015625)"/>
      </defs>
      <use xlink:href="#ArialMT-4c"/>
      <use xlink:href="#ArialMT-61" transform="translate(55.615234 0)"/>
      <use xlink:href="#ArialMT-62" transform="translate(111.230469 0)"/>
      <use xlink:href="#ArialMT-69" transform="translate(166.845703 0)"/>
      <use xlink:href="#ArialMT-6c" transform="translate(189.0625 0)"/>
      <use xlink:href="#ArialMT-65" transform="translate(211.279297 0)"/>
      <use xlink:href="#ArialMT-20" transform="translate(266.894531 0)"/>
      <use xlink:href="#ArialMT-74" transform="translate(294.677734 0)"/>
      <use xlink:href="#ArialMT-6f" transform="translate(322.460938 0)"/>
      <use xlink:href="#ArialMT-20" transform="translate(378.076172 0)"/>
      <use xlink:href="#ArialMT-72" transform="translate(405.859375 0)"/>
      <use xlink:href="#ArialMT-65" transform="translate(439.160156 0)"/>
      <use xlink:href="#ArialMT-63" transform="translate(494.775391 0)"/>
      <use xlink:href="#ArialMT-61" transform="translate(544.775391 0)"/>
      <use xlink:href="#ArialMT-6c" transform="translate(600.390625 0)"/>
      <use xlink:href="#ArialMT-63" transform="translate(622.607422 0)"/>
      <use xlink:href="#ArialMT-69" transform="translate(672.607422 0)"/>
      <use xlink:href="#ArialMT-74" transform="translate(694.824219 0)"/>
      <use xlink:href="#ArialMT-72" transform="translate(722.607422 0)"/>
      <use xlink:href="#ArialMT-61" transform="translate(755.908203 0)"/>
      <use xlink:href="#ArialMT-6e" transform="translate(811.523438 0)"/>
      <use xlink:href="#ArialMT-74" transform="translate(867.138672 0)"/>
      <use xlink:href="#ArialMT-20" transform="translate(894.921875 0)"/>
      <use xlink:href="#ArialMT-72" transform="translate(922.705078 0)"/>
      <use xlink:href="#ArialMT-61" transform="translate(956.005859 0)"/>
      <use xlink:href="#ArialMT-74" transform="translate(1011.621094 0)"/>
      <use xlink:href="#ArialMT-69" transform="translate(1039.404297 0)"/>
      <use xlink:href="#ArialMT-6f" transform="translate(1061.621094 0)"/>
     </g>
    </g>
   </g>
   <g id="matplotlib.axis_2">
    <g id="ytick_1">
     <g id="line2d_6">
      <path d="M 64.252656 230.019697 
L 352.342656 230.019697 
" clip-path="url(#p7299190234)" style="fill: none; stroke: #cccccc; stroke-linecap: round"/>
     </g>
     <g id="text_7">
      <!-- 0 -->
      <g style="fill: #262626" transform="translate(48.635625 233.956494) scale(0.11 -0.11)">
       <use xlink:href="#ArialMT-30"/>
      </g>
     </g>
    </g>
    <g id="ytick_2">
     <g id="line2d_7">
      <path d="M 64.252656 193.427556 
L 352.342656 193.427556 
" clip-path="url(#p7299190234)" style="fill: none; stroke: #cccccc; stroke-linecap: round"/>
     </g>
     <g id="text_8">
      <!-- 5000 -->
      <g style="fill: #262626" transform="translate(30.284531 197.364353) scale(0.11 -0.11)">
       <defs>
        <path id="ArialMT-35" d="M 266 1200 
L 856 1250 
Q 922 819 1161 601 
Q 1400 384 1738 384 
Q 2144 384 2425 690 
Q 2706 997 2706 1503 
Q 2706 1984 2436 2262 
Q 2166 2541 1728 2541 
Q 1456 2541 1237 2417 
Q 1019 2294 894 2097 
L 366 2166 
L 809 4519 
L 3088 4519 
L 3088 3981 
L 1259 3981 
L 1013 2750 
Q 1425 3038 1878 3038 
Q 2478 3038 2890 2622 
Q 3303 2206 3303 1553 
Q 3303 931 2941 478 
Q 2500 -78 1738 -78 
Q 1113 -78 717 272 
Q 322 622 266 1200 
z
" transform="scale(0.015625)"/>
       </defs>
       <use xlink:href="#ArialMT-35"/>
       <use xlink:href="#ArialMT-30" transform="translate(55.615234 0)"/>
       <use xlink:href="#ArialMT-30" transform="translate(111.230469 0)"/>
       <use xlink:href="#ArialMT-30" transform="translate(166.845703 0)"/>
      </g>
     </g>
    </g>
    <g id="ytick_3">
     <g id="line2d_8">
      <path d="M 64.252656 156.835415 
L 352.342656 156.835415 
" clip-path="url(#p7299190234)" style="fill: none; stroke: #cccccc; stroke-linecap: round"/>
     </g>
     <g id="text_9">
      <!-- 10000 -->
      <g style="fill: #262626" transform="translate(24.1675 160.772212) scale(0.11 -0.11)">
       <use xlink:href="#ArialMT-31"/>
       <use xlink:href="#ArialMT-30" transform="translate(55.615234 0)"/>
       <use xlink:href="#ArialMT-30" transform="translate(111.230469 0)"/>
       <use xlink:href="#ArialMT-30" transform="translate(166.845703 0)"/>
       <use xlink:href="#ArialMT-30" transform="translate(222.460938 0)"/>
      </g>
     </g>
    </g>
    <g id="ytick_4">
     <g id="line2d_9">
      <path d="M 64.252656 120.243275 
L 352.342656 120.243275 
" clip-path="url(#p7299190234)" style="fill: none; stroke: #cccccc; stroke-linecap: round"/>
     </g>
     <g id="text_10">
      <!-- 15000 -->
      <g style="fill: #262626" transform="translate(24.1675 124.180071) scale(0.11 -0.11)">
       <use xlink:href="#ArialMT-31"/>
       <use xlink:href="#ArialMT-35" transform="translate(55.615234 0)"/>
       <use xlink:href="#ArialMT-30" transform="translate(111.230469 0)"/>
       <use xlink:href="#ArialMT-30" transform="translate(166.845703 0)"/>
       <use xlink:href="#ArialMT-30" transform="translate(222.460938 0)"/>
      </g>
     </g>
    </g>
    <g id="ytick_5">
     <g id="line2d_10">
      <path d="M 64.252656 83.651134 
L 352.342656 83.651134 
" clip-path="url(#p7299190234)" style="fill: none; stroke: #cccccc; stroke-linecap: round"/>
     </g>
     <g id="text_11">
      <!-- 20000 -->
      <g style="fill: #262626" transform="translate(24.1675 87.587931) scale(0.11 -0.11)">
       <use xlink:href="#ArialMT-32"/>
       <use xlink:href="#ArialMT-30" transform="translate(55.615234 0)"/>
       <use xlink:href="#ArialMT-30" transform="translate(111.230469 0)"/>
       <use xlink:href="#ArialMT-30" transform="translate(166.845703 0)"/>
       <use xlink:href="#ArialMT-30" transform="translate(222.460938 0)"/>
      </g>
     </g>
    </g>
    <g id="ytick_6">
     <g id="line2d_11">
      <path d="M 64.252656 47.058993 
L 352.342656 47.058993 
" clip-path="url(#p7299190234)" style="fill: none; stroke: #cccccc; stroke-linecap: round"/>
     </g>
     <g id="text_12">
      <!-- 25000 -->
      <g style="fill: #262626" transform="translate(24.1675 50.99579) scale(0.11 -0.11)">
       <use xlink:href="#ArialMT-32"/>
       <use xlink:href="#ArialMT-35" transform="translate(55.615234 0)"/>
       <use xlink:href="#ArialMT-30" transform="translate(111.230469 0)"/>
       <use xlink:href="#ArialMT-30" transform="translate(166.845703 0)"/>
       <use xlink:href="#ArialMT-30" transform="translate(222.460938 0)"/>
      </g>
     </g>
    </g>
    <g id="text_13">
     <!-- Alpha diversity -->
     <g style="fill: #262626" transform="translate(17.220937 173.640156) rotate(-90) scale(0.14 -0.14)">
      <defs>
       <path id="ArialMT-41" d="M -9 0 
L 1750 4581 
L 2403 4581 
L 4278 0 
L 3588 0 
L 3053 1388 
L 1138 1388 
L 634 0 
L -9 0 
z
M 1313 1881 
L 2866 1881 
L 2388 3150 
Q 2169 3728 2063 4100 
Q 1975 3659 1816 3225 
L 1313 1881 
z
" transform="scale(0.015625)"/>
       <path id="ArialMT-70" d="M 422 -1272 
L 422 3319 
L 934 3319 
L 934 2888 
Q 1116 3141 1344 3267 
Q 1572 3394 1897 3394 
Q 2322 3394 2647 3175 
Q 2972 2956 3137 2557 
Q 3303 2159 3303 1684 
Q 3303 1175 3120 767 
Q 2938 359 2589 142 
Q 2241 -75 1856 -75 
Q 1575 -75 1351 44 
Q 1128 163 984 344 
L 984 -1272 
L 422 -1272 
z
M 931 1641 
Q 931 1000 1190 694 
Q 1450 388 1819 388 
Q 2194 388 2461 705 
Q 2728 1022 2728 1688 
Q 2728 2322 2467 2637 
Q 2206 2953 1844 2953 
Q 1484 2953 1207 2617 
Q 931 2281 931 1641 
z
" transform="scale(0.015625)"/>
       <path id="ArialMT-68" d="M 422 0 
L 422 4581 
L 984 4581 
L 984 2938 
Q 1378 3394 1978 3394 
Q 2347 3394 2619 3248 
Q 2891 3103 3008 2847 
Q 3125 2591 3125 2103 
L 3125 0 
L 2563 0 
L 2563 2103 
Q 2563 2525 2380 2717 
Q 2197 2909 1863 2909 
Q 1613 2909 1392 2779 
Q 1172 2650 1078 2428 
Q 984 2206 984 1816 
L 984 0 
L 422 0 
z
" transform="scale(0.015625)"/>
       <path id="ArialMT-64" d="M 2575 0 
L 2575 419 
Q 2259 -75 1647 -75 
Q 1250 -75 917 144 
Q 584 363 401 755 
Q 219 1147 219 1656 
Q 219 2153 384 2558 
Q 550 2963 881 3178 
Q 1213 3394 1622 3394 
Q 1922 3394 2156 3267 
Q 2391 3141 2538 2938 
L 2538 4581 
L 3097 4581 
L 3097 0 
L 2575 0 
z
M 797 1656 
Q 797 1019 1065 703 
Q 1334 388 1700 388 
Q 2069 388 2326 689 
Q 2584 991 2584 1609 
Q 2584 2291 2321 2609 
Q 2059 2928 1675 2928 
Q 1300 2928 1048 2622 
Q 797 2316 797 1656 
z
" transform="scale(0.015625)"/>
       <path id="ArialMT-76" d="M 1344 0 
L 81 3319 
L 675 3319 
L 1388 1331 
Q 1503 1009 1600 663 
Q 1675 925 1809 1294 
L 2547 3319 
L 3125 3319 
L 1869 0 
L 1344 0 
z
" transform="scale(0.015625)"/>
       <path id="ArialMT-73" d="M 197 991 
L 753 1078 
Q 800 744 1014 566 
Q 1228 388 1613 388 
Q 2000 388 2187 545 
Q 2375 703 2375 916 
Q 2375 1106 2209 1216 
Q 2094 1291 1634 1406 
Q 1016 1563 777 1677 
Q 538 1791 414 1992 
Q 291 2194 291 2438 
Q 291 2659 392 2848 
Q 494 3038 669 3163 
Q 800 3259 1026 3326 
Q 1253 3394 1513 3394 
Q 1903 3394 2198 3281 
Q 2494 3169 2634 2976 
Q 2775 2784 2828 2463 
L 2278 2388 
Q 2241 2644 2061 2787 
Q 1881 2931 1553 2931 
Q 1166 2931 1000 2803 
Q 834 2675 834 2503 
Q 834 2394 903 2306 
Q 972 2216 1119 2156 
Q 1203 2125 1616 2013 
Q 2213 1853 2448 1751 
Q 2684 1650 2818 1456 
Q 2953 1263 2953 975 
Q 2953 694 2789 445 
Q 2625 197 2315 61 
Q 2006 -75 1616 -75 
Q 969 -75 630 194 
Q 291 463 197 991 
z
" transform="scale(0.015625)"/>
       <path id="ArialMT-79" d="M 397 -1278 
L 334 -750 
Q 519 -800 656 -800 
Q 844 -800 956 -737 
Q 1069 -675 1141 -563 
Q 1194 -478 1313 -144 
Q 1328 -97 1363 -6 
L 103 3319 
L 709 3319 
L 1400 1397 
Q 1534 1031 1641 628 
Q 1738 1016 1872 1384 
L 2581 3319 
L 3144 3319 
L 1881 -56 
Q 1678 -603 1566 -809 
Q 1416 -1088 1222 -1217 
Q 1028 -1347 759 -1347 
Q 597 -1347 397 -1278 
z
" transform="scale(0.015625)"/>
      </defs>
      <use xlink:href="#ArialMT-41"/>
      <use xlink:href="#ArialMT-6c" transform="translate(66.699219 0)"/>
      <use xlink:href="#ArialMT-70" transform="translate(88.916016 0)"/>
      <use xlink:href="#ArialMT-68" transform="translate(144.53125 0)"/>
      <use xlink:href="#ArialMT-61" transform="translate(200.146484 0)"/>
      <use xlink:href="#ArialMT-20" transform="translate(255.761719 0)"/>
      <use xlink:href="#ArialMT-64" transform="translate(283.544922 0)"/>
      <use xlink:href="#ArialMT-69" transform="translate(339.160156 0)"/>
      <use xlink:href="#ArialMT-76" transform="translate(361.376953 0)"/>
      <use xlink:href="#ArialMT-65" transform="translate(411.376953 0)"/>
      <use xlink:href="#ArialMT-72" transform="translate(466.992188 0)"/>
      <use xlink:href="#ArialMT-73" transform="translate(500.292969 0)"/>
      <use xlink:href="#ArialMT-69" transform="translate(550.292969 0)"/>
      <use xlink:href="#ArialMT-74" transform="translate(572.509766 0)"/>
      <use xlink:href="#ArialMT-79" transform="translate(600.292969 0)"/>
     </g>
    </g>
   </g>
   <g id="PathCollection_1">
    <defs>
     <path id="mdad3def078" d="M 0 3.162278 
C 0.838646 3.162278 1.643056 2.82908 2.236068 2.236068 
C 2.82908 1.643056 3.162278 0.838646 3.162278 0 
C 3.162278 -0.838646 2.82908 -1.643056 2.236068 -2.236068 
C 1.643056 -2.82908 0.838646 -3.162278 0 -3.162278 
C -0.838646 -3.162278 -1.643056 -2.82908 -2.236068 -2.236068 
C -2.82908 -1.643056 -3.162278 -0.838646 -3.162278 0 
C -3.162278 0.838646 -2.82908 1.643056 -2.236068 2.236068 
C -1.643056 2.82908 -0.838646 3.162278 0 3.162278 
z
" style="stroke: #4c72b0; stroke-opacity: 0.8"/>
    </defs>
    <g clip-path="url(#p7299190234)">
     <use xlink:href="#mdad3def078" x="252.398966" y="156.689047" style="fill: #4c72b0; fill-opacity: 0.8; stroke: #4c72b0; stroke-opacity: 0.8"/>
     <use xlink:href="#mdad3def078" x="275.752781" y="102.422902" style="fill: #4c72b0; fill-opacity: 0.8; stroke: #4c72b0; stroke-opacity: 0.8"/>
     <use xlink:href="#mdad3def078" x="192.709524" y="206.608045" style="fill: #4c72b0; fill-opacity: 0.8; stroke: #4c72b0; stroke-opacity: 0.8"/>
     <use xlink:href="#mdad3def078" x="85.746909" y="223.330653" style="fill: #4c72b0; fill-opacity: 0.8; stroke: #4c72b0; stroke-opacity: 0.8"/>
     <use xlink:href="#mdad3def078" x="225.496394" y="104.611112" style="fill: #4c72b0; fill-opacity: 0.8; stroke: #4c72b0; stroke-opacity: 0.8"/>
     <use xlink:href="#mdad3def078" x="169.797206" y="113.576187" style="fill: #4c72b0; fill-opacity: 0.8; stroke: #4c72b0; stroke-opacity: 0.8"/>
     <use xlink:href="#mdad3def078" x="199.103703" y="110.012112" style="fill: #4c72b0; fill-opacity: 0.8; stroke: #4c72b0; stroke-opacity: 0.8"/>
     <use xlink:href="#mdad3def078" x="248.894764" y="202.795144" style="fill: #4c72b0; fill-opacity: 0.8; stroke: #4c72b0; stroke-opacity: 0.8"/>
     <use xlink:href="#mdad3def078" x="258.649905" y="162.660884" style="fill: #4c72b0; fill-opacity: 0.8; stroke: #4c72b0; stroke-opacity: 0.8"/>
     <use xlink:href="#mdad3def078" x="97.590531" y="152.546816" style="fill: #4c72b0; fill-opacity: 0.8; stroke: #4c72b0; stroke-opacity: 0.8"/>
     <use xlink:href="#mdad3def078" x="331.46104" y="184.403934" style="fill: #4c72b0; fill-opacity: 0.8; stroke: #4c72b0; stroke-opacity: 0.8"/>
     <use xlink:href="#mdad3def078" x="181.505892" y="91.240344" style="fill: #4c72b0; fill-opacity: 0.8; stroke: #4c72b0; stroke-opacity: 0.8"/>
     <use xlink:href="#mdad3def078" x="148.848136" y="174.150816" style="fill: #4c72b0; fill-opacity: 0.8; stroke: #4c72b0; stroke-opacity: 0.8"/>
     <use xlink:href="#mdad3def078" x="338.899406" y="185.443151" style="fill: #4c72b0; fill-opacity: 0.8; stroke: #4c72b0; stroke-opacity: 0.8"/>
     <use xlink:href="#mdad3def078" x="311.611453" y="206.549498" style="fill: #4c72b0; fill-opacity: 0.8; stroke: #4c72b0; stroke-opacity: 0.8"/>
     <use xlink:href="#mdad3def078" x="123.222321" y="203.051289" style="fill: #4c72b0; fill-opacity: 0.8; stroke: #4c72b0; stroke-opacity: 0.8"/>
     <use xlink:href="#mdad3def078" x="201.209928" y="187.785048" style="fill: #4c72b0; fill-opacity: 0.8; stroke: #4c72b0; stroke-opacity: 0.8"/>
     <use xlink:href="#mdad3def078" x="233.459604" y="195.652358" style="fill: #4c72b0; fill-opacity: 0.8; stroke: #4c72b0; stroke-opacity: 0.8"/>
     <use xlink:href="#mdad3def078" x="223.075609" y="203.022015" style="fill: #4c72b0; fill-opacity: 0.8; stroke: #4c72b0; stroke-opacity: 0.8"/>
     <use xlink:href="#mdad3def078" x="199.453567" y="219.751942" style="fill: #4c72b0; fill-opacity: 0.8; stroke: #4c72b0; stroke-opacity: 0.8"/>
     <use xlink:href="#mdad3def078" x="192.424609" y="90.662188" style="fill: #4c72b0; fill-opacity: 0.8; stroke: #4c72b0; stroke-opacity: 0.8"/>
     <use xlink:href="#mdad3def078" x="152.376543" y="199.845818" style="fill: #4c72b0; fill-opacity: 0.8; stroke: #4c72b0; stroke-opacity: 0.8"/>
     <use xlink:href="#mdad3def078" x="145.630207" y="188.026556" style="fill: #4c72b0; fill-opacity: 0.8; stroke: #4c72b0; stroke-opacity: 0.8"/>
     <use xlink:href="#mdad3def078" x="130.654614" y="175.965786" style="fill: #4c72b0; fill-opacity: 0.8; stroke: #4c72b0; stroke-opacity: 0.8"/>
     <use xlink:href="#mdad3def078" x="171.469628" y="214.980327" style="fill: #4c72b0; fill-opacity: 0.8; stroke: #4c72b0; stroke-opacity: 0.8"/>
     <use xlink:href="#mdad3def078" x="116.944631" y="180.583715" style="fill: #4c72b0; fill-opacity: 0.8; stroke: #4c72b0; stroke-opacity: 0.8"/>
     <use xlink:href="#mdad3def078" x="107.547537" y="188.641304" style="fill: #4c72b0; fill-opacity: 0.8; stroke: #4c72b0; stroke-opacity: 0.8"/>
     <use xlink:href="#mdad3def078" x="339.247656" y="214.863232" style="fill: #4c72b0; fill-opacity: 0.8; stroke: #4c72b0; stroke-opacity: 0.8"/>
     <use xlink:href="#mdad3def078" x="189.430725" y="177.941762" style="fill: #4c72b0; fill-opacity: 0.8; stroke: #4c72b0; stroke-opacity: 0.8"/>
     <use xlink:href="#mdad3def078" x="274.634209" y="178.951705" style="fill: #4c72b0; fill-opacity: 0.8; stroke: #4c72b0; stroke-opacity: 0.8"/>
     <use xlink:href="#mdad3def078" x="105.055433" y="207.127654" style="fill: #4c72b0; fill-opacity: 0.8; stroke: #4c72b0; stroke-opacity: 0.8"/>
     <use xlink:href="#mdad3def078" x="82.809989" y="221.662052" style="fill: #4c72b0; fill-opacity: 0.8; stroke: #4c72b0; stroke-opacity: 0.8"/>
     <use xlink:href="#mdad3def078" x="77.347656" y="206.300671" style="fill: #4c72b0; fill-opacity: 0.8; stroke: #4c72b0; stroke-opacity: 0.8"/>
     <use xlink:href="#mdad3def078" x="91.483577" y="185.179688" style="fill: #4c72b0; fill-opacity: 0.8; stroke: #4c72b0; stroke-opacity: 0.8"/>
     <use xlink:href="#mdad3def078" x="239.397151" y="97.541511" style="fill: #4c72b0; fill-opacity: 0.8; stroke: #4c72b0; stroke-opacity: 0.8"/>
     <use xlink:href="#mdad3def078" x="233.454848" y="180.547122" style="fill: #4c72b0; fill-opacity: 0.8; stroke: #4c72b0; stroke-opacity: 0.8"/>
     <use xlink:href="#mdad3def078" x="258.78179" y="127.744663" style="fill: #4c72b0; fill-opacity: 0.8; stroke: #4c72b0; stroke-opacity: 0.8"/>
     <use xlink:href="#mdad3def078" x="202.798273" y="32.912472" style="fill: #4c72b0; fill-opacity: 0.8; stroke: #4c72b0; stroke-opacity: 0.8"/>
     <use xlink:href="#mdad3def078" x="217.555545" y="164.161162" style="fill: #4c72b0; fill-opacity: 0.8; stroke: #4c72b0; stroke-opacity: 0.8"/>
     <use xlink:href="#mdad3def078" x="225.972694" y="168.903503" style="fill: #4c72b0; fill-opacity: 0.8; stroke: #4c72b0; stroke-opacity: 0.8"/>
     <use xlink:href="#mdad3def078" x="256.417816" y="185.39924" style="fill: #4c72b0; fill-opacity: 0.8; stroke: #4c72b0; stroke-opacity: 0.8"/>
     <use xlink:href="#mdad3def078" x="99.500287" y="216.136639" style="fill: #4c72b0; fill-opacity: 0.8; stroke: #4c72b0; stroke-opacity: 0.8"/>
     <use xlink:href="#mdad3def078" x="240.196781" y="206.505587" style="fill: #4c72b0; fill-opacity: 0.8; stroke: #4c72b0; stroke-opacity: 0.8"/>
     <use xlink:href="#mdad3def078" x="247.804062" y="132.713876" style="fill: #4c72b0; fill-opacity: 0.8; stroke: #4c72b0; stroke-opacity: 0.8"/>
     <use xlink:href="#mdad3def078" x="178.774464" y="169.971994" style="fill: #4c72b0; fill-opacity: 0.8; stroke: #4c72b0; stroke-opacity: 0.8"/>
     <use xlink:href="#mdad3def078" x="242.665932" y="151.339276" style="fill: #4c72b0; fill-opacity: 0.8; stroke: #4c72b0; stroke-opacity: 0.8"/>
     <use xlink:href="#mdad3def078" x="157.266023" y="193.259232" style="fill: #4c72b0; fill-opacity: 0.8; stroke: #4c72b0; stroke-opacity: 0.8"/>
     <use xlink:href="#mdad3def078" x="214.354734" y="95.433803" style="fill: #4c72b0; fill-opacity: 0.8; stroke: #4c72b0; stroke-opacity: 0.8"/>
     <use xlink:href="#mdad3def078" x="173.156666" y="185.194324" style="fill: #4c72b0; fill-opacity: 0.8; stroke: #4c72b0; stroke-opacity: 0.8"/>
     <use xlink:href="#mdad3def078" x="198.303598" y="205.04922" style="fill: #4c72b0; fill-opacity: 0.8; stroke: #4c72b0; stroke-opacity: 0.8"/>
     <use xlink:href="#mdad3def078" x="119.45883" y="209.257316" style="fill: #4c72b0; fill-opacity: 0.8; stroke: #4c72b0; stroke-opacity: 0.8"/>
     <use xlink:href="#mdad3def078" x="209.070915" y="72.161202" style="fill: #4c72b0; fill-opacity: 0.8; stroke: #4c72b0; stroke-opacity: 0.8"/>
     <use xlink:href="#mdad3def078" x="193.581055" y="80.284657" style="fill: #4c72b0; fill-opacity: 0.8; stroke: #4c72b0; stroke-opacity: 0.8"/>
     <use xlink:href="#mdad3def078" x="181.670773" y="51.486642" style="fill: #4c72b0; fill-opacity: 0.8; stroke: #4c72b0; stroke-opacity: 0.8"/>
     <use xlink:href="#mdad3def078" x="176.020338" y="133.643317" style="fill: #4c72b0; fill-opacity: 0.8; stroke: #4c72b0; stroke-opacity: 0.8"/>
     <use xlink:href="#mdad3def078" x="258.689182" y="145.77727" style="fill: #4c72b0; fill-opacity: 0.8; stroke: #4c72b0; stroke-opacity: 0.8"/>
    </g>
   </g>
   <g id="FillBetweenPolyCollection_1">
    <defs>
     <path id="mc73b39c07e" d="M 77.347656 -119.973413 
L 77.347656 -77.577372 
L 79.993111 -78.268096 
L 82.638565 -79.095688 
L 85.28402 -79.7749 
L 87.929474 -80.39922 
L 90.574929 -80.962951 
L 93.220384 -81.501237 
L 95.865838 -82.098397 
L 98.511293 -82.787598 
L 101.156747 -83.659385 
L 103.802202 -84.536046 
L 106.447656 -85.235115 
L 109.093111 -85.960351 
L 111.738565 -86.464285 
L 114.38402 -86.933706 
L 117.029474 -87.601613 
L 119.674929 -88.266683 
L 122.320384 -88.819493 
L 124.965838 -89.490507 
L 127.611293 -89.787434 
L 130.256747 -90.392687 
L 132.902202 -90.92489 
L 135.547656 -91.484396 
L 138.193111 -92.0358 
L 140.838565 -92.582079 
L 143.48402 -93.133279 
L 146.129474 -93.554723 
L 148.774929 -94.063121 
L 151.420384 -94.400902 
L 154.065838 -94.737483 
L 156.711293 -95.07847 
L 159.356747 -95.500065 
L 162.002202 -95.90312 
L 164.647656 -96.176097 
L 167.293111 -96.625955 
L 169.938565 -97.161031 
L 172.58402 -97.379893 
L 175.229474 -97.852288 
L 177.874929 -98.04432 
L 180.520384 -98.200258 
L 183.165838 -98.464361 
L 185.811293 -98.800189 
L 188.456747 -99.138082 
L 191.102202 -99.316919 
L 193.747656 -99.490255 
L 196.393111 -99.834596 
L 199.038565 -100.038773 
L 201.68402 -100.378432 
L 204.329474 -100.707797 
L 206.974929 -100.953583 
L 209.620384 -101.196989 
L 212.265838 -101.39155 
L 214.911293 -101.637973 
L 217.556747 -101.834791 
L 220.202202 -101.977073 
L 222.847656 -102.0535 
L 225.493111 -102.234701 
L 228.138565 -102.415901 
L 230.78402 -102.602115 
L 233.429474 -102.9308 
L 236.074929 -103.095018 
L 238.720384 -103.174652 
L 241.365838 -103.27625 
L 244.011293 -103.396599 
L 246.656747 -103.639666 
L 249.302202 -103.824811 
L 251.947656 -104.063315 
L 254.593111 -104.222043 
L 257.238565 -104.351856 
L 259.88402 -104.481669 
L 262.529474 -104.640899 
L 265.174929 -104.738815 
L 267.820384 -104.866483 
L 270.465838 -105.059989 
L 273.111293 -105.297868 
L 275.756747 -105.399439 
L 278.402202 -105.56221 
L 281.047656 -105.566393 
L 283.693111 -105.635253 
L 286.338565 -105.788336 
L 288.98402 -106.009868 
L 291.629474 -106.114318 
L 294.274929 -106.2198 
L 296.920384 -106.323804 
L 299.565838 -106.427668 
L 302.211293 -106.530061 
L 304.856747 -106.529326 
L 307.502202 -106.538919 
L 310.147656 -106.6754 
L 312.793111 -106.678052 
L 315.438565 -106.746332 
L 318.08402 -106.895923 
L 320.729474 -106.979626 
L 323.374929 -107.058148 
L 326.020384 -107.213481 
L 328.665838 -107.319919 
L 331.311293 -107.240007 
L 333.956747 -106.974488 
L 336.602202 -107.03614 
L 339.247656 -106.800421 
L 339.247656 -164.853412 
L 339.247656 -164.853412 
L 336.602202 -164.073511 
L 333.956747 -163.29361 
L 331.311293 -162.513708 
L 328.665838 -161.733807 
L 326.020384 -160.953905 
L 323.374929 -160.174004 
L 320.729474 -159.397316 
L 318.08402 -158.625738 
L 315.438565 -157.831675 
L 312.793111 -157.052943 
L 310.147656 -156.187724 
L 307.502202 -155.273115 
L 304.856747 -154.358162 
L 302.211293 -153.442653 
L 299.565838 -152.527144 
L 296.920384 -151.609342 
L 294.274929 -150.68801 
L 291.629474 -149.766677 
L 288.98402 -148.845345 
L 286.338565 -147.924012 
L 283.693111 -146.971673 
L 281.047656 -146.088049 
L 278.402202 -145.172267 
L 275.756747 -144.498628 
L 273.111293 -143.682771 
L 270.465838 -142.860925 
L 267.820384 -142.033695 
L 265.174929 -141.218549 
L 262.529474 -140.477014 
L 259.88402 -139.735479 
L 257.238565 -138.993944 
L 254.593111 -138.368333 
L 251.947656 -137.520414 
L 249.302202 -136.779882 
L 246.656747 -136.035491 
L 244.011293 -135.298445 
L 241.365838 -134.560137 
L 238.720384 -133.823779 
L 236.074929 -133.215055 
L 233.429474 -132.355177 
L 230.78402 -131.613807 
L 228.138565 -130.994818 
L 225.493111 -130.257273 
L 222.847656 -129.653555 
L 220.202202 -129.172801 
L 217.556747 -128.566098 
L 214.911293 -127.984858 
L 212.265838 -127.453855 
L 209.620384 -126.844025 
L 206.974929 -126.193132 
L 204.329474 -125.725493 
L 201.68402 -125.152398 
L 199.038565 -124.615088 
L 196.393111 -124.486982 
L 193.747656 -123.738006 
L 191.102202 -123.460445 
L 188.456747 -123.178709 
L 185.811293 -122.87619 
L 183.165838 -122.288392 
L 180.520384 -122.021778 
L 177.874929 -121.844963 
L 175.229474 -121.660353 
L 172.58402 -121.475743 
L 169.938565 -121.293141 
L 167.293111 -120.980132 
L 164.647656 -120.890078 
L 162.002202 -120.82778 
L 159.356747 -120.961499 
L 156.711293 -121.017211 
L 154.065838 -120.770923 
L 151.420384 -120.50238 
L 148.774929 -120.233837 
L 146.129474 -119.965294 
L 143.48402 -119.722639 
L 140.838565 -119.887499 
L 138.193111 -119.835356 
L 135.547656 -119.67274 
L 132.902202 -119.503449 
L 130.256747 -119.441432 
L 127.611293 -119.412587 
L 124.965838 -119.574739 
L 122.320384 -119.520377 
L 119.674929 -119.386583 
L 117.029474 -119.382854 
L 114.38402 -119.451716 
L 111.738565 -119.491528 
L 109.093111 -119.531339 
L 106.447656 -119.571151 
L 103.802202 -119.610963 
L 101.156747 -119.650775 
L 98.511293 -119.690587 
L 95.865838 -119.729764 
L 93.220384 -119.764571 
L 90.574929 -119.799378 
L 87.929474 -119.834185 
L 85.28402 -119.868992 
L 82.638565 -119.903799 
L 79.993111 -119.938606 
L 77.347656 -119.973413 
z
" style="stroke: #ffffff; stroke-opacity: 0.15"/>
    </defs>
    <g clip-path="url(#p7299190234)">
     <use xlink:href="#mc73b39c07e" x="0" y="276.414844" style="fill: #800080; fill-opacity: 0.15; stroke: #ffffff; stroke-opacity: 0.15"/>
    </g>
   </g>
   <g id="line2d_12">
    <path d="M 77.347656 180.32198 
L 79.993111 179.974679 
L 82.638565 179.627377 
L 85.28402 179.280075 
L 87.929474 178.932773 
L 90.574929 178.585471 
L 93.220384 178.238169 
L 95.865838 177.890868 
L 98.511293 177.543566 
L 101.156747 177.196264 
L 103.802202 176.848962 
L 106.447656 176.50166 
L 109.093111 176.154358 
L 111.738565 175.807057 
L 114.38402 175.459755 
L 117.029474 175.112453 
L 119.674929 174.765151 
L 122.320384 174.417849 
L 124.965838 174.070547 
L 127.611293 173.723246 
L 130.256747 173.375944 
L 132.902202 173.028642 
L 135.547656 172.68134 
L 138.193111 172.334038 
L 140.838565 171.986736 
L 143.48402 171.639435 
L 146.129474 171.292133 
L 148.774929 170.944831 
L 151.420384 170.597529 
L 154.065838 170.250227 
L 156.711293 169.902925 
L 159.356747 169.555624 
L 162.002202 169.208322 
L 164.647656 168.86102 
L 167.293111 168.513718 
L 169.938565 168.166416 
L 172.58402 167.819115 
L 175.229474 167.471813 
L 177.874929 167.124511 
L 180.520384 166.777209 
L 183.165838 166.429907 
L 185.811293 166.082605 
L 188.456747 165.735304 
L 191.102202 165.388002 
L 193.747656 165.0407 
L 196.393111 164.693398 
L 199.038565 164.346096 
L 201.68402 163.998794 
L 204.329474 163.651493 
L 206.974929 163.304191 
L 209.620384 162.956889 
L 212.265838 162.609587 
L 214.911293 162.262285 
L 217.556747 161.914983 
L 220.202202 161.567682 
L 222.847656 161.22038 
L 225.493111 160.873078 
L 228.138565 160.525776 
L 230.78402 160.178474 
L 233.429474 159.831172 
L 236.074929 159.483871 
L 238.720384 159.136569 
L 241.365838 158.789267 
L 244.011293 158.441965 
L 246.656747 158.094663 
L 249.302202 157.747361 
L 251.947656 157.40006 
L 254.593111 157.052758 
L 257.238565 156.705456 
L 259.88402 156.358154 
L 262.529474 156.010852 
L 265.174929 155.66355 
L 267.820384 155.316249 
L 270.465838 154.968947 
L 273.111293 154.621645 
L 275.756747 154.274343 
L 278.402202 153.927041 
L 281.047656 153.579739 
L 283.693111 153.232438 
L 286.338565 152.885136 
L 288.98402 152.537834 
L 291.629474 152.190532 
L 294.274929 151.84323 
L 296.920384 151.495928 
L 299.565838 151.148627 
L 302.211293 150.801325 
L 304.856747 150.454023 
L 307.502202 150.106721 
L 310.147656 149.759419 
L 312.793111 149.412117 
L 315.438565 149.064816 
L 318.08402 148.717514 
L 320.729474 148.370212 
L 323.374929 148.02291 
L 326.020384 147.675608 
L 328.665838 147.328306 
L 331.311293 146.981005 
L 333.956747 146.633703 
L 336.602202 146.286401 
L 339.247656 145.939099 
" clip-path="url(#p7299190234)" style="fill: none; stroke: #800080; stroke-width: 2; stroke-linecap: round"/>
   </g>
   <g id="patch_3">
    <path d="M 64.252656 232.851562 
L 64.252656 23.391562 
" style="fill: none; stroke: #cccccc; stroke-width: 1.25; stroke-linejoin: miter; stroke-linecap: square"/>
   </g>
   <g id="patch_4">
    <path d="M 352.342656 232.851562 
L 352.342656 23.391562 
" style="fill: none; stroke: #cccccc; stroke-width: 1.25; stroke-linejoin: miter; stroke-linecap: square"/>
   </g>
   <g id="patch_5">
    <path d="M 64.252656 232.851562 
L 352.342656 232.851562 
" style="fill: none; stroke: #cccccc; stroke-width: 1.25; stroke-linejoin: miter; stroke-linecap: square"/>
   </g>
   <g id="patch_6">
    <path d="M 64.252656 23.391562 
L 352.342656 23.391562 
" style="fill: none; stroke: #cccccc; stroke-width: 1.25; stroke-linejoin: miter; stroke-linecap: square"/>
   </g>
   <g id="text_14">
    <g id="patch_7">
     <path d="M 74.697156 71.883562 
L 195.297156 71.883562 
L 195.297156 52.563562 
L 74.697156 52.563562 
z
" style="fill: #ffffff; stroke: #ffffff; stroke-linejoin: miter"/>
    </g>
    <!-- Corr: 0.27 ($p$ =0.044) -->
    <g style="fill: #262626" transform="translate(78.657156 65.283562) scale(0.12 -0.12)">
     <defs>
      <path id="ArialMT-43" d="M 3763 1606 
L 4369 1453 
Q 4178 706 3683 314 
Q 3188 -78 2472 -78 
Q 1731 -78 1267 223 
Q 803 525 561 1097 
Q 319 1669 319 2325 
Q 319 3041 592 3573 
Q 866 4106 1370 4382 
Q 1875 4659 2481 4659 
Q 3169 4659 3637 4309 
Q 4106 3959 4291 3325 
L 3694 3184 
Q 3534 3684 3231 3912 
Q 2928 4141 2469 4141 
Q 1941 4141 1586 3887 
Q 1231 3634 1087 3207 
Q 944 2781 944 2328 
Q 944 1744 1114 1308 
Q 1284 872 1643 656 
Q 2003 441 2422 441 
Q 2931 441 3284 734 
Q 3638 1028 3763 1606 
z
" transform="scale(0.015625)"/>
      <path id="ArialMT-3a" d="M 578 2678 
L 578 3319 
L 1219 3319 
L 1219 2678 
L 578 2678 
z
M 578 0 
L 578 641 
L 1219 641 
L 1219 0 
L 578 0 
z
" transform="scale(0.015625)"/>
      <path id="ArialMT-37" d="M 303 3981 
L 303 4522 
L 3269 4522 
L 3269 4084 
Q 2831 3619 2401 2847 
Q 1972 2075 1738 1259 
Q 1569 684 1522 0 
L 944 0 
Q 953 541 1156 1306 
Q 1359 2072 1739 2783 
Q 2119 3494 2547 3981 
L 303 3981 
z
" transform="scale(0.015625)"/>
      <path id="ArialMT-28" d="M 1497 -1347 
Q 1031 -759 709 28 
Q 388 816 388 1659 
Q 388 2403 628 3084 
Q 909 3875 1497 4659 
L 1900 4659 
Q 1522 4009 1400 3731 
Q 1209 3300 1100 2831 
Q 966 2247 966 1656 
Q 966 153 1900 -1347 
L 1497 -1347 
z
" transform="scale(0.015625)"/>
      <path id="DejaVuSans-Oblique-70" d="M 3175 2156 
Q 3175 2616 2975 2859 
Q 2775 3103 2400 3103 
Q 2144 3103 1911 2972 
Q 1678 2841 1497 2591 
Q 1319 2344 1212 1994 
Q 1106 1644 1106 1300 
Q 1106 863 1306 627 
Q 1506 391 1875 391 
Q 2147 391 2380 519 
Q 2613 647 2778 891 
Q 2956 1147 3065 1494 
Q 3175 1841 3175 2156 
z
M 1394 2969 
Q 1625 3272 1939 3428 
Q 2253 3584 2638 3584 
Q 3175 3584 3472 3232 
Q 3769 2881 3769 2247 
Q 3769 1728 3584 1258 
Q 3400 788 3053 416 
Q 2822 169 2531 39 
Q 2241 -91 1919 -91 
Q 1547 -91 1294 64 
Q 1041 219 916 525 
L 556 -1331 
L -19 -1331 
L 922 3500 
L 1497 3500 
L 1394 2969 
z
" transform="scale(0.015625)"/>
      <path id="ArialMT-3d" d="M 3381 2694 
L 356 2694 
L 356 3219 
L 3381 3219 
L 3381 2694 
z
M 3381 1303 
L 356 1303 
L 356 1828 
L 3381 1828 
L 3381 1303 
z
" transform="scale(0.015625)"/>
      <path id="ArialMT-29" d="M 791 -1347 
L 388 -1347 
Q 1322 153 1322 1656 
Q 1322 2244 1188 2822 
Q 1081 3291 891 3722 
Q 769 4003 388 4659 
L 791 4659 
Q 1378 3875 1659 3084 
Q 1900 2403 1900 1659 
Q 1900 816 1576 28 
Q 1253 -759 791 -1347 
z
" transform="scale(0.015625)"/>
     </defs>
     <use xlink:href="#ArialMT-43" transform="translate(0 0.203125)"/>
     <use xlink:href="#ArialMT-6f" transform="translate(72.216797 0.203125)"/>
     <use xlink:href="#ArialMT-72" transform="translate(127.832031 0.203125)"/>
     <use xlink:href="#ArialMT-72" transform="translate(161.132812 0.203125)"/>
     <use xlink:href="#ArialMT-3a" transform="translate(194.433594 0.203125)"/>
     <use xlink:href="#ArialMT-20" transform="translate(222.216797 0.203125)"/>
     <use xlink:href="#ArialMT-30" transform="translate(250 0.203125)"/>
     <use xlink:href="#ArialMT-2e" transform="translate(305.615234 0.203125)"/>
     <use xlink:href="#ArialMT-32" transform="translate(333.398438 0.203125)"/>
     <use xlink:href="#ArialMT-37" transform="translate(389.013672 0.203125)"/>
     <use xlink:href="#ArialMT-20" transform="translate(444.628906 0.203125)"/>
     <use xlink:href="#ArialMT-28" transform="translate(472.412109 0.203125)"/>
     <use xlink:href="#DejaVuSans-Oblique-70" transform="translate(505.712891 0.203125)"/>
     <use xlink:href="#ArialMT-20" transform="translate(569.189453 0.203125)"/>
     <use xlink:href="#ArialMT-3d" transform="translate(596.972656 0.203125)"/>
     <use xlink:href="#ArialMT-30" transform="translate(655.371094 0.203125)"/>
     <use xlink:href="#ArialMT-2e" transform="translate(710.986328 0.203125)"/>
     <use xlink:href="#ArialMT-30" transform="translate(738.769531 0.203125)"/>
     <use xlink:href="#ArialMT-34" transform="translate(794.384766 0.203125)"/>
     <use xlink:href="#ArialMT-34" transform="translate(850 0.203125)"/>
     <use xlink:href="#ArialMT-29" transform="translate(905.615234 0.203125)"/>
    </g>
   </g>
   <g id="text_15">
    <!-- (A) -->
    <g style="fill: #262626" transform="translate(64.252656 17.391562) scale(0.14 -0.14)">
     <use xlink:href="#ArialMT-28"/>
     <use xlink:href="#ArialMT-41" transform="translate(33.300781 0)"/>
     <use xlink:href="#ArialMT-29" transform="translate(100 0)"/>
    </g>
   </g>
  </g>
  <g id="axes_2">
   <g id="patch_8">
    <path d="M 413.182656 232.851562 
L 701.272656 232.851562 
L 701.272656 23.391562 
L 413.182656 23.391562 
z
" style="fill: #ffffff"/>
   </g>
   <g id="matplotlib.axis_3">
    <g id="xtick_6">
     <g id="line2d_13">
      <path d="M 414.284721 232.851562 
L 414.284721 23.391562 
" clip-path="url(#p7f44452817)" style="fill: none; stroke: #cccccc; stroke-linecap: round"/>
     </g>
     <g id="text_16">
      <!-- 0.0 -->
      <g style="fill: #262626" transform="translate(406.639721 250.225156) scale(0.11 -0.11)">
       <use xlink:href="#ArialMT-30"/>
       <use xlink:href="#ArialMT-2e" transform="translate(55.615234 0)"/>
       <use xlink:href="#ArialMT-30" transform="translate(83.398438 0)"/>
      </g>
     </g>
    </g>
    <g id="xtick_7">
     <g id="line2d_14">
      <path d="M 481.276837 232.851562 
L 481.276837 23.391562 
" clip-path="url(#p7f44452817)" style="fill: none; stroke: #cccccc; stroke-linecap: round"/>
     </g>
     <g id="text_17">
      <!-- 0.1 -->
      <g style="fill: #262626" transform="translate(473.631837 250.225156) scale(0.11 -0.11)">
       <use xlink:href="#ArialMT-30"/>
       <use xlink:href="#ArialMT-2e" transform="translate(55.615234 0)"/>
       <use xlink:href="#ArialMT-31" transform="translate(83.398438 0)"/>
      </g>
     </g>
    </g>
    <g id="xtick_8">
     <g id="line2d_15">
      <path d="M 548.268952 232.851562 
L 548.268952 23.391562 
" clip-path="url(#p7f44452817)" style="fill: none; stroke: #cccccc; stroke-linecap: round"/>
     </g>
     <g id="text_18">
      <!-- 0.2 -->
      <g style="fill: #262626" transform="translate(540.623952 250.225156) scale(0.11 -0.11)">
       <use xlink:href="#ArialMT-30"/>
       <use xlink:href="#ArialMT-2e" transform="translate(55.615234 0)"/>
       <use xlink:href="#ArialMT-32" transform="translate(83.398438 0)"/>
      </g>
     </g>
    </g>
    <g id="xtick_9">
     <g id="line2d_16">
      <path d="M 615.261068 232.851562 
L 615.261068 23.391562 
" clip-path="url(#p7f44452817)" style="fill: none; stroke: #cccccc; stroke-linecap: round"/>
     </g>
     <g id="text_19">
      <!-- 0.3 -->
      <g style="fill: #262626" transform="translate(607.616068 250.225156) scale(0.11 -0.11)">
       <use xlink:href="#ArialMT-30"/>
       <use xlink:href="#ArialMT-2e" transform="translate(55.615234 0)"/>
       <use xlink:href="#ArialMT-33" transform="translate(83.398438 0)"/>
      </g>
     </g>
    </g>
    <g id="xtick_10">
     <g id="line2d_17">
      <path d="M 682.253183 232.851562 
L 682.253183 23.391562 
" clip-path="url(#p7f44452817)" style="fill: none; stroke: #cccccc; stroke-linecap: round"/>
     </g>
     <g id="text_20">
      <!-- 0.4 -->
      <g style="fill: #262626" transform="translate(674.608183 250.225156) scale(0.11 -0.11)">
       <use xlink:href="#ArialMT-30"/>
       <use xlink:href="#ArialMT-2e" transform="translate(55.615234 0)"/>
       <use xlink:href="#ArialMT-34" transform="translate(83.398438 0)"/>
      </g>
     </g>
    </g>
    <g id="text_21">
     <!-- Labile to recalcitrant ratio -->
     <g style="fill: #262626" transform="translate(479.026719 266.432344) scale(0.14 -0.14)">
      <use xlink:href="#ArialMT-4c"/>
      <use xlink:href="#ArialMT-61" transform="translate(55.615234 0)"/>
      <use xlink:href="#ArialMT-62" transform="translate(111.230469 0)"/>
      <use xlink:href="#ArialMT-69" transform="translate(166.845703 0)"/>
      <use xlink:href="#ArialMT-6c" transform="translate(189.0625 0)"/>
      <use xlink:href="#ArialMT-65" transform="translate(211.279297 0)"/>
      <use xlink:href="#ArialMT-20" transform="translate(266.894531 0)"/>
      <use xlink:href="#ArialMT-74" transform="translate(294.677734 0)"/>
      <use xlink:href="#ArialMT-6f" transform="translate(322.460938 0)"/>
      <use xlink:href="#ArialMT-20" transform="translate(378.076172 0)"/>
      <use xlink:href="#ArialMT-72" transform="translate(405.859375 0)"/>
      <use xlink:href="#ArialMT-65" transform="translate(439.160156 0)"/>
      <use xlink:href="#ArialMT-63" transform="translate(494.775391 0)"/>
      <use xlink:href="#ArialMT-61" transform="translate(544.775391 0)"/>
      <use xlink:href="#ArialMT-6c" transform="translate(600.390625 0)"/>
      <use xlink:href="#ArialMT-63" transform="translate(622.607422 0)"/>
      <use xlink:href="#ArialMT-69" transform="translate(672.607422 0)"/>
      <use xlink:href="#ArialMT-74" transform="translate(694.824219 0)"/>
      <use xlink:href="#ArialMT-72" transform="translate(722.607422 0)"/>
      <use xlink:href="#ArialMT-61" transform="translate(755.908203 0)"/>
      <use xlink:href="#ArialMT-6e" transform="translate(811.523438 0)"/>
      <use xlink:href="#ArialMT-74" transform="translate(867.138672 0)"/>
      <use xlink:href="#ArialMT-20" transform="translate(894.921875 0)"/>
      <use xlink:href="#ArialMT-72" transform="translate(922.705078 0)"/>
      <use xlink:href="#ArialMT-61" transform="translate(956.005859 0)"/>
      <use xlink:href="#ArialMT-74" transform="translate(1011.621094 0)"/>
      <use xlink:href="#ArialMT-69" transform="translate(1039.404297 0)"/>
      <use xlink:href="#ArialMT-6f" transform="translate(1061.621094 0)"/>
     </g>
    </g>
   </g>
   <g id="matplotlib.axis_4">
    <g id="ytick_7">
     <g id="line2d_18">
      <path d="M 413.182656 208.106548 
L 701.272656 208.106548 
" clip-path="url(#p7f44452817)" style="fill: none; stroke: #cccccc; stroke-linecap: round"/>
     </g>
     <g id="text_22">
      <!-- 0.49 -->
      <g style="fill: #262626" transform="translate(382.275625 212.043344) scale(0.11 -0.11)">
       <defs>
        <path id="ArialMT-39" d="M 350 1059 
L 891 1109 
Q 959 728 1153 556 
Q 1347 384 1650 384 
Q 1909 384 2104 503 
Q 2300 622 2425 820 
Q 2550 1019 2634 1356 
Q 2719 1694 2719 2044 
Q 2719 2081 2716 2156 
Q 2547 1888 2255 1720 
Q 1963 1553 1622 1553 
Q 1053 1553 659 1965 
Q 266 2378 266 3053 
Q 266 3750 677 4175 
Q 1088 4600 1706 4600 
Q 2153 4600 2523 4359 
Q 2894 4119 3086 3673 
Q 3278 3228 3278 2384 
Q 3278 1506 3087 986 
Q 2897 466 2520 194 
Q 2144 -78 1638 -78 
Q 1100 -78 759 220 
Q 419 519 350 1059 
z
M 2653 3081 
Q 2653 3566 2395 3850 
Q 2138 4134 1775 4134 
Q 1400 4134 1122 3828 
Q 844 3522 844 3034 
Q 844 2597 1108 2323 
Q 1372 2050 1759 2050 
Q 2150 2050 2401 2323 
Q 2653 2597 2653 3081 
z
" transform="scale(0.015625)"/>
       </defs>
       <use xlink:href="#ArialMT-30"/>
       <use xlink:href="#ArialMT-2e" transform="translate(55.615234 0)"/>
       <use xlink:href="#ArialMT-34" transform="translate(83.398438 0)"/>
       <use xlink:href="#ArialMT-39" transform="translate(139.013672 0)"/>
      </g>
     </g>
    </g>
    <g id="ytick_8">
     <g id="line2d_19">
      <path d="M 413.182656 167.812003 
L 701.272656 167.812003 
" clip-path="url(#p7f44452817)" style="fill: none; stroke: #cccccc; stroke-linecap: round"/>
     </g>
     <g id="text_23">
      <!-- 0.50 -->
      <g style="fill: #262626" transform="translate(382.275625 171.748799) scale(0.11 -0.11)">
       <use xlink:href="#ArialMT-30"/>
       <use xlink:href="#ArialMT-2e" transform="translate(55.615234 0)"/>
       <use xlink:href="#ArialMT-35" transform="translate(83.398438 0)"/>
       <use xlink:href="#ArialMT-30" transform="translate(139.013672 0)"/>
      </g>
     </g>
    </g>
    <g id="ytick_9">
     <g id="line2d_20">
      <path d="M 413.182656 127.517458 
L 701.272656 127.517458 
" clip-path="url(#p7f44452817)" style="fill: none; stroke: #cccccc; stroke-linecap: round"/>
     </g>
     <g id="text_24">
      <!-- 0.51 -->
      <g style="fill: #262626" transform="translate(382.275625 131.454254) scale(0.11 -0.11)">
       <use xlink:href="#ArialMT-30"/>
       <use xlink:href="#ArialMT-2e" transform="translate(55.615234 0)"/>
       <use xlink:href="#ArialMT-35" transform="translate(83.398438 0)"/>
       <use xlink:href="#ArialMT-31" transform="translate(139.013672 0)"/>
      </g>
     </g>
    </g>
    <g id="ytick_10">
     <g id="line2d_21">
      <path d="M 413.182656 87.222913 
L 701.272656 87.222913 
" clip-path="url(#p7f44452817)" style="fill: none; stroke: #cccccc; stroke-linecap: round"/>
     </g>
     <g id="text_25">
      <!-- 0.52 -->
      <g style="fill: #262626" transform="translate(382.275625 91.15971) scale(0.11 -0.11)">
       <use xlink:href="#ArialMT-30"/>
       <use xlink:href="#ArialMT-2e" transform="translate(55.615234 0)"/>
       <use xlink:href="#ArialMT-35" transform="translate(83.398438 0)"/>
       <use xlink:href="#ArialMT-32" transform="translate(139.013672 0)"/>
      </g>
     </g>
    </g>
    <g id="ytick_11">
     <g id="line2d_22">
      <path d="M 413.182656 46.928368 
L 701.272656 46.928368 
" clip-path="url(#p7f44452817)" style="fill: none; stroke: #cccccc; stroke-linecap: round"/>
     </g>
     <g id="text_26">
      <!-- 0.53 -->
      <g style="fill: #262626" transform="translate(382.275625 50.865165) scale(0.11 -0.11)">
       <use xlink:href="#ArialMT-30"/>
       <use xlink:href="#ArialMT-2e" transform="translate(55.615234 0)"/>
       <use xlink:href="#ArialMT-35" transform="translate(83.398438 0)"/>
       <use xlink:href="#ArialMT-33" transform="translate(139.013672 0)"/>
      </g>
     </g>
    </g>
    <g id="text_27">
     <!-- Carbon use efficiency -->
     <g style="fill: #262626" transform="translate(375.329062 195.308437) rotate(-90) scale(0.14 -0.14)">
      <defs>
       <path id="ArialMT-75" d="M 2597 0 
L 2597 488 
Q 2209 -75 1544 -75 
Q 1250 -75 995 37 
Q 741 150 617 320 
Q 494 491 444 738 
Q 409 903 409 1263 
L 409 3319 
L 972 3319 
L 972 1478 
Q 972 1038 1006 884 
Q 1059 663 1231 536 
Q 1403 409 1656 409 
Q 1909 409 2131 539 
Q 2353 669 2445 892 
Q 2538 1116 2538 1541 
L 2538 3319 
L 3100 3319 
L 3100 0 
L 2597 0 
z
" transform="scale(0.015625)"/>
       <path id="ArialMT-66" d="M 556 0 
L 556 2881 
L 59 2881 
L 59 3319 
L 556 3319 
L 556 3672 
Q 556 4006 616 4169 
Q 697 4388 901 4523 
Q 1106 4659 1475 4659 
Q 1713 4659 2000 4603 
L 1916 4113 
Q 1741 4144 1584 4144 
Q 1328 4144 1222 4034 
Q 1116 3925 1116 3625 
L 1116 3319 
L 1763 3319 
L 1763 2881 
L 1116 2881 
L 1116 0 
L 556 0 
z
" transform="scale(0.015625)"/>
      </defs>
      <use xlink:href="#ArialMT-43"/>
      <use xlink:href="#ArialMT-61" transform="translate(72.216797 0)"/>
      <use xlink:href="#ArialMT-72" transform="translate(127.832031 0)"/>
      <use xlink:href="#ArialMT-62" transform="translate(161.132812 0)"/>
      <use xlink:href="#ArialMT-6f" transform="translate(216.748047 0)"/>
      <use xlink:href="#ArialMT-6e" transform="translate(272.363281 0)"/>
      <use xlink:href="#ArialMT-20" transform="translate(327.978516 0)"/>
      <use xlink:href="#ArialMT-75" transform="translate(355.761719 0)"/>
      <use xlink:href="#ArialMT-73" transform="translate(411.376953 0)"/>
      <use xlink:href="#ArialMT-65" transform="translate(461.376953 0)"/>
      <use xlink:href="#ArialMT-20" transform="translate(516.992188 0)"/>
      <use xlink:href="#ArialMT-65" transform="translate(544.775391 0)"/>
      <use xlink:href="#ArialMT-66" transform="translate(600.390625 0)"/>
      <use xlink:href="#ArialMT-66" transform="translate(626.423828 0)"/>
      <use xlink:href="#ArialMT-69" transform="translate(654.207031 0)"/>
      <use xlink:href="#ArialMT-63" transform="translate(676.423828 0)"/>
      <use xlink:href="#ArialMT-69" transform="translate(726.423828 0)"/>
      <use xlink:href="#ArialMT-65" transform="translate(748.640625 0)"/>
      <use xlink:href="#ArialMT-6e" transform="translate(804.255859 0)"/>
      <use xlink:href="#ArialMT-63" transform="translate(859.871094 0)"/>
      <use xlink:href="#ArialMT-79" transform="translate(909.871094 0)"/>
     </g>
    </g>
   </g>
   <g id="PathCollection_2">
    <g clip-path="url(#p7f44452817)">
     <use xlink:href="#mdad3def078" x="601.328966" y="41.962682" style="fill: #4c72b0; fill-opacity: 0.8; stroke: #4c72b0; stroke-opacity: 0.8"/>
     <use xlink:href="#mdad3def078" x="624.682781" y="72.723641" style="fill: #4c72b0; fill-opacity: 0.8; stroke: #4c72b0; stroke-opacity: 0.8"/>
     <use xlink:href="#mdad3def078" x="541.639524" y="87.284015" style="fill: #4c72b0; fill-opacity: 0.8; stroke: #4c72b0; stroke-opacity: 0.8"/>
     <use xlink:href="#mdad3def078" x="434.676909" y="171.171776" style="fill: #4c72b0; fill-opacity: 0.8; stroke: #4c72b0; stroke-opacity: 0.8"/>
     <use xlink:href="#mdad3def078" x="574.426394" y="92.472978" style="fill: #4c72b0; fill-opacity: 0.8; stroke: #4c72b0; stroke-opacity: 0.8"/>
     <use xlink:href="#mdad3def078" x="518.727206" y="104.120837" style="fill: #4c72b0; fill-opacity: 0.8; stroke: #4c72b0; stroke-opacity: 0.8"/>
     <use xlink:href="#mdad3def078" x="548.033703" y="138.387036" style="fill: #4c72b0; fill-opacity: 0.8; stroke: #4c72b0; stroke-opacity: 0.8"/>
     <use xlink:href="#mdad3def078" x="597.824764" y="58.954332" style="fill: #4c72b0; fill-opacity: 0.8; stroke: #4c72b0; stroke-opacity: 0.8"/>
     <use xlink:href="#mdad3def078" x="607.579905" y="61.091014" style="fill: #4c72b0; fill-opacity: 0.8; stroke: #4c72b0; stroke-opacity: 0.8"/>
     <use xlink:href="#mdad3def078" x="446.520531" y="128.115129" style="fill: #4c72b0; fill-opacity: 0.8; stroke: #4c72b0; stroke-opacity: 0.8"/>
     <use xlink:href="#mdad3def078" x="680.39104" y="72.651635" style="fill: #4c72b0; fill-opacity: 0.8; stroke: #4c72b0; stroke-opacity: 0.8"/>
     <use xlink:href="#mdad3def078" x="530.435892" y="112.175113" style="fill: #4c72b0; fill-opacity: 0.8; stroke: #4c72b0; stroke-opacity: 0.8"/>
     <use xlink:href="#mdad3def078" x="497.778136" y="132.878576" style="fill: #4c72b0; fill-opacity: 0.8; stroke: #4c72b0; stroke-opacity: 0.8"/>
     <use xlink:href="#mdad3def078" x="687.829406" y="93.790216" style="fill: #4c72b0; fill-opacity: 0.8; stroke: #4c72b0; stroke-opacity: 0.8"/>
     <use xlink:href="#mdad3def078" x="660.541453" y="109.935413" style="fill: #4c72b0; fill-opacity: 0.8; stroke: #4c72b0; stroke-opacity: 0.8"/>
     <use xlink:href="#mdad3def078" x="472.152321" y="223.330653" style="fill: #4c72b0; fill-opacity: 0.8; stroke: #4c72b0; stroke-opacity: 0.8"/>
     <use xlink:href="#mdad3def078" x="550.139928" y="122.947563" style="fill: #4c72b0; fill-opacity: 0.8; stroke: #4c72b0; stroke-opacity: 0.8"/>
     <use xlink:href="#mdad3def078" x="582.389604" y="104.37454" style="fill: #4c72b0; fill-opacity: 0.8; stroke: #4c72b0; stroke-opacity: 0.8"/>
     <use xlink:href="#mdad3def078" x="572.005609" y="143.487754" style="fill: #4c72b0; fill-opacity: 0.8; stroke: #4c72b0; stroke-opacity: 0.8"/>
     <use xlink:href="#mdad3def078" x="548.383567" y="120.407268" style="fill: #4c72b0; fill-opacity: 0.8; stroke: #4c72b0; stroke-opacity: 0.8"/>
     <use xlink:href="#mdad3def078" x="541.354609" y="163.862513" style="fill: #4c72b0; fill-opacity: 0.8; stroke: #4c72b0; stroke-opacity: 0.8"/>
     <use xlink:href="#mdad3def078" x="501.306543" y="150.80564" style="fill: #4c72b0; fill-opacity: 0.8; stroke: #4c72b0; stroke-opacity: 0.8"/>
     <use xlink:href="#mdad3def078" x="494.560207" y="163.179146" style="fill: #4c72b0; fill-opacity: 0.8; stroke: #4c72b0; stroke-opacity: 0.8"/>
     <use xlink:href="#mdad3def078" x="479.584614" y="194.342483" style="fill: #4c72b0; fill-opacity: 0.8; stroke: #4c72b0; stroke-opacity: 0.8"/>
     <use xlink:href="#mdad3def078" x="520.399628" y="59.538998" style="fill: #4c72b0; fill-opacity: 0.8; stroke: #4c72b0; stroke-opacity: 0.8"/>
     <use xlink:href="#mdad3def078" x="465.874631" y="63.380661" style="fill: #4c72b0; fill-opacity: 0.8; stroke: #4c72b0; stroke-opacity: 0.8"/>
     <use xlink:href="#mdad3def078" x="456.477537" y="176.730378" style="fill: #4c72b0; fill-opacity: 0.8; stroke: #4c72b0; stroke-opacity: 0.8"/>
     <use xlink:href="#mdad3def078" x="688.177656" y="48.373011" style="fill: #4c72b0; fill-opacity: 0.8; stroke: #4c72b0; stroke-opacity: 0.8"/>
     <use xlink:href="#mdad3def078" x="538.360725" y="119.128661" style="fill: #4c72b0; fill-opacity: 0.8; stroke: #4c72b0; stroke-opacity: 0.8"/>
     <use xlink:href="#mdad3def078" x="623.564209" y="60.353355" style="fill: #4c72b0; fill-opacity: 0.8; stroke: #4c72b0; stroke-opacity: 0.8"/>
     <use xlink:href="#mdad3def078" x="453.985433" y="159.67827" style="fill: #4c72b0; fill-opacity: 0.8; stroke: #4c72b0; stroke-opacity: 0.8"/>
     <use xlink:href="#mdad3def078" x="431.739989" y="80.510617" style="fill: #4c72b0; fill-opacity: 0.8; stroke: #4c72b0; stroke-opacity: 0.8"/>
     <use xlink:href="#mdad3def078" x="426.277656" y="168.947944" style="fill: #4c72b0; fill-opacity: 0.8; stroke: #4c72b0; stroke-opacity: 0.8"/>
     <use xlink:href="#mdad3def078" x="440.413577" y="156.017317" style="fill: #4c72b0; fill-opacity: 0.8; stroke: #4c72b0; stroke-opacity: 0.8"/>
     <use xlink:href="#mdad3def078" x="588.327151" y="90.018331" style="fill: #4c72b0; fill-opacity: 0.8; stroke: #4c72b0; stroke-opacity: 0.8"/>
     <use xlink:href="#mdad3def078" x="582.384848" y="129.628611" style="fill: #4c72b0; fill-opacity: 0.8; stroke: #4c72b0; stroke-opacity: 0.8"/>
     <use xlink:href="#mdad3def078" x="607.71179" y="67.756786" style="fill: #4c72b0; fill-opacity: 0.8; stroke: #4c72b0; stroke-opacity: 0.8"/>
     <use xlink:href="#mdad3def078" x="551.728273" y="121.517655" style="fill: #4c72b0; fill-opacity: 0.8; stroke: #4c72b0; stroke-opacity: 0.8"/>
     <use xlink:href="#mdad3def078" x="566.485545" y="61.242295" style="fill: #4c72b0; fill-opacity: 0.8; stroke: #4c72b0; stroke-opacity: 0.8"/>
     <use xlink:href="#mdad3def078" x="574.902694" y="60.921801" style="fill: #4c72b0; fill-opacity: 0.8; stroke: #4c72b0; stroke-opacity: 0.8"/>
     <use xlink:href="#mdad3def078" x="605.347816" y="88.277612" style="fill: #4c72b0; fill-opacity: 0.8; stroke: #4c72b0; stroke-opacity: 0.8"/>
     <use xlink:href="#mdad3def078" x="448.430287" y="150.120937" style="fill: #4c72b0; fill-opacity: 0.8; stroke: #4c72b0; stroke-opacity: 0.8"/>
     <use xlink:href="#mdad3def078" x="589.126781" y="99.95279" style="fill: #4c72b0; fill-opacity: 0.8; stroke: #4c72b0; stroke-opacity: 0.8"/>
     <use xlink:href="#mdad3def078" x="596.734062" y="64.759515" style="fill: #4c72b0; fill-opacity: 0.8; stroke: #4c72b0; stroke-opacity: 0.8"/>
     <use xlink:href="#mdad3def078" x="527.704464" y="153.125024" style="fill: #4c72b0; fill-opacity: 0.8; stroke: #4c72b0; stroke-opacity: 0.8"/>
     <use xlink:href="#mdad3def078" x="591.595932" y="77.984636" style="fill: #4c72b0; fill-opacity: 0.8; stroke: #4c72b0; stroke-opacity: 0.8"/>
     <use xlink:href="#mdad3def078" x="506.196023" y="84.51202" style="fill: #4c72b0; fill-opacity: 0.8; stroke: #4c72b0; stroke-opacity: 0.8"/>
     <use xlink:href="#mdad3def078" x="563.284734" y="107.839747" style="fill: #4c72b0; fill-opacity: 0.8; stroke: #4c72b0; stroke-opacity: 0.8"/>
     <use xlink:href="#mdad3def078" x="522.086666" y="120.947482" style="fill: #4c72b0; fill-opacity: 0.8; stroke: #4c72b0; stroke-opacity: 0.8"/>
     <use xlink:href="#mdad3def078" x="547.233598" y="54.54483" style="fill: #4c72b0; fill-opacity: 0.8; stroke: #4c72b0; stroke-opacity: 0.8"/>
     <use xlink:href="#mdad3def078" x="468.38883" y="145.366089" style="fill: #4c72b0; fill-opacity: 0.8; stroke: #4c72b0; stroke-opacity: 0.8"/>
     <use xlink:href="#mdad3def078" x="558.000915" y="92.707898" style="fill: #4c72b0; fill-opacity: 0.8; stroke: #4c72b0; stroke-opacity: 0.8"/>
     <use xlink:href="#mdad3def078" x="542.511055" y="129.004992" style="fill: #4c72b0; fill-opacity: 0.8; stroke: #4c72b0; stroke-opacity: 0.8"/>
     <use xlink:href="#mdad3def078" x="530.600773" y="122.682035" style="fill: #4c72b0; fill-opacity: 0.8; stroke: #4c72b0; stroke-opacity: 0.8"/>
     <use xlink:href="#mdad3def078" x="524.950338" y="120.453827" style="fill: #4c72b0; fill-opacity: 0.8; stroke: #4c72b0; stroke-opacity: 0.8"/>
     <use xlink:href="#mdad3def078" x="607.619182" y="72.845379" style="fill: #4c72b0; fill-opacity: 0.8; stroke: #4c72b0; stroke-opacity: 0.8"/>
    </g>
   </g>
   <g id="FillBetweenPolyCollection_2">
    <defs>
     <path id="m35a9a8303e" d="M 426.277656 -137.593862 
L 426.277656 -97.436405 
L 428.923111 -98.756507 
L 431.568565 -100.076608 
L 434.21402 -101.502665 
L 436.859474 -102.976649 
L 439.504929 -104.424103 
L 442.150384 -105.723529 
L 444.795838 -107.022956 
L 447.441293 -108.306119 
L 450.086747 -109.584609 
L 452.732202 -111.03361 
L 455.377656 -112.557482 
L 458.023111 -114.083346 
L 460.668565 -115.612444 
L 463.31402 -116.985741 
L 465.959474 -118.261847 
L 468.604929 -119.638456 
L 471.250384 -121.146786 
L 473.895838 -122.64915 
L 476.541293 -124.15627 
L 479.186747 -125.531983 
L 481.832202 -126.987373 
L 484.477656 -128.283714 
L 487.123111 -129.580054 
L 489.768565 -130.886884 
L 492.41402 -132.224467 
L 495.059474 -133.561799 
L 497.704929 -134.901812 
L 500.350384 -136.162906 
L 502.995838 -137.355642 
L 505.641293 -138.828179 
L 508.286747 -140.011669 
L 510.932202 -141.23688 
L 513.577656 -142.52999 
L 516.223111 -143.824801 
L 518.868565 -145.062832 
L 521.51402 -146.305053 
L 524.159474 -147.574404 
L 526.804929 -148.81793 
L 529.450384 -150.061184 
L 532.095838 -151.33614 
L 534.741293 -152.564758 
L 537.386747 -153.785995 
L 540.032202 -155.021502 
L 542.677656 -156.126445 
L 545.323111 -157.236843 
L 547.968565 -158.358696 
L 550.61402 -159.56968 
L 553.259474 -160.689335 
L 555.904929 -161.931111 
L 558.550384 -162.952107 
L 561.195838 -163.974721 
L 563.841293 -164.995764 
L 566.486747 -166.025167 
L 569.132202 -167.121553 
L 571.777656 -168.15973 
L 574.423111 -169.314878 
L 577.068565 -170.357881 
L 579.71402 -171.331297 
L 582.359474 -172.408155 
L 585.004929 -173.338597 
L 587.650384 -174.243191 
L 590.295838 -175.208189 
L 592.941293 -176.024835 
L 595.586747 -176.989719 
L 598.232202 -177.917556 
L 600.877656 -178.845394 
L 603.523111 -179.770503 
L 606.168565 -180.521823 
L 608.81402 -181.435409 
L 611.459474 -182.32374 
L 614.104929 -183.146407 
L 616.750384 -184.074112 
L 619.395838 -184.877222 
L 622.041293 -185.771126 
L 624.686747 -186.745738 
L 627.332202 -187.519297 
L 629.977656 -188.350849 
L 632.623111 -189.135367 
L 635.268565 -189.919885 
L 637.91402 -190.704404 
L 640.559474 -191.513537 
L 643.204929 -192.332995 
L 645.850384 -193.152452 
L 648.495838 -193.87426 
L 651.141293 -194.621795 
L 653.786747 -195.274095 
L 656.432202 -195.961169 
L 659.077656 -196.698606 
L 661.723111 -197.498992 
L 664.368565 -198.300638 
L 667.01402 -199.103838 
L 669.659474 -199.890936 
L 672.304929 -200.573022 
L 674.950384 -201.332431 
L 677.595838 -202.069935 
L 680.241293 -202.866109 
L 682.886747 -203.584638 
L 685.532202 -204.401953 
L 688.177656 -205.081906 
L 688.177656 -243.502372 
L 688.177656 -243.502372 
L 685.532202 -242.095517 
L 682.886747 -240.688661 
L 680.241293 -239.281806 
L 677.595838 -237.874951 
L 674.950384 -236.468095 
L 672.304929 -235.059056 
L 669.659474 -233.644431 
L 667.01402 -232.135678 
L 664.368565 -230.626382 
L 661.723111 -229.259072 
L 659.077656 -227.935379 
L 656.432202 -226.493033 
L 653.786747 -225.112031 
L 651.141293 -223.696281 
L 648.495838 -222.394899 
L 645.850384 -221.122478 
L 643.204929 -219.850697 
L 640.559474 -218.573231 
L 637.91402 -217.079265 
L 635.268565 -215.520621 
L 632.623111 -213.984076 
L 629.977656 -212.639137 
L 627.332202 -211.388446 
L 624.686747 -209.977448 
L 622.041293 -208.711418 
L 619.395838 -207.355677 
L 616.750384 -206.002224 
L 614.104929 -204.774699 
L 611.459474 -203.545263 
L 608.81402 -202.195948 
L 606.168565 -201.001915 
L 603.523111 -199.609025 
L 600.877656 -198.36427 
L 598.232202 -196.995346 
L 595.586747 -195.872622 
L 592.941293 -194.581438 
L 590.295838 -193.166602 
L 587.650384 -191.874298 
L 585.004929 -190.511839 
L 582.359474 -189.289087 
L 579.71402 -188.076381 
L 577.068565 -187.01279 
L 574.423111 -186.041059 
L 571.777656 -184.884829 
L 569.132202 -183.816544 
L 566.486747 -182.659436 
L 563.841293 -181.53627 
L 561.195838 -180.35692 
L 558.550384 -179.368196 
L 555.904929 -178.191374 
L 553.259474 -177.250505 
L 550.61402 -175.877311 
L 547.968565 -174.954813 
L 545.323111 -174.206464 
L 542.677656 -173.469093 
L 540.032202 -172.733084 
L 537.386747 -171.69772 
L 534.741293 -170.634464 
L 532.095838 -169.792951 
L 529.450384 -168.744451 
L 526.804929 -167.797167 
L 524.159474 -166.928737 
L 521.51402 -166.087164 
L 518.868565 -165.234702 
L 516.223111 -164.434404 
L 513.577656 -163.526949 
L 510.932202 -162.669973 
L 508.286747 -161.743252 
L 505.641293 -160.858237 
L 502.995838 -160.068029 
L 500.350384 -159.176295 
L 497.704929 -158.217117 
L 495.059474 -157.486286 
L 492.41402 -156.693853 
L 489.768565 -155.949609 
L 487.123111 -155.256007 
L 484.477656 -154.562405 
L 481.832202 -153.846921 
L 479.186747 -153.07964 
L 476.541293 -152.253273 
L 473.895838 -151.426906 
L 471.250384 -150.623193 
L 468.604929 -149.926665 
L 465.959474 -149.186052 
L 463.31402 -148.488922 
L 460.668565 -147.783459 
L 458.023111 -147.047031 
L 455.377656 -146.249725 
L 452.732202 -145.354821 
L 450.086747 -144.459917 
L 447.441293 -143.70686 
L 444.795838 -142.988978 
L 442.150384 -142.21377 
L 439.504929 -141.374003 
L 436.859474 -140.618155 
L 434.21402 -139.862307 
L 431.568565 -139.106459 
L 428.923111 -138.350612 
L 426.277656 -137.593862 
z
" style="stroke: #ffffff; stroke-opacity: 0.15"/>
    </defs>
    <g clip-path="url(#p7f44452817)">
     <use xlink:href="#m35a9a8303e" x="0" y="276.414844" style="fill: #800080; fill-opacity: 0.15; stroke: #ffffff; stroke-opacity: 0.15"/>
    </g>
   </g>
   <g id="line2d_23">
    <path d="M 426.277656 157.328317 
L 428.923111 156.282306 
L 431.568565 155.236295 
L 434.21402 154.190283 
L 436.859474 153.144272 
L 439.504929 152.098261 
L 442.150384 151.05225 
L 444.795838 150.006238 
L 447.441293 148.960227 
L 450.086747 147.914216 
L 452.732202 146.868205 
L 455.377656 145.822193 
L 458.023111 144.776182 
L 460.668565 143.730171 
L 463.31402 142.684159 
L 465.959474 141.638148 
L 468.604929 140.592137 
L 471.250384 139.546126 
L 473.895838 138.500114 
L 476.541293 137.454103 
L 479.186747 136.408092 
L 481.832202 135.362081 
L 484.477656 134.316069 
L 487.123111 133.270058 
L 489.768565 132.224047 
L 492.41402 131.178035 
L 495.059474 130.132024 
L 497.704929 129.086013 
L 500.350384 128.040002 
L 502.995838 126.99399 
L 505.641293 125.947979 
L 508.286747 124.901968 
L 510.932202 123.855957 
L 513.577656 122.809945 
L 516.223111 121.763934 
L 518.868565 120.717923 
L 521.51402 119.671911 
L 524.159474 118.6259 
L 526.804929 117.579889 
L 529.450384 116.533878 
L 532.095838 115.487866 
L 534.741293 114.441855 
L 537.386747 113.395844 
L 540.032202 112.349832 
L 542.677656 111.303821 
L 545.323111 110.25781 
L 547.968565 109.211799 
L 550.61402 108.165787 
L 553.259474 107.119776 
L 555.904929 106.073765 
L 558.550384 105.027754 
L 561.195838 103.981742 
L 563.841293 102.935731 
L 566.486747 101.88972 
L 569.132202 100.843708 
L 571.777656 99.797697 
L 574.423111 98.751686 
L 577.068565 97.705675 
L 579.71402 96.659663 
L 582.359474 95.613652 
L 585.004929 94.567641 
L 587.650384 93.52163 
L 590.295838 92.475618 
L 592.941293 91.429607 
L 595.586747 90.383596 
L 598.232202 89.337584 
L 600.877656 88.291573 
L 603.523111 87.245562 
L 606.168565 86.199551 
L 608.81402 85.153539 
L 611.459474 84.107528 
L 614.104929 83.061517 
L 616.750384 82.015506 
L 619.395838 80.969494 
L 622.041293 79.923483 
L 624.686747 78.877472 
L 627.332202 77.83146 
L 629.977656 76.785449 
L 632.623111 75.739438 
L 635.268565 74.693427 
L 637.91402 73.647415 
L 640.559474 72.601404 
L 643.204929 71.555393 
L 645.850384 70.509382 
L 648.495838 69.46337 
L 651.141293 68.417359 
L 653.786747 67.371348 
L 656.432202 66.325336 
L 659.077656 65.279325 
L 661.723111 64.233314 
L 664.368565 63.187303 
L 667.01402 62.141291 
L 669.659474 61.09528 
L 672.304929 60.049269 
L 674.950384 59.003258 
L 677.595838 57.957246 
L 680.241293 56.911235 
L 682.886747 55.865224 
L 685.532202 54.819212 
L 688.177656 53.773201 
" clip-path="url(#p7f44452817)" style="fill: none; stroke: #800080; stroke-width: 2; stroke-linecap: round"/>
   </g>
   <g id="patch_9">
    <path d="M 413.182656 232.851562 
L 413.182656 23.391562 
" style="fill: none; stroke: #cccccc; stroke-width: 1.25; stroke-linejoin: miter; stroke-linecap: square"/>
   </g>
   <g id="patch_10">
    <path d="M 701.272656 232.851562 
L 701.272656 23.391562 
" style="fill: none; stroke: #cccccc; stroke-width: 1.25; stroke-linejoin: miter; stroke-linecap: square"/>
   </g>
   <g id="patch_11">
    <path d="M 413.182656 232.851562 
L 701.272656 232.851562 
" style="fill: none; stroke: #cccccc; stroke-width: 1.25; stroke-linejoin: miter; stroke-linecap: square"/>
   </g>
   <g id="patch_12">
    <path d="M 413.182656 23.391562 
L 701.272656 23.391562 
" style="fill: none; stroke: #cccccc; stroke-width: 1.25; stroke-linejoin: miter; stroke-linecap: square"/>
   </g>
   <g id="text_28">
    <g id="patch_13">
     <path d="M 423.627156 71.883562 
L 562.947156 71.883562 
L 562.947156 52.563562 
L 423.627156 52.563562 
z
" style="fill: #ffffff; stroke: #ffffff; stroke-linejoin: miter"/>
    </g>
    <!-- Corr: 0.64 ($p$ =8.25E-08) -->
    <g style="fill: #262626" transform="translate(427.587156 65.283562) scale(0.12 -0.12)">
     <defs>
      <path id="ArialMT-36" d="M 3184 3459 
L 2625 3416 
Q 2550 3747 2413 3897 
Q 2184 4138 1850 4138 
Q 1581 4138 1378 3988 
Q 1113 3794 959 3422 
Q 806 3050 800 2363 
Q 1003 2672 1297 2822 
Q 1591 2972 1913 2972 
Q 2475 2972 2870 2558 
Q 3266 2144 3266 1488 
Q 3266 1056 3080 686 
Q 2894 316 2569 119 
Q 2244 -78 1831 -78 
Q 1128 -78 684 439 
Q 241 956 241 2144 
Q 241 3472 731 4075 
Q 1159 4600 1884 4600 
Q 2425 4600 2770 4297 
Q 3116 3994 3184 3459 
z
M 888 1484 
Q 888 1194 1011 928 
Q 1134 663 1356 523 
Q 1578 384 1822 384 
Q 2178 384 2434 671 
Q 2691 959 2691 1453 
Q 2691 1928 2437 2201 
Q 2184 2475 1800 2475 
Q 1419 2475 1153 2201 
Q 888 1928 888 1484 
z
" transform="scale(0.015625)"/>
      <path id="ArialMT-38" d="M 1131 2484 
Q 781 2613 612 2850 
Q 444 3088 444 3419 
Q 444 3919 803 4259 
Q 1163 4600 1759 4600 
Q 2359 4600 2725 4251 
Q 3091 3903 3091 3403 
Q 3091 3084 2923 2848 
Q 2756 2613 2416 2484 
Q 2838 2347 3058 2040 
Q 3278 1734 3278 1309 
Q 3278 722 2862 322 
Q 2447 -78 1769 -78 
Q 1091 -78 675 323 
Q 259 725 259 1325 
Q 259 1772 486 2073 
Q 713 2375 1131 2484 
z
M 1019 3438 
Q 1019 3113 1228 2906 
Q 1438 2700 1772 2700 
Q 2097 2700 2305 2904 
Q 2513 3109 2513 3406 
Q 2513 3716 2298 3927 
Q 2084 4138 1766 4138 
Q 1444 4138 1231 3931 
Q 1019 3725 1019 3438 
z
M 838 1322 
Q 838 1081 952 856 
Q 1066 631 1291 507 
Q 1516 384 1775 384 
Q 2178 384 2440 643 
Q 2703 903 2703 1303 
Q 2703 1709 2433 1975 
Q 2163 2241 1756 2241 
Q 1359 2241 1098 1978 
Q 838 1716 838 1322 
z
" transform="scale(0.015625)"/>
      <path id="ArialMT-45" d="M 506 0 
L 506 4581 
L 3819 4581 
L 3819 4041 
L 1113 4041 
L 1113 2638 
L 3647 2638 
L 3647 2100 
L 1113 2100 
L 1113 541 
L 3925 541 
L 3925 0 
L 506 0 
z
" transform="scale(0.015625)"/>
      <path id="ArialMT-2d" d="M 203 1375 
L 203 1941 
L 1931 1941 
L 1931 1375 
L 203 1375 
z
" transform="scale(0.015625)"/>
     </defs>
     <use xlink:href="#ArialMT-43" transform="translate(0 0.203125)"/>
     <use xlink:href="#ArialMT-6f" transform="translate(72.216797 0.203125)"/>
     <use xlink:href="#ArialMT-72" transform="translate(127.832031 0.203125)"/>
     <use xlink:href="#ArialMT-72" transform="translate(161.132812 0.203125)"/>
     <use xlink:href="#ArialMT-3a" transform="translate(194.433594 0.203125)"/>
     <use xlink:href="#ArialMT-20" transform="translate(222.216797 0.203125)"/>
     <use xlink:href="#ArialMT-30" transform="translate(250 0.203125)"/>
     <use xlink:href="#ArialMT-2e" transform="translate(305.615234 0.203125)"/>
     <use xlink:href="#ArialMT-36" transform="translate(333.398438 0.203125)"/>
     <use xlink:href="#ArialMT-34" transform="translate(389.013672 0.203125)"/>
     <use xlink:href="#ArialMT-20" transform="translate(444.628906 0.203125)"/>
     <use xlink:href="#ArialMT-28" transform="translate(472.412109 0.203125)"/>
     <use xlink:href="#DejaVuSans-Oblique-70" transform="translate(505.712891 0.203125)"/>
     <use xlink:href="#ArialMT-20" transform="translate(569.189453 0.203125)"/>
     <use xlink:href="#ArialMT-3d" transform="translate(596.972656 0.203125)"/>
     <use xlink:href="#ArialMT-38" transform="translate(655.371094 0.203125)"/>
     <use xlink:href="#ArialMT-2e" transform="translate(710.986328 0.203125)"/>
     <use xlink:href="#ArialMT-32" transform="translate(738.769531 0.203125)"/>
     <use xlink:href="#ArialMT-35" transform="translate(794.384766 0.203125)"/>
     <use xlink:href="#ArialMT-45" transform="translate(850 0.203125)"/>
     <use xlink:href="#ArialMT-2d" transform="translate(916.699219 0.203125)"/>
     <use xlink:href="#ArialMT-30" transform="translate(950 0.203125)"/>
     <use xlink:href="#ArialMT-38" transform="translate(1005.615234 0.203125)"/>
     <use xlink:href="#ArialMT-29" transform="translate(1061.230469 0.203125)"/>
    </g>
   </g>
   <g id="text_29">
    <!-- (B) -->
    <g style="fill: #262626" transform="translate(413.182656 17.391562) scale(0.14 -0.14)">
     <defs>
      <path id="ArialMT-42" d="M 469 0 
L 469 4581 
L 2188 4581 
Q 2713 4581 3030 4442 
Q 3347 4303 3526 4014 
Q 3706 3725 3706 3409 
Q 3706 3116 3547 2856 
Q 3388 2597 3066 2438 
Q 3481 2316 3704 2022 
Q 3928 1728 3928 1328 
Q 3928 1006 3792 729 
Q 3656 453 3456 303 
Q 3256 153 2954 76 
Q 2653 0 2216 0 
L 469 0 
z
M 1075 2656 
L 2066 2656 
Q 2469 2656 2644 2709 
Q 2875 2778 2992 2937 
Q 3109 3097 3109 3338 
Q 3109 3566 3000 3739 
Q 2891 3913 2687 3977 
Q 2484 4041 1991 4041 
L 1075 4041 
L 1075 2656 
z
M 1075 541 
L 2216 541 
Q 2509 541 2628 563 
Q 2838 600 2978 687 
Q 3119 775 3209 942 
Q 3300 1109 3300 1328 
Q 3300 1584 3169 1773 
Q 3038 1963 2805 2039 
Q 2572 2116 2134 2116 
L 1075 2116 
L 1075 541 
z
" transform="scale(0.015625)"/>
     </defs>
     <use xlink:href="#ArialMT-28"/>
     <use xlink:href="#ArialMT-42" transform="translate(33.300781 0)"/>
     <use xlink:href="#ArialMT-29" transform="translate(100 0)"/>
    </g>
   </g>
  </g>
 </g>
 <defs>
  <clipPath id="p7299190234">
   <rect x="64.252656" y="23.391562" width="288.09" height="209.46"/>
  </clipPath>
  <clipPath id="p7f44452817">
   <rect x="413.182656" y="23.391562" width="288.09" height="209.46"/>
  </clipPath>
 </defs>
</svg>
