<?xml version="1.0" encoding="utf-8" standalone="no"?>
<!DOCTYPE svg PUBLIC "-//W3C//DTD SVG 1.1//EN"
  "http://www.w3.org/Graphics/SVG/1.1/DTD/svg11.dtd">
<svg xmlns:xlink="http://www.w3.org/1999/xlink" width="413.315462pt" height="310.451016pt" viewBox="0 0 413.315462 310.451016" xmlns="http://www.w3.org/2000/svg" version="1.1">
 <metadata>
  <rdf:RDF xmlns:dc="http://purl.org/dc/elements/1.1/" xmlns:cc="http://creativecommons.org/ns#" xmlns:rdf="http://www.w3.org/1999/02/22-rdf-syntax-ns#">
   <cc:Work>
    <dc:type rdf:resource="http://purl.org/dc/dcmitype/StillImage"/>
    <dc:date>2025-04-14T23:23:15.062255</dc:date>
    <dc:format>image/svg+xml</dc:format>
    <dc:creator>
     <cc:Agent>
      <dc:title>Matplotlib v3.10.1, https://matplotlib.org/</dc:title>
     </cc:Agent>
    </dc:creator>
   </cc:Work>
  </rdf:RDF>
 </metadata>
 <defs>
  <style type="text/css">*{stroke-linejoin: round; stroke-linecap: butt}</style>
 </defs>
 <g id="figure_1">
  <g id="patch_1">
   <path d="M 0 310.451016 
L 413.315462 310.451016 
L 413.315462 0 
L 0 0 
z
" style="fill: #ffffff"/>
  </g>
  <g id="axes_1">
   <g id="patch_2">
    <path d="M 49.31 268.716797 
L 335.5802 268.716797 
L 335.5802 11.136797 
L 49.31 11.136797 
z
" style="fill: #ffffff"/>
   </g>
   <g id="matplotlib.axis_1">
    <g id="xtick_1">
     <g id="line2d_1">
      <path d="M 96.864203 268.716797 
L 96.864203 11.136797 
" clip-path="url(#pf5a94989e2)" style="fill: none; stroke: #cccccc; stroke-linecap: round"/>
     </g>
     <g id="text_1">
      <!-- 0.1 -->
      <g style="fill: #262626" transform="translate(89.219203 286.090391) scale(0.11 -0.11)">
       <defs>
        <path id="ArialMT-30" d="M 266 2259 
Q 266 3072 433 3567 
Q 600 4063 929 4331 
Q 1259 4600 1759 4600 
Q 2128 4600 2406 4451 
Q 2684 4303 2865 4023 
Q 3047 3744 3150 3342 
Q 3253 2941 3253 2259 
Q 3253 1453 3087 958 
Q 2922 463 2592 192 
Q 2263 -78 1759 -78 
Q 1097 -78 719 397 
Q 266 969 266 2259 
z
M 844 2259 
Q 844 1131 1108 757 
Q 1372 384 1759 384 
Q 2147 384 2411 759 
Q 2675 1134 2675 2259 
Q 2675 3391 2411 3762 
Q 2147 4134 1753 4134 
Q 1366 4134 1134 3806 
Q 844 3388 844 2259 
z
" transform="scale(0.015625)"/>
        <path id="ArialMT-2e" d="M 581 0 
L 581 641 
L 1222 641 
L 1222 0 
L 581 0 
z
" transform="scale(0.015625)"/>
        <path id="ArialMT-31" d="M 2384 0 
L 1822 0 
L 1822 3584 
Q 1619 3391 1289 3197 
Q 959 3003 697 2906 
L 697 3450 
Q 1169 3672 1522 3987 
Q 1875 4303 2022 4600 
L 2384 4600 
L 2384 0 
z
" transform="scale(0.015625)"/>
       </defs>
       <use xlink:href="#ArialMT-30"/>
       <use xlink:href="#ArialMT-2e" transform="translate(55.615234 0)"/>
       <use xlink:href="#ArialMT-31" transform="translate(83.398438 0)"/>
      </g>
     </g>
    </g>
    <g id="xtick_2">
     <g id="line2d_2">
      <path d="M 167.45426 268.716797 
L 167.45426 11.136797 
" clip-path="url(#pf5a94989e2)" style="fill: none; stroke: #cccccc; stroke-linecap: round"/>
     </g>
     <g id="text_2">
      <!-- 0.2 -->
      <g style="fill: #262626" transform="translate(159.80926 286.090391) scale(0.11 -0.11)">
       <defs>
        <path id="ArialMT-32" d="M 3222 541 
L 3222 0 
L 194 0 
Q 188 203 259 391 
Q 375 700 629 1000 
Q 884 1300 1366 1694 
Q 2113 2306 2375 2664 
Q 2638 3022 2638 3341 
Q 2638 3675 2398 3904 
Q 2159 4134 1775 4134 
Q 1369 4134 1125 3890 
Q 881 3647 878 3216 
L 300 3275 
Q 359 3922 746 4261 
Q 1134 4600 1788 4600 
Q 2447 4600 2831 4234 
Q 3216 3869 3216 3328 
Q 3216 3053 3103 2787 
Q 2991 2522 2730 2228 
Q 2469 1934 1863 1422 
Q 1356 997 1212 845 
Q 1069 694 975 541 
L 3222 541 
z
" transform="scale(0.015625)"/>
       </defs>
       <use xlink:href="#ArialMT-30"/>
       <use xlink:href="#ArialMT-2e" transform="translate(55.615234 0)"/>
       <use xlink:href="#ArialMT-32" transform="translate(83.398438 0)"/>
      </g>
     </g>
    </g>
    <g id="xtick_3">
     <g id="line2d_3">
      <path d="M 238.044318 268.716797 
L 238.044318 11.136797 
" clip-path="url(#pf5a94989e2)" style="fill: none; stroke: #cccccc; stroke-linecap: round"/>
     </g>
     <g id="text_3">
      <!-- 0.3 -->
      <g style="fill: #262626" transform="translate(230.399318 286.090391) scale(0.11 -0.11)">
       <defs>
        <path id="ArialMT-33" d="M 269 1209 
L 831 1284 
Q 928 806 1161 595 
Q 1394 384 1728 384 
Q 2125 384 2398 659 
Q 2672 934 2672 1341 
Q 2672 1728 2419 1979 
Q 2166 2231 1775 2231 
Q 1616 2231 1378 2169 
L 1441 2663 
Q 1497 2656 1531 2656 
Q 1891 2656 2178 2843 
Q 2466 3031 2466 3422 
Q 2466 3731 2256 3934 
Q 2047 4138 1716 4138 
Q 1388 4138 1169 3931 
Q 950 3725 888 3313 
L 325 3413 
Q 428 3978 793 4289 
Q 1159 4600 1703 4600 
Q 2078 4600 2393 4439 
Q 2709 4278 2876 4000 
Q 3044 3722 3044 3409 
Q 3044 3113 2884 2869 
Q 2725 2625 2413 2481 
Q 2819 2388 3044 2092 
Q 3269 1797 3269 1353 
Q 3269 753 2831 336 
Q 2394 -81 1725 -81 
Q 1122 -81 723 278 
Q 325 638 269 1209 
z
" transform="scale(0.015625)"/>
       </defs>
       <use xlink:href="#ArialMT-30"/>
       <use xlink:href="#ArialMT-2e" transform="translate(55.615234 0)"/>
       <use xlink:href="#ArialMT-33" transform="translate(83.398438 0)"/>
      </g>
     </g>
    </g>
    <g id="xtick_4">
     <g id="line2d_4">
      <path d="M 308.634376 268.716797 
L 308.634376 11.136797 
" clip-path="url(#pf5a94989e2)" style="fill: none; stroke: #cccccc; stroke-linecap: round"/>
     </g>
     <g id="text_4">
      <!-- 0.4 -->
      <g style="fill: #262626" transform="translate(300.989376 286.090391) scale(0.11 -0.11)">
       <defs>
        <path id="ArialMT-34" d="M 2069 0 
L 2069 1097 
L 81 1097 
L 81 1613 
L 2172 4581 
L 2631 4581 
L 2631 1613 
L 3250 1613 
L 3250 1097 
L 2631 1097 
L 2631 0 
L 2069 0 
z
M 2069 1613 
L 2069 3678 
L 634 1613 
L 2069 1613 
z
" transform="scale(0.015625)"/>
       </defs>
       <use xlink:href="#ArialMT-30"/>
       <use xlink:href="#ArialMT-2e" transform="translate(55.615234 0)"/>
       <use xlink:href="#ArialMT-34" transform="translate(83.398438 0)"/>
      </g>
     </g>
    </g>
    <g id="text_5">
     <!-- $y_{OC}$ -->
     <g style="fill: #262626" transform="translate(182.4851 300.731016) scale(0.12 -0.12)">
      <defs>
       <path id="DejaVuSans-Oblique-79" d="M 1588 -325 
Q 1188 -997 936 -1164 
Q 684 -1331 294 -1331 
L -159 -1331 
L -63 -850 
L 269 -850 
Q 509 -850 678 -719 
Q 847 -588 1056 -206 
L 1234 128 
L 459 3500 
L 1069 3500 
L 1650 819 
L 3256 3500 
L 3859 3500 
L 1588 -325 
z
" transform="scale(0.015625)"/>
       <path id="DejaVuSans-Oblique-4f" d="M 2919 4238 
Q 2400 4238 2003 3986 
Q 1606 3734 1313 3219 
Q 1125 2891 1026 2522 
Q 928 2153 928 1778 
Q 928 1128 1239 775 
Q 1550 422 2119 422 
Q 2631 422 3032 676 
Q 3434 931 3719 1434 
Q 3909 1772 4009 2142 
Q 4109 2513 4109 2881 
Q 4109 3528 3796 3883 
Q 3484 4238 2919 4238 
z
M 2100 -91 
Q 1241 -91 748 418 
Q 256 928 256 1813 
Q 256 2319 448 2847 
Q 641 3375 978 3788 
Q 1375 4272 1862 4511 
Q 2350 4750 2938 4750 
Q 3794 4750 4287 4245 
Q 4781 3741 4781 2869 
Q 4781 2331 4593 1812 
Q 4406 1294 4056 872 
Q 3656 384 3173 146 
Q 2691 -91 2100 -91 
z
" transform="scale(0.015625)"/>
       <path id="DejaVuSans-Oblique-43" d="M 4447 4306 
L 4319 3641 
Q 4019 3944 3683 4091 
Q 3347 4238 2956 4238 
Q 2422 4238 2017 3981 
Q 1613 3725 1319 3200 
Q 1131 2863 1032 2486 
Q 934 2109 934 1728 
Q 934 1091 1264 756 
Q 1594 422 2222 422 
Q 2656 422 3056 561 
Q 3456 700 3834 978 
L 3688 231 
Q 3316 72 2936 -9 
Q 2556 -91 2175 -91 
Q 1278 -91 773 396 
Q 269 884 269 1753 
Q 269 2309 461 2846 
Q 653 3384 1013 3828 
Q 1394 4300 1883 4525 
Q 2372 4750 3022 4750 
Q 3422 4750 3780 4639 
Q 4138 4528 4447 4306 
z
" transform="scale(0.015625)"/>
      </defs>
      <use xlink:href="#DejaVuSans-Oblique-79" transform="translate(0 0.3125)"/>
      <use xlink:href="#DejaVuSans-Oblique-4f" transform="translate(59.179688 -16.09375) scale(0.7)"/>
      <use xlink:href="#DejaVuSans-Oblique-43" transform="translate(114.277344 -16.09375) scale(0.7)"/>
     </g>
    </g>
   </g>
   <g id="matplotlib.axis_2">
    <g id="ytick_1">
     <g id="line2d_5">
      <path d="M 49.31 259.466769 
L 335.5802 259.466769 
" clip-path="url(#pf5a94989e2)" style="fill: none; stroke: #cccccc; stroke-linecap: round"/>
     </g>
     <g id="text_6">
      <!-- 0.2 -->
      <g style="fill: #262626" transform="translate(24.52 263.403566) scale(0.11 -0.11)">
       <use xlink:href="#ArialMT-30"/>
       <use xlink:href="#ArialMT-2e" transform="translate(55.615234 0)"/>
       <use xlink:href="#ArialMT-32" transform="translate(83.398438 0)"/>
      </g>
     </g>
    </g>
    <g id="ytick_2">
     <g id="line2d_6">
      <path d="M 49.31 213.672435 
L 335.5802 213.672435 
" clip-path="url(#pf5a94989e2)" style="fill: none; stroke: #cccccc; stroke-linecap: round"/>
     </g>
     <g id="text_7">
      <!-- 0.4 -->
      <g style="fill: #262626" transform="translate(24.52 217.609231) scale(0.11 -0.11)">
       <use xlink:href="#ArialMT-30"/>
       <use xlink:href="#ArialMT-2e" transform="translate(55.615234 0)"/>
       <use xlink:href="#ArialMT-34" transform="translate(83.398438 0)"/>
      </g>
     </g>
    </g>
    <g id="ytick_3">
     <g id="line2d_7">
      <path d="M 49.31 167.8781 
L 335.5802 167.8781 
" clip-path="url(#pf5a94989e2)" style="fill: none; stroke: #cccccc; stroke-linecap: round"/>
     </g>
     <g id="text_8">
      <!-- 0.6 -->
      <g style="fill: #262626" transform="translate(24.52 171.814897) scale(0.11 -0.11)">
       <defs>
        <path id="ArialMT-36" d="M 3184 3459 
L 2625 3416 
Q 2550 3747 2413 3897 
Q 2184 4138 1850 4138 
Q 1581 4138 1378 3988 
Q 1113 3794 959 3422 
Q 806 3050 800 2363 
Q 1003 2672 1297 2822 
Q 1591 2972 1913 2972 
Q 2475 2972 2870 2558 
Q 3266 2144 3266 1488 
Q 3266 1056 3080 686 
Q 2894 316 2569 119 
Q 2244 -78 1831 -78 
Q 1128 -78 684 439 
Q 241 956 241 2144 
Q 241 3472 731 4075 
Q 1159 4600 1884 4600 
Q 2425 4600 2770 4297 
Q 3116 3994 3184 3459 
z
M 888 1484 
Q 888 1194 1011 928 
Q 1134 663 1356 523 
Q 1578 384 1822 384 
Q 2178 384 2434 671 
Q 2691 959 2691 1453 
Q 2691 1928 2437 2201 
Q 2184 2475 1800 2475 
Q 1419 2475 1153 2201 
Q 888 1928 888 1484 
z
" transform="scale(0.015625)"/>
       </defs>
       <use xlink:href="#ArialMT-30"/>
       <use xlink:href="#ArialMT-2e" transform="translate(55.615234 0)"/>
       <use xlink:href="#ArialMT-36" transform="translate(83.398438 0)"/>
      </g>
     </g>
    </g>
    <g id="ytick_4">
     <g id="line2d_8">
      <path d="M 49.31 122.083766 
L 335.5802 122.083766 
" clip-path="url(#pf5a94989e2)" style="fill: none; stroke: #cccccc; stroke-linecap: round"/>
     </g>
     <g id="text_9">
      <!-- 0.8 -->
      <g style="fill: #262626" transform="translate(24.52 126.020563) scale(0.11 -0.11)">
       <defs>
        <path id="ArialMT-38" d="M 1131 2484 
Q 781 2613 612 2850 
Q 444 3088 444 3419 
Q 444 3919 803 4259 
Q 1163 4600 1759 4600 
Q 2359 4600 2725 4251 
Q 3091 3903 3091 3403 
Q 3091 3084 2923 2848 
Q 2756 2613 2416 2484 
Q 2838 2347 3058 2040 
Q 3278 1734 3278 1309 
Q 3278 722 2862 322 
Q 2447 -78 1769 -78 
Q 1091 -78 675 323 
Q 259 725 259 1325 
Q 259 1772 486 2073 
Q 713 2375 1131 2484 
z
M 1019 3438 
Q 1019 3113 1228 2906 
Q 1438 2700 1772 2700 
Q 2097 2700 2305 2904 
Q 2513 3109 2513 3406 
Q 2513 3716 2298 3927 
Q 2084 4138 1766 4138 
Q 1444 4138 1231 3931 
Q 1019 3725 1019 3438 
z
M 838 1322 
Q 838 1081 952 856 
Q 1066 631 1291 507 
Q 1516 384 1775 384 
Q 2178 384 2440 643 
Q 2703 903 2703 1303 
Q 2703 1709 2433 1975 
Q 2163 2241 1756 2241 
Q 1359 2241 1098 1978 
Q 838 1716 838 1322 
z
" transform="scale(0.015625)"/>
       </defs>
       <use xlink:href="#ArialMT-30"/>
       <use xlink:href="#ArialMT-2e" transform="translate(55.615234 0)"/>
       <use xlink:href="#ArialMT-38" transform="translate(83.398438 0)"/>
      </g>
     </g>
    </g>
    <g id="ytick_5">
     <g id="line2d_9">
      <path d="M 49.31 76.289431 
L 335.5802 76.289431 
" clip-path="url(#pf5a94989e2)" style="fill: none; stroke: #cccccc; stroke-linecap: round"/>
     </g>
     <g id="text_10">
      <!-- 1.0 -->
      <g style="fill: #262626" transform="translate(24.52 80.226228) scale(0.11 -0.11)">
       <use xlink:href="#ArialMT-31"/>
       <use xlink:href="#ArialMT-2e" transform="translate(55.615234 0)"/>
       <use xlink:href="#ArialMT-30" transform="translate(83.398438 0)"/>
      </g>
     </g>
    </g>
    <g id="ytick_6">
     <g id="line2d_10">
      <path d="M 49.31 30.495097 
L 335.5802 30.495097 
" clip-path="url(#pf5a94989e2)" style="fill: none; stroke: #cccccc; stroke-linecap: round"/>
     </g>
     <g id="text_11">
      <!-- 1.2 -->
      <g style="fill: #262626" transform="translate(24.52 34.431894) scale(0.11 -0.11)">
       <use xlink:href="#ArialMT-31"/>
       <use xlink:href="#ArialMT-2e" transform="translate(55.615234 0)"/>
       <use xlink:href="#ArialMT-32" transform="translate(83.398438 0)"/>
      </g>
     </g>
    </g>
    <g id="text_12">
     <!-- $\mu_{max}$ $[\mathrm{d^{-1}}]$ -->
     <g style="fill: #262626" transform="translate(18 169.686797) rotate(-90) scale(0.12 -0.12)">
      <defs>
       <path id="DejaVuSans-Oblique-3bc" d="M -84 -1331 
L 856 3500 
L 1434 3500 
L 1009 1322 
Q 997 1256 987 1175 
Q 978 1094 978 1013 
Q 978 722 1161 565 
Q 1344 409 1684 409 
Q 2147 409 2431 671 
Q 2716 934 2816 1459 
L 3213 3500 
L 3788 3500 
L 3266 809 
Q 3253 750 3248 706 
Q 3244 663 3244 628 
Q 3244 531 3283 486 
Q 3322 441 3406 441 
Q 3438 441 3492 456 
Q 3547 472 3647 513 
L 3559 50 
Q 3422 -19 3297 -55 
Q 3172 -91 3053 -91 
Q 2847 -91 2730 40 
Q 2613 172 2613 403 
Q 2438 153 2195 31 
Q 1953 -91 1625 -91 
Q 1334 -91 1117 43 
Q 900 178 831 397 
L 494 -1331 
L -84 -1331 
z
" transform="scale(0.015625)"/>
       <path id="DejaVuSans-Oblique-6d" d="M 5747 2113 
L 5338 0 
L 4763 0 
L 5166 2094 
Q 5191 2228 5203 2325 
Q 5216 2422 5216 2491 
Q 5216 2772 5059 2928 
Q 4903 3084 4622 3084 
Q 4203 3084 3875 2770 
Q 3547 2456 3450 1953 
L 3066 0 
L 2491 0 
L 2900 2094 
Q 2925 2209 2937 2307 
Q 2950 2406 2950 2484 
Q 2950 2769 2794 2926 
Q 2638 3084 2363 3084 
Q 1938 3084 1609 2770 
Q 1281 2456 1184 1953 
L 800 0 
L 225 0 
L 909 3500 
L 1484 3500 
L 1375 2956 
Q 1609 3263 1923 3423 
Q 2238 3584 2597 3584 
Q 2978 3584 3223 3384 
Q 3469 3184 3519 2828 
Q 3781 3197 4126 3390 
Q 4472 3584 4856 3584 
Q 5306 3584 5551 3325 
Q 5797 3066 5797 2591 
Q 5797 2488 5784 2364 
Q 5772 2241 5747 2113 
z
" transform="scale(0.015625)"/>
       <path id="DejaVuSans-Oblique-61" d="M 3438 1997 
L 3047 0 
L 2472 0 
L 2578 531 
Q 2325 219 2001 64 
Q 1678 -91 1281 -91 
Q 834 -91 548 182 
Q 263 456 263 884 
Q 263 1497 752 1853 
Q 1241 2209 2100 2209 
L 2900 2209 
L 2931 2363 
Q 2938 2388 2941 2417 
Q 2944 2447 2944 2509 
Q 2944 2788 2717 2942 
Q 2491 3097 2081 3097 
Q 1800 3097 1504 3025 
Q 1209 2953 897 2809 
L 997 3341 
Q 1322 3463 1633 3523 
Q 1944 3584 2234 3584 
Q 2853 3584 3176 3315 
Q 3500 3047 3500 2534 
Q 3500 2431 3484 2292 
Q 3469 2153 3438 1997 
z
M 2816 1759 
L 2241 1759 
Q 1534 1759 1195 1570 
Q 856 1381 856 984 
Q 856 709 1029 553 
Q 1203 397 1509 397 
Q 1978 397 2328 733 
Q 2678 1069 2791 1631 
L 2816 1759 
z
" transform="scale(0.015625)"/>
       <path id="DejaVuSans-Oblique-78" d="M 3841 3500 
L 2234 1784 
L 3219 0 
L 2559 0 
L 1819 1388 
L 531 0 
L -166 0 
L 1556 1844 
L 641 3500 
L 1300 3500 
L 1972 2234 
L 3144 3500 
L 3841 3500 
z
" transform="scale(0.015625)"/>
       <path id="ArialMT-20" transform="scale(0.015625)"/>
       <path id="DejaVuSans-5b" d="M 550 4863 
L 1875 4863 
L 1875 4416 
L 1125 4416 
L 1125 -397 
L 1875 -397 
L 1875 -844 
L 550 -844 
L 550 4863 
z
" transform="scale(0.015625)"/>
       <path id="DejaVuSans-64" d="M 2906 2969 
L 2906 4863 
L 3481 4863 
L 3481 0 
L 2906 0 
L 2906 525 
Q 2725 213 2448 61 
Q 2172 -91 1784 -91 
Q 1150 -91 751 415 
Q 353 922 353 1747 
Q 353 2572 751 3078 
Q 1150 3584 1784 3584 
Q 2172 3584 2448 3432 
Q 2725 3281 2906 2969 
z
M 947 1747 
Q 947 1113 1208 752 
Q 1469 391 1925 391 
Q 2381 391 2643 752 
Q 2906 1113 2906 1747 
Q 2906 2381 2643 2742 
Q 2381 3103 1925 3103 
Q 1469 3103 1208 2742 
Q 947 2381 947 1747 
z
" transform="scale(0.015625)"/>
       <path id="DejaVuSans-2212" d="M 678 2272 
L 4684 2272 
L 4684 1741 
L 678 1741 
L 678 2272 
z
" transform="scale(0.015625)"/>
       <path id="DejaVuSans-31" d="M 794 531 
L 1825 531 
L 1825 4091 
L 703 3866 
L 703 4441 
L 1819 4666 
L 2450 4666 
L 2450 531 
L 3481 531 
L 3481 0 
L 794 0 
L 794 531 
z
" transform="scale(0.015625)"/>
       <path id="DejaVuSans-5d" d="M 1947 4863 
L 1947 -844 
L 622 -844 
L 622 -397 
L 1369 -397 
L 1369 4416 
L 622 4416 
L 622 4863 
L 1947 4863 
z
" transform="scale(0.015625)"/>
      </defs>
      <use xlink:href="#DejaVuSans-Oblique-3bc" transform="translate(0 0.684375)"/>
      <use xlink:href="#DejaVuSans-Oblique-6d" transform="translate(63.623047 -15.721875) scale(0.7)"/>
      <use xlink:href="#DejaVuSans-Oblique-61" transform="translate(131.811523 -15.721875) scale(0.7)"/>
      <use xlink:href="#DejaVuSans-Oblique-78" transform="translate(174.707031 -15.721875) scale(0.7)"/>
      <use xlink:href="#ArialMT-20" transform="translate(218.867188 0.684375)"/>
      <use xlink:href="#DejaVuSans-5b" transform="translate(246.650391 0.684375)"/>
      <use xlink:href="#DejaVuSans-64" transform="translate(285.664062 0.684375)"/>
      <use xlink:href="#DejaVuSans-2212" transform="translate(350.097656 38.965625) scale(0.7)"/>
      <use xlink:href="#DejaVuSans-31" transform="translate(408.75 38.965625) scale(0.7)"/>
      <use xlink:href="#DejaVuSans-5d" transform="translate(456.020508 0.684375)"/>
     </g>
    </g>
   </g>
   <g id="QuadContourSet_1">
    <path d="M 52.201618 266.114979 
L 55.093236 263.513161 
L 57.984855 260.911342 
L 60.876473 258.309524 
L 63.768091 255.707706 
L 66.659709 253.105888 
L 67.43382 252.409359 
L 68.573599 250.50407 
L 69.551327 248.643631 
L 69.968213 247.902251 
L 71.253276 245.300433 
L 72.442945 243.298657 
L 72.770879 242.698615 
L 74.164048 240.096797 
L 74.58976 237.494979 
L 75.334564 235.419462 
L 75.582492 234.893161 
L 77.113928 232.291342 
L 78.226182 230.194088 
L 78.482079 229.689524 
L 79.247387 227.087706 
L 80.74746 224.485888 
L 81.1178 223.099945 
L 81.40315 221.88407 
L 82.505186 219.282251 
L 83.661739 216.680433 
L 84.009418 215.770055 
L 84.572104 214.078615 
L 85.377395 211.476797 
L 86.617495 208.874979 
L 86.901036 208.331435 
L 87.852481 206.273161 
L 88.808215 203.671342 
L 89.111983 201.069524 
L 89.792655 199.832638 
L 90.617375 198.467706 
L 91.411247 195.865888 
L 92.513853 193.41741 
L 89.792655 195.865888 
L 89.792655 198.467706 
L 86.901036 201.069524 
L 86.901036 203.671342 
L 84.009418 206.273161 
L 84.009418 208.874979 
L 81.1178 211.476797 
L 81.1178 214.078615 
L 78.226182 216.680433 
L 75.334564 219.282251 
L 75.334564 221.88407 
L 72.442945 224.485888 
L 72.442945 227.087706 
L 69.551327 229.689524 
L 69.551327 232.291342 
L 66.659709 234.893161 
L 66.659709 237.494979 
L 63.768091 240.096797 
L 63.768091 242.698615 
L 63.768091 245.300433 
L 60.876473 247.902251 
L 60.876473 250.50407 
L 57.984855 253.105888 
L 57.984855 255.707706 
L 55.093236 258.309524 
L 55.093236 260.911342 
L 52.201618 263.513161 
z
M 93.587266 190.662251 
L 94.135693 189.356293 
L 92.684273 190.662251 
L 92.684273 193.005997 
z
M 95.814703 185.458615 
L 95.985237 185.090294 
L 95.575891 185.458615 
L 95.575891 185.966955 
z
" clip-path="url(#pf5a94989e2)" style="fill: #471365"/>
    <path d="M 67.43382 252.409359 
L 69.551327 250.50407 
L 72.442945 247.902251 
L 75.334564 245.300433 
L 78.226182 242.698615 
L 81.1178 240.096797 
L 84.009418 237.494979 
L 86.901036 234.893161 
L 89.792655 232.291342 
L 92.684273 229.689524 
L 95.575891 227.087706 
L 97.227862 225.601297 
L 97.62045 224.485888 
L 98.467509 221.895276 
L 98.471257 221.88407 
L 100.019563 219.282251 
L 101.359127 216.807588 
L 101.431493 216.680433 
L 103.161054 214.078615 
L 104.250745 212.495943 
L 104.965316 211.476797 
L 106.649206 208.874979 
L 107.142364 208.036436 
L 108.17937 206.273161 
L 109.606209 203.671342 
L 110.033982 202.992527 
L 111.054222 201.069524 
L 112.089833 198.467706 
L 112.133242 195.865888 
L 112.822495 193.26407 
L 112.900448 190.662251 
L 112.9256 190.57966 
L 114.021086 188.060433 
L 114.865778 185.458615 
L 115.817218 184.802605 
L 117.734732 182.856797 
L 117.220641 180.254979 
L 118.131344 177.653161 
L 118.708836 177.026489 
L 120.204462 175.051342 
L 121.452587 172.449524 
L 121.600455 171.688919 
L 122.016319 169.847706 
L 123.349503 167.245888 
L 124.492073 166.000542 
L 125.514358 164.64407 
L 124.492073 162.551689 
L 124.217451 162.042251 
L 124.492073 161.548088 
L 127.383691 159.826577 
L 127.667009 159.440433 
L 127.432684 156.838615 
L 128.572804 154.236797 
L 129.658534 151.634979 
L 130.275309 150.287125 
L 130.891853 149.033161 
L 132.215678 146.431342 
L 133.156804 143.829524 
L 133.166927 143.806509 
L 134.367645 141.227706 
L 135.450472 138.625888 
L 136.058545 137.243689 
L 136.659299 136.02407 
L 137.743969 133.422251 
L 138.889024 130.820433 
L 138.950164 130.681306 
L 140.096171 128.218615 
L 141.185121 125.616797 
L 141.841782 124.122205 
L 142.38664 123.014979 
L 143.481049 120.413161 
L 144.552386 117.974215 
L 141.841782 120.413161 
L 141.841782 123.014979 
L 138.950164 125.616797 
L 138.950164 128.218615 
L 136.058545 130.820433 
L 133.166927 133.422251 
L 133.166927 136.02407 
L 130.275309 138.625888 
L 127.383691 141.227706 
L 127.383691 143.829524 
L 124.492073 146.431342 
L 121.600455 149.033161 
L 121.600455 151.634979 
L 118.708836 154.236797 
L 115.817218 156.838615 
L 115.817218 159.440433 
L 112.9256 162.042251 
L 112.9256 164.64407 
L 110.033982 167.245888 
L 107.142364 169.847706 
L 107.142364 172.449524 
L 104.250745 175.051342 
L 101.359127 177.653161 
L 101.359127 180.254979 
L 98.467509 182.856797 
L 95.985237 185.090294 
L 95.814703 185.458615 
L 95.575891 185.966955 
L 95.575891 188.060433 
L 94.135693 189.356293 
L 93.587266 190.662251 
L 92.684273 193.005997 
L 92.684273 193.26407 
L 92.513853 193.41741 
L 91.411247 195.865888 
L 90.617375 198.467706 
L 89.792655 199.832638 
L 89.111983 201.069524 
L 88.808215 203.671342 
L 87.852481 206.273161 
L 86.901036 208.331435 
L 86.617495 208.874979 
L 85.377395 211.476797 
L 84.572104 214.078615 
L 84.009418 215.770055 
L 83.661739 216.680433 
L 82.505186 219.282251 
L 81.40315 221.88407 
L 81.1178 223.099945 
L 80.74746 224.485888 
L 79.247387 227.087706 
L 78.482079 229.689524 
L 78.226182 230.194088 
L 77.113928 232.291342 
L 75.582492 234.893161 
L 75.334564 235.419462 
L 74.58976 237.494979 
L 74.164048 240.096797 
L 72.770879 242.698615 
L 72.442945 243.298657 
L 71.253276 245.300433 
L 69.968213 247.902251 
L 69.551327 248.643631 
L 68.573599 250.50407 
z
" clip-path="url(#pf5a94989e2)" style="fill: #463480"/>
    <path d="M 97.227862 225.601297 
L 98.467509 224.485888 
L 101.359127 221.88407 
L 104.250745 219.282251 
L 107.142364 216.680433 
L 110.033982 214.078615 
L 112.9256 211.476797 
L 115.817218 208.874979 
L 118.708836 206.273161 
L 121.600455 203.671342 
L 124.492073 201.069524 
L 127.021904 198.793234 
L 127.064748 198.467706 
L 127.383691 196.007748 
L 127.402116 195.865888 
L 128.81003 193.26407 
L 130.186428 190.662251 
L 130.275309 190.492968 
L 131.62006 188.060433 
L 133.043666 185.458615 
L 133.166927 185.26648 
L 134.744401 182.856797 
L 136.058545 180.77724 
L 136.395463 180.254979 
L 137.791656 177.653161 
L 138.950164 175.33937 
L 139.09506 175.051342 
L 139.989207 172.449524 
L 140.186569 169.847706 
L 140.732681 167.245888 
L 141.841782 165.17492 
L 142.126077 164.64407 
L 143.617818 162.042251 
L 144.7334 160.348143 
L 145.347405 159.440433 
L 146.634758 156.838615 
L 146.347735 154.236797 
L 147.625018 153.010088 
L 149.216198 151.634979 
L 150.516636 150.621941 
L 152.351623 149.033161 
L 152.658119 146.431342 
L 153.130553 143.829524 
L 153.408255 143.039854 
L 154.086298 141.227706 
L 155.067701 138.625888 
L 155.882841 136.02407 
L 156.035716 133.422251 
L 154.770264 130.820433 
L 156.299873 130.061846 
L 158.486923 128.218615 
L 159.191491 126.990604 
L 160.515174 125.616797 
L 159.560593 123.014979 
L 161.068443 120.413161 
L 162.083109 117.964201 
L 162.129737 117.811342 
L 162.083109 117.703395 
L 160.672036 115.209524 
L 162.083109 113.459721 
L 163.007727 112.607706 
L 164.974727 111.285701 
L 166.794543 110.005888 
L 167.660222 107.40407 
L 167.866345 106.469191 
L 168.209673 104.802251 
L 169.32233 102.200433 
L 170.518485 99.598615 
L 170.757964 99.148971 
L 171.904203 96.996797 
L 173.28992 94.394979 
L 173.649582 93.719679 
L 174.675637 91.793161 
L 176.021684 89.191342 
L 176.5412 88.061357 
L 177.233447 86.589524 
L 178.343674 83.987706 
L 179.422698 81.385888 
L 179.432818 81.361486 
L 180.501723 78.78407 
L 181.580748 76.182251 
L 182.324436 74.389018 
L 182.659772 73.580433 
L 182.859396 73.099088 
L 182.324436 73.580433 
L 179.432818 76.182251 
L 179.432818 78.78407 
L 176.5412 81.385888 
L 173.649582 83.987706 
L 170.757964 86.589524 
L 167.866345 89.191342 
L 167.866345 91.793161 
L 164.974727 94.394979 
L 162.083109 96.996797 
L 159.191491 99.598615 
L 156.299873 102.200433 
L 156.299873 104.802251 
L 153.408255 107.40407 
L 150.516636 110.005888 
L 147.625018 112.607706 
L 147.625018 115.209524 
L 144.7334 117.811342 
L 144.552386 117.974215 
L 143.481049 120.413161 
L 142.38664 123.014979 
L 141.841782 124.122205 
L 141.185121 125.616797 
L 140.096171 128.218615 
L 138.950164 130.681306 
L 138.889024 130.820433 
L 137.743969 133.422251 
L 136.659299 136.02407 
L 136.058545 137.243689 
L 135.450472 138.625888 
L 134.367645 141.227706 
L 133.166927 143.806509 
L 133.156804 143.829524 
L 132.215678 146.431342 
L 130.891853 149.033161 
L 130.275309 150.287125 
L 129.658534 151.634979 
L 128.572804 154.236797 
L 127.432684 156.838615 
L 127.667009 159.440433 
L 127.383691 159.826577 
L 124.492073 161.548088 
L 124.217451 162.042251 
L 124.492073 162.551689 
L 125.514358 164.64407 
L 124.492073 166.000542 
L 123.349503 167.245888 
L 122.016319 169.847706 
L 121.600455 171.688919 
L 121.452587 172.449524 
L 120.204462 175.051342 
L 118.708836 177.026489 
L 118.131344 177.653161 
L 117.220641 180.254979 
L 117.734732 182.856797 
L 115.817218 184.802605 
L 114.865778 185.458615 
L 114.021086 188.060433 
L 112.9256 190.57966 
L 112.900448 190.662251 
L 112.822495 193.26407 
L 112.133242 195.865888 
L 112.089833 198.467706 
L 111.054222 201.069524 
L 110.033982 202.992527 
L 109.606209 203.671342 
L 108.17937 206.273161 
L 107.142364 208.036436 
L 106.649206 208.874979 
L 104.965316 211.476797 
L 104.250745 212.495943 
L 103.161054 214.078615 
L 101.431493 216.680433 
L 101.359127 216.807588 
L 100.019563 219.282251 
L 98.471257 221.88407 
L 98.467509 221.895276 
L 97.62045 224.485888 
z
" clip-path="url(#pf5a94989e2)" style="fill: #3b528b"/>
    <path d="M 127.021904 198.793234 
L 127.383691 198.467706 
L 130.275309 195.865888 
L 133.166927 193.26407 
L 136.058545 190.662251 
L 138.950164 188.060433 
L 141.841782 185.458615 
L 144.7334 182.856797 
L 147.625018 180.254979 
L 150.516636 177.653161 
L 153.408255 175.051342 
L 156.299873 172.449524 
L 156.815947 171.985172 
L 157.093566 169.847706 
L 157.968888 167.245888 
L 159.059891 164.64407 
L 159.191491 164.402128 
L 160.475103 162.042251 
L 161.890315 159.440433 
L 162.083109 159.085988 
L 163.305527 156.838615 
L 164.691539 154.236797 
L 164.974727 153.55862 
L 165.824735 151.634979 
L 167.058018 149.033161 
L 167.866345 146.738759 
L 167.994035 146.431342 
L 169.301617 143.829524 
L 170.305118 141.227706 
L 170.757964 140.156957 
L 171.518661 138.625888 
L 172.630142 136.02407 
L 173.649582 133.541883 
L 173.707482 133.422251 
L 174.934686 130.820433 
L 176.00715 128.218615 
L 176.5412 127.015987 
L 177.21762 125.616797 
L 178.317925 123.014979 
L 179.432818 120.504349 
L 179.477729 120.413161 
L 180.6287 117.811342 
L 181.099664 115.209524 
L 182.324436 113.013892 
L 182.556389 112.607706 
L 184.849459 110.005888 
L 185.216055 109.589463 
L 186.81974 107.40407 
L 188.107673 105.700919 
L 188.705503 104.802251 
L 190.05355 102.200433 
L 190.60385 99.598615 
L 190.999291 97.579065 
L 191.120786 96.996797 
L 191.663676 94.394979 
L 192.206566 91.793161 
L 193.890909 90.39461 
L 195.046009 89.191342 
L 195.760432 86.589524 
L 195.716521 83.987706 
L 196.706901 81.385888 
L 196.782527 81.260239 
L 198.39747 78.78407 
L 199.674145 76.24942 
L 199.708329 76.182251 
L 200.832554 73.580433 
L 201.956779 70.978615 
L 202.565764 69.56923 
L 203.081005 68.376797 
L 204.20523 65.774979 
L 205.327464 63.173161 
L 205.457382 62.866984 
L 206.429024 60.571342 
L 207.527436 57.969524 
L 208.349 56.001829 
L 208.613763 55.367706 
L 208.847058 52.765888 
L 208.856576 50.16407 
L 208.349 50.16407 
L 205.457382 52.765888 
L 202.565764 52.765888 
L 199.674145 55.367706 
L 196.782527 57.969524 
L 193.890909 60.571342 
L 190.999291 63.173161 
L 190.999291 65.774979 
L 188.107673 68.376797 
L 185.216055 70.978615 
L 182.859396 73.099088 
L 182.659772 73.580433 
L 182.324436 74.389018 
L 181.580748 76.182251 
L 180.501723 78.78407 
L 179.432818 81.361486 
L 179.422698 81.385888 
L 178.343674 83.987706 
L 177.233447 86.589524 
L 176.5412 88.061357 
L 176.021684 89.191342 
L 174.675637 91.793161 
L 173.649582 93.719679 
L 173.28992 94.394979 
L 171.904203 96.996797 
L 170.757964 99.148971 
L 170.518485 99.598615 
L 169.32233 102.200433 
L 168.209673 104.802251 
L 167.866345 106.469191 
L 167.660222 107.40407 
L 166.794543 110.005888 
L 164.974727 111.285701 
L 163.007727 112.607706 
L 162.083109 113.459721 
L 160.672036 115.209524 
L 162.083109 117.703395 
L 162.129737 117.811342 
L 162.083109 117.964201 
L 161.068443 120.413161 
L 159.560593 123.014979 
L 160.515174 125.616797 
L 159.191491 126.990604 
L 158.486923 128.218615 
L 156.299873 130.061846 
L 154.770264 130.820433 
L 156.035716 133.422251 
L 155.882841 136.02407 
L 155.067701 138.625888 
L 154.086298 141.227706 
L 153.408255 143.039854 
L 153.130553 143.829524 
L 152.658119 146.431342 
L 152.351623 149.033161 
L 150.516636 150.621941 
L 149.216198 151.634979 
L 147.625018 153.010088 
L 146.347735 154.236797 
L 146.634758 156.838615 
L 145.347405 159.440433 
L 144.7334 160.348143 
L 143.617818 162.042251 
L 142.126077 164.64407 
L 141.841782 165.17492 
L 140.732681 167.245888 
L 140.186569 169.847706 
L 139.989207 172.449524 
L 139.09506 175.051342 
L 138.950164 175.33937 
L 137.791656 177.653161 
L 136.395463 180.254979 
L 136.058545 180.77724 
L 134.744401 182.856797 
L 133.166927 185.26648 
L 133.043666 185.458615 
L 131.62006 188.060433 
L 130.275309 190.492968 
L 130.186428 190.662251 
L 128.81003 193.26407 
L 127.402116 195.865888 
L 127.383691 196.007748 
L 127.064748 198.467706 
z
" clip-path="url(#pf5a94989e2)" style="fill: #2f6c8e"/>
    <path d="M 156.815947 171.985172 
L 159.191491 169.847706 
L 162.083109 167.245888 
L 164.974727 164.64407 
L 167.866345 162.042251 
L 170.757964 159.440433 
L 173.649582 156.838615 
L 176.5412 154.236797 
L 179.432818 151.634979 
L 182.324436 149.033161 
L 185.216055 146.431342 
L 186.609989 145.177109 
L 186.785017 143.829524 
L 187.250547 141.227706 
L 187.939545 138.625888 
L 188.107673 138.31679 
L 189.354757 136.02407 
L 190.76062 133.422251 
L 190.999291 132.955789 
L 192.100927 130.820433 
L 193.348001 128.218615 
L 193.890909 126.911551 
L 194.428704 125.616797 
L 195.509406 123.014979 
L 196.590109 120.413161 
L 196.782527 119.949909 
L 197.670811 117.811342 
L 198.751514 115.209524 
L 199.674145 112.988266 
L 199.832216 112.607706 
L 200.912919 110.005888 
L 201.993621 107.40407 
L 202.565764 106.026623 
L 203.074324 104.802251 
L 204.407938 102.200433 
L 205.457382 100.387616 
L 205.914136 99.598615 
L 207.420335 96.996797 
L 208.349 95.392614 
L 208.926533 94.394979 
L 210.531775 91.793161 
L 211.240618 90.718468 
L 212.234114 89.191342 
L 211.789666 86.589524 
L 211.240618 85.523863 
L 210.80339 83.987706 
L 211.240618 83.528441 
L 213.280361 81.385888 
L 214.132236 80.228587 
L 215.240009 78.78407 
L 216.725678 76.182251 
L 217.023855 75.492175 
L 217.849903 73.580433 
L 218.974129 70.978615 
L 219.915473 68.800042 
L 220.098354 68.376797 
L 221.222579 65.774979 
L 222.346804 63.173161 
L 222.807091 62.10791 
L 223.460079 60.571342 
L 224.404074 57.969524 
L 225.31366 55.367706 
L 225.698709 54.266297 
L 226.223247 52.765888 
L 225.698709 51.9995 
L 224.262465 50.16407 
L 223.693183 47.562251 
L 225.572478 44.960433 
L 222.807091 44.960433 
L 219.915473 47.562251 
L 217.023855 47.562251 
L 214.132236 50.16407 
L 211.240618 50.16407 
L 208.856576 50.16407 
L 208.847058 52.765888 
L 208.613763 55.367706 
L 208.349 56.001829 
L 207.527436 57.969524 
L 206.429024 60.571342 
L 205.457382 62.866984 
L 205.327464 63.173161 
L 204.20523 65.774979 
L 203.081005 68.376797 
L 202.565764 69.56923 
L 201.956779 70.978615 
L 200.832554 73.580433 
L 199.708329 76.182251 
L 199.674145 76.24942 
L 198.39747 78.78407 
L 196.782527 81.260239 
L 196.706901 81.385888 
L 195.716521 83.987706 
L 195.760432 86.589524 
L 195.046009 89.191342 
L 193.890909 90.39461 
L 192.206566 91.793161 
L 191.663676 94.394979 
L 191.120786 96.996797 
L 190.999291 97.579065 
L 190.60385 99.598615 
L 190.05355 102.200433 
L 188.705503 104.802251 
L 188.107673 105.700919 
L 186.81974 107.40407 
L 185.216055 109.589463 
L 184.849459 110.005888 
L 182.556389 112.607706 
L 182.324436 113.013892 
L 181.099664 115.209524 
L 180.6287 117.811342 
L 179.477729 120.413161 
L 179.432818 120.504349 
L 178.317925 123.014979 
L 177.21762 125.616797 
L 176.5412 127.015987 
L 176.00715 128.218615 
L 174.934686 130.820433 
L 173.707482 133.422251 
L 173.649582 133.541883 
L 172.630142 136.02407 
L 171.518661 138.625888 
L 170.757964 140.156957 
L 170.305118 141.227706 
L 169.301617 143.829524 
L 167.994035 146.431342 
L 167.866345 146.738759 
L 167.058018 149.033161 
L 165.824735 151.634979 
L 164.974727 153.55862 
L 164.691539 154.236797 
L 163.305527 156.838615 
L 162.083109 159.085988 
L 161.890315 159.440433 
L 160.475103 162.042251 
L 159.191491 164.402128 
L 159.059891 164.64407 
L 157.968888 167.245888 
L 157.093566 169.847706 
z
" clip-path="url(#pf5a94989e2)" style="fill: #25848e"/>
    <path d="M 186.609989 145.177109 
L 188.107673 143.829524 
L 190.999291 141.227706 
L 193.890909 138.625888 
L 196.782527 136.02407 
L 199.674145 133.422251 
L 202.565764 130.820433 
L 205.457382 128.218615 
L 208.349 125.616797 
L 211.240618 123.014979 
L 214.132236 120.413161 
L 216.404031 118.369047 
L 216.476467 117.811342 
L 216.814399 115.209524 
L 217.023855 113.596869 
L 217.15233 112.607706 
L 218.386961 110.005888 
L 219.613992 107.40407 
L 219.915473 106.745699 
L 220.813463 104.802251 
L 221.944075 102.200433 
L 222.807091 100.122701 
L 223.024778 99.598615 
L 224.10548 96.996797 
L 225.186183 94.394979 
L 225.698709 93.162661 
L 226.268014 91.793161 
L 227.709872 89.191342 
L 228.590327 87.670437 
L 229.21607 86.589524 
L 230.722269 83.987706 
L 230.288087 81.385888 
L 231.481945 79.856434 
L 231.923566 78.78407 
L 233.743027 76.182251 
L 234.373564 74.722988 
L 234.867252 73.580433 
L 235.991478 70.978615 
L 237.115703 68.376797 
L 237.265182 68.012672 
L 238.154751 65.774979 
L 239.064338 63.173161 
L 239.973924 60.571342 
L 240.1568 60.048237 
L 240.883511 57.969524 
L 241.793097 55.367706 
L 242.702684 52.765888 
L 243.048418 51.776935 
L 243.61227 50.16407 
L 244.521857 47.562251 
L 245.135281 44.960433 
L 243.048418 44.400146 
L 240.1568 44.416055 
L 238.603866 42.358615 
L 240.1568 41.682476 
L 242.502983 39.756797 
L 240.1568 39.756797 
L 237.265182 39.756797 
L 234.373564 42.358615 
L 231.481945 42.358615 
L 228.590327 44.960433 
L 225.698709 44.960433 
L 225.572478 44.960433 
L 223.693183 47.562251 
L 224.262465 50.16407 
L 225.698709 51.9995 
L 226.223247 52.765888 
L 225.698709 54.266297 
L 225.31366 55.367706 
L 224.404074 57.969524 
L 223.460079 60.571342 
L 222.807091 62.10791 
L 222.346804 63.173161 
L 221.222579 65.774979 
L 220.098354 68.376797 
L 219.915473 68.800042 
L 218.974129 70.978615 
L 217.849903 73.580433 
L 217.023855 75.492175 
L 216.725678 76.182251 
L 215.240009 78.78407 
L 214.132236 80.228587 
L 213.280361 81.385888 
L 211.240618 83.528441 
L 210.80339 83.987706 
L 211.240618 85.523863 
L 211.789666 86.589524 
L 212.234114 89.191342 
L 211.240618 90.718468 
L 210.531775 91.793161 
L 208.926533 94.394979 
L 208.349 95.392614 
L 207.420335 96.996797 
L 205.914136 99.598615 
L 205.457382 100.387616 
L 204.407938 102.200433 
L 203.074324 104.802251 
L 202.565764 106.026623 
L 201.993621 107.40407 
L 200.912919 110.005888 
L 199.832216 112.607706 
L 199.674145 112.988266 
L 198.751514 115.209524 
L 197.670811 117.811342 
L 196.782527 119.949909 
L 196.590109 120.413161 
L 195.509406 123.014979 
L 194.428704 125.616797 
L 193.890909 126.911551 
L 193.348001 128.218615 
L 192.100927 130.820433 
L 190.999291 132.955789 
L 190.76062 133.422251 
L 189.354757 136.02407 
L 188.107673 138.31679 
L 187.939545 138.625888 
L 187.250547 141.227706 
L 186.785017 143.829524 
z
M 245.940036 37.781699 
L 247.030651 37.154979 
L 245.940036 37.154979 
L 244.012442 38.889388 
z
" clip-path="url(#pf5a94989e2)" style="fill: #1e9c89"/>
    <path d="M 216.404031 118.369047 
L 217.023855 117.811342 
L 219.915473 115.209524 
L 222.807091 112.607706 
L 225.698709 110.005888 
L 228.590327 107.40407 
L 231.481945 104.802251 
L 234.373564 102.200433 
L 237.265182 99.598615 
L 240.1568 96.996797 
L 243.048418 94.394979 
L 245.940036 91.793161 
L 246.198073 91.560984 
L 246.505849 89.191342 
L 246.84378 86.589524 
L 247.527601 83.987706 
L 248.378744 81.385888 
L 248.831655 80.414503 
L 249.558565 78.78407 
L 250.56006 76.182251 
L 251.723273 73.884881 
L 251.880916 73.580433 
L 252.815015 70.978615 
L 253.724602 68.376797 
L 254.614891 65.830177 
L 254.634188 65.774979 
L 255.543775 63.173161 
L 256.453361 60.571342 
L 257.362948 57.969524 
L 257.506509 57.558875 
L 258.272534 55.367706 
L 259.182121 52.765888 
L 260.091707 50.16407 
L 260.398127 49.287574 
L 261.001294 47.562251 
L 261.91088 44.960433 
L 262.820467 42.358615 
L 263.289745 41.016272 
L 263.730054 39.756797 
L 263.289745 39.537503 
L 260.398127 38.791252 
L 257.506509 38.694372 
L 254.966911 37.154979 
L 257.506509 35.798529 
L 259.433487 34.553161 
L 260.398127 33.998832 
L 263.289745 32.337167 
L 263.961156 31.951342 
L 266.181364 30.675503 
L 268.488825 29.349524 
L 266.181364 29.349524 
L 263.289745 31.951342 
L 260.398127 31.951342 
L 257.506509 34.553161 
L 254.614891 34.553161 
L 251.723273 34.553161 
L 248.831655 37.154979 
L 247.030651 37.154979 
L 245.940036 37.781699 
L 244.012442 38.889388 
L 243.048418 39.756797 
L 242.502983 39.756797 
L 240.1568 41.682476 
L 238.603866 42.358615 
L 240.1568 44.416055 
L 243.048418 44.400146 
L 245.135281 44.960433 
L 244.521857 47.562251 
L 243.61227 50.16407 
L 243.048418 51.776935 
L 242.702684 52.765888 
L 241.793097 55.367706 
L 240.883511 57.969524 
L 240.1568 60.048237 
L 239.973924 60.571342 
L 239.064338 63.173161 
L 238.154751 65.774979 
L 237.265182 68.012672 
L 237.115703 68.376797 
L 235.991478 70.978615 
L 234.867252 73.580433 
L 234.373564 74.722988 
L 233.743027 76.182251 
L 231.923566 78.78407 
L 231.481945 79.856434 
L 230.288087 81.385888 
L 230.722269 83.987706 
L 229.21607 86.589524 
L 228.590327 87.670437 
L 227.709872 89.191342 
L 226.268014 91.793161 
L 225.698709 93.162661 
L 225.186183 94.394979 
L 224.10548 96.996797 
L 223.024778 99.598615 
L 222.807091 100.122701 
L 221.944075 102.200433 
L 220.813463 104.802251 
L 219.915473 106.745699 
L 219.613992 107.40407 
L 218.386961 110.005888 
L 217.15233 112.607706 
L 217.023855 113.596869 
L 216.814399 115.209524 
L 216.476467 117.811342 
z
" clip-path="url(#pf5a94989e2)" style="fill: #2fb47c"/>
    <path d="M 246.198073 91.560984 
L 248.831655 89.191342 
L 251.723273 86.589524 
L 254.614891 83.987706 
L 257.506509 81.385888 
L 260.398127 78.78407 
L 263.289745 76.182251 
L 266.181364 73.580433 
L 269.072982 70.978615 
L 271.9646 68.376797 
L 274.856218 65.774979 
L 275.992116 64.752922 
L 276.197299 63.173161 
L 276.535231 60.571342 
L 277.05006 57.969524 
L 277.747836 55.995808 
L 277.969683 55.367706 
L 278.89137 52.765888 
L 279.813057 50.16407 
L 280.639455 47.831244 
L 280.734744 47.562251 
L 281.656432 44.960433 
L 282.578119 42.358615 
L 283.499806 39.756797 
L 283.531073 39.668534 
L 284.421493 37.154979 
L 285.34318 34.553161 
L 286.264867 31.951342 
L 286.422691 31.368752 
L 287.014049 29.349524 
L 286.422691 28.862433 
L 283.531073 28.084402 
L 280.639455 28.064889 
L 277.747836 28.045376 
L 277.389642 26.747706 
L 274.856218 26.747706 
L 271.9646 29.349524 
L 269.072982 29.349524 
L 268.488825 29.349524 
L 266.181364 30.675503 
L 263.961156 31.951342 
L 263.289745 32.337167 
L 260.398127 33.998832 
L 259.433487 34.553161 
L 257.506509 35.798529 
L 254.966911 37.154979 
L 257.506509 38.694372 
L 260.398127 38.791252 
L 263.289745 39.537503 
L 263.730054 39.756797 
L 263.289745 41.016272 
L 262.820467 42.358615 
L 261.91088 44.960433 
L 261.001294 47.562251 
L 260.398127 49.287574 
L 260.091707 50.16407 
L 259.182121 52.765888 
L 258.272534 55.367706 
L 257.506509 57.558875 
L 257.362948 57.969524 
L 256.453361 60.571342 
L 255.543775 63.173161 
L 254.634188 65.774979 
L 254.614891 65.830177 
L 253.724602 68.376797 
L 252.815015 70.978615 
L 251.880916 73.580433 
L 251.723273 73.884881 
L 250.56006 76.182251 
L 249.558565 78.78407 
L 248.831655 80.414503 
L 248.378744 81.385888 
L 247.527601 83.987706 
L 246.84378 86.589524 
L 246.505849 89.191342 
z
M 283.531073 26.090751 
L 284.976727 24.145888 
L 283.531073 24.145888 
L 281.361587 26.097946 
z
" clip-path="url(#pf5a94989e2)" style="fill: #5ec962"/>
    <path d="M 275.992116 64.752922 
L 277.747836 63.173161 
L 280.639455 60.571342 
L 283.531073 57.969524 
L 286.422691 55.367706 
L 289.314309 52.765888 
L 292.205927 50.16407 
L 295.097545 47.562251 
L 297.989164 44.960433 
L 300.880782 42.358615 
L 303.7724 39.756797 
L 305.786158 37.944859 
L 305.88875 37.154979 
L 306.315294 34.553161 
L 306.664018 33.567761 
L 307.235785 31.951342 
L 308.157472 29.349524 
L 309.079159 26.747706 
L 309.555636 25.402665 
L 310.000846 24.145888 
L 310.922533 21.54407 
L 311.413046 18.942251 
L 309.555636 18.942251 
L 306.664018 18.942251 
L 303.7724 21.54407 
L 300.880782 21.54407 
L 297.989164 21.54407 
L 295.097545 21.54407 
L 292.205927 24.145888 
L 289.314309 24.145888 
L 286.422691 24.145888 
L 284.976727 24.145888 
L 283.531073 26.090751 
L 281.361587 26.097946 
L 280.639455 26.747706 
L 277.747836 26.747706 
L 277.389642 26.747706 
L 277.747836 28.045376 
L 280.639455 28.064889 
L 283.531073 28.084402 
L 286.422691 28.862433 
L 287.014049 29.349524 
L 286.422691 31.368752 
L 286.264867 31.951342 
L 285.34318 34.553161 
L 284.421493 37.154979 
L 283.531073 39.668534 
L 283.499806 39.756797 
L 282.578119 42.358615 
L 281.656432 44.960433 
L 280.734744 47.562251 
L 280.639455 47.831244 
L 279.813057 50.16407 
L 278.89137 52.765888 
L 277.969683 55.367706 
L 277.747836 55.995808 
L 277.05006 57.969524 
L 276.535231 60.571342 
L 276.197299 63.173161 
z
" clip-path="url(#pf5a94989e2)" style="fill: #9bd93c"/>
    <path d="M 305.786158 37.944859 
L 306.664018 37.154979 
L 309.555636 34.553161 
L 312.447255 31.951342 
L 315.338873 29.349524 
L 318.230491 26.747706 
L 321.122109 24.145888 
L 324.013727 21.54407 
L 326.905345 18.942251 
L 329.796964 16.340433 
L 332.688582 13.738615 
L 329.796964 13.738615 
L 326.905345 13.738615 
L 324.013727 16.340433 
L 321.122109 16.340433 
L 318.230491 16.340433 
L 315.338873 16.340433 
L 312.447255 18.942251 
L 311.413046 18.942251 
L 310.922533 21.54407 
L 310.000846 24.145888 
L 309.555636 25.402665 
L 309.079159 26.747706 
L 308.157472 29.349524 
L 307.235785 31.951342 
L 306.664018 33.567761 
L 306.315294 34.553161 
L 305.88875 37.154979 
z
" clip-path="url(#pf5a94989e2)" style="fill: #dfe318"/>
   </g>
   <g id="patch_3">
    <path d="M 49.31 268.716797 
L 49.31 11.136797 
" style="fill: none; stroke: #cccccc; stroke-width: 1.25; stroke-linejoin: miter; stroke-linecap: square"/>
   </g>
   <g id="patch_4">
    <path d="M 335.5802 268.716797 
L 335.5802 11.136797 
" style="fill: none; stroke: #cccccc; stroke-width: 1.25; stroke-linejoin: miter; stroke-linecap: square"/>
   </g>
   <g id="patch_5">
    <path d="M 49.31 268.716797 
L 335.5802 268.716797 
" style="fill: none; stroke: #cccccc; stroke-width: 1.25; stroke-linejoin: miter; stroke-linecap: square"/>
   </g>
   <g id="patch_6">
    <path d="M 49.31 11.136797 
L 335.5802 11.136797 
" style="fill: none; stroke: #cccccc; stroke-width: 1.25; stroke-linejoin: miter; stroke-linecap: square"/>
   </g>
  </g>
  <g id="axes_2">
   <g id="patch_7">
    <path d="M 353.472087 268.716797 
L 366.351087 268.716797 
L 366.351087 11.136797 
L 353.472087 11.136797 
z
" style="fill: #ffffff"/>
   </g>
   <g id="matplotlib.axis_3"/>
   <g id="matplotlib.axis_4">
    <g id="ytick_7">
     <g id="line2d_11">
      <defs>
       <path id="m71d88f4bb4" d="M 0 0 
L 6 0 
" style="stroke: #262626; stroke-width: 1.25"/>
      </defs>
      <g>
       <use xlink:href="#m71d88f4bb4" x="366.351087" y="268.716797" style="fill: #262626; stroke: #262626; stroke-width: 1.25"/>
      </g>
     </g>
     <g id="text_13">
      <!-- 0.0 -->
      <g style="fill: #262626" transform="translate(375.851087 272.653594) scale(0.11 -0.11)">
       <use xlink:href="#ArialMT-30"/>
       <use xlink:href="#ArialMT-2e" transform="translate(55.615234 0)"/>
       <use xlink:href="#ArialMT-30" transform="translate(83.398438 0)"/>
      </g>
     </g>
    </g>
    <g id="ytick_8">
     <g id="line2d_12">
      <g>
       <use xlink:href="#m71d88f4bb4" x="366.351087" y="217.200797" style="fill: #262626; stroke: #262626; stroke-width: 1.25"/>
      </g>
     </g>
     <g id="text_14">
      <!-- 0.2 -->
      <g style="fill: #262626" transform="translate(375.851087 221.137594) scale(0.11 -0.11)">
       <use xlink:href="#ArialMT-30"/>
       <use xlink:href="#ArialMT-2e" transform="translate(55.615234 0)"/>
       <use xlink:href="#ArialMT-32" transform="translate(83.398438 0)"/>
      </g>
     </g>
    </g>
    <g id="ytick_9">
     <g id="line2d_13">
      <g>
       <use xlink:href="#m71d88f4bb4" x="366.351087" y="165.684797" style="fill: #262626; stroke: #262626; stroke-width: 1.25"/>
      </g>
     </g>
     <g id="text_15">
      <!-- 0.4 -->
      <g style="fill: #262626" transform="translate(375.851087 169.621594) scale(0.11 -0.11)">
       <use xlink:href="#ArialMT-30"/>
       <use xlink:href="#ArialMT-2e" transform="translate(55.615234 0)"/>
       <use xlink:href="#ArialMT-34" transform="translate(83.398438 0)"/>
      </g>
     </g>
    </g>
    <g id="ytick_10">
     <g id="line2d_14">
      <g>
       <use xlink:href="#m71d88f4bb4" x="366.351087" y="114.168797" style="fill: #262626; stroke: #262626; stroke-width: 1.25"/>
      </g>
     </g>
     <g id="text_16">
      <!-- 0.6 -->
      <g style="fill: #262626" transform="translate(375.851087 118.105594) scale(0.11 -0.11)">
       <use xlink:href="#ArialMT-30"/>
       <use xlink:href="#ArialMT-2e" transform="translate(55.615234 0)"/>
       <use xlink:href="#ArialMT-36" transform="translate(83.398438 0)"/>
      </g>
     </g>
    </g>
    <g id="ytick_11">
     <g id="line2d_15">
      <g>
       <use xlink:href="#m71d88f4bb4" x="366.351087" y="62.652797" style="fill: #262626; stroke: #262626; stroke-width: 1.25"/>
      </g>
     </g>
     <g id="text_17">
      <!-- 0.8 -->
      <g style="fill: #262626" transform="translate(375.851087 66.589594) scale(0.11 -0.11)">
       <use xlink:href="#ArialMT-30"/>
       <use xlink:href="#ArialMT-2e" transform="translate(55.615234 0)"/>
       <use xlink:href="#ArialMT-38" transform="translate(83.398438 0)"/>
      </g>
     </g>
    </g>
    <g id="ytick_12">
     <g id="line2d_16">
      <g>
       <use xlink:href="#m71d88f4bb4" x="366.351087" y="11.136797" style="fill: #262626; stroke: #262626; stroke-width: 1.25"/>
      </g>
     </g>
     <g id="text_18">
      <!-- 1.0 -->
      <g style="fill: #262626" transform="translate(375.851087 15.073594) scale(0.11 -0.11)">
       <use xlink:href="#ArialMT-31"/>
       <use xlink:href="#ArialMT-2e" transform="translate(55.615234 0)"/>
       <use xlink:href="#ArialMT-30" transform="translate(83.398438 0)"/>
      </g>
     </g>
    </g>
    <g id="text_19">
     <!-- Normalized Respiration Rate -->
     <g style="fill: #262626" transform="translate(403.730462 216.621797) rotate(-90) scale(0.12 -0.12)">
      <defs>
       <path id="ArialMT-4e" d="M 488 0 
L 488 4581 
L 1109 4581 
L 3516 984 
L 3516 4581 
L 4097 4581 
L 4097 0 
L 3475 0 
L 1069 3600 
L 1069 0 
L 488 0 
z
" transform="scale(0.015625)"/>
       <path id="ArialMT-6f" d="M 213 1659 
Q 213 2581 725 3025 
Q 1153 3394 1769 3394 
Q 2453 3394 2887 2945 
Q 3322 2497 3322 1706 
Q 3322 1066 3130 698 
Q 2938 331 2570 128 
Q 2203 -75 1769 -75 
Q 1072 -75 642 372 
Q 213 819 213 1659 
z
M 791 1659 
Q 791 1022 1069 705 
Q 1347 388 1769 388 
Q 2188 388 2466 706 
Q 2744 1025 2744 1678 
Q 2744 2294 2464 2611 
Q 2184 2928 1769 2928 
Q 1347 2928 1069 2612 
Q 791 2297 791 1659 
z
" transform="scale(0.015625)"/>
       <path id="ArialMT-72" d="M 416 0 
L 416 3319 
L 922 3319 
L 922 2816 
Q 1116 3169 1280 3281 
Q 1444 3394 1641 3394 
Q 1925 3394 2219 3213 
L 2025 2691 
Q 1819 2813 1613 2813 
Q 1428 2813 1281 2702 
Q 1134 2591 1072 2394 
Q 978 2094 978 1738 
L 978 0 
L 416 0 
z
" transform="scale(0.015625)"/>
       <path id="ArialMT-6d" d="M 422 0 
L 422 3319 
L 925 3319 
L 925 2853 
Q 1081 3097 1340 3245 
Q 1600 3394 1931 3394 
Q 2300 3394 2536 3241 
Q 2772 3088 2869 2813 
Q 3263 3394 3894 3394 
Q 4388 3394 4653 3120 
Q 4919 2847 4919 2278 
L 4919 0 
L 4359 0 
L 4359 2091 
Q 4359 2428 4304 2576 
Q 4250 2725 4106 2815 
Q 3963 2906 3769 2906 
Q 3419 2906 3187 2673 
Q 2956 2441 2956 1928 
L 2956 0 
L 2394 0 
L 2394 2156 
Q 2394 2531 2256 2718 
Q 2119 2906 1806 2906 
Q 1569 2906 1367 2781 
Q 1166 2656 1075 2415 
Q 984 2175 984 1722 
L 984 0 
L 422 0 
z
" transform="scale(0.015625)"/>
       <path id="ArialMT-61" d="M 2588 409 
Q 2275 144 1986 34 
Q 1697 -75 1366 -75 
Q 819 -75 525 192 
Q 231 459 231 875 
Q 231 1119 342 1320 
Q 453 1522 633 1644 
Q 813 1766 1038 1828 
Q 1203 1872 1538 1913 
Q 2219 1994 2541 2106 
Q 2544 2222 2544 2253 
Q 2544 2597 2384 2738 
Q 2169 2928 1744 2928 
Q 1347 2928 1158 2789 
Q 969 2650 878 2297 
L 328 2372 
Q 403 2725 575 2942 
Q 747 3159 1072 3276 
Q 1397 3394 1825 3394 
Q 2250 3394 2515 3294 
Q 2781 3194 2906 3042 
Q 3031 2891 3081 2659 
Q 3109 2516 3109 2141 
L 3109 1391 
Q 3109 606 3145 398 
Q 3181 191 3288 0 
L 2700 0 
Q 2613 175 2588 409 
z
M 2541 1666 
Q 2234 1541 1622 1453 
Q 1275 1403 1131 1340 
Q 988 1278 909 1158 
Q 831 1038 831 891 
Q 831 666 1001 516 
Q 1172 366 1500 366 
Q 1825 366 2078 508 
Q 2331 650 2450 897 
Q 2541 1088 2541 1459 
L 2541 1666 
z
" transform="scale(0.015625)"/>
       <path id="ArialMT-6c" d="M 409 0 
L 409 4581 
L 972 4581 
L 972 0 
L 409 0 
z
" transform="scale(0.015625)"/>
       <path id="ArialMT-69" d="M 425 3934 
L 425 4581 
L 988 4581 
L 988 3934 
L 425 3934 
z
M 425 0 
L 425 3319 
L 988 3319 
L 988 0 
L 425 0 
z
" transform="scale(0.015625)"/>
       <path id="ArialMT-7a" d="M 125 0 
L 125 456 
L 2238 2881 
Q 1878 2863 1603 2863 
L 250 2863 
L 250 3319 
L 2963 3319 
L 2963 2947 
L 1166 841 
L 819 456 
Q 1197 484 1528 484 
L 3063 484 
L 3063 0 
L 125 0 
z
" transform="scale(0.015625)"/>
       <path id="ArialMT-65" d="M 2694 1069 
L 3275 997 
Q 3138 488 2766 206 
Q 2394 -75 1816 -75 
Q 1088 -75 661 373 
Q 234 822 234 1631 
Q 234 2469 665 2931 
Q 1097 3394 1784 3394 
Q 2450 3394 2872 2941 
Q 3294 2488 3294 1666 
Q 3294 1616 3291 1516 
L 816 1516 
Q 847 969 1125 678 
Q 1403 388 1819 388 
Q 2128 388 2347 550 
Q 2566 713 2694 1069 
z
M 847 1978 
L 2700 1978 
Q 2663 2397 2488 2606 
Q 2219 2931 1791 2931 
Q 1403 2931 1139 2672 
Q 875 2413 847 1978 
z
" transform="scale(0.015625)"/>
       <path id="ArialMT-64" d="M 2575 0 
L 2575 419 
Q 2259 -75 1647 -75 
Q 1250 -75 917 144 
Q 584 363 401 755 
Q 219 1147 219 1656 
Q 219 2153 384 2558 
Q 550 2963 881 3178 
Q 1213 3394 1622 3394 
Q 1922 3394 2156 3267 
Q 2391 3141 2538 2938 
L 2538 4581 
L 3097 4581 
L 3097 0 
L 2575 0 
z
M 797 1656 
Q 797 1019 1065 703 
Q 1334 388 1700 388 
Q 2069 388 2326 689 
Q 2584 991 2584 1609 
Q 2584 2291 2321 2609 
Q 2059 2928 1675 2928 
Q 1300 2928 1048 2622 
Q 797 2316 797 1656 
z
" transform="scale(0.015625)"/>
       <path id="ArialMT-52" d="M 503 0 
L 503 4581 
L 2534 4581 
Q 3147 4581 3465 4457 
Q 3784 4334 3975 4021 
Q 4166 3709 4166 3331 
Q 4166 2844 3850 2509 
Q 3534 2175 2875 2084 
Q 3116 1969 3241 1856 
Q 3506 1613 3744 1247 
L 4541 0 
L 3778 0 
L 3172 953 
Q 2906 1366 2734 1584 
Q 2563 1803 2427 1890 
Q 2291 1978 2150 2013 
Q 2047 2034 1813 2034 
L 1109 2034 
L 1109 0 
L 503 0 
z
M 1109 2559 
L 2413 2559 
Q 2828 2559 3062 2645 
Q 3297 2731 3419 2920 
Q 3541 3109 3541 3331 
Q 3541 3656 3305 3865 
Q 3069 4075 2559 4075 
L 1109 4075 
L 1109 2559 
z
" transform="scale(0.015625)"/>
       <path id="ArialMT-73" d="M 197 991 
L 753 1078 
Q 800 744 1014 566 
Q 1228 388 1613 388 
Q 2000 388 2187 545 
Q 2375 703 2375 916 
Q 2375 1106 2209 1216 
Q 2094 1291 1634 1406 
Q 1016 1563 777 1677 
Q 538 1791 414 1992 
Q 291 2194 291 2438 
Q 291 2659 392 2848 
Q 494 3038 669 3163 
Q 800 3259 1026 3326 
Q 1253 3394 1513 3394 
Q 1903 3394 2198 3281 
Q 2494 3169 2634 2976 
Q 2775 2784 2828 2463 
L 2278 2388 
Q 2241 2644 2061 2787 
Q 1881 2931 1553 2931 
Q 1166 2931 1000 2803 
Q 834 2675 834 2503 
Q 834 2394 903 2306 
Q 972 2216 1119 2156 
Q 1203 2125 1616 2013 
Q 2213 1853 2448 1751 
Q 2684 1650 2818 1456 
Q 2953 1263 2953 975 
Q 2953 694 2789 445 
Q 2625 197 2315 61 
Q 2006 -75 1616 -75 
Q 969 -75 630 194 
Q 291 463 197 991 
z
" transform="scale(0.015625)"/>
       <path id="ArialMT-70" d="M 422 -1272 
L 422 3319 
L 934 3319 
L 934 2888 
Q 1116 3141 1344 3267 
Q 1572 3394 1897 3394 
Q 2322 3394 2647 3175 
Q 2972 2956 3137 2557 
Q 3303 2159 3303 1684 
Q 3303 1175 3120 767 
Q 2938 359 2589 142 
Q 2241 -75 1856 -75 
Q 1575 -75 1351 44 
Q 1128 163 984 344 
L 984 -1272 
L 422 -1272 
z
M 931 1641 
Q 931 1000 1190 694 
Q 1450 388 1819 388 
Q 2194 388 2461 705 
Q 2728 1022 2728 1688 
Q 2728 2322 2467 2637 
Q 2206 2953 1844 2953 
Q 1484 2953 1207 2617 
Q 931 2281 931 1641 
z
" transform="scale(0.015625)"/>
       <path id="ArialMT-74" d="M 1650 503 
L 1731 6 
Q 1494 -44 1306 -44 
Q 1000 -44 831 53 
Q 663 150 594 308 
Q 525 466 525 972 
L 525 2881 
L 113 2881 
L 113 3319 
L 525 3319 
L 525 4141 
L 1084 4478 
L 1084 3319 
L 1650 3319 
L 1650 2881 
L 1084 2881 
L 1084 941 
Q 1084 700 1114 631 
Q 1144 563 1211 522 
Q 1278 481 1403 481 
Q 1497 481 1650 503 
z
" transform="scale(0.015625)"/>
       <path id="ArialMT-6e" d="M 422 0 
L 422 3319 
L 928 3319 
L 928 2847 
Q 1294 3394 1984 3394 
Q 2284 3394 2536 3286 
Q 2788 3178 2913 3003 
Q 3038 2828 3088 2588 
Q 3119 2431 3119 2041 
L 3119 0 
L 2556 0 
L 2556 2019 
Q 2556 2363 2490 2533 
Q 2425 2703 2258 2804 
Q 2091 2906 1866 2906 
Q 1506 2906 1245 2678 
Q 984 2450 984 1813 
L 984 0 
L 422 0 
z
" transform="scale(0.015625)"/>
      </defs>
      <use xlink:href="#ArialMT-4e"/>
      <use xlink:href="#ArialMT-6f" transform="translate(72.216797 0)"/>
      <use xlink:href="#ArialMT-72" transform="translate(127.832031 0)"/>
      <use xlink:href="#ArialMT-6d" transform="translate(161.132812 0)"/>
      <use xlink:href="#ArialMT-61" transform="translate(244.433594 0)"/>
      <use xlink:href="#ArialMT-6c" transform="translate(300.048828 0)"/>
      <use xlink:href="#ArialMT-69" transform="translate(322.265625 0)"/>
      <use xlink:href="#ArialMT-7a" transform="translate(344.482422 0)"/>
      <use xlink:href="#ArialMT-65" transform="translate(394.482422 0)"/>
      <use xlink:href="#ArialMT-64" transform="translate(450.097656 0)"/>
      <use xlink:href="#ArialMT-20" transform="translate(505.712891 0)"/>
      <use xlink:href="#ArialMT-52" transform="translate(533.496094 0)"/>
      <use xlink:href="#ArialMT-65" transform="translate(605.712891 0)"/>
      <use xlink:href="#ArialMT-73" transform="translate(661.328125 0)"/>
      <use xlink:href="#ArialMT-70" transform="translate(711.328125 0)"/>
      <use xlink:href="#ArialMT-69" transform="translate(766.943359 0)"/>
      <use xlink:href="#ArialMT-72" transform="translate(789.160156 0)"/>
      <use xlink:href="#ArialMT-61" transform="translate(822.460938 0)"/>
      <use xlink:href="#ArialMT-74" transform="translate(878.076172 0)"/>
      <use xlink:href="#ArialMT-69" transform="translate(905.859375 0)"/>
      <use xlink:href="#ArialMT-6f" transform="translate(928.076172 0)"/>
      <use xlink:href="#ArialMT-6e" transform="translate(983.691406 0)"/>
      <use xlink:href="#ArialMT-20" transform="translate(1039.306641 0)"/>
      <use xlink:href="#ArialMT-52" transform="translate(1067.089844 0)"/>
      <use xlink:href="#ArialMT-61" transform="translate(1139.306641 0)"/>
      <use xlink:href="#ArialMT-74" transform="translate(1194.921875 0)"/>
      <use xlink:href="#ArialMT-65" transform="translate(1222.705078 0)"/>
     </g>
    </g>
   </g>
   <g id="QuadMesh_1">
    <path d="M 353.472087 268.716797 
L 366.351087 268.716797 
L 366.351087 242.958797 
L 353.472087 242.958797 
L 353.472087 268.716797 
" clip-path="url(#p4c684dfe9e)" style="fill: #471365"/>
    <path d="M 353.472087 242.958797 
L 366.351087 242.958797 
L 366.351087 217.200797 
L 353.472087 217.200797 
L 353.472087 242.958797 
" clip-path="url(#p4c684dfe9e)" style="fill: #463480"/>
    <path d="M 353.472087 217.200797 
L 366.351087 217.200797 
L 366.351087 191.442797 
L 353.472087 191.442797 
L 353.472087 217.200797 
" clip-path="url(#p4c684dfe9e)" style="fill: #3b528b"/>
    <path d="M 353.472087 191.442797 
L 366.351087 191.442797 
L 366.351087 165.684797 
L 353.472087 165.684797 
L 353.472087 191.442797 
" clip-path="url(#p4c684dfe9e)" style="fill: #2f6c8e"/>
    <path d="M 353.472087 165.684797 
L 366.351087 165.684797 
L 366.351087 139.926797 
L 353.472087 139.926797 
L 353.472087 165.684797 
" clip-path="url(#p4c684dfe9e)" style="fill: #25848e"/>
    <path d="M 353.472087 139.926797 
L 366.351087 139.926797 
L 366.351087 114.168797 
L 353.472087 114.168797 
L 353.472087 139.926797 
" clip-path="url(#p4c684dfe9e)" style="fill: #1e9c89"/>
    <path d="M 353.472087 114.168797 
L 366.351087 114.168797 
L 366.351087 88.410797 
L 353.472087 88.410797 
L 353.472087 114.168797 
" clip-path="url(#p4c684dfe9e)" style="fill: #2fb47c"/>
    <path d="M 353.472087 88.410797 
L 366.351087 88.410797 
L 366.351087 62.652797 
L 353.472087 62.652797 
L 353.472087 88.410797 
" clip-path="url(#p4c684dfe9e)" style="fill: #5ec962"/>
    <path d="M 353.472087 62.652797 
L 366.351087 62.652797 
L 366.351087 36.894797 
L 353.472087 36.894797 
L 353.472087 62.652797 
" clip-path="url(#p4c684dfe9e)" style="fill: #9bd93c"/>
    <path d="M 353.472087 36.894797 
L 366.351087 36.894797 
L 366.351087 11.136797 
L 353.472087 11.136797 
L 353.472087 36.894797 
" clip-path="url(#p4c684dfe9e)" style="fill: #dfe318"/>
   </g>
   <g id="LineCollection_1"/>
   <g id="patch_8">
    <path d="M 353.472087 268.716797 
L 359.911587 268.716797 
L 366.351087 268.716797 
L 366.351087 11.136797 
L 359.911587 11.136797 
L 353.472087 11.136797 
L 353.472087 268.716797 
z
" style="fill: none; stroke: #cccccc; stroke-width: 1.25; stroke-linejoin: miter; stroke-linecap: square"/>
   </g>
  </g>
 </g>
 <defs>
  <clipPath id="pf5a94989e2">
   <rect x="49.31" y="11.136797" width="286.2702" height="257.58"/>
  </clipPath>
  <clipPath id="p4c684dfe9e">
   <rect x="353.472087" y="11.136797" width="12.879" height="257.58"/>
  </clipPath>
 </defs>
</svg>
